<svg width="2135" height="2136" xmlns="http://www.w3.org/2000/svg" xmlns:xlink="http://www.w3.org/1999/xlink" xml:space="preserve" overflow="hidden"><defs><clipPath id="clip0"><rect x="170" y="1018" width="2135" height="2136"/></clipPath></defs><g clip-path="url(#clip0)" transform="translate(-170 -1018)"><path d="M525.938 1372.99 525.938 2798.41" stroke="#000000" stroke-width="2.29167" stroke-linejoin="round" stroke-miterlimit="10" stroke-dasharray="2.29167 6.875" fill="none" fill-rule="evenodd"/><path d="M881.719 1372.99 881.719 2798.41" stroke="#000000" stroke-width="2.29167" stroke-linejoin="round" stroke-miterlimit="10" stroke-dasharray="2.29167 6.875" fill="none" fill-rule="evenodd"/><path d="M1237.5 1372.99 1237.5 1728.78" stroke="#000000" stroke-width="2.29167" stroke-linejoin="round" stroke-miterlimit="10" stroke-dasharray="2.29167 6.875" fill="none" fill-rule="evenodd"/><path d="M1237.5 1728.78 1237.5 2442.63" stroke="#FF2525" stroke-width="6.875" stroke-linejoin="round" stroke-miterlimit="10" fill="none" fill-rule="evenodd"/><path d="M1237.5 2442.63 1237.5 2798.41" stroke="#000000" stroke-width="2.29167" stroke-linejoin="round" stroke-miterlimit="10" stroke-dasharray="2.29167 6.875" fill="none" fill-rule="evenodd"/><path d="M1593.28 1372.99 1593.28 2085.7" stroke="#000000" stroke-width="2.29167" stroke-linejoin="round" stroke-miterlimit="10" stroke-dasharray="2.29167 6.875" fill="none" fill-rule="evenodd"/><path d="M1593.28 2085.7 1593.28 2441.48" stroke="#28385E" stroke-width="2.29167" stroke-linejoin="round" stroke-miterlimit="10" stroke-dasharray="2.29167 6.875" fill="none" fill-rule="evenodd"/><path d="M1593.28 2441.48 1593.28 2798.41" stroke="#000000" stroke-width="2.29167" stroke-linejoin="round" stroke-miterlimit="10" stroke-dasharray="2.29167 6.875" fill="none" fill-rule="evenodd"/><path d="M1949.06 1372.99 1949.06 2798.41" stroke="#000000" stroke-width="2.29167" stroke-linejoin="round" stroke-miterlimit="10" stroke-dasharray="2.29167 6.875" fill="none" fill-rule="evenodd"/><path d="M524.792 1374.14 1950.21 1374.14" stroke="#000000" stroke-width="2.29167" stroke-linejoin="round" stroke-miterlimit="10" stroke-dasharray="2.29167 6.875" fill="none" fill-rule="evenodd"/><path d="M524.792 1729.92 881.719 1729.92" stroke="#000000" stroke-width="2.29167" stroke-linejoin="round" stroke-miterlimit="10" stroke-dasharray="2.29167 6.875" fill="none" fill-rule="evenodd"/><path d="M881.719 1729.92 1237.5 1729.92" stroke="#28385E" stroke-width="2.29167" stroke-linejoin="round" stroke-miterlimit="10" stroke-dasharray="2.29167 6.875" fill="none" fill-rule="evenodd"/><path d="M1237.5 1729.92 1950.21 1729.92" stroke="#000000" stroke-width="2.29167" stroke-linejoin="round" stroke-miterlimit="10" stroke-dasharray="2.29167 6.875" fill="none" fill-rule="evenodd"/><path d="M524.792 2085.7 880.573 2085.7" stroke="#000000" stroke-width="2.29167" stroke-linejoin="round" stroke-miterlimit="10" stroke-dasharray="2.29167 6.875" fill="none" fill-rule="evenodd"/><path d="M880.573 2085.7 1594.43 2085.7" stroke="#FF2525" stroke-width="6.875" stroke-linejoin="round" stroke-miterlimit="10" fill="none" fill-rule="evenodd"/><path d="M1594.43 2085.7 1950.21 2085.7" stroke="#000000" stroke-width="2.29167" stroke-linejoin="round" stroke-miterlimit="10" stroke-dasharray="2.29167 6.875" fill="none" fill-rule="evenodd"/><path d="M524.792 2441.48 1950.21 2441.48" stroke="#000000" stroke-width="2.29167" stroke-linejoin="round" stroke-miterlimit="10" stroke-dasharray="2.29167 6.875" fill="none" fill-rule="evenodd"/><path d="M524.792 2797.27 1950.21 2797.27" stroke="#000000" stroke-width="2.29167" stroke-linejoin="round" stroke-miterlimit="10" stroke-dasharray="2.29167 6.875" fill="none" fill-rule="evenodd"/><path d="M672.315 1878.9 1151.99 2016.09 1151.36 2018.29 671.685 1881.1ZM1151.05 2002.71 1173.71 2023.49 1143.49 2029.15Z" fill="#28385E"/><rect x="344.5" y="1843.5" width="328" height="211" stroke="#28385E" stroke-width="3.4375" stroke-linejoin="round" stroke-miterlimit="10" fill="none"/><text fill="#333333" font-family="Yu Gothic,Yu Gothic_MSFontService,sans-serif" font-weight="400" font-size="73" transform="matrix(1 0 0 1 398.013 1927)">格子点</text><path d="M442.81 1985.53C441.598 1985.53 440.404 1985.94 439.227 1986.76 438.051 1987.58 436.762 1988.89 435.36 1990.7 433.958 1992.5 432.865 1994.28 432.081 1996.04 431.296 1997.8 430.679 1999.82 430.227 2002.1L429.942 2003.6C429.704 2004.86 429.556 2005.82 429.496 2006.49 429.437 2007.15 429.407 2007.8 429.407 2008.45 429.407 2010.3 429.805 2011.65 430.601 2012.49 431.397 2013.34 432.77 2013.76 434.718 2013.76 435.93 2013.76 437.047 2013.52 438.069 2013.04 439.091 2012.57 440.059 2011.88 440.974 2010.98 441.889 2010.07 442.714 2008.98 443.451 2007.7 444.188 2006.41 444.847 2004.92 445.429 2003.22 446.012 2001.53 446.451 1999.78 446.748 1997.98 447.045 1996.19 447.194 1994.51 447.194 1992.94 447.194 1990.45 446.843 1988.59 446.142 1987.36 445.441 1986.14 444.33 1985.53 442.81 1985.53ZM427.803 1981.32C429.276 1981.32 430.447 1981.81 431.314 1982.78 432.182 1983.76 432.615 1985.05 432.615 1986.67 432.615 1988 432.342 1989.4 431.795 1990.87L432.223 1991.02C436.619 1984.58 440.992 1981.36 445.34 1981.36 447.93 1981.36 449.944 1982.34 451.382 1984.31 452.82 1986.29 453.539 1989.07 453.539 1992.66 453.539 1996.58 452.748 2000.43 451.168 2004.22 449.588 2008.01 447.396 2011.02 444.592 2013.24 441.788 2015.46 438.651 2016.57 435.182 2016.57 432.021 2016.57 429.395 2015.88 427.304 2014.51L425.665 2022.31C425.308 2024 425.13 2025.39 425.13 2026.48 425.13 2027.53 425.397 2028.27 425.932 2028.71 426.467 2029.15 427.506 2029.44 429.051 2029.58L428.766 2031.33 417.751 2031.33 426.342 1993.51C426.841 1991.32 427.09 1989.53 427.09 1988.13 427.09 1987.18 426.936 1986.49 426.627 1986.06 426.318 1985.63 425.831 1985.42 425.165 1985.42 424.429 1985.42 423.651 1985.72 422.831 1986.33 422.011 1986.93 420.888 1988.03 419.462 1989.63L417.431 1987.63C419.569 1985.4 421.381 1983.79 422.866 1982.8 424.352 1981.81 425.997 1981.32 427.803 1981.32Z" fill="#333333" fill-rule="evenodd"/><text fill="#000000" fill-opacity="0" font-family="Arial,Arial_MSFontService,sans-serif" font-size="50.0093" x="417.431" y="2025.08">𝑝</text><path d="M486.127 1964.5 487.089 1967.24C481.529 1969.07 477.412 1972.64 474.739 1977.95 472.065 1983.26 470.729 1989.93 470.729 1997.97 470.729 2006.28 472.065 2013.14 474.739 2018.53 477.412 2023.93 481.493 2027.54 486.982 2029.37L486.127 2032.11C479.164 2030.28 473.83 2026.35 470.123 2020.3 466.416 2014.25 464.562 2006.93 464.562 1998.32 464.562 1989.74 466.421 1982.42 470.14 1976.35 473.859 1970.28 479.188 1966.33 486.127 1964.5Z" fill="#333333" fill-rule="evenodd"/><text fill="#000000" fill-opacity="0" font-family="Arial,Arial_MSFontService,sans-serif" font-size="67.6177" x="464.562" y="2023.66">(</text><path d="M503.303 1981.61 505.406 1981.61 500.273 2004.49C499.75 2006.82 499.489 2008.58 499.489 2009.76 499.489 2010.72 499.644 2011.4 499.952 2011.83 500.261 2012.26 500.749 2012.47 501.414 2012.47 502.127 2012.47 502.887 2012.18 503.695 2011.6 504.503 2011.02 505.644 2009.91 507.117 2008.27L509.149 2010.26C506.82 2012.71 504.931 2014.37 503.481 2015.25 502.032 2016.13 500.404 2016.57 498.598 2016.57 497.053 2016.57 495.818 2016.01 494.891 2014.88 493.964 2013.75 493.501 2012.31 493.501 2010.55 493.501 2008.74 493.833 2006.44 494.499 2003.63L497.172 1991.98C497.719 1989.6 497.992 1987.82 497.992 1986.63 497.992 1985.56 497.737 1984.84 497.226 1984.46 496.715 1984.08 495.711 1983.86 494.214 1983.82L494.606 1981.93ZM502.341 1967.95 508.65 1967.95 507.01 1974.87 500.701 1974.87Z" fill="#333333" fill-rule="evenodd"/><text fill="#000000" fill-opacity="0" font-family="Arial,Arial_MSFontService,sans-serif" font-size="48.6191" x="493.501" y="2010.5">𝑖</text><path d="M519.114 2007.73 525.352 2007.73C525.685 2009.4 525.851 2011.04 525.851 2012.65 525.851 2014.32 525.566 2015.84 524.995 2017.21 524.425 2018.59 523.516 2019.97 522.269 2021.33 521.021 2022.7 519.304 2024.2 517.118 2025.84L515.193 2023.67C516.405 2022.53 517.284 2021.5 517.831 2020.58 518.377 2019.67 518.769 2018.63 519.007 2017.46 519.245 2016.3 519.364 2014.84 519.364 2013.08 519.364 2011.27 519.28 2009.49 519.114 2007.73Z" fill="#333333" fill-rule="evenodd"/><text fill="#000000" fill-opacity="0" font-family="Arial,Arial_MSFontService,sans-serif" font-size="18.1074" x="515.193" y="2023.58">,</text><path d="M559.841 1981.61 561.872 1981.61 554.458 2016.61C553.698 2020.22 552.664 2023.13 551.357 2025.32 550.05 2027.52 548.351 2029.17 546.26 2030.28 544.169 2031.38 541.674 2031.94 538.775 2031.94 537.587 2031.94 536.577 2031.82 535.745 2031.58L536.565 2028.44C537.064 2028.63 537.967 2028.73 539.274 2028.73 540.414 2028.73 541.383 2028.56 542.179 2028.21 542.975 2027.87 543.717 2027.3 544.407 2026.5 545.096 2025.7 545.731 2024.59 546.314 2023.17 546.896 2021.74 547.436 2019.9 547.935 2017.64L553.71 1991.98C554.256 1989.55 554.53 1987.77 554.53 1986.63 554.53 1985.56 554.274 1984.84 553.763 1984.46 553.252 1984.08 552.248 1983.86 550.751 1983.82L551.143 1981.93ZM558.878 1967.95 565.187 1967.95 563.548 1974.87 557.239 1974.87Z" fill="#333333" fill-rule="evenodd"/><text fill="#000000" fill-opacity="0" font-family="Arial,Arial_MSFontService,sans-serif" font-size="63.9819" x="535.745" y="2023.94">𝑗</text><path d="M571.38 1964.5C578.318 1966.33 583.647 1970.28 587.366 1976.35 591.085 1982.42 592.945 1989.74 592.945 1998.32 592.945 2006.93 591.091 2014.25 587.384 2020.3 583.677 2026.35 578.342 2030.28 571.38 2032.11L570.524 2029.37C576.013 2027.54 580.095 2023.93 582.768 2018.53 585.441 2013.14 586.778 2006.28 586.778 1997.97 586.778 1989.93 585.447 1983.26 582.786 1977.95 580.124 1972.64 576.001 1969.07 570.417 1967.24Z" fill="#333333" fill-rule="evenodd"/><text fill="#000000" fill-opacity="0" font-family="Arial,Arial_MSFontService,sans-serif" font-size="67.6177" x="570.417" y="2023.66">)</text><path d="M0.466071-1.04676 557.05 246.772 556.118 248.866-0.466071 1.04676ZM557.989 233.393 577.518 257.14 546.803 258.515Z" fill="#28385E" transform="matrix(-1 0 0 1 1926.52 1828)"/><rect x="1926.5" y="1791.5" width="294" height="211" stroke="#28385E" stroke-width="3.4375" stroke-linejoin="round" stroke-miterlimit="10" fill="none"/><text fill="#333333" font-family="Yu Gothic,Yu Gothic_MSFontService,sans-serif" font-weight="400" font-size="73" transform="matrix(1 0 0 1 1999.82 1875)">横辺</text><path d="M2008.43 1913.28 2010.49 1913.28 2004.36 1937.98 2004.79 1938.12C2007.05 1935.13 2009.18 1932.96 2011.19 1931.62 2013.2 1930.27 2015.22 1929.6 2017.27 1929.6 2019.48 1929.6 2021.17 1930.24 2022.36 1931.51 2023.55 1932.78 2024.14 1934.55 2024.14 1936.8 2024.14 1938.3 2023.8 1940.43 2023.11 1943.18L2020.79 1952.52C2020.15 1955.11 2019.83 1956.94 2019.83 1958.01 2019.83 1958.96 2019.99 1959.65 2020.3 1960.08 2020.6 1960.51 2021.09 1960.72 2021.76 1960.72 2022.47 1960.72 2023.23 1960.43 2024.04 1959.85 2024.85 1959.26 2025.99 1958.15 2027.46 1956.51L2029.49 1958.51C2027.21 1960.91 2025.34 1962.56 2023.88 1963.46 2022.42 1964.37 2020.77 1964.82 2018.94 1964.82 2017.4 1964.82 2016.17 1964.27 2015.25 1963.18 2014.34 1962.09 2013.88 1960.67 2013.88 1958.94 2013.88 1957.39 2014.27 1955.12 2015.06 1952.13L2016.59 1945.96C2017.13 1943.75 2017.5 1942.1 2017.69 1940.99 2017.88 1939.89 2017.98 1939.02 2017.98 1938.41 2017.98 1936.72 2017.7 1935.53 2017.16 1934.82 2016.61 1934.12 2015.72 1933.77 2014.49 1933.77 2013.51 1933.77 2012.43 1934.18 2011.24 1934.98 2010.05 1935.79 2008.81 1937.02 2007.5 1938.67 2006.19 1940.33 2005.15 1941.91 2004.38 1943.41 2003.61 1944.92 2003 1946.72 2002.54 1948.81L1999.3 1964.25 1993.13 1964.25 2002.29 1923.51C2002.86 1920.96 2003.15 1919.21 2003.15 1918.23 2003.15 1917.23 2002.85 1916.53 2002.24 1916.13 2001.64 1915.72 2000.55 1915.5 1998.98 1915.45L1999.41 1913.6Z" fill="#333333" fill-rule="evenodd"/><text fill="#000000" fill-opacity="0" font-family="Arial,Arial_MSFontService,sans-serif" font-size="51.542" x="1993.13" y="1958.38">ℎ</text><path d="M2059.77 1912.74 2060.74 1915.49C2055.18 1917.32 2051.06 1920.89 2048.38 1926.2 2045.71 1931.51 2044.37 1938.18 2044.37 1946.21 2044.37 1954.53 2045.71 1961.39 2048.38 1966.78 2051.06 1972.17 2055.14 1975.79 2060.63 1977.62L2059.77 1980.36C2052.81 1978.53 2047.48 1974.59 2043.77 1968.54 2040.06 1962.5 2038.21 1955.17 2038.21 1946.57 2038.21 1937.99 2040.07 1930.67 2043.79 1924.59 2047.51 1918.52 2052.83 1914.57 2059.77 1912.74Z" fill="#333333" fill-rule="evenodd"/><text fill="#000000" fill-opacity="0" font-family="Arial,Arial_MSFontService,sans-serif" font-size="67.6177" x="2038.21" y="1971.91">(</text><path d="M2076.95 1929.85 2079.05 1929.85 2073.92 1952.74C2073.4 1955.06 2073.14 1956.82 2073.14 1958.01 2073.14 1958.96 2073.29 1959.65 2073.6 1960.08 2073.91 1960.51 2074.39 1960.72 2075.06 1960.72 2075.77 1960.72 2076.53 1960.43 2077.34 1959.85 2078.15 1959.26 2079.29 1958.15 2080.76 1956.51L2082.79 1958.51C2080.47 1960.96 2078.58 1962.62 2077.13 1963.5 2075.68 1964.38 2074.05 1964.82 2072.24 1964.82 2070.7 1964.82 2069.46 1964.25 2068.54 1963.13 2067.61 1962 2067.15 1960.55 2067.15 1958.8 2067.15 1956.99 2067.48 1954.68 2068.15 1951.88L2070.82 1940.22C2071.36 1937.85 2071.64 1936.07 2071.64 1934.88 2071.64 1933.81 2071.38 1933.08 2070.87 1932.7 2070.36 1932.32 2069.36 1932.11 2067.86 1932.06L2068.25 1930.17ZM2075.99 1916.2 2082.3 1916.2 2080.66 1923.12 2074.35 1923.12Z" fill="#333333" fill-rule="evenodd"/><text fill="#000000" fill-opacity="0" font-family="Arial,Arial_MSFontService,sans-serif" font-size="48.6191" x="2067.15" y="1958.74">𝑖</text><path d="M2092.76 1955.98 2099 1955.98C2099.33 1957.64 2099.5 1959.28 2099.5 1960.9 2099.5 1962.56 2099.21 1964.08 2098.64 1965.46 2098.07 1966.84 2097.16 1968.21 2095.91 1969.58 2094.67 1970.94 2092.95 1972.45 2090.76 1974.09L2088.84 1971.91C2090.05 1970.77 2090.93 1969.74 2091.48 1968.83 2092.02 1967.91 2092.42 1966.87 2092.65 1965.71 2092.89 1964.55 2093.01 1963.08 2093.01 1961.33 2093.01 1959.52 2092.93 1957.74 2092.76 1955.98Z" fill="#333333" fill-rule="evenodd"/><text fill="#000000" fill-opacity="0" font-family="Arial,Arial_MSFontService,sans-serif" font-size="18.1074" x="2088.84" y="1971.82">,</text><path d="M2133.49 1929.85 2135.52 1929.85 2128.1 1964.85C2127.34 1968.47 2126.31 1971.37 2125 1973.57 2123.7 1975.77 2122 1977.42 2119.91 1978.52 2117.82 1979.63 2115.32 1980.18 2112.42 1980.18 2111.23 1980.18 2110.22 1980.06 2109.39 1979.83L2110.21 1976.69C2110.71 1976.88 2111.61 1976.97 2112.92 1976.97 2114.06 1976.97 2115.03 1976.8 2115.82 1976.46 2116.62 1976.11 2117.36 1975.54 2118.05 1974.75 2118.74 1973.95 2119.38 1972.84 2119.96 1971.41 2120.54 1969.99 2121.08 1968.15 2121.58 1965.89L2127.36 1940.22C2127.9 1937.8 2128.18 1936.02 2128.18 1934.88 2128.18 1933.81 2127.92 1933.08 2127.41 1932.7 2126.9 1932.32 2125.89 1932.11 2124.4 1932.06L2124.79 1930.17ZM2132.52 1916.2 2138.83 1916.2 2137.19 1923.12 2130.88 1923.12Z" fill="#333333" fill-rule="evenodd"/><text fill="#000000" fill-opacity="0" font-family="Arial,Arial_MSFontService,sans-serif" font-size="63.9819" x="2109.39" y="1972.18">𝑗</text><path d="M2145.03 1912.74C2151.96 1914.57 2157.29 1918.52 2161.01 1924.59 2164.73 1930.67 2166.59 1937.99 2166.59 1946.57 2166.59 1955.17 2164.74 1962.5 2161.03 1968.54 2157.32 1974.59 2151.99 1978.53 2145.03 1980.36L2144.17 1977.62C2149.66 1975.79 2153.74 1972.17 2156.41 1966.78 2159.09 1961.39 2160.42 1954.53 2160.42 1946.21 2160.42 1938.18 2159.09 1931.51 2156.43 1926.2 2153.77 1920.89 2149.65 1917.32 2144.06 1915.49Z" fill="#333333" fill-rule="evenodd"/><text fill="#000000" fill-opacity="0" font-family="Arial,Arial_MSFontService,sans-serif" font-size="67.6177" x="2144.06" y="1971.91">)</text><path d="M0.67787-0.923811 420.909 307.432 419.553 309.279-0.67787 0.923811ZM424.67 294.558 438.707 321.913 408.401 316.73Z" fill="#28385E" transform="matrix(-1 0 0 1 1678.71 1591)"/><rect x="1474.5" y="1380.5" width="410" height="211" stroke="#28385E" stroke-width="3.4375" stroke-linejoin="round" stroke-miterlimit="10" fill="none"/><text fill="#333333" font-family="Yu Gothic,Yu Gothic_MSFontService,sans-serif" font-weight="400" font-size="73" transform="matrix(1 0 0 1 1605.82 1465)">縦辺</text><path d="M1565.33 1518.85C1567.04 1518.85 1568.27 1519.29 1569.03 1520.18 1569.79 1521.07 1570.17 1522.27 1570.17 1523.76 1570.17 1524.91 1569.97 1526.21 1569.57 1527.69 1569.16 1529.16 1568.59 1530.72 1567.86 1532.35 1567.12 1533.99 1566.24 1535.68 1565.22 1537.4 1564.2 1539.12 1563.07 1540.8 1561.83 1542.42 1560.6 1544.05 1559.28 1545.58 1557.88 1547.02 1556.47 1548.46 1555.02 1549.71 1553.51 1550.78 1552 1551.85 1550.47 1552.7 1548.91 1553.33 1547.35 1553.96 1545.8 1554.28 1544.26 1554.28 1543.57 1554.28 1542.99 1554.1 1542.53 1553.76 1542.07 1553.41 1541.69 1552.93 1541.41 1552.3 1541.12 1551.67 1540.92 1550.93 1540.8 1550.07 1540.68 1549.21 1540.62 1548.28 1540.62 1547.25 1540.62 1545.9 1540.71 1544.45 1540.87 1542.91 1541.04 1541.36 1541.25 1539.8 1541.52 1538.24L1543.01 1528.36C1543.11 1527.79 1543.18 1527.25 1543.24 1526.74 1543.3 1526.23 1543.33 1525.86 1543.33 1525.62 1543.33 1524.88 1543.21 1524.28 1542.98 1523.8 1542.74 1523.32 1542.33 1523.09 1541.76 1523.09 1541.31 1523.09 1540.83 1523.22 1540.3 1523.5 1539.78 1523.77 1539.25 1524.12 1538.72 1524.55 1538.18 1524.98 1537.67 1525.43 1537.17 1525.92 1536.67 1526.41 1536.2 1526.87 1535.78 1527.29L1534.07 1525.3C1534.8 1524.54 1535.59 1523.78 1536.42 1523.03 1537.25 1522.29 1538.13 1521.61 1539.06 1521 1539.98 1520.4 1540.96 1519.91 1541.98 1519.54 1543 1519.17 1544.05 1518.99 1545.12 1518.99 1546.02 1518.99 1546.75 1519.14 1547.33 1519.43 1547.9 1519.73 1548.34 1520.12 1548.66 1520.61 1548.98 1521.1 1549.2 1521.63 1549.32 1522.21 1549.44 1522.8 1549.5 1523.37 1549.5 1523.94 1549.5 1524.28 1549.49 1524.6 1549.46 1524.91 1549.44 1525.21 1549.4 1525.5 1549.36 1525.76L1547.36 1538.66C1547.15 1540.02 1546.97 1541.34 1546.83 1542.64 1546.68 1543.93 1546.61 1545.08 1546.61 1546.08 1546.61 1547.08 1546.67 1547.88 1546.79 1548.5 1546.91 1549.12 1547.14 1549.43 1547.47 1549.43 1548.25 1549.43 1549.24 1549.11 1550.43 1548.48 1551.61 1547.85 1552.86 1546.99 1554.17 1545.88 1555.48 1544.78 1556.78 1543.47 1558.09 1541.96 1559.4 1540.45 1560.57 1538.82 1561.62 1537.06 1562.66 1535.3 1563.51 1533.45 1564.17 1531.5 1564.82 1529.55 1565.15 1527.59 1565.15 1525.62 1565.15 1524.76 1564.96 1524.1 1564.59 1523.64 1564.23 1523.18 1563.65 1522.94 1562.87 1522.94 1561.87 1522.94 1560.95 1523.33 1560.1 1524.1 1559.26 1524.88 1558.39 1525.89 1557.48 1527.15L1555.45 1525.33C1556.02 1524.48 1556.69 1523.66 1557.47 1522.87 1558.24 1522.09 1559.06 1521.4 1559.93 1520.81 1560.79 1520.21 1561.69 1519.74 1562.62 1519.38 1563.54 1519.02 1564.45 1518.85 1565.33 1518.85Z" fill="#333333" fill-rule="evenodd"/><text fill="#000000" fill-opacity="0" font-family="Arial,Arial_MSFontService,sans-serif" font-size="35.4307" x="1534.07" y="1549.85">𝑣</text><path d="M1601.81 1502.16 1602.77 1504.91C1597.21 1506.74 1593.09 1510.31 1590.42 1515.62 1587.75 1520.93 1586.41 1527.6 1586.41 1535.63 1586.41 1543.95 1587.75 1550.81 1590.42 1556.2 1593.09 1561.6 1597.18 1565.21 1602.66 1567.04L1601.81 1569.78C1594.85 1567.95 1589.51 1564.01 1585.81 1557.97 1582.1 1551.92 1580.24 1544.59 1580.24 1535.99 1580.24 1527.41 1582.1 1520.09 1585.82 1514.02 1589.54 1507.94 1594.87 1503.99 1601.81 1502.16Z" fill="#333333" fill-rule="evenodd"/><text fill="#000000" fill-opacity="0" font-family="Arial,Arial_MSFontService,sans-serif" font-size="67.6177" x="1580.24" y="1561.33">(</text><path d="M1618.99 1519.27 1621.09 1519.27 1615.96 1542.16C1615.43 1544.49 1615.17 1546.24 1615.17 1547.43 1615.17 1548.38 1615.33 1549.07 1615.64 1549.5 1615.94 1549.93 1616.43 1550.14 1617.1 1550.14 1617.81 1550.14 1618.57 1549.85 1619.38 1549.27 1620.19 1548.69 1621.33 1547.58 1622.8 1545.94L1624.83 1547.93C1622.5 1550.38 1620.61 1552.04 1619.16 1552.92 1617.71 1553.8 1616.09 1554.24 1614.28 1554.24 1612.74 1554.24 1611.5 1553.68 1610.57 1552.55 1609.65 1551.42 1609.18 1549.98 1609.18 1548.22 1609.18 1546.41 1609.52 1544.11 1610.18 1541.3L1612.85 1529.65C1613.4 1527.27 1613.67 1525.49 1613.67 1524.3 1613.67 1523.23 1613.42 1522.51 1612.91 1522.12 1612.4 1521.74 1611.39 1521.53 1609.9 1521.48L1610.29 1519.59ZM1618.02 1505.62 1624.33 1505.62 1622.69 1512.54 1616.38 1512.54Z" fill="#333333" fill-rule="evenodd"/><text fill="#000000" fill-opacity="0" font-family="Arial,Arial_MSFontService,sans-serif" font-size="48.6191" x="1609.18" y="1548.16">𝑖</text><path d="M1651.62 1530.43 1695.54 1530.43 1695.54 1535.17 1651.62 1535.17Z" fill="#333333" fill-rule="evenodd"/><text fill="#000000" fill-opacity="0" font-family="Arial,Arial_MSFontService,sans-serif" font-size="4.74072" x="1651.62" y="1534.58">−</text><path d="M1740.63 1504.45 1742.59 1504.45C1742.45 1506.73 1742.38 1509.89 1742.38 1513.93L1742.38 1544.37C1742.38 1545.75 1742.46 1546.78 1742.61 1547.49 1742.77 1548.19 1743.04 1548.76 1743.43 1549.2 1743.82 1549.64 1744.39 1549.98 1745.13 1550.23 1745.86 1550.48 1746.79 1550.67 1747.91 1550.8 1749.02 1550.93 1750.5 1551.02 1752.33 1551.07L1752.33 1553.67 1725.98 1553.67 1725.98 1551.07C1728.62 1550.95 1730.51 1550.79 1731.63 1550.59 1732.76 1550.39 1733.62 1550.08 1734.22 1549.68 1734.81 1549.27 1735.25 1548.7 1735.52 1547.97 1735.79 1547.23 1735.93 1546.03 1735.93 1544.37L1735.93 1515.46C1735.93 1514.51 1735.76 1513.81 1735.43 1513.37 1735.1 1512.93 1734.61 1512.71 1733.97 1512.71 1733.21 1512.71 1732.13 1513.11 1730.72 1513.89 1729.32 1514.68 1727.59 1515.76 1725.52 1517.13L1723.95 1514.39Z" fill="#333333" fill-rule="evenodd"/><text fill="#000000" fill-opacity="0" font-family="Arial,Arial_MSFontService,sans-serif" font-size="49.2251" x="1723.95" y="1547.52">1</text><path d="M1763.06 1545.4 1769.3 1545.4C1769.63 1547.06 1769.8 1548.7 1769.8 1550.32 1769.8 1551.98 1769.51 1553.5 1768.94 1554.88 1768.37 1556.26 1767.46 1557.63 1766.22 1559 1764.97 1560.37 1763.25 1561.87 1761.07 1563.51L1759.14 1561.33C1760.35 1560.19 1761.23 1559.17 1761.78 1558.25 1762.32 1557.34 1762.72 1556.3 1762.95 1555.13 1763.19 1553.97 1763.31 1552.51 1763.31 1550.75 1763.31 1548.94 1763.23 1547.16 1763.06 1545.4Z" fill="#333333" fill-rule="evenodd"/><text fill="#000000" fill-opacity="0" font-family="Arial,Arial_MSFontService,sans-serif" font-size="18.1074" x="1759.14" y="1561.24">,</text><path d="M1803.79 1519.27 1805.82 1519.27 1798.41 1554.28C1797.65 1557.89 1796.61 1560.79 1795.3 1562.99 1794 1565.19 1792.3 1566.84 1790.21 1567.95 1788.12 1569.05 1785.62 1569.6 1782.72 1569.6 1781.53 1569.6 1780.52 1569.48 1779.69 1569.25L1780.51 1566.11C1781.01 1566.3 1781.91 1566.4 1783.22 1566.4 1784.36 1566.4 1785.33 1566.22 1786.13 1565.88 1786.92 1565.53 1787.66 1564.96 1788.35 1564.17 1789.04 1563.37 1789.68 1562.26 1790.26 1560.83 1790.84 1559.41 1791.38 1557.57 1791.88 1555.31L1797.66 1529.65C1798.2 1527.22 1798.48 1525.44 1798.48 1524.3 1798.48 1523.23 1798.22 1522.51 1797.71 1522.12 1797.2 1521.74 1796.2 1521.53 1794.7 1521.48L1795.09 1519.59ZM1802.83 1505.62 1809.13 1505.62 1807.49 1512.54 1801.19 1512.54Z" fill="#333333" fill-rule="evenodd"/><text fill="#000000" fill-opacity="0" font-family="Arial,Arial_MSFontService,sans-serif" font-size="63.9819" x="1779.69" y="1561.61">𝑗</text><path d="M1815.33 1502.16C1822.27 1503.99 1827.59 1507.94 1831.31 1514.02 1835.03 1520.09 1836.89 1527.41 1836.89 1535.99 1836.89 1544.59 1835.04 1551.92 1831.33 1557.97 1827.62 1564.01 1822.29 1567.95 1815.33 1569.78L1814.47 1567.04C1819.96 1565.21 1824.04 1561.6 1826.72 1556.2 1829.39 1550.81 1830.73 1543.95 1830.73 1535.63 1830.73 1527.6 1829.39 1520.93 1826.73 1515.62 1824.07 1510.31 1819.95 1506.74 1814.36 1504.91Z" fill="#333333" fill-rule="evenodd"/><text fill="#000000" fill-opacity="0" font-family="Arial,Arial_MSFontService,sans-serif" font-size="67.6177" x="1814.36" y="1561.33">)</text><path d="M1779.11 2484.22 1258.99 2285.26 1259.81 2283.12 1779.93 2482.08ZM1258.77 2298.67 1238 2276 1268.6 2272.98Z" fill="#28385E"/><rect x="1779.5" y="2377.5" width="294" height="211" stroke="#28385E" stroke-width="3.4375" stroke-linejoin="round" stroke-miterlimit="10" fill="none"/><text fill="#333333" font-family="Yu Gothic,Yu Gothic_MSFontService,sans-serif" font-weight="400" font-size="73" transform="matrix(1 0 0 1 1852.76 2462)">縦辺</text><path d="M1876.38 2516.05C1878.09 2516.05 1879.33 2516.5 1880.09 2517.39 1880.85 2518.28 1881.23 2519.48 1881.23 2520.97 1881.23 2522.11 1881.03 2523.42 1880.62 2524.89 1880.22 2526.37 1879.65 2527.92 1878.91 2529.56 1878.18 2531.2 1877.3 2532.88 1876.28 2534.61 1875.25 2536.33 1874.12 2538 1872.89 2539.63 1871.65 2541.26 1870.33 2542.79 1868.93 2544.23 1867.53 2545.67 1866.07 2546.92 1864.57 2547.99 1863.06 2549.06 1861.52 2549.91 1859.97 2550.54 1858.41 2551.17 1856.86 2551.48 1855.32 2551.48 1854.63 2551.48 1854.05 2551.31 1853.59 2550.97 1853.12 2550.62 1852.75 2550.14 1852.46 2549.51 1852.18 2548.88 1851.98 2548.13 1851.86 2547.28 1851.74 2546.42 1851.68 2545.48 1851.68 2544.46 1851.68 2543.11 1851.76 2541.66 1851.93 2540.11 1852.1 2538.57 1852.31 2537.01 1852.57 2535.44L1854.07 2525.57C1854.16 2525 1854.24 2524.46 1854.3 2523.95 1854.36 2523.44 1854.39 2523.06 1854.39 2522.83 1854.39 2522.09 1854.27 2521.48 1854.03 2521.01 1853.8 2520.53 1853.39 2520.3 1852.82 2520.3 1852.37 2520.3 1851.88 2520.43 1851.36 2520.71 1850.84 2520.98 1850.31 2521.33 1849.77 2521.76 1849.24 2522.18 1848.72 2522.64 1848.22 2523.13 1847.72 2523.62 1847.26 2524.07 1846.83 2524.5L1845.12 2522.51C1845.86 2521.74 1846.64 2520.99 1847.47 2520.24 1848.31 2519.49 1849.19 2518.82 1850.11 2518.21 1851.04 2517.6 1852.01 2517.12 1853.03 2516.75 1854.06 2516.38 1855.1 2516.2 1856.17 2516.2 1857.07 2516.2 1857.81 2516.34 1858.38 2516.64 1858.95 2516.94 1859.4 2517.33 1859.72 2517.82 1860.04 2518.31 1860.26 2518.84 1860.38 2519.42 1860.5 2520 1860.56 2520.58 1860.56 2521.15 1860.56 2521.48 1860.54 2521.8 1860.52 2522.11 1860.5 2522.42 1860.46 2522.71 1860.41 2522.97L1858.42 2535.87C1858.2 2537.23 1858.03 2538.55 1857.88 2539.85 1857.74 2541.14 1857.67 2542.29 1857.67 2543.29 1857.67 2544.28 1857.73 2545.09 1857.85 2545.71 1857.97 2546.33 1858.19 2546.64 1858.52 2546.64 1859.31 2546.64 1860.29 2546.32 1861.48 2545.69 1862.67 2545.06 1863.92 2544.2 1865.23 2543.09 1866.53 2541.99 1867.84 2540.68 1869.15 2539.17 1870.45 2537.66 1871.63 2536.03 1872.67 2534.27 1873.72 2532.51 1874.57 2530.66 1875.22 2528.71 1875.88 2526.76 1876.2 2524.8 1876.2 2522.83 1876.2 2521.97 1876.02 2521.31 1875.65 2520.85 1875.28 2520.38 1874.71 2520.15 1873.92 2520.15 1872.92 2520.15 1872 2520.54 1871.16 2521.31 1870.32 2522.08 1869.44 2523.1 1868.54 2524.36L1866.51 2522.54C1867.08 2521.69 1867.75 2520.87 1868.52 2520.08 1869.29 2519.3 1870.11 2518.61 1870.98 2518.01 1871.85 2517.42 1872.75 2516.94 1873.67 2516.59 1874.6 2516.23 1875.5 2516.05 1876.38 2516.05Z" fill="#333333" fill-rule="evenodd"/><text fill="#000000" fill-opacity="0" font-family="Arial,Arial_MSFontService,sans-serif" font-size="35.4307" x="1845.12" y="2547.06">𝑣</text><path d="M1912.87 2499.37 1913.83 2502.12C1908.27 2503.95 1904.15 2507.52 1901.48 2512.83 1898.8 2518.14 1897.47 2524.81 1897.47 2532.84 1897.47 2541.16 1898.8 2548.01 1901.48 2553.41 1904.15 2558.8 1908.23 2562.42 1913.72 2564.25L1912.87 2566.99C1905.9 2565.16 1900.57 2561.22 1896.86 2555.17 1893.15 2549.13 1891.3 2541.8 1891.3 2533.2 1891.3 2524.62 1893.16 2517.3 1896.88 2511.22 1900.6 2505.15 1905.93 2501.2 1912.87 2499.37Z" fill="#333333" fill-rule="evenodd"/><text fill="#000000" fill-opacity="0" font-family="Arial,Arial_MSFontService,sans-serif" font-size="67.6177" x="1891.3" y="2558.54">(</text><path d="M1930.04 2516.48 1932.15 2516.48 1927.01 2539.37C1926.49 2541.69 1926.23 2543.45 1926.23 2544.64 1926.23 2545.59 1926.38 2546.28 1926.69 2546.71 1927 2547.14 1927.49 2547.35 1928.15 2547.35 1928.87 2547.35 1929.63 2547.06 1930.43 2546.48 1931.24 2545.89 1932.38 2544.78 1933.86 2543.14L1935.89 2545.14C1933.56 2547.59 1931.67 2549.25 1930.22 2550.13 1928.77 2551.01 1927.14 2551.45 1925.34 2551.45 1923.79 2551.45 1922.56 2550.88 1921.63 2549.76 1920.7 2548.63 1920.24 2547.18 1920.24 2545.42 1920.24 2543.62 1920.57 2541.31 1921.24 2538.51L1923.91 2526.85C1924.46 2524.48 1924.73 2522.7 1924.73 2521.51 1924.73 2520.44 1924.48 2519.71 1923.96 2519.33 1923.45 2518.95 1922.45 2518.74 1920.95 2518.69L1921.34 2516.8ZM1929.08 2502.83 1935.39 2502.83 1933.75 2509.74 1927.44 2509.74Z" fill="#333333" fill-rule="evenodd"/><text fill="#000000" fill-opacity="0" font-family="Arial,Arial_MSFontService,sans-serif" font-size="48.6191" x="1920.24" y="2545.37">𝑖</text><path d="M1945.85 2542.61 1952.09 2542.61C1952.42 2544.27 1952.59 2545.91 1952.59 2547.53 1952.59 2549.19 1952.3 2550.71 1951.73 2552.09 1951.16 2553.47 1950.26 2554.84 1949.01 2556.21 1947.76 2557.57 1946.04 2559.08 1943.86 2560.72L1941.93 2558.54C1943.14 2557.4 1944.02 2556.37 1944.57 2555.46 1945.12 2554.54 1945.51 2553.5 1945.75 2552.34 1945.98 2551.18 1946.1 2549.71 1946.1 2547.96 1946.1 2546.15 1946.02 2544.37 1945.85 2542.61Z" fill="#333333" fill-rule="evenodd"/><text fill="#000000" fill-opacity="0" font-family="Arial,Arial_MSFontService,sans-serif" font-size="18.1074" x="1941.93" y="2558.45">,</text><path d="M1986.58 2516.48 1988.61 2516.48 1981.2 2551.48C1980.44 2555.1 1979.4 2558 1978.1 2560.2 1976.79 2562.4 1975.09 2564.05 1973 2565.15 1970.91 2566.26 1968.41 2566.81 1965.51 2566.81 1964.33 2566.81 1963.32 2566.69 1962.48 2566.46L1963.3 2563.32C1963.8 2563.51 1964.71 2563.6 1966.01 2563.6 1967.15 2563.6 1968.12 2563.43 1968.92 2563.09 1969.71 2562.74 1970.46 2562.17 1971.15 2561.38 1971.83 2560.58 1972.47 2559.47 1973.05 2558.04 1973.63 2556.62 1974.18 2554.78 1974.67 2552.52L1980.45 2526.85C1981 2524.43 1981.27 2522.65 1981.27 2521.51 1981.27 2520.44 1981.01 2519.71 1980.5 2519.33 1979.99 2518.95 1978.99 2518.74 1977.49 2518.69L1977.88 2516.8ZM1985.62 2502.83 1991.93 2502.83 1990.29 2509.74 1983.98 2509.74Z" fill="#333333" fill-rule="evenodd"/><text fill="#000000" fill-opacity="0" font-family="Arial,Arial_MSFontService,sans-serif" font-size="63.9819" x="1962.48" y="2558.81">𝑗</text><path d="M1998.12 2499.37C2005.06 2501.2 2010.39 2505.15 2014.1 2511.22 2017.82 2517.3 2019.68 2524.62 2019.68 2533.2 2019.68 2541.8 2017.83 2549.13 2014.12 2555.17 2010.42 2561.22 2005.08 2565.16 1998.12 2566.99L1997.26 2564.25C2002.75 2562.42 2006.83 2558.8 2009.51 2553.41 2012.18 2548.01 2013.52 2541.16 2013.52 2532.84 2013.52 2524.81 2012.19 2518.14 2009.52 2512.83 2006.86 2507.52 2002.74 2503.95 1997.16 2502.12Z" fill="#333333" fill-rule="evenodd"/><text fill="#000000" fill-opacity="0" font-family="Arial,Arial_MSFontService,sans-serif" font-size="67.6177" x="1997.16" y="2558.54">)</text><path d="M0.368317-1.08502 523.444 176.476 522.707 178.646-0.368317 1.08502ZM523.155 163.067 544.775 184.927 514.315 189.108Z" fill="#28385E" transform="matrix(1 0 0 -1 567 2281.93)"/><rect x="273.5" y="2281.5" width="461" height="211" stroke="#28385E" stroke-width="3.4375" stroke-linejoin="round" stroke-miterlimit="10" fill="none"/><text fill="#333333" font-family="Yu Gothic,Yu Gothic_MSFontService,sans-serif" font-weight="400" font-size="73" transform="matrix(1 0 0 1 421.934 2366)">横辺</text><path d="M358.097 2403.96 360.164 2403.96 354.033 2428.67 354.461 2428.81C356.718 2425.81 358.851 2423.65 360.859 2422.3 362.867 2420.96 364.893 2420.29 366.937 2420.29 369.147 2420.29 370.846 2420.92 372.034 2422.2 373.222 2423.47 373.816 2425.23 373.816 2427.49 373.816 2428.99 373.471 2431.11 372.782 2433.87L370.465 2443.21C369.824 2445.8 369.503 2447.63 369.503 2448.7 369.503 2449.65 369.657 2450.34 369.966 2450.77 370.275 2451.19 370.762 2451.41 371.428 2451.41 372.141 2451.41 372.901 2451.12 373.709 2450.53 374.517 2449.95 375.658 2448.84 377.131 2447.2L379.163 2449.2C376.881 2451.6 375.01 2453.25 373.549 2454.15 372.087 2455.05 370.442 2455.51 368.612 2455.51 367.067 2455.51 365.838 2454.96 364.923 2453.87 364.008 2452.77 363.55 2451.36 363.55 2449.62 363.55 2448.08 363.942 2445.81 364.727 2442.82L366.259 2436.65C366.806 2434.44 367.174 2432.78 367.364 2431.68 367.554 2430.57 367.649 2429.71 367.649 2429.09 367.649 2427.41 367.376 2426.21 366.83 2425.51 366.283 2424.81 365.392 2424.46 364.156 2424.46 363.182 2424.46 362.101 2424.86 360.913 2425.67 359.724 2426.48 358.477 2427.71 357.17 2429.36 355.863 2431.01 354.823 2432.59 354.051 2434.1 353.279 2435.61 352.667 2437.41 352.215 2439.5L348.972 2454.94 342.805 2454.94 351.966 2414.19C352.536 2411.65 352.821 2409.89 352.821 2408.92 352.821 2407.92 352.518 2407.22 351.912 2406.82 351.306 2406.41 350.219 2406.19 348.651 2406.14L349.079 2404.28Z" fill="#333333" fill-rule="evenodd"/><text fill="#000000" fill-opacity="0" font-family="Arial,Arial_MSFontService,sans-serif" font-size="51.542" x="342.805" y="2449.06">ℎ</text><path d="M409.444 2403.43 410.407 2406.17C404.846 2408 400.729 2411.57 398.056 2416.89 395.383 2422.2 394.046 2428.87 394.046 2436.9 394.046 2445.22 395.383 2452.07 398.056 2457.47 400.729 2462.86 404.811 2466.47 410.3 2468.3L409.444 2471.05C402.482 2469.22 397.147 2465.28 393.44 2459.23 389.733 2453.18 387.879 2445.86 387.879 2437.26 387.879 2428.68 389.739 2421.35 393.458 2415.28 397.177 2409.21 402.506 2405.26 409.444 2403.43Z" fill="#333333" fill-rule="evenodd"/><text fill="#000000" fill-opacity="0" font-family="Arial,Arial_MSFontService,sans-serif" font-size="67.6177" x="387.879" y="2462.59">(</text><path d="M426.62 2420.54 428.724 2420.54 423.591 2443.42C423.068 2445.75 422.807 2447.51 422.807 2448.7 422.807 2449.65 422.961 2450.34 423.27 2450.77 423.579 2451.19 424.066 2451.41 424.731 2451.41 425.444 2451.41 426.205 2451.12 427.013 2450.53 427.821 2449.95 428.961 2448.84 430.434 2447.2L432.466 2449.2C430.137 2451.64 428.248 2453.31 426.799 2454.19 425.349 2455.07 423.721 2455.51 421.915 2455.51 420.371 2455.51 419.135 2454.94 418.208 2453.81 417.282 2452.68 416.818 2451.24 416.818 2449.48 416.818 2447.68 417.151 2445.37 417.816 2442.57L420.49 2430.91C421.036 2428.53 421.309 2426.75 421.309 2425.56 421.309 2424.5 421.054 2423.77 420.543 2423.39 420.032 2423.01 419.028 2422.8 417.531 2422.75L417.923 2420.86ZM425.658 2406.89 431.967 2406.89 430.328 2413.8 424.018 2413.8Z" fill="#333333" fill-rule="evenodd"/><text fill="#000000" fill-opacity="0" font-family="Arial,Arial_MSFontService,sans-serif" font-size="48.6191" x="416.818" y="2449.43">𝑖</text><path d="M442.431 2446.67 448.669 2446.67C449.002 2448.33 449.168 2449.97 449.168 2451.58 449.168 2453.25 448.883 2454.77 448.313 2456.15 447.742 2457.53 446.834 2458.9 445.586 2460.26 444.338 2461.63 442.622 2463.13 440.435 2464.77L438.511 2462.6C439.722 2461.46 440.602 2460.43 441.148 2459.52 441.695 2458.6 442.087 2457.56 442.325 2456.4 442.562 2455.23 442.681 2453.77 442.681 2452.01 442.681 2450.21 442.598 2448.42 442.431 2446.67Z" fill="#333333" fill-rule="evenodd"/><text fill="#000000" fill-opacity="0" font-family="Arial,Arial_MSFontService,sans-serif" font-size="18.1074" x="438.511" y="2462.51">,</text><path d="M483.158 2420.54 485.19 2420.54 477.776 2455.54C477.015 2459.15 475.982 2462.06 474.675 2464.26 473.368 2466.45 471.669 2468.11 469.578 2469.21 467.486 2470.32 464.991 2470.87 462.092 2470.87 460.904 2470.87 459.894 2470.75 459.062 2470.51L459.882 2467.38C460.381 2467.57 461.284 2467.66 462.591 2467.66 463.732 2467.66 464.7 2467.49 465.496 2467.14 466.292 2466.8 467.035 2466.23 467.724 2465.43 468.413 2464.64 469.049 2463.53 469.631 2462.1 470.213 2460.67 470.754 2458.83 471.253 2456.58L477.027 2430.91C477.574 2428.49 477.847 2426.71 477.847 2425.56 477.847 2424.5 477.592 2423.77 477.081 2423.39 476.57 2423.01 475.566 2422.8 474.069 2422.75L474.461 2420.86ZM482.196 2406.89 488.505 2406.89 486.865 2413.8 480.556 2413.8Z" fill="#333333" fill-rule="evenodd"/><text fill="#000000" fill-opacity="0" font-family="Arial,Arial_MSFontService,sans-serif" font-size="63.9819" x="459.062" y="2462.87">𝑗</text><path d="M513.985 2431.7 557.899 2431.7 557.899 2436.44 513.985 2436.44Z" fill="#333333" fill-rule="evenodd"/><text fill="#000000" fill-opacity="0" font-family="Arial,Arial_MSFontService,sans-serif" font-size="4.74072" x="513.985" y="2435.84">−</text><path d="M602.994 2405.71 604.954 2405.71C604.812 2407.99 604.741 2411.15 604.741 2415.19L604.741 2445.63C604.741 2447.01 604.818 2448.05 604.972 2448.75 605.127 2449.45 605.4 2450.02 605.792 2450.46 606.184 2450.9 606.749 2451.25 607.485 2451.5 608.222 2451.75 609.149 2451.94 610.265 2452.07 611.382 2452.2 612.856 2452.29 614.685 2452.33L614.685 2454.94 588.344 2454.94 588.344 2452.33C590.982 2452.21 592.865 2452.05 593.994 2451.85 595.122 2451.65 595.984 2451.35 596.578 2450.94 597.172 2450.54 597.606 2449.97 597.879 2449.23 598.152 2448.5 598.289 2447.3 598.289 2445.63L598.289 2416.72C598.289 2415.77 598.123 2415.08 597.79 2414.64 597.457 2414.2 596.97 2413.98 596.328 2413.98 595.568 2413.98 594.487 2414.37 593.085 2415.16 591.683 2415.94 589.948 2417.02 587.881 2418.4L586.312 2415.66Z" fill="#333333" fill-rule="evenodd"/><text fill="#000000" fill-opacity="0" font-family="Arial,Arial_MSFontService,sans-serif" font-size="49.2251" x="586.312" y="2448.78">1</text><path d="M622.962 2403.43C629.9 2405.26 635.229 2409.21 638.948 2415.28 642.667 2421.35 644.526 2428.68 644.526 2437.26 644.526 2445.86 642.673 2453.18 638.966 2459.23 635.259 2465.28 629.924 2469.22 622.962 2471.05L622.106 2468.3C627.595 2466.47 631.677 2462.86 634.35 2457.47 637.023 2452.07 638.36 2445.22 638.36 2436.9 638.36 2428.87 637.029 2422.2 634.368 2416.89 631.706 2411.57 627.583 2408 621.999 2406.17Z" fill="#333333" fill-rule="evenodd"/><text fill="#000000" fill-opacity="0" font-family="Arial,Arial_MSFontService,sans-serif" font-size="67.6177" x="621.999" y="2462.59">)</text><path d="M1148 2087C1148 2037.29 1188.07 1997 1237.5 1997 1286.93 1997 1327 2037.29 1327 2087 1327 2136.71 1286.93 2177 1237.5 2177 1188.07 2177 1148 2136.71 1148 2087Z" fill="#E6EAF4" fill-rule="evenodd"/></g></svg>