<svg width="2135" height="2136" xmlns="http://www.w3.org/2000/svg" xmlns:xlink="http://www.w3.org/1999/xlink" xml:space="preserve" overflow="hidden"><defs><clipPath id="clip0"><rect x="170" y="1018" width="2135" height="2136"/></clipPath></defs><g clip-path="url(#clip0)" transform="translate(-170 -1018)"><path d="M525.938 1370.7 525.938 2085.7" stroke="#FF2525" stroke-width="6.875" stroke-linejoin="round" stroke-miterlimit="10" fill="none" fill-rule="evenodd"/><path d="M525.938 2085.7 525.938 2800.7" stroke="#28385E" stroke-width="6.875" stroke-linejoin="round" stroke-miterlimit="10" fill="none" fill-rule="evenodd"/><path d="M881.719 1370.7 881.719 1733.36" stroke="#FF2525" stroke-width="6.875" stroke-linejoin="round" stroke-miterlimit="10" fill="none" fill-rule="evenodd"/><path d="M881.719 1733.36 881.719 2082.27" stroke="#28385E" stroke-width="2.29167" stroke-linejoin="round" stroke-miterlimit="10" stroke-dasharray="2.29167 6.875" fill="none" fill-rule="evenodd"/><path d="M881.719 2082.27 881.719 2442.63" stroke="#FF2525" stroke-width="6.875" stroke-linejoin="round" stroke-miterlimit="10" fill="none" fill-rule="evenodd"/><path d="M881.719 2442.63 881.719 2800.7" stroke="#28385E" stroke-width="2.29167" stroke-linejoin="round" stroke-miterlimit="10" stroke-dasharray="2.29167 6.875" fill="none" fill-rule="evenodd"/><path d="M1237.5 1370.7 1237.5 2800.7" stroke="#28385E" stroke-width="2.29167" stroke-linejoin="round" stroke-miterlimit="10" stroke-dasharray="2.29167 6.875" fill="none" fill-rule="evenodd"/><path d="M1593.28 1370.7 1593.28 2440.34" stroke="#28385E" stroke-width="2.29167" stroke-linejoin="round" stroke-miterlimit="10" stroke-dasharray="2.29167 6.875" fill="none" fill-rule="evenodd"/><path d="M1593.28 2440.34 1593.28 2800.7" stroke="#FF2525" stroke-width="6.875" stroke-linejoin="round" stroke-miterlimit="10" fill="none" fill-rule="evenodd"/><path d="M1949.06 1370.7 1949.06 2085.7" stroke="#28385E" stroke-width="6.875" stroke-linejoin="round" stroke-miterlimit="10" fill="none" fill-rule="evenodd"/><path d="M1949.06 2085.7 1949.06 2800.7" stroke="#FF2525" stroke-width="6.875" stroke-linejoin="round" stroke-miterlimit="10" fill="none" fill-rule="evenodd"/><path d="M522.5 1374.14 1952.5 1374.14" stroke="#28385E" stroke-width="6.875" stroke-linejoin="round" stroke-miterlimit="10" fill="none" fill-rule="evenodd"/><path d="M522.5 1729.92 878.281 1729.92" stroke="#28385E" stroke-width="2.29167" stroke-linejoin="round" stroke-miterlimit="10" stroke-dasharray="2.29167 6.875" fill="none" fill-rule="evenodd"/><path d="M878.281 1729.92 1952.5 1729.92" stroke="#FF2525" stroke-width="6.875" stroke-linejoin="round" stroke-miterlimit="10" fill="none" fill-rule="evenodd"/><path d="M522.5 2085.7 885.156 2085.7" stroke="#FF2525" stroke-width="6.875" stroke-linejoin="round" stroke-miterlimit="10" fill="none" fill-rule="evenodd"/><path d="M885.156 2085.7 1236.35 2085.7" stroke="#28385E" stroke-width="2.29167" stroke-linejoin="round" stroke-miterlimit="10" stroke-dasharray="2.29167 6.875" fill="none" fill-rule="evenodd"/><path d="M1236.35 2085.7 1952.5 2085.7" stroke="#FF2525" stroke-width="6.875" stroke-linejoin="round" stroke-miterlimit="10" fill="none" fill-rule="evenodd"/><path d="M522.5 2441.48 1952.5 2441.48" stroke="#28385E" stroke-width="2.29167" stroke-linejoin="round" stroke-miterlimit="10" stroke-dasharray="2.29167 6.875" fill="none" fill-rule="evenodd"/><path d="M522.5 2797.27 1593.28 2797.27" stroke="#FF2525" stroke-width="6.875" stroke-linejoin="round" stroke-miterlimit="10" fill="none" fill-rule="evenodd"/><path d="M1593.28 2797.27 1952.5 2797.27" stroke="#28385E" stroke-width="6.875" stroke-linejoin="round" stroke-miterlimit="10" fill="none" fill-rule="evenodd"/><text fill="#28385E" font-family="Yu Gothic,Yu Gothic_MSFontService,sans-serif" font-weight="400" font-size="170" transform="matrix(1 0 0 1 656.562 1611)">2</text><text fill="#28385E" font-family="Yu Gothic,Yu Gothic_MSFontService,sans-serif" font-weight="400" font-size="170" transform="matrix(1 0 0 1 1012.34 1611)">2</text><text fill="#28385E" font-family="Yu Gothic,Yu Gothic_MSFontService,sans-serif" font-weight="400" font-size="170" transform="matrix(1 0 0 1 1368.13 1611)">1</text><text fill="#28385E" font-family="Yu Gothic,Yu Gothic_MSFontService,sans-serif" font-weight="400" font-size="170" transform="matrix(1 0 0 1 1723.91 1611)">1</text><text fill="#28385E" font-family="Yu Gothic,Yu Gothic_MSFontService,sans-serif" font-weight="400" font-size="170" transform="matrix(1 0 0 1 656.562 1967)">2</text><text fill="#28385E" font-family="Yu Gothic,Yu Gothic_MSFontService,sans-serif" font-weight="400" font-size="170" transform="matrix(1 0 0 1 1012.34 1967)">1</text><text fill="#28385E" font-family="Yu Gothic,Yu Gothic_MSFontService,sans-serif" font-weight="400" font-size="170" transform="matrix(1 0 0 1 1368.13 1967)">2</text><text fill="#28385E" font-family="Yu Gothic,Yu Gothic_MSFontService,sans-serif" font-weight="400" font-size="170" transform="matrix(1 0 0 1 1723.91 1967)">2</text><text fill="#28385E" font-family="Yu Gothic,Yu Gothic_MSFontService,sans-serif" font-weight="400" font-size="170" transform="matrix(1 0 0 1 656.562 2323)">2</text><text fill="#28385E" font-family="Yu Gothic,Yu Gothic_MSFontService,sans-serif" font-weight="400" font-size="170" transform="matrix(1 0 0 1 1012.34 2323)">1</text><text fill="#28385E" font-family="Yu Gothic,Yu Gothic_MSFontService,sans-serif" font-weight="400" font-size="170" transform="matrix(1 0 0 1 1368.13 2323)">1</text><text fill="#28385E" font-family="Yu Gothic,Yu Gothic_MSFontService,sans-serif" font-weight="400" font-size="170" transform="matrix(1 0 0 1 1723.91 2323)">2</text><text fill="#28385E" font-family="Yu Gothic,Yu Gothic_MSFontService,sans-serif" font-weight="400" font-size="170" transform="matrix(1 0 0 1 656.562 2679)">1</text><text fill="#28385E" font-family="Yu Gothic,Yu Gothic_MSFontService,sans-serif" font-weight="400" font-size="170" transform="matrix(1 0 0 1 1012.34 2679)">1</text><text fill="#28385E" font-family="Yu Gothic,Yu Gothic_MSFontService,sans-serif" font-weight="400" font-size="170" transform="matrix(1 0 0 1 1368.13 2679)">2</text><text fill="#28385E" font-family="Yu Gothic,Yu Gothic_MSFontService,sans-serif" font-weight="400" font-size="170" transform="matrix(1 0 0 1 1723.91 2679)">2</text></g></svg>