<svg width="2135" height="2136" xmlns="http://www.w3.org/2000/svg" xmlns:xlink="http://www.w3.org/1999/xlink" xml:space="preserve" overflow="hidden"><defs><clipPath id="clip0"><rect x="170" y="1018" width="2135" height="2136"/></clipPath></defs><g clip-path="url(#clip0)" transform="translate(-170 -1018)"><path d="M364.218 1208.98 364.218 2962.42" stroke="#28385E" stroke-width="6.875" stroke-linejoin="round" stroke-miterlimit="10" fill="none" fill-rule="evenodd"/><path d="M558.281 1208.98 558.281 2962.42" stroke="#333333" stroke-width="2.29167" stroke-linejoin="round" stroke-miterlimit="10" stroke-dasharray="2.29167 6.875" fill="none" fill-rule="evenodd"/><path d="M752.344 1208.98 752.344 2962.42" stroke="#333333" stroke-width="2.29167" stroke-linejoin="round" stroke-miterlimit="10" stroke-dasharray="2.29167 6.875" fill="none" fill-rule="evenodd"/><path d="M946.406 1208.98 946.406 2962.42" stroke="#333333" stroke-width="4.58333" stroke-linejoin="round" stroke-miterlimit="10" fill="none" fill-rule="evenodd"/><path d="M1140.47 1208.98 1140.47 2962.42" stroke="#333333" stroke-width="2.29167" stroke-linejoin="round" stroke-miterlimit="10" stroke-dasharray="2.29167 6.875" fill="none" fill-rule="evenodd"/><path d="M1334.53 1208.98 1334.53 2962.42" stroke="#333333" stroke-width="2.29167" stroke-linejoin="round" stroke-miterlimit="10" stroke-dasharray="2.29167 6.875" fill="none" fill-rule="evenodd"/><path d="M1528.59 1208.98 1528.59 2962.42" stroke="#333333" stroke-width="4.58333" stroke-linejoin="round" stroke-miterlimit="10" fill="none" fill-rule="evenodd"/><path d="M1722.66 1208.98 1722.66 2962.42" stroke="#333333" stroke-width="2.29167" stroke-linejoin="round" stroke-miterlimit="10" stroke-dasharray="2.29167 6.875" fill="none" fill-rule="evenodd"/><path d="M1916.72 1208.98 1916.72 2962.42" stroke="#333333" stroke-width="2.29167" stroke-linejoin="round" stroke-miterlimit="10" stroke-dasharray="2.29167 6.875" fill="none" fill-rule="evenodd"/><path d="M2110.78 1208.98 2110.78 2962.42" stroke="#28385E" stroke-width="6.875" stroke-linejoin="round" stroke-miterlimit="10" fill="none" fill-rule="evenodd"/><path d="M360.781 1212.42 2114.22 1212.42" stroke="#28385E" stroke-width="6.875" stroke-linejoin="round" stroke-miterlimit="10" fill="none" fill-rule="evenodd"/><path d="M360.781 1406.48 2114.22 1406.48" stroke="#333333" stroke-width="2.29167" stroke-linejoin="round" stroke-miterlimit="10" stroke-dasharray="2.29167 6.875" fill="none" fill-rule="evenodd"/><path d="M360.781 1600.55 2114.22 1600.55" stroke="#333333" stroke-width="2.29167" stroke-linejoin="round" stroke-miterlimit="10" stroke-dasharray="2.29167 6.875" fill="none" fill-rule="evenodd"/><path d="M360.781 1794.61 2114.22 1794.61" stroke="#333333" stroke-width="4.58333" stroke-linejoin="round" stroke-miterlimit="10" fill="none" fill-rule="evenodd"/><path d="M360.781 1988.67 2114.22 1988.67" stroke="#333333" stroke-width="2.29167" stroke-linejoin="round" stroke-miterlimit="10" stroke-dasharray="2.29167 6.875" fill="none" fill-rule="evenodd"/><path d="M360.781 2182.73 2114.22 2182.73" stroke="#333333" stroke-width="2.29167" stroke-linejoin="round" stroke-miterlimit="10" stroke-dasharray="2.29167 6.875" fill="none" fill-rule="evenodd"/><path d="M360.781 2376.8 2114.22 2376.8" stroke="#333333" stroke-width="4.58333" stroke-linejoin="round" stroke-miterlimit="10" fill="none" fill-rule="evenodd"/><path d="M360.781 2570.86 2114.22 2570.86" stroke="#333333" stroke-width="2.29167" stroke-linejoin="round" stroke-miterlimit="10" stroke-dasharray="2.29167 6.875" fill="none" fill-rule="evenodd"/><path d="M360.781 2764.92 2114.22 2764.92" stroke="#333333" stroke-width="2.29167" stroke-linejoin="round" stroke-miterlimit="10" stroke-dasharray="2.29167 6.875" fill="none" fill-rule="evenodd"/><path d="M360.781 2958.99 2114.22 2958.99" stroke="#28385E" stroke-width="6.875" stroke-linejoin="round" stroke-miterlimit="10" fill="none" fill-rule="evenodd"/><text fill="#28385E" font-family="Yu Gothic,Yu Gothic_MSFontService,sans-serif" font-weight="400" font-size="92" transform="matrix(1 0 0 1 435.755 1341)">8</text><text fill="#28385E" font-family="Yu Gothic,Yu Gothic_MSFontService,sans-serif" font-weight="400" font-size="92" transform="matrix(1 0 0 1 629.817 1341)">3</text><text fill="#28385E" font-family="Yu Gothic,Yu Gothic_MSFontService,sans-serif" font-weight="400" font-size="92" transform="matrix(1 0 0 1 823.88 1341)">9</text><text fill="#28385E" font-family="Yu Gothic,Yu Gothic_MSFontService,sans-serif" font-weight="400" font-size="92" transform="matrix(1 0 0 1 1017.94 1341)">7</text><text fill="#28385E" font-family="Yu Gothic,Yu Gothic_MSFontService,sans-serif" font-weight="400" font-size="92" transform="matrix(1 0 0 1 1212.01 1341)">6</text><text fill="#28385E" font-family="Yu Gothic,Yu Gothic_MSFontService,sans-serif" font-weight="400" font-size="92" transform="matrix(1 0 0 1 1406.07 1341)">5</text><text fill="#28385E" font-family="Yu Gothic,Yu Gothic_MSFontService,sans-serif" font-weight="400" font-size="92" transform="matrix(1 0 0 1 1600.13 1341)">1</text><text fill="#28385E" font-family="Yu Gothic,Yu Gothic_MSFontService,sans-serif" font-weight="400" font-size="92" transform="matrix(1 0 0 1 1794.19 1341)">2</text><text fill="#28385E" font-family="Yu Gothic,Yu Gothic_MSFontService,sans-serif" font-weight="400" font-size="92" transform="matrix(1 0 0 1 1988.26 1341)">4</text><text fill="#28385E" font-family="Yu Gothic,Yu Gothic_MSFontService,sans-serif" font-weight="400" font-size="92" transform="matrix(1 0 0 1 435.755 1535)">2</text><text fill="#28385E" font-family="Yu Gothic,Yu Gothic_MSFontService,sans-serif" font-weight="400" font-size="92" transform="matrix(1 0 0 1 629.817 1535)">6</text><text fill="#28385E" font-family="Yu Gothic,Yu Gothic_MSFontService,sans-serif" font-weight="400" font-size="92" transform="matrix(1 0 0 1 823.88 1535)">1</text><text fill="#28385E" font-family="Yu Gothic,Yu Gothic_MSFontService,sans-serif" font-weight="400" font-size="92" transform="matrix(1 0 0 1 1017.94 1535)">3</text><text fill="#28385E" font-family="Yu Gothic,Yu Gothic_MSFontService,sans-serif" font-weight="400" font-size="92" transform="matrix(1 0 0 1 1212.01 1535)">9</text><text fill="#28385E" font-family="Yu Gothic,Yu Gothic_MSFontService,sans-serif" font-weight="400" font-size="92" transform="matrix(1 0 0 1 1406.07 1535)">4</text><text fill="#28385E" font-family="Yu Gothic,Yu Gothic_MSFontService,sans-serif" font-weight="400" font-size="92" transform="matrix(1 0 0 1 1600.13 1535)">8</text><text fill="#28385E" font-family="Yu Gothic,Yu Gothic_MSFontService,sans-serif" font-weight="400" font-size="92" transform="matrix(1 0 0 1 1794.19 1535)">7</text><text fill="#28385E" font-family="Yu Gothic,Yu Gothic_MSFontService,sans-serif" font-weight="400" font-size="92" transform="matrix(1 0 0 1 1988.26 1535)">5</text><text fill="#28385E" font-family="Yu Gothic,Yu Gothic_MSFontService,sans-serif" font-weight="400" font-size="92" transform="matrix(1 0 0 1 435.755 1729)">7</text><text fill="#28385E" font-family="Yu Gothic,Yu Gothic_MSFontService,sans-serif" font-weight="400" font-size="92" transform="matrix(1 0 0 1 629.817 1729)">4</text><text fill="#28385E" font-family="Yu Gothic,Yu Gothic_MSFontService,sans-serif" font-weight="400" font-size="92" transform="matrix(1 0 0 1 823.88 1729)">5</text><text fill="#28385E" font-family="Yu Gothic,Yu Gothic_MSFontService,sans-serif" font-weight="400" font-size="92" transform="matrix(1 0 0 1 1017.94 1729)">2</text><text fill="#28385E" font-family="Yu Gothic,Yu Gothic_MSFontService,sans-serif" font-weight="400" font-size="92" transform="matrix(1 0 0 1 1212.01 1729)">8</text><text fill="#28385E" font-family="Yu Gothic,Yu Gothic_MSFontService,sans-serif" font-weight="400" font-size="92" transform="matrix(1 0 0 1 1406.07 1729)">1</text><text fill="#28385E" font-family="Yu Gothic,Yu Gothic_MSFontService,sans-serif" font-weight="400" font-size="92" transform="matrix(1 0 0 1 1600.13 1729)">3</text><text fill="#28385E" font-family="Yu Gothic,Yu Gothic_MSFontService,sans-serif" font-weight="400" font-size="92" transform="matrix(1 0 0 1 1794.19 1729)">9</text><text fill="#28385E" font-family="Yu Gothic,Yu Gothic_MSFontService,sans-serif" font-weight="400" font-size="92" transform="matrix(1 0 0 1 1988.26 1729)">6</text><text fill="#28385E" font-family="Yu Gothic,Yu Gothic_MSFontService,sans-serif" font-weight="400" font-size="92" transform="matrix(1 0 0 1 435.755 1923)">5</text><text fill="#28385E" font-family="Yu Gothic,Yu Gothic_MSFontService,sans-serif" font-weight="400" font-size="92" transform="matrix(1 0 0 1 629.817 1923)">9</text><text fill="#28385E" font-family="Yu Gothic,Yu Gothic_MSFontService,sans-serif" font-weight="400" font-size="92" transform="matrix(1 0 0 1 823.88 1923)">4</text><text fill="#28385E" font-family="Yu Gothic,Yu Gothic_MSFontService,sans-serif" font-weight="400" font-size="92" transform="matrix(1 0 0 1 1017.94 1923)">8</text><text fill="#28385E" font-family="Yu Gothic,Yu Gothic_MSFontService,sans-serif" font-weight="400" font-size="92" transform="matrix(1 0 0 1 1212.01 1923)">3</text><text fill="#28385E" font-family="Yu Gothic,Yu Gothic_MSFontService,sans-serif" font-weight="400" font-size="92" transform="matrix(1 0 0 1 1406.07 1923)">7</text><text fill="#28385E" font-family="Yu Gothic,Yu Gothic_MSFontService,sans-serif" font-weight="400" font-size="92" transform="matrix(1 0 0 1 1600.13 1923)">6</text><text fill="#28385E" font-family="Yu Gothic,Yu Gothic_MSFontService,sans-serif" font-weight="400" font-size="92" transform="matrix(1 0 0 1 1794.19 1923)">1</text><text fill="#28385E" font-family="Yu Gothic,Yu Gothic_MSFontService,sans-serif" font-weight="400" font-size="92" transform="matrix(1 0 0 1 1988.26 1923)">2</text><text fill="#28385E" font-family="Yu Gothic,Yu Gothic_MSFontService,sans-serif" font-weight="400" font-size="92" transform="matrix(1 0 0 1 435.755 2117)">1</text><text fill="#28385E" font-family="Yu Gothic,Yu Gothic_MSFontService,sans-serif" font-weight="400" font-size="92" transform="matrix(1 0 0 1 629.817 2117)">2</text><text fill="#28385E" font-family="Yu Gothic,Yu Gothic_MSFontService,sans-serif" font-weight="400" font-size="92" transform="matrix(1 0 0 1 823.88 2117)">3</text><text fill="#28385E" font-family="Yu Gothic,Yu Gothic_MSFontService,sans-serif" font-weight="400" font-size="92" transform="matrix(1 0 0 1 1017.94 2117)">4</text><text fill="#28385E" font-family="Yu Gothic,Yu Gothic_MSFontService,sans-serif" font-weight="400" font-size="92" transform="matrix(1 0 0 1 1212.01 2117)">5</text><text fill="#28385E" font-family="Yu Gothic,Yu Gothic_MSFontService,sans-serif" font-weight="400" font-size="92" transform="matrix(1 0 0 1 1406.07 2117)">6</text><text fill="#28385E" font-family="Yu Gothic,Yu Gothic_MSFontService,sans-serif" font-weight="400" font-size="92" transform="matrix(1 0 0 1 1600.13 2117)">7</text><text fill="#28385E" font-family="Yu Gothic,Yu Gothic_MSFontService,sans-serif" font-weight="400" font-size="92" transform="matrix(1 0 0 1 1794.19 2117)">8</text><text fill="#28385E" font-family="Yu Gothic,Yu Gothic_MSFontService,sans-serif" font-weight="400" font-size="92" transform="matrix(1 0 0 1 1988.26 2117)">9</text><text fill="#28385E" font-family="Yu Gothic,Yu Gothic_MSFontService,sans-serif" font-weight="400" font-size="92" transform="matrix(1 0 0 1 435.755 2311)">6</text><text fill="#28385E" font-family="Yu Gothic,Yu Gothic_MSFontService,sans-serif" font-weight="400" font-size="92" transform="matrix(1 0 0 1 629.817 2311)">7</text><text fill="#28385E" font-family="Yu Gothic,Yu Gothic_MSFontService,sans-serif" font-weight="400" font-size="92" transform="matrix(1 0 0 1 823.88 2311)">8</text><text fill="#28385E" font-family="Yu Gothic,Yu Gothic_MSFontService,sans-serif" font-weight="400" font-size="92" transform="matrix(1 0 0 1 1017.94 2311)">9</text><text fill="#28385E" font-family="Yu Gothic,Yu Gothic_MSFontService,sans-serif" font-weight="400" font-size="92" transform="matrix(1 0 0 1 1212.01 2311)">1</text><text fill="#28385E" font-family="Yu Gothic,Yu Gothic_MSFontService,sans-serif" font-weight="400" font-size="92" transform="matrix(1 0 0 1 1406.07 2311)">2</text><text fill="#28385E" font-family="Yu Gothic,Yu Gothic_MSFontService,sans-serif" font-weight="400" font-size="92" transform="matrix(1 0 0 1 1600.13 2311)">5</text><text fill="#28385E" font-family="Yu Gothic,Yu Gothic_MSFontService,sans-serif" font-weight="400" font-size="92" transform="matrix(1 0 0 1 1794.19 2311)">4</text><text fill="#28385E" font-family="Yu Gothic,Yu Gothic_MSFontService,sans-serif" font-weight="400" font-size="92" transform="matrix(1 0 0 1 1988.26 2311)">3</text><text fill="#28385E" font-family="Yu Gothic,Yu Gothic_MSFontService,sans-serif" font-weight="400" font-size="92" transform="matrix(1 0 0 1 435.755 2505)">3</text><text fill="#28385E" font-family="Yu Gothic,Yu Gothic_MSFontService,sans-serif" font-weight="400" font-size="92" transform="matrix(1 0 0 1 629.817 2505)">8</text><text fill="#28385E" font-family="Yu Gothic,Yu Gothic_MSFontService,sans-serif" font-weight="400" font-size="92" transform="matrix(1 0 0 1 823.88 2505)">6</text><text fill="#28385E" font-family="Yu Gothic,Yu Gothic_MSFontService,sans-serif" font-weight="400" font-size="92" transform="matrix(1 0 0 1 1017.94 2505)">1</text><text fill="#28385E" font-family="Yu Gothic,Yu Gothic_MSFontService,sans-serif" font-weight="400" font-size="92" transform="matrix(1 0 0 1 1212.01 2505)">4</text><text fill="#28385E" font-family="Yu Gothic,Yu Gothic_MSFontService,sans-serif" font-weight="400" font-size="92" transform="matrix(1 0 0 1 1406.07 2505)">9</text><text fill="#28385E" font-family="Yu Gothic,Yu Gothic_MSFontService,sans-serif" font-weight="400" font-size="92" transform="matrix(1 0 0 1 1600.13 2505)">2</text><text fill="#28385E" font-family="Yu Gothic,Yu Gothic_MSFontService,sans-serif" font-weight="400" font-size="92" transform="matrix(1 0 0 1 1794.19 2505)">5</text><text fill="#28385E" font-family="Yu Gothic,Yu Gothic_MSFontService,sans-serif" font-weight="400" font-size="92" transform="matrix(1 0 0 1 1988.26 2505)">7</text><text fill="#28385E" font-family="Yu Gothic,Yu Gothic_MSFontService,sans-serif" font-weight="400" font-size="92" transform="matrix(1 0 0 1 435.755 2699)">9</text><text fill="#28385E" font-family="Yu Gothic,Yu Gothic_MSFontService,sans-serif" font-weight="400" font-size="92" transform="matrix(1 0 0 1 629.817 2699)">1</text><text fill="#28385E" font-family="Yu Gothic,Yu Gothic_MSFontService,sans-serif" font-weight="400" font-size="92" transform="matrix(1 0 0 1 823.88 2699)">2</text><text fill="#28385E" font-family="Yu Gothic,Yu Gothic_MSFontService,sans-serif" font-weight="400" font-size="92" transform="matrix(1 0 0 1 1017.94 2699)">5</text><text fill="#28385E" font-family="Yu Gothic,Yu Gothic_MSFontService,sans-serif" font-weight="400" font-size="92" transform="matrix(1 0 0 1 1212.01 2699)">7</text><text fill="#28385E" font-family="Yu Gothic,Yu Gothic_MSFontService,sans-serif" font-weight="400" font-size="92" transform="matrix(1 0 0 1 1406.07 2699)">3</text><text fill="#28385E" font-family="Yu Gothic,Yu Gothic_MSFontService,sans-serif" font-weight="400" font-size="92" transform="matrix(1 0 0 1 1600.13 2699)">4</text><text fill="#28385E" font-family="Yu Gothic,Yu Gothic_MSFontService,sans-serif" font-weight="400" font-size="92" transform="matrix(1 0 0 1 1794.19 2699)">6</text><text fill="#28385E" font-family="Yu Gothic,Yu Gothic_MSFontService,sans-serif" font-weight="400" font-size="92" transform="matrix(1 0 0 1 1988.26 2699)">8</text><text fill="#28385E" font-family="Yu Gothic,Yu Gothic_MSFontService,sans-serif" font-weight="400" font-size="92" transform="matrix(1 0 0 1 435.755 2893)">4</text><text fill="#28385E" font-family="Yu Gothic,Yu Gothic_MSFontService,sans-serif" font-weight="400" font-size="92" transform="matrix(1 0 0 1 629.817 2893)">5</text><text fill="#28385E" font-family="Yu Gothic,Yu Gothic_MSFontService,sans-serif" font-weight="400" font-size="92" transform="matrix(1 0 0 1 823.88 2893)">7</text><text fill="#28385E" font-family="Yu Gothic,Yu Gothic_MSFontService,sans-serif" font-weight="400" font-size="92" transform="matrix(1 0 0 1 1017.94 2893)">6</text><text fill="#28385E" font-family="Yu Gothic,Yu Gothic_MSFontService,sans-serif" font-weight="400" font-size="92" transform="matrix(1 0 0 1 1212.01 2893)">2</text><text fill="#28385E" font-family="Yu Gothic,Yu Gothic_MSFontService,sans-serif" font-weight="400" font-size="92" transform="matrix(1 0 0 1 1406.07 2893)">8</text><text fill="#28385E" font-family="Yu Gothic,Yu Gothic_MSFontService,sans-serif" font-weight="400" font-size="92" transform="matrix(1 0 0 1 1600.13 2893)">9</text><text fill="#28385E" font-family="Yu Gothic,Yu Gothic_MSFontService,sans-serif" font-weight="400" font-size="92" transform="matrix(1 0 0 1 1794.19 2893)">3</text><text fill="#28385E" font-family="Yu Gothic,Yu Gothic_MSFontService,sans-serif" font-weight="400" font-size="92" transform="matrix(1 0 0 1 1988.26 2893)">1</text></g></svg>