<svg width="2135" height="2136" xmlns="http://www.w3.org/2000/svg" xmlns:xlink="http://www.w3.org/1999/xlink" xml:space="preserve" overflow="hidden"><defs><clipPath id="clip0"><rect x="170" y="1018" width="2135" height="2136"/></clipPath></defs><g clip-path="url(#clip0)" transform="translate(-170 -1018)"><path d="M597.094 1441.86 597.094 1872.23" stroke="#28385E" stroke-width="6.875" stroke-linejoin="round" stroke-miterlimit="10" fill="none" fill-rule="evenodd"/><path d="M597.094 1872.23 597.094 2729.55" stroke="#FF2525" stroke-width="6.875" stroke-linejoin="round" stroke-miterlimit="10" fill="none" fill-rule="evenodd"/><path d="M1024.03 1441.86 1024.03 1875.67" stroke="#FF2525" stroke-width="6.875" stroke-linejoin="round" stroke-miterlimit="10" fill="none" fill-rule="evenodd"/><path d="M1024.03 1875.67 1024.03 2295.73" stroke="#28385E" stroke-width="2.29167" stroke-linejoin="round" stroke-miterlimit="10" stroke-dasharray="2.29167 6.875" fill="none" fill-rule="evenodd"/><path d="M1024.03 2295.73 1024.03 2729.55" stroke="#FF2525" stroke-width="6.875" stroke-linejoin="round" stroke-miterlimit="10" fill="none" fill-rule="evenodd"/><path d="M1450.97 1441.86 1450.97 1875.67" stroke="#FF2525" stroke-width="6.875" stroke-linejoin="round" stroke-miterlimit="10" fill="none" fill-rule="evenodd"/><path d="M1450.97 1875.67 1450.97 2729.55" stroke="#28385E" stroke-width="2.29167" stroke-linejoin="round" stroke-miterlimit="10" stroke-dasharray="2.29167 6.875" fill="none" fill-rule="evenodd"/><path d="M1877.91 1441.86 1877.91 1872.23" stroke="#28385E" stroke-width="6.875" stroke-linejoin="round" stroke-miterlimit="10" fill="none" fill-rule="evenodd"/><path d="M1877.91 1872.23 1877.91 2299.17" stroke="#FF2525" stroke-width="6.875" stroke-linejoin="round" stroke-miterlimit="10" fill="none" fill-rule="evenodd"/><path d="M1877.91 2299.17 1877.91 2729.55" stroke="#28385E" stroke-width="6.875" stroke-linejoin="round" stroke-miterlimit="10" fill="none" fill-rule="evenodd"/><path d="M593.656 1445.3 1024.03 1445.3" stroke="#28385E" stroke-width="6.875" stroke-linejoin="round" stroke-miterlimit="10" fill="none" fill-rule="evenodd"/><path d="M1024.03 1445.3 1450.97 1445.3" stroke="#FF2525" stroke-width="6.875" stroke-linejoin="round" stroke-miterlimit="10" fill="none" fill-rule="evenodd"/><path d="M1450.97 1445.3 1881.34 1445.3" stroke="#28385E" stroke-width="6.875" stroke-linejoin="round" stroke-miterlimit="10" fill="none" fill-rule="evenodd"/><path d="M593.656 1872.23 1027.47 1872.23" stroke="#FF2525" stroke-width="6.875" stroke-linejoin="round" stroke-miterlimit="10" fill="none" fill-rule="evenodd"/><path d="M1027.47 1872.23 1447.53 1872.23" stroke="#28385E" stroke-width="2.29167" stroke-linejoin="round" stroke-miterlimit="10" stroke-dasharray="2.29167 6.875" fill="none" fill-rule="evenodd"/><path d="M1447.53 1872.23 1881.34 1872.23" stroke="#FF2525" stroke-width="6.875" stroke-linejoin="round" stroke-miterlimit="10" fill="none" fill-rule="evenodd"/><path d="M593.656 2299.17 1020.59 2299.17" stroke="#28385E" stroke-width="2.29167" stroke-linejoin="round" stroke-miterlimit="10" stroke-dasharray="2.29167 6.875" fill="none" fill-rule="evenodd"/><path d="M1020.59 2299.17 1881.34 2299.17" stroke="#FF2525" stroke-width="6.875" stroke-linejoin="round" stroke-miterlimit="10" fill="none" fill-rule="evenodd"/><path d="M593.656 2726.11 1024.03 2726.11" stroke="#FF2525" stroke-width="6.875" stroke-linejoin="round" stroke-miterlimit="10" fill="none" fill-rule="evenodd"/><path d="M1024.03 2726.11 1881.34 2726.11" stroke="#28385E" stroke-width="6.875" stroke-linejoin="round" stroke-miterlimit="10" fill="none" fill-rule="evenodd"/><text fill="#28385E" font-family="Yu Gothic,Yu Gothic_MSFontService,sans-serif" font-weight="400" font-size="206" transform="matrix(1 0 0 1 753.271 1730)">2</text><text fill="#28385E" font-family="Yu Gothic,Yu Gothic_MSFontService,sans-serif" font-weight="400" font-size="206" transform="matrix(1 0 0 1 1180.21 1730)">3</text><text fill="#28385E" font-family="Yu Gothic,Yu Gothic_MSFontService,sans-serif" font-weight="400" font-size="206" transform="matrix(1 0 0 1 1607.15 1730)">2</text><text fill="#28385E" font-family="Yu Gothic,Yu Gothic_MSFontService,sans-serif" font-weight="400" font-size="206" transform="matrix(1 0 0 1 753.271 2157)">2</text><text fill="#28385E" font-family="Yu Gothic,Yu Gothic_MSFontService,sans-serif" font-weight="400" font-size="206" transform="matrix(1 0 0 1 1180.21 2157)">1</text><text fill="#28385E" font-family="Yu Gothic,Yu Gothic_MSFontService,sans-serif" font-weight="400" font-size="206" transform="matrix(1 0 0 1 1607.15 2157)">3</text><text fill="#28385E" font-family="Yu Gothic,Yu Gothic_MSFontService,sans-serif" font-weight="400" font-size="206" transform="matrix(1 0 0 1 753.271 2584)">3</text><text fill="#28385E" font-family="Yu Gothic,Yu Gothic_MSFontService,sans-serif" font-weight="400" font-size="206" transform="matrix(1 0 0 1 1180.21 2584)">2</text><text fill="#28385E" font-family="Yu Gothic,Yu Gothic_MSFontService,sans-serif" font-weight="400" font-size="206" transform="matrix(1 0 0 1 1607.15 2584)">1</text></g></svg>