<svg width="1939" height="1950" xmlns="http://www.w3.org/2000/svg" xmlns:xlink="http://www.w3.org/1999/xlink" xml:space="preserve" overflow="hidden"><defs><clipPath id="clip0"><rect x="268" y="1111" width="1939" height="1950"/></clipPath></defs><g clip-path="url(#clip0)" transform="translate(-268 -1111)"><path d="M483.542 1324.3 483.542 1977.42" stroke="#28385E" stroke-width="6.875" stroke-linejoin="round" stroke-miterlimit="10" fill="none" fill-rule="evenodd"/><path d="M483.542 1977.42 483.542 2193.98" stroke="#FF2525" stroke-width="6.875" stroke-linejoin="round" stroke-miterlimit="10" fill="none" fill-rule="evenodd"/><path d="M483.542 2193.98 483.542 2410.55" stroke="#28385E" stroke-width="6.875" stroke-linejoin="round" stroke-miterlimit="10" fill="none" fill-rule="evenodd"/><path d="M483.542 2410.55 483.542 2847.11" stroke="#FF2525" stroke-width="6.875" stroke-linejoin="round" stroke-miterlimit="10" fill="none" fill-rule="evenodd"/><path d="M698.958 1324.3 698.958 1757.42" stroke="#333333" stroke-width="2.29167" stroke-linejoin="round" stroke-miterlimit="10" stroke-dasharray="2.29167 6.875" fill="none" fill-rule="evenodd"/><path d="M698.958 1757.42 698.958 1980.86" stroke="#FF2525" stroke-width="6.875" stroke-linejoin="round" stroke-miterlimit="10" fill="none" fill-rule="evenodd"/><path d="M698.958 1980.86 698.958 2625.96" stroke="#333333" stroke-width="2.29167" stroke-linejoin="round" stroke-miterlimit="10" stroke-dasharray="2.29167 6.875" fill="none" fill-rule="evenodd"/><path d="M698.958 2625.96 698.958 2847.11" stroke="#FF2525" stroke-width="6.875" stroke-linejoin="round" stroke-miterlimit="10" fill="none" fill-rule="evenodd"/><path d="M914.375 1324.3 914.375 2625.96" stroke="#333333" stroke-width="2.29167" stroke-linejoin="round" stroke-miterlimit="10" stroke-dasharray="2.29167 6.875" fill="none" fill-rule="evenodd"/><path d="M914.375 2625.96 914.375 2847.11" stroke="#FF2525" stroke-width="6.875" stroke-linejoin="round" stroke-miterlimit="10" fill="none" fill-rule="evenodd"/><path d="M1129.79 1324.3 1129.79 1545.44" stroke="#FF2525" stroke-width="6.875" stroke-linejoin="round" stroke-miterlimit="10" fill="none" fill-rule="evenodd"/><path d="M1129.79 1545.44 1129.79 2847.11" stroke="#333333" stroke-width="2.29167" stroke-linejoin="round" stroke-miterlimit="10" stroke-dasharray="2.29167 6.875" fill="none" fill-rule="evenodd"/><path d="M1345.21 1324.3 1345.21 1757.42" stroke="#333333" stroke-width="2.29167" stroke-linejoin="round" stroke-miterlimit="10" stroke-dasharray="2.29167 6.875" fill="none" fill-rule="evenodd"/><path d="M1345.21 1757.42 1345.21 1978.57" stroke="#FF2525" stroke-width="6.875" stroke-linejoin="round" stroke-miterlimit="10" fill="none" fill-rule="evenodd"/><path d="M1345.21 1978.57 1345.21 2847.11" stroke="#333333" stroke-width="2.29167" stroke-linejoin="round" stroke-miterlimit="10" stroke-dasharray="2.29167 6.875" fill="none" fill-rule="evenodd"/><path d="M1560.62 1324.3 1560.62 1543.15" stroke="#333333" stroke-width="2.29167" stroke-linejoin="round" stroke-miterlimit="10" stroke-dasharray="2.29167 6.875" fill="none" fill-rule="evenodd"/><path d="M1560.62 1543.15 1560.62 1764.3" stroke="#FF2525" stroke-width="6.875" stroke-linejoin="round" stroke-miterlimit="10" fill="none" fill-rule="evenodd"/><path d="M1560.62 1764.3 1560.62 1976.28" stroke="#333333" stroke-width="2.29167" stroke-linejoin="round" stroke-miterlimit="10" stroke-dasharray="2.29167 6.875" fill="none" fill-rule="evenodd"/><path d="M1560.62 1976.28 1560.62 2195.13" stroke="#FF2525" stroke-width="6.875" stroke-linejoin="round" stroke-miterlimit="10" fill="none" fill-rule="evenodd"/><path d="M1560.62 2195.13 1560.62 2409.4" stroke="#333333" stroke-width="2.29167" stroke-linejoin="round" stroke-miterlimit="10" stroke-dasharray="2.29167 6.875" fill="none" fill-rule="evenodd"/><path d="M1560.62 2409.4 1560.62 2628.26" stroke="#FF2525" stroke-width="6.875" stroke-linejoin="round" stroke-miterlimit="10" fill="none" fill-rule="evenodd"/><path d="M1560.62 2628.26 1560.62 2847.11" stroke="#333333" stroke-width="2.29167" stroke-linejoin="round" stroke-miterlimit="10" stroke-dasharray="2.29167 6.875" fill="none" fill-rule="evenodd"/><path d="M1776.04 1324.3 1776.04 1757.42" stroke="#333333" stroke-width="2.29167" stroke-linejoin="round" stroke-miterlimit="10" stroke-dasharray="2.29167 6.875" fill="none" fill-rule="evenodd"/><path d="M1776.04 1757.42 1776.04 1978.57" stroke="#FF2525" stroke-width="6.875" stroke-linejoin="round" stroke-miterlimit="10" fill="none" fill-rule="evenodd"/><path d="M1776.04 1978.57 1776.04 2847.11" stroke="#333333" stroke-width="2.29167" stroke-linejoin="round" stroke-miterlimit="10" stroke-dasharray="2.29167 6.875" fill="none" fill-rule="evenodd"/><path d="M1991.46 1324.3 1991.46 1544.3" stroke="#FF2525" stroke-width="6.875" stroke-linejoin="round" stroke-miterlimit="10" fill="none" fill-rule="evenodd"/><path d="M1991.46 1544.3 1991.46 2410.55" stroke="#28385E" stroke-width="6.875" stroke-linejoin="round" stroke-miterlimit="10" fill="none" fill-rule="evenodd"/><path d="M1991.46 2410.55 1991.46 2847.11" stroke="#FF2525" stroke-width="6.875" stroke-linejoin="round" stroke-miterlimit="10" fill="none" fill-rule="evenodd"/><path d="M480.104 1327.73 1129.79 1327.73" stroke="#28385E" stroke-width="6.875" stroke-linejoin="round" stroke-miterlimit="10" fill="none" fill-rule="evenodd"/><path d="M1129.79 1327.73 1994.9 1327.73" stroke="#FF2525" stroke-width="6.875" stroke-linejoin="round" stroke-miterlimit="10" fill="none" fill-rule="evenodd"/><path d="M480.104 1544.3 1994.9 1544.3" stroke="#333333" stroke-width="2.29167" stroke-linejoin="round" stroke-miterlimit="10" stroke-dasharray="2.29167 6.875" fill="none" fill-rule="evenodd"/><path d="M480.104 1760.86 695.521 1760.86" stroke="#333333" stroke-width="2.29167" stroke-linejoin="round" stroke-miterlimit="10" stroke-dasharray="2.29167 6.875" fill="none" fill-rule="evenodd"/><path d="M695.521 1760.86 915.521 1760.86" stroke="#FF2525" stroke-width="6.875" stroke-linejoin="round" stroke-miterlimit="10" fill="none" fill-rule="evenodd"/><path d="M915.521 1760.86 1128.65 1760.86" stroke="#333333" stroke-width="2.29167" stroke-linejoin="round" stroke-miterlimit="10" stroke-dasharray="2.29167 6.875" fill="none" fill-rule="evenodd"/><path d="M1128.65 1760.86 1348.65 1760.86" stroke="#FF2525" stroke-width="6.875" stroke-linejoin="round" stroke-miterlimit="10" fill="none" fill-rule="evenodd"/><path d="M1348.65 1760.86 1557.19 1760.86" stroke="#333333" stroke-width="2.29167" stroke-linejoin="round" stroke-miterlimit="10" stroke-dasharray="2.29167 6.875" fill="none" fill-rule="evenodd"/><path d="M1557.19 1760.86 1779.48 1760.86" stroke="#FF2525" stroke-width="6.875" stroke-linejoin="round" stroke-miterlimit="10" fill="none" fill-rule="evenodd"/><path d="M1779.48 1760.86 1994.9 1760.86" stroke="#333333" stroke-width="2.29167" stroke-linejoin="round" stroke-miterlimit="10" stroke-dasharray="2.29167 6.875" fill="none" fill-rule="evenodd"/><path d="M480.104 1977.42 702.396 1977.42" stroke="#FF2525" stroke-width="6.875" stroke-linejoin="round" stroke-miterlimit="10" fill="none" fill-rule="evenodd"/><path d="M702.396 1977.42 1994.9 1977.42" stroke="#333333" stroke-width="2.29167" stroke-linejoin="round" stroke-miterlimit="10" stroke-dasharray="2.29167 6.875" fill="none" fill-rule="evenodd"/><path d="M480.104 2193.98 700.104 2193.98" stroke="#FF2525" stroke-width="6.875" stroke-linejoin="round" stroke-miterlimit="10" fill="none" fill-rule="evenodd"/><path d="M700.104 2193.98 1994.9 2193.98" stroke="#333333" stroke-width="2.29167" stroke-linejoin="round" stroke-miterlimit="10" stroke-dasharray="2.29167 6.875" fill="none" fill-rule="evenodd"/><path d="M480.104 2410.55 700.104 2410.55" stroke="#FF2525" stroke-width="6.875" stroke-linejoin="round" stroke-miterlimit="10" fill="none" fill-rule="evenodd"/><path d="M700.104 2410.55 1994.9 2410.55" stroke="#333333" stroke-width="2.29167" stroke-linejoin="round" stroke-miterlimit="10" stroke-dasharray="2.29167 6.875" fill="none" fill-rule="evenodd"/><path d="M480.104 2627.11 1994.9 2627.11" stroke="#333333" stroke-width="2.29167" stroke-linejoin="round" stroke-miterlimit="10" stroke-dasharray="2.29167 6.875" fill="none" fill-rule="evenodd"/><path d="M480.104 2843.67 698.958 2843.67" stroke="#FF2525" stroke-width="6.875" stroke-linejoin="round" stroke-miterlimit="10" fill="none" fill-rule="evenodd"/><path d="M698.958 2843.67 914.375 2843.67" stroke="#28385E" stroke-width="6.875" stroke-linejoin="round" stroke-miterlimit="10" fill="none" fill-rule="evenodd"/><path d="M914.375 2843.67 1129.79 2843.67" stroke="#FF2525" stroke-width="6.875" stroke-linejoin="round" stroke-miterlimit="10" fill="none" fill-rule="evenodd"/><path d="M1129.79 2843.67 1776.04 2843.67" stroke="#28385E" stroke-width="6.875" stroke-linejoin="round" stroke-miterlimit="10" fill="none" fill-rule="evenodd"/><path d="M1776.04 2843.67 1994.9 2843.67" stroke="#FF2525" stroke-width="6.875" stroke-linejoin="round" stroke-miterlimit="10" fill="none" fill-rule="evenodd"/><text fill="#28385E" font-family="Yu Gothic,Yu Gothic_MSFontService,sans-serif" font-weight="400" font-size="110" transform="matrix(1 0 0 1 776.016 1476)">0</text><text fill="#28385E" font-family="Yu Gothic,Yu Gothic_MSFontService,sans-serif" font-weight="400" font-size="110" transform="matrix(1 0 0 1 991.432 1476)">2</text><text fill="#28385E" font-family="Yu Gothic,Yu Gothic_MSFontService,sans-serif" font-weight="400" font-size="110" transform="matrix(1 0 0 1 1206.85 1476)">2</text><text fill="#28385E" font-family="Yu Gothic,Yu Gothic_MSFontService,sans-serif" font-weight="400" font-size="110" transform="matrix(1 0 0 1 1422.27 1476)">1</text><text fill="#28385E" font-family="Yu Gothic,Yu Gothic_MSFontService,sans-serif" font-weight="400" font-size="110" transform="matrix(1 0 0 1 1853.1 1476)">3</text><text fill="#28385E" font-family="Yu Gothic,Yu Gothic_MSFontService,sans-serif" font-weight="400" font-size="110" transform="matrix(1 0 0 1 776.016 1692)">2</text><text fill="#28385E" font-family="Yu Gothic,Yu Gothic_MSFontService,sans-serif" font-weight="400" font-size="110" transform="matrix(1 0 0 1 1206.85 1692)">1</text><text fill="#28385E" font-family="Yu Gothic,Yu Gothic_MSFontService,sans-serif" font-weight="400" font-size="110" transform="matrix(1 0 0 1 560.599 1909)">2</text><text fill="#28385E" font-family="Yu Gothic,Yu Gothic_MSFontService,sans-serif" font-weight="400" font-size="110" transform="matrix(1 0 0 1 776.016 1909)">2</text><text fill="#28385E" font-family="Yu Gothic,Yu Gothic_MSFontService,sans-serif" font-weight="400" font-size="110" transform="matrix(1 0 0 1 1206.85 1909)">3</text><text fill="#28385E" font-family="Yu Gothic,Yu Gothic_MSFontService,sans-serif" font-weight="400" font-size="110" transform="matrix(1 0 0 1 1637.68 1909)">3</text><text fill="#28385E" font-family="Yu Gothic,Yu Gothic_MSFontService,sans-serif" font-weight="400" font-size="110" transform="matrix(1 0 0 1 1853.1 1909)">1</text><text fill="#28385E" font-family="Yu Gothic,Yu Gothic_MSFontService,sans-serif" font-weight="400" font-size="110" transform="matrix(1 0 0 1 560.599 2125)">3</text><text fill="#28385E" font-family="Yu Gothic,Yu Gothic_MSFontService,sans-serif" font-weight="400" font-size="110" transform="matrix(1 0 0 1 776.016 2125)">0</text><text fill="#28385E" font-family="Yu Gothic,Yu Gothic_MSFontService,sans-serif" font-weight="400" font-size="110" transform="matrix(1 0 0 1 1206.85 2125)">2</text><text fill="#28385E" font-family="Yu Gothic,Yu Gothic_MSFontService,sans-serif" font-weight="400" font-size="110" transform="matrix(1 0 0 1 1637.68 2125)">3</text><text fill="#28385E" font-family="Yu Gothic,Yu Gothic_MSFontService,sans-serif" font-weight="400" font-size="110" transform="matrix(1 0 0 1 1853.1 2125)">0</text><text fill="#28385E" font-family="Yu Gothic,Yu Gothic_MSFontService,sans-serif" font-weight="400" font-size="110" transform="matrix(1 0 0 1 560.599 2342)">3</text><text fill="#28385E" font-family="Yu Gothic,Yu Gothic_MSFontService,sans-serif" font-weight="400" font-size="110" transform="matrix(1 0 0 1 776.016 2342)">1</text><text fill="#28385E" font-family="Yu Gothic,Yu Gothic_MSFontService,sans-serif" font-weight="400" font-size="110" transform="matrix(1 0 0 1 1206.85 2342)">2</text><text fill="#28385E" font-family="Yu Gothic,Yu Gothic_MSFontService,sans-serif" font-weight="400" font-size="110" transform="matrix(1 0 0 1 1422.27 2342)">2</text><text fill="#28385E" font-family="Yu Gothic,Yu Gothic_MSFontService,sans-serif" font-weight="400" font-size="110" transform="matrix(1 0 0 1 1637.68 2342)">2</text><text fill="#28385E" font-family="Yu Gothic,Yu Gothic_MSFontService,sans-serif" font-weight="400" font-size="110" transform="matrix(1 0 0 1 1853.1 2342)">2</text><text fill="#28385E" font-family="Yu Gothic,Yu Gothic_MSFontService,sans-serif" font-weight="400" font-size="110" transform="matrix(1 0 0 1 560.599 2775)">3</text><text fill="#28385E" font-family="Yu Gothic,Yu Gothic_MSFontService,sans-serif" font-weight="400" font-size="110" transform="matrix(1 0 0 1 776.016 2775)">3</text><text fill="#28385E" font-family="Yu Gothic,Yu Gothic_MSFontService,sans-serif" font-weight="400" font-size="110" transform="matrix(1 0 0 1 991.432 2775)">3</text><text fill="#28385E" font-family="Yu Gothic,Yu Gothic_MSFontService,sans-serif" font-weight="400" font-size="110" transform="matrix(1 0 0 1 1206.85 2775)">1</text><text fill="#28385E" font-family="Yu Gothic,Yu Gothic_MSFontService,sans-serif" font-weight="400" font-size="110" transform="matrix(1 0 0 1 1422.27 2775)">0</text><text fill="#28385E" font-family="Yu Gothic,Yu Gothic_MSFontService,sans-serif" font-weight="400" font-size="110" transform="matrix(1 0 0 1 1637.68 2775)">2</text><text fill="#28385E" font-family="Yu Gothic,Yu Gothic_MSFontService,sans-serif" font-weight="400" font-size="110" transform="matrix(1 0 0 1 1853.1 2775)">3</text></g></svg>