<svg width="3354" height="1855" xmlns="http://www.w3.org/2000/svg" xmlns:xlink="http://www.w3.org/1999/xlink" xml:space="preserve" overflow="hidden"><defs><clipPath id="clip0"><rect x="461" y="235" width="3354" height="1855"/></clipPath></defs><g clip-path="url(#clip0)" transform="translate(-461 -235)"><path d="M1807.41 451.171 1807.41 2023.83" stroke="#000000" stroke-width="2.29167" stroke-linejoin="round" stroke-miterlimit="10" stroke-dasharray="2.29167 6.875" fill="none" fill-rule="evenodd"/><path d="M2200 451.171 2200 2023.83" stroke="#000000" stroke-width="2.29167" stroke-linejoin="round" stroke-miterlimit="10" stroke-dasharray="2.29167 6.875" fill="none" fill-rule="evenodd"/><path d="M2592.59 451.171 2592.59 1236.35" stroke="#000000" stroke-width="2.29167" stroke-linejoin="round" stroke-miterlimit="10" stroke-dasharray="2.29167 6.875" fill="none" fill-rule="evenodd"/><path d="M2592.59 1236.35 2592.59 1631.24" stroke="#ED7D31" stroke-width="6.875" stroke-linejoin="round" stroke-miterlimit="10" fill="none" fill-rule="evenodd"/><path d="M2592.59 1631.24 2592.59 2023.83" stroke="#000000" stroke-width="2.29167" stroke-linejoin="round" stroke-miterlimit="10" stroke-dasharray="2.29167 6.875" fill="none" fill-rule="evenodd"/><path d="M1413.67 844.909 1806.26 844.909" stroke="#000000" stroke-width="2.29167" stroke-linejoin="round" stroke-miterlimit="10" stroke-dasharray="2.29167 6.875" fill="none" fill-rule="evenodd"/><path d="M1806.26 844.909 2201.15 844.909" stroke="#ED7D31" stroke-width="6.875" stroke-linejoin="round" stroke-miterlimit="10" fill="none" fill-rule="evenodd"/><path d="M2201.15 844.909 2986.33 844.909" stroke="#000000" stroke-width="2.29167" stroke-linejoin="round" stroke-miterlimit="10" stroke-dasharray="2.29167 6.875" fill="none" fill-rule="evenodd"/><path d="M1413.67 1237.5 2986.33 1237.5" stroke="#000000" stroke-width="2.29167" stroke-linejoin="round" stroke-miterlimit="10" stroke-dasharray="2.29167 6.875" fill="none" fill-rule="evenodd"/><path d="M1413.67 1630.09 2986.33 1630.09" stroke="#000000" stroke-width="2.29167" stroke-linejoin="round" stroke-miterlimit="10" stroke-dasharray="2.29167 6.875" fill="none" fill-rule="evenodd"/><path d="M1414.82 451.171 1414.82 2023.83" stroke="#000000" stroke-width="2.29167" stroke-linejoin="round" stroke-miterlimit="10" stroke-dasharray="2.29167 6.875" fill="none" fill-rule="evenodd"/><path d="M2985.18 451.171 2985.18 2023.83" stroke="#000000" stroke-width="2.29167" stroke-linejoin="round" stroke-miterlimit="10" stroke-dasharray="2.29167 6.875" fill="none" fill-rule="evenodd"/><path d="M1413.67 452.317 2986.33 452.317" stroke="#000000" stroke-width="2.29167" stroke-linejoin="round" stroke-miterlimit="10" stroke-dasharray="2.29167 6.875" fill="none" fill-rule="evenodd"/><path d="M1413.67 2022.68 2986.33 2022.68" stroke="#000000" stroke-width="2.29167" stroke-linejoin="round" stroke-miterlimit="10" stroke-dasharray="2.29167 6.875" fill="none" fill-rule="evenodd"/><path d="M0.54274-1.00914 864.945 463.887 863.859 465.905-0.54274 1.00914ZM866.877 450.615 884.583 475.75 853.851 474.834Z" transform="matrix(-1 0 0 1 2901.58 377)"/><rect x="2901.5" y="243.5" width="330" height="134" stroke="#000000" stroke-width="3.4375" stroke-linejoin="round" stroke-miterlimit="10" fill="none"/><text font-family="Yu Gothic,Yu Gothic_MSFontService,sans-serif" font-weight="400" font-size="83" transform="matrix(1 0 0 1 2983.75 336)">横辺</text><path d="M0.507811-1.02716 869.964 428.816 868.948 430.87-0.507811 1.02716ZM871.442 415.487 890 440 859.254 440.139Z" transform="matrix(-1 0 0 1 3483 1033)"/><rect x="3483.5" y="900.5" width="330" height="133" stroke="#000000" stroke-width="3.4375" stroke-linejoin="round" stroke-miterlimit="10" fill="none"/><text font-family="Yu Gothic,Yu Gothic_MSFontService,sans-serif" font-weight="400" font-size="83" transform="matrix(1 0 0 1 3565.83 993)">縦辺</text><path d="M1697.5 1238C1697.5 1179.73 1746.75 1132.5 1807.5 1132.5 1868.25 1132.5 1917.5 1179.73 1917.5 1238 1917.5 1296.27 1868.25 1343.5 1807.5 1343.5 1746.75 1343.5 1697.5 1296.27 1697.5 1238Z" stroke="#000000" stroke-width="9.16667" stroke-miterlimit="8" stroke-dasharray="36.6667 27.5" fill="none" fill-rule="evenodd"/><path d="M800.331 965.903 1675.06 1230.09 1674.4 1232.28 799.669 968.097ZM1674.32 1216.7 1696.67 1237.81 1666.37 1243.02Z"/><rect x="470.5" y="833.5" width="330" height="134" stroke="#000000" stroke-width="3.4375" stroke-linejoin="round" stroke-miterlimit="10" fill="none"/><text font-family="Yu Gothic,Yu Gothic_MSFontService,sans-serif" font-weight="400" font-size="83" transform="matrix(1 0 0 1 511.25 926)">格子点</text><path d="M1807.5 1828.5C1807.5 1725.22 1894.36 1641.5 2001.5 1641.5 2108.64 1641.5 2195.5 1725.22 2195.5 1828.5 2195.5 1931.78 2108.64 2015.5 2001.5 2015.5 1894.36 2015.5 1807.5 1931.78 1807.5 1828.5Z" stroke="#000000" stroke-width="9.16667" stroke-miterlimit="8" stroke-dasharray="36.6667 27.5" fill="none" fill-rule="evenodd"/><path d="M0.188105-1.13029 934.249 154.318 933.872 156.579-0.188105 1.13029ZM931.798 141.133 956.667 159.211 927.283 168.26Z" transform="matrix(1 0 0 -1 850 1991.21)"/><rect x="520.5" y="1925.5" width="330" height="133" stroke="#000000" stroke-width="3.4375" stroke-linejoin="round" stroke-miterlimit="10" fill="none"/><text font-family="Yu Gothic,Yu Gothic_MSFontService,sans-serif" font-weight="400" font-size="83" transform="matrix(1 0 0 1 602.5 2017)">細胞</text></g></svg>