<svg width="3339" height="1918" xmlns="http://www.w3.org/2000/svg" xmlns:xlink="http://www.w3.org/1999/xlink" xml:space="preserve" overflow="hidden"><defs><clipPath id="clip0"><rect x="610" y="107" width="3339" height="1918"/></clipPath></defs><g clip-path="url(#clip0)" transform="translate(-610 -107)"><path d="M2092 1241C2092 1182.46 2141.25 1135 2202 1135 2262.75 1135 2312 1182.46 2312 1241 2312 1299.54 2262.75 1347 2202 1347 2141.25 1347 2092 1299.54 2092 1241Z" fill="#D9D9D9" fill-rule="evenodd" fill-opacity="0.819608"/><path d="M1807.41 451.171 1807.41 2023.83" stroke="#000000" stroke-width="2.29167" stroke-linejoin="round" stroke-miterlimit="10" stroke-dasharray="2.29167 6.875" fill="none" fill-rule="evenodd"/><path d="M2200 451.171 2200 843.763" stroke="#000000" stroke-width="2.29167" stroke-linejoin="round" stroke-miterlimit="10" stroke-dasharray="2.29167 6.875" fill="none" fill-rule="evenodd"/><path d="M2200 843.763 2200 1631.24" stroke="#ED7D31" stroke-width="6.875" stroke-linejoin="round" stroke-miterlimit="10" fill="none" fill-rule="evenodd"/><path d="M2200 1631.24 2200 2023.83" stroke="#000000" stroke-width="2.29167" stroke-linejoin="round" stroke-miterlimit="10" stroke-dasharray="2.29167 6.875" fill="none" fill-rule="evenodd"/><path d="M2592.59 451.171 2592.59 2023.83" stroke="#000000" stroke-width="2.29167" stroke-linejoin="round" stroke-miterlimit="10" stroke-dasharray="2.29167 6.875" fill="none" fill-rule="evenodd"/><path d="M1413.67 844.909 2986.33 844.909" stroke="#000000" stroke-width="2.29167" stroke-linejoin="round" stroke-miterlimit="10" stroke-dasharray="2.29167 6.875" fill="none" fill-rule="evenodd"/><path d="M1413.67 1237.5 1806.26 1237.5" stroke="#000000" stroke-width="2.29167" stroke-linejoin="round" stroke-miterlimit="10" stroke-dasharray="2.29167 6.875" fill="none" fill-rule="evenodd"/><path d="M1806.26 1237.5 2593.74 1237.5" stroke="#ED7D31" stroke-width="6.875" stroke-linejoin="round" stroke-miterlimit="10" fill="none" fill-rule="evenodd"/><path d="M2593.74 1237.5 2986.33 1237.5" stroke="#000000" stroke-width="2.29167" stroke-linejoin="round" stroke-miterlimit="10" stroke-dasharray="2.29167 6.875" fill="none" fill-rule="evenodd"/><path d="M1413.67 1630.09 2986.33 1630.09" stroke="#000000" stroke-width="2.29167" stroke-linejoin="round" stroke-miterlimit="10" stroke-dasharray="2.29167 6.875" fill="none" fill-rule="evenodd"/><path d="M1414.82 451.171 1414.82 2023.83" stroke="#000000" stroke-width="2.29167" stroke-linejoin="round" stroke-miterlimit="10" stroke-dasharray="2.29167 6.875" fill="none" fill-rule="evenodd"/><path d="M2985.18 451.171 2985.18 2023.83" stroke="#000000" stroke-width="2.29167" stroke-linejoin="round" stroke-miterlimit="10" stroke-dasharray="2.29167 6.875" fill="none" fill-rule="evenodd"/><path d="M1413.67 452.317 2986.33 452.317" stroke="#000000" stroke-width="2.29167" stroke-linejoin="round" stroke-miterlimit="10" stroke-dasharray="2.29167 6.875" fill="none" fill-rule="evenodd"/><path d="M1413.67 2022.68 2986.33 2022.68" stroke="#000000" stroke-width="2.29167" stroke-linejoin="round" stroke-miterlimit="10" stroke-dasharray="2.29167 6.875" fill="none" fill-rule="evenodd"/><path d="M1195.39 862.921 2093.02 1183.96 2092.25 1186.12 1194.61 865.079ZM2092.94 1170.55 2114.21 1192.76 2083.68 1196.44Z"/><rect x="611.5" y="798.5" width="584" height="133" stroke="#000000" stroke-width="3.4375" stroke-linejoin="round" stroke-miterlimit="10" fill="none"/><text font-family="Yu Gothic,Yu Gothic_MSFontService,sans-serif" font-weight="400" font-size="83" transform="matrix(1 0 0 1 664.285 890)">格子点</text><path d="M965.103 855.342C963.725 855.342 962.367 855.808 961.03 856.74 959.693 857.672 958.227 859.165 956.633 861.218 955.039 863.272 953.796 865.298 952.904 867.297 952.013 869.297 951.31 871.593 950.797 874.187L950.473 875.889C950.202 877.321 950.034 878.415 949.966 879.172 949.898 879.928 949.865 880.671 949.865 881.401 949.865 883.508 950.317 885.042 951.222 886.001 952.127 886.96 953.688 887.439 955.903 887.439 957.281 887.439 958.551 887.169 959.713 886.629 960.875 886.089 961.976 885.305 963.016 884.278 964.056 883.252 964.995 882.009 965.832 880.55 966.67 879.091 967.42 877.395 968.082 875.464 968.744 873.532 969.243 871.546 969.581 869.506 969.919 867.466 970.088 865.555 970.088 863.771 970.088 860.935 969.689 858.82 968.892 857.429 968.095 856.038 966.832 855.342 965.103 855.342ZM948.041 850.56C949.716 850.56 951.047 851.113 952.033 852.221 953.019 853.329 953.512 854.801 953.512 856.639 953.512 858.152 953.201 859.746 952.58 861.421L953.066 861.583C958.065 854.261 963.036 850.6 967.98 850.6 970.925 850.6 973.215 851.721 974.85 853.964 976.484 856.206 977.302 859.367 977.302 863.447 977.302 867.905 976.403 872.289 974.607 876.598 972.81 880.908 970.317 884.326 967.129 886.852 963.941 889.378 960.375 890.641 956.43 890.641 952.837 890.641 949.851 889.858 947.474 888.291L945.609 897.166C945.204 899.084 945.001 900.665 945.001 901.908 945.001 903.096 945.305 903.941 945.913 904.441 946.521 904.94 947.703 905.271 949.459 905.434L949.135 907.419 936.612 907.419 946.379 864.42C946.947 861.934 947.23 859.894 947.23 858.3 947.23 857.22 947.055 856.436 946.703 855.95 946.352 855.463 945.798 855.22 945.042 855.22 944.204 855.22 943.319 855.565 942.387 856.254 941.455 856.943 940.179 858.192 938.557 860.002L936.247 857.733C938.679 855.193 940.739 853.363 942.428 852.241 944.117 851.12 945.987 850.56 948.041 850.56Z" fill-rule="evenodd"/><text fill="#000000" fill-opacity="0" font-family="Arial,Arial_MSFontService,sans-serif" font-size="56.8599" x="936.247" y="900.312">𝑝</text><path d="M1013.93 831.431 1015.02 834.551C1008.7 836.632 1004.02 840.691 1000.98 846.73 997.942 852.768 996.423 860.354 996.423 869.486 996.423 878.942 997.942 886.737 1000.98 892.87 1004.02 899.003 1008.66 903.11 1014.9 905.19L1013.93 908.311C1006.01 906.231 999.948 901.752 995.734 894.876 991.519 888 989.411 879.672 989.411 869.891 989.411 860.138 991.526 851.809 995.754 844.906 999.982 838.003 1006.04 833.511 1013.93 831.431Z" fill-rule="evenodd"/><text fill="#000000" fill-opacity="0" font-family="Arial,Arial_MSFontService,sans-serif" font-size="76.8804" x="989.411" y="898.701">(</text><path d="M1033.31 850.884 1035.7 850.884 1029.87 876.902C1029.27 879.55 1028.97 881.549 1028.97 882.9 1028.97 883.981 1029.15 884.765 1029.5 885.251 1029.85 885.737 1030.41 885.98 1031.16 885.98 1031.97 885.98 1032.84 885.649 1033.76 884.988 1034.67 884.326 1035.97 883.062 1037.65 881.198L1039.96 883.468C1037.31 886.251 1035.16 888.142 1033.51 889.142 1031.86 890.141 1030.01 890.641 1027.96 890.641 1026.2 890.641 1024.8 889.999 1023.75 888.716 1022.69 887.433 1022.17 885.791 1022.17 883.792 1022.17 881.739 1022.54 879.118 1023.3 875.93L1026.34 862.677C1026.96 859.975 1027.27 857.949 1027.27 856.598 1027.27 855.382 1026.98 854.558 1026.4 854.126 1025.82 853.694 1024.68 853.451 1022.98 853.396L1023.42 851.249ZM1032.22 835.362 1039.39 835.362 1037.53 843.224 1030.35 843.224Z" fill-rule="evenodd"/><text fill="#000000" fill-opacity="0" font-family="Arial,Arial_MSFontService,sans-serif" font-size="55.2793" x="1022.17" y="883.731">𝑖</text><path d="M1050.89 880.59 1057.98 880.59C1058.36 882.482 1058.55 884.346 1058.55 886.183 1058.55 888.074 1058.22 889.804 1057.58 891.371 1056.93 892.938 1055.89 894.498 1054.48 896.052 1053.06 897.605 1051.1 899.314 1048.62 901.178L1046.43 898.706C1047.81 897.409 1048.81 896.241 1049.43 895.2 1050.05 894.16 1050.5 892.978 1050.77 891.654 1051.04 890.33 1051.17 888.669 1051.17 886.669 1051.17 884.616 1051.08 882.59 1050.89 880.59Z" fill-rule="evenodd"/><text fill="#000000" fill-opacity="0" font-family="Arial,Arial_MSFontService,sans-serif" font-size="20.5879" x="1046.43" y="898.605">,</text><path d="M1097.31 850.884 1099.62 850.884 1091.19 890.682C1090.32 894.788 1089.15 898.091 1087.66 900.591 1086.18 903.09 1084.24 904.968 1081.87 906.224 1079.49 907.48 1076.65 908.108 1073.36 908.108 1072.01 908.108 1070.86 907.973 1069.91 907.703L1070.84 904.137C1071.41 904.353 1072.44 904.461 1073.92 904.461 1075.22 904.461 1076.32 904.265 1077.23 903.873 1078.13 903.482 1078.98 902.833 1079.76 901.928 1080.54 901.023 1081.27 899.76 1081.93 898.139 1082.59 896.518 1083.2 894.424 1083.77 891.857L1090.34 862.677C1090.96 859.921 1091.27 857.895 1091.27 856.598 1091.27 855.382 1090.98 854.558 1090.4 854.126 1089.82 853.694 1088.68 853.451 1086.97 853.396L1087.42 851.249ZM1096.21 835.362 1103.39 835.362 1101.52 843.224 1094.35 843.224Z" fill-rule="evenodd"/><text fill="#000000" fill-opacity="0" font-family="Arial,Arial_MSFontService,sans-serif" font-size="72.7466" x="1069.91" y="899.015">𝑗</text><path d="M1110.24 831.431C1118.13 833.511 1124.19 838.003 1128.42 844.906 1132.65 851.809 1134.76 860.138 1134.76 869.891 1134.76 879.672 1132.65 888 1128.44 894.876 1124.22 901.752 1118.16 906.231 1110.24 908.311L1109.27 905.19C1115.51 903.11 1120.15 899.003 1123.19 892.87 1126.23 886.737 1127.75 878.942 1127.75 869.486 1127.75 860.354 1126.24 852.768 1123.21 846.73 1120.19 840.691 1115.5 836.632 1109.15 834.551Z" fill-rule="evenodd"/><text fill="#000000" fill-opacity="0" font-family="Arial,Arial_MSFontService,sans-serif" font-size="76.8804" x="1109.15" y="898.701">)</text><path d="M0.46607-1.04676 1006.23 446.77 1005.3 448.863-0.46607 1.04676ZM1007.17 433.39 1026.7 457.137 995.984 458.513Z" transform="matrix(-1 0 0 1 3423.7 772)"/><rect x="3424.5" y="705.5" width="523" height="134" stroke="#000000" stroke-width="3.4375" stroke-linejoin="round" stroke-miterlimit="10" fill="none"/><text font-family="Yu Gothic,Yu Gothic_MSFontService,sans-serif" font-weight="400" font-size="83" transform="matrix(1 0 0 1 3487.81 798)">横辺</text><path d="M3697.41 740.032 3699.76 740.032 3692.79 768.117 3693.28 768.28C3695.84 764.875 3698.27 762.41 3700.55 760.883 3702.84 759.357 3705.14 758.594 3707.46 758.594 3709.98 758.594 3711.91 759.316 3713.26 760.762 3714.61 762.207 3715.28 764.213 3715.28 766.78 3715.28 768.482 3714.89 770.9 3714.11 774.034L3711.47 784.653C3710.75 787.598 3710.38 789.678 3710.38 790.894 3710.38 791.975 3710.56 792.758 3710.91 793.244 3711.26 793.731 3711.81 793.974 3712.57 793.974 3713.38 793.974 3714.24 793.643 3715.16 792.981 3716.08 792.319 3717.38 791.056 3719.05 789.192L3721.36 791.461C3718.77 794.19 3716.64 796.068 3714.98 797.094 3713.32 798.121 3711.45 798.635 3709.37 798.635 3707.61 798.635 3706.21 798.013 3705.17 796.77 3704.13 795.527 3703.61 793.92 3703.61 791.948 3703.61 790.191 3704.06 787.611 3704.95 784.207L3706.69 777.196C3707.31 774.683 3707.73 772.798 3707.95 771.542 3708.16 770.286 3708.27 769.306 3708.27 768.604 3708.27 766.685 3707.96 765.328 3707.34 764.531 3706.72 763.734 3705.71 763.335 3704.3 763.335 3703.19 763.335 3701.96 763.794 3700.61 764.713 3699.26 765.632 3697.84 767.03 3696.36 768.908 3694.87 770.785 3693.69 772.582 3692.81 774.298 3691.93 776.013 3691.24 778.06 3690.72 780.438L3687.04 797.986 3680.03 797.986 3690.44 751.663C3691.09 748.772 3691.41 746.773 3691.41 745.665 3691.41 744.531 3691.07 743.733 3690.38 743.274 3689.69 742.815 3688.46 742.558 3686.67 742.504L3687.16 740.397Z" fill-rule="evenodd"/><text fill="#000000" fill-opacity="0" font-family="Arial,Arial_MSFontService,sans-serif" font-size="58.6025" x="3680.03" y="791.309">ℎ</text><path d="M3755.36 739.424 3756.46 742.545C3750.14 744.625 3745.46 748.685 3742.42 754.723 3739.38 760.762 3737.86 768.347 3737.86 777.479 3737.86 786.936 3739.38 794.73 3742.42 800.864 3745.46 806.997 3750.1 811.103 3756.34 813.184L3755.36 816.304C3747.45 814.224 3741.38 809.746 3737.17 802.87 3732.95 795.993 3730.85 787.665 3730.85 777.885 3730.85 768.131 3732.96 759.803 3737.19 752.899 3741.42 745.996 3747.48 741.504 3755.36 739.424Z" fill-rule="evenodd"/><text fill="#000000" fill-opacity="0" font-family="Arial,Arial_MSFontService,sans-serif" font-size="76.8804" x="3730.85" y="806.694">(</text><path d="M3774.74 758.877 3777.14 758.877 3771.3 784.896C3770.71 787.544 3770.41 789.543 3770.41 790.894 3770.41 791.975 3770.58 792.758 3770.94 793.244 3771.29 793.731 3771.84 793.974 3772.6 793.974 3773.41 793.974 3774.27 793.643 3775.19 792.981 3776.11 792.319 3777.41 791.056 3779.08 789.192L3781.39 791.461C3778.74 794.244 3776.6 796.135 3774.95 797.135 3773.3 798.135 3771.45 798.635 3769.4 798.635 3767.64 798.635 3766.23 797.993 3765.18 796.709 3764.13 795.426 3763.6 793.785 3763.6 791.785 3763.6 789.732 3763.98 787.111 3764.73 783.923L3767.77 770.671C3768.4 767.969 3768.71 765.942 3768.71 764.592 3768.71 763.376 3768.42 762.552 3767.83 762.119 3767.25 761.687 3766.11 761.444 3764.41 761.39L3764.86 759.242ZM3773.65 743.355 3780.82 743.355 3778.96 751.218 3771.79 751.218Z" fill-rule="evenodd"/><text fill="#000000" fill-opacity="0" font-family="Arial,Arial_MSFontService,sans-serif" font-size="55.2793" x="3763.6" y="791.725">𝑖</text><path d="M3792.32 788.584 3799.42 788.584C3799.79 790.475 3799.98 792.339 3799.98 794.177 3799.98 796.068 3799.66 797.797 3799.01 799.364 3798.36 800.931 3797.33 802.491 3795.91 804.045 3794.49 805.598 3792.54 807.307 3790.05 809.172L3787.87 806.699C3789.24 805.403 3790.24 804.234 3790.86 803.194 3791.49 802.154 3791.93 800.972 3792.2 799.648 3792.47 798.324 3792.61 796.662 3792.61 794.663 3792.61 792.609 3792.51 790.583 3792.32 788.584Z" fill-rule="evenodd"/><text fill="#000000" fill-opacity="0" font-family="Arial,Arial_MSFontService,sans-serif" font-size="20.5879" x="3787.87" y="806.598">,</text><path d="M3838.74 758.877 3841.05 758.877 3832.62 798.675C3831.76 802.782 3830.58 806.085 3829.1 808.584 3827.61 811.083 3825.68 812.961 3823.3 814.217 3820.92 815.474 3818.09 816.102 3814.79 816.102 3813.44 816.102 3812.29 815.967 3811.35 815.697L3812.28 812.13C3812.85 812.346 3813.87 812.454 3815.36 812.454 3816.66 812.454 3817.76 812.258 3818.66 811.867 3819.57 811.475 3820.41 810.826 3821.19 809.921 3821.98 809.016 3822.7 807.753 3823.36 806.132 3824.02 804.511 3824.64 802.417 3825.21 799.85L3831.77 770.671C3832.39 767.915 3832.7 765.888 3832.7 764.592 3832.7 763.376 3832.41 762.552 3831.83 762.119 3831.25 761.687 3830.11 761.444 3828.41 761.39L3828.85 759.242ZM3837.65 743.355 3844.82 743.355 3842.96 751.218 3835.78 751.218Z" fill-rule="evenodd"/><text fill="#000000" fill-opacity="0" font-family="Arial,Arial_MSFontService,sans-serif" font-size="72.7466" x="3811.35" y="807.008">𝑗</text><path d="M3851.68 739.424C3859.57 741.504 3865.63 745.996 3869.85 752.899 3874.08 759.803 3876.2 768.131 3876.2 777.885 3876.2 787.665 3874.09 795.993 3869.87 802.87 3865.66 809.746 3859.59 814.224 3851.68 816.304L3850.7 813.184C3856.95 811.103 3861.59 806.997 3864.63 800.864 3867.67 794.73 3869.18 786.936 3869.18 777.479 3869.18 768.347 3867.67 760.762 3864.65 754.723 3861.62 748.685 3856.93 744.625 3850.58 742.545Z" fill-rule="evenodd"/><text fill="#000000" fill-opacity="0" font-family="Arial,Arial_MSFontService,sans-serif" font-size="76.8804" x="3850.58" y="806.694">)</text><path d="M0.827449-0.79263 764.898 796.842 763.243 798.427-0.827449 0.79263ZM770.83 784.814 779.924 814.184 750.972 803.837Z" transform="matrix(-1 0 0 1 2979.92 250)"/><rect x="2615.5" y="116.5" width="730" height="134" stroke="#000000" stroke-width="3.4375" stroke-linejoin="round" stroke-miterlimit="10" fill="none"/><text font-family="Yu Gothic,Yu Gothic_MSFontService,sans-serif" font-weight="400" font-size="83" transform="matrix(1 0 0 1 2710.01 209)">縦辺</text><path d="M2936.88 169.133C2938.83 169.133 2940.23 169.64 2941.09 170.653 2941.96 171.666 2942.39 173.024 2942.39 174.726 2942.39 176.023 2942.16 177.509 2941.7 179.184 2941.24 180.859 2940.6 182.629 2939.76 184.493 2938.92 186.357 2937.92 188.269 2936.76 190.228 2935.6 192.187 2934.31 194.091 2932.91 195.942 2931.5 197.793 2930 199.536 2928.41 201.17 2926.82 202.805 2925.16 204.23 2923.45 205.446 2921.73 206.662 2919.99 207.628 2918.22 208.344 2916.45 209.06 2914.68 209.418 2912.93 209.418 2912.15 209.418 2911.49 209.222 2910.96 208.83 2910.44 208.438 2910.01 207.884 2909.69 207.168 2909.36 206.452 2909.13 205.608 2909 204.635 2908.86 203.663 2908.79 202.595 2908.79 201.434 2908.79 199.894 2908.89 198.246 2909.08 196.489 2909.27 194.733 2909.51 192.963 2909.81 191.18L2911.51 179.954C2911.62 179.306 2911.71 178.691 2911.77 178.11 2911.84 177.529 2911.87 177.104 2911.87 176.834 2911.87 175.996 2911.74 175.307 2911.47 174.767 2911.2 174.226 2910.74 173.956 2910.09 173.956 2909.58 173.956 2909.02 174.111 2908.43 174.422 2907.84 174.733 2907.23 175.131 2906.63 175.618 2906.02 176.104 2905.43 176.624 2904.86 177.178 2904.3 177.732 2903.77 178.252 2903.28 178.738L2901.34 176.469C2902.18 175.604 2903.07 174.746 2904.01 173.895 2904.96 173.044 2905.96 172.274 2907.01 171.585 2908.07 170.896 2909.17 170.342 2910.33 169.924 2911.5 169.505 2912.69 169.295 2913.9 169.295 2914.93 169.295 2915.77 169.464 2916.41 169.802 2917.06 170.14 2917.57 170.586 2917.93 171.139 2918.3 171.693 2918.55 172.301 2918.68 172.963 2918.82 173.625 2918.89 174.28 2918.89 174.929 2918.89 175.307 2918.87 175.672 2918.85 176.023 2918.82 176.374 2918.78 176.698 2918.72 176.996L2916.45 191.667C2916.21 193.207 2916.01 194.713 2915.85 196.185 2915.68 197.658 2915.6 198.962 2915.6 200.096 2915.6 201.231 2915.67 202.15 2915.81 202.852 2915.94 203.555 2916.2 203.906 2916.58 203.906 2917.47 203.906 2918.59 203.548 2919.94 202.832 2921.29 202.116 2922.71 201.13 2924.2 199.873 2925.68 198.617 2927.17 197.131 2928.65 195.415 2930.14 193.7 2931.48 191.842 2932.67 189.843 2933.85 187.844 2934.82 185.736 2935.56 183.521 2936.31 181.305 2936.68 179.076 2936.68 176.834 2936.68 175.861 2936.47 175.111 2936.05 174.584 2935.63 174.057 2934.98 173.794 2934.08 173.794 2932.95 173.794 2931.9 174.233 2930.94 175.111 2929.98 175.989 2928.99 177.144 2927.96 178.576L2925.65 176.509C2926.3 175.537 2927.07 174.605 2927.94 173.713 2928.82 172.821 2929.75 172.038 2930.74 171.362 2931.73 170.687 2932.75 170.147 2933.8 169.741 2934.85 169.336 2935.88 169.133 2936.88 169.133Z" fill-rule="evenodd"/><text fill="#000000" fill-opacity="0" font-family="Arial,Arial_MSFontService,sans-serif" font-size="40.2842" x="2901.34" y="204.382">𝑣</text><path d="M2977.41 150.167 2978.5 153.287C2972.18 155.368 2967.5 159.427 2964.46 165.466 2961.42 171.504 2959.9 179.09 2959.9 188.222 2959.9 197.678 2961.42 205.473 2964.46 211.606 2967.5 217.739 2972.14 221.846 2978.38 223.926L2977.41 227.047C2969.49 224.967 2963.43 220.488 2959.21 213.612 2955 206.736 2952.89 198.408 2952.89 188.627 2952.89 178.873 2955 170.545 2959.23 163.642 2963.46 156.739 2969.52 152.247 2977.41 150.167Z" fill-rule="evenodd"/><text fill="#000000" fill-opacity="0" font-family="Arial,Arial_MSFontService,sans-serif" font-size="76.8804" x="2952.89" y="217.437">(</text><path d="M2996.79 169.62 2999.18 169.62 2993.34 195.638C2992.75 198.286 2992.45 200.285 2992.45 201.636 2992.45 202.717 2992.63 203.501 2992.98 203.987 2993.33 204.473 2993.88 204.716 2994.64 204.716 2995.45 204.716 2996.32 204.385 2997.23 203.723 2998.15 203.062 2999.45 201.798 3001.12 199.934L3003.43 202.204C3000.79 204.987 2998.64 206.878 2996.99 207.878 2995.34 208.877 2993.49 209.377 2991.44 209.377 2989.68 209.377 2988.28 208.735 2987.22 207.452 2986.17 206.169 2985.64 204.527 2985.64 202.528 2985.64 200.475 2986.02 197.854 2986.78 194.666L2989.82 181.413C2990.44 178.711 2990.75 176.685 2990.75 175.334 2990.75 174.118 2990.46 173.294 2989.88 172.862 2989.3 172.43 2988.16 172.186 2986.45 172.132L2986.9 169.984ZM2995.69 154.098 3002.87 154.098 3001 161.96 2993.83 161.96Z" fill-rule="evenodd"/><text fill="#000000" fill-opacity="0" font-family="Arial,Arial_MSFontService,sans-serif" font-size="55.2793" x="2985.64" y="202.467">𝑖</text><path d="M3033.31 182.305 3083.24 182.305 3083.24 187.695 3033.31 187.695Z" fill-rule="evenodd"/><text fill="#000000" fill-opacity="0" font-family="Arial,Arial_MSFontService,sans-serif" font-size="5.39014" x="3033.31" y="187.021">−</text><path d="M3133.66 152.76 3135.89 152.76C3135.73 155.354 3135.64 158.948 3135.64 163.541L3135.64 198.151C3135.64 199.718 3135.73 200.9 3135.91 201.697 3136.08 202.494 3136.39 203.143 3136.84 203.642 3137.29 204.142 3137.93 204.534 3138.76 204.818 3139.6 205.101 3140.66 205.318 3141.93 205.466 3143.2 205.615 3144.87 205.716 3146.95 205.77L3146.95 208.729 3117 208.729 3117 205.77C3120 205.635 3122.14 205.453 3123.43 205.223 3124.71 204.993 3125.69 204.649 3126.36 204.19 3127.04 203.73 3127.53 203.082 3127.84 202.244 3128.15 201.407 3128.31 200.042 3128.31 198.151L3128.31 165.283C3128.31 164.203 3128.12 163.412 3127.74 162.912 3127.36 162.413 3126.81 162.163 3126.08 162.163 3125.22 162.163 3123.99 162.608 3122.39 163.5 3120.8 164.392 3118.83 165.621 3116.47 167.188L3114.69 164.067Z" fill-rule="evenodd"/><text fill="#000000" fill-opacity="0" font-family="Arial,Arial_MSFontService,sans-serif" font-size="55.9683" x="3114.69" y="201.733">1</text><path d="M3158.74 199.326 3165.83 199.326C3166.21 201.218 3166.4 203.082 3166.4 204.919 3166.4 206.81 3166.08 208.539 3165.43 210.107 3164.78 211.674 3163.75 213.234 3162.33 214.787 3160.91 216.341 3158.96 218.05 3156.47 219.914L3154.28 217.442C3155.66 216.145 3156.66 214.977 3157.28 213.936 3157.9 212.896 3158.35 211.714 3158.62 210.39 3158.89 209.066 3159.03 207.405 3159.03 205.405 3159.03 203.352 3158.93 201.326 3158.74 199.326Z" fill-rule="evenodd"/><text fill="#000000" fill-opacity="0" font-family="Arial,Arial_MSFontService,sans-serif" font-size="20.5879" x="3154.28" y="217.341">,</text><path d="M3205.16 169.62 3207.47 169.62 3199.04 209.418C3198.18 213.524 3197 216.827 3195.52 219.326 3194.03 221.826 3192.1 223.703 3189.72 224.96 3187.34 226.216 3184.51 226.844 3181.21 226.844 3179.86 226.844 3178.71 226.709 3177.76 226.439L3178.7 222.873C3179.26 223.089 3180.29 223.197 3181.78 223.197 3183.07 223.197 3184.17 223.001 3185.08 222.609 3185.98 222.217 3186.83 221.569 3187.61 220.664 3188.4 219.759 3189.12 218.496 3189.78 216.875 3190.44 215.253 3191.06 213.16 3191.62 210.593L3198.19 181.413C3198.81 178.657 3199.12 176.631 3199.12 175.334 3199.12 174.118 3198.83 173.294 3198.25 172.862 3197.67 172.43 3196.53 172.186 3194.83 172.132L3195.27 169.984ZM3204.07 154.098 3211.24 154.098 3209.38 161.96 3202.2 161.96Z" fill-rule="evenodd"/><text fill="#000000" fill-opacity="0" font-family="Arial,Arial_MSFontService,sans-serif" font-size="72.7466" x="3177.76" y="217.751">𝑗</text><path d="M3218.1 150.167C3225.98 152.247 3232.04 156.739 3236.27 163.642 3240.5 170.545 3242.61 178.873 3242.61 188.627 3242.61 198.408 3240.51 206.736 3236.29 213.612 3232.08 220.488 3226.01 224.967 3218.1 227.047L3217.12 223.926C3223.36 221.846 3228 217.739 3231.04 211.606 3234.08 205.473 3235.6 197.678 3235.6 188.222 3235.6 179.09 3234.09 171.504 3231.06 165.466 3228.04 159.427 3223.35 155.368 3217 153.287Z" fill-rule="evenodd"/><text fill="#000000" fill-opacity="0" font-family="Arial,Arial_MSFontService,sans-serif" font-size="76.8804" x="3217" y="217.437">)</text><path d="M3162.42 1816.43 2221.91 1574.81 2222.48 1572.59 3162.99 1814.22ZM2223.21 1588.16 2200 1568 2230.06 1561.53Z"/><rect x="3163.5" y="1748.5" width="523" height="134" stroke="#000000" stroke-width="3.4375" stroke-linejoin="round" stroke-miterlimit="10" fill="none"/><text font-family="Yu Gothic,Yu Gothic_MSFontService,sans-serif" font-weight="400" font-size="83" transform="matrix(1 0 0 1 3226.43 1841)">縦辺</text><path d="M3453.3 1801.29C3455.25 1801.29 3456.65 1801.79 3457.52 1802.81 3458.38 1803.82 3458.81 1805.18 3458.81 1806.88 3458.81 1808.18 3458.58 1809.66 3458.12 1811.34 3457.67 1813.01 3457.02 1814.78 3456.18 1816.65 3455.34 1818.51 3454.34 1820.42 3453.18 1822.38 3452.02 1824.34 3450.74 1826.25 3449.33 1828.1 3447.93 1829.95 3446.43 1831.69 3444.83 1833.32 3443.24 1834.96 3441.58 1836.38 3439.87 1837.6 3438.15 1838.82 3436.41 1839.78 3434.64 1840.5 3432.87 1841.21 3431.11 1841.57 3429.35 1841.57 3428.57 1841.57 3427.91 1841.38 3427.39 1840.98 3426.86 1840.59 3426.43 1840.04 3426.11 1839.32 3425.78 1838.61 3425.55 1837.76 3425.42 1836.79 3425.28 1835.82 3425.22 1834.75 3425.22 1833.59 3425.22 1832.05 3425.31 1830.4 3425.5 1828.64 3425.69 1826.89 3425.93 1825.12 3426.23 1823.33L3427.93 1812.11C3428.04 1811.46 3428.13 1810.85 3428.2 1810.26 3428.26 1809.68 3428.3 1809.26 3428.3 1808.99 3428.3 1808.15 3428.16 1807.46 3427.89 1806.92 3427.62 1806.38 3427.16 1806.11 3426.51 1806.11 3426 1806.11 3425.45 1806.27 3424.85 1806.58 3424.26 1806.89 3423.66 1807.29 3423.05 1807.77 3422.44 1808.26 3421.85 1808.78 3421.29 1809.33 3420.72 1809.89 3420.19 1810.41 3419.71 1810.89L3417.76 1808.62C3418.6 1807.76 3419.49 1806.9 3420.43 1806.05 3421.38 1805.2 3422.38 1804.43 3423.43 1803.74 3424.49 1803.05 3425.59 1802.5 3426.76 1802.08 3427.92 1801.66 3429.11 1801.45 3430.32 1801.45 3431.35 1801.45 3432.19 1801.62 3432.84 1801.96 3433.48 1802.29 3433.99 1802.74 3434.36 1803.29 3434.72 1803.85 3434.97 1804.46 3435.11 1805.12 3435.24 1805.78 3435.31 1806.43 3435.31 1807.08 3435.31 1807.46 3435.29 1807.83 3435.27 1808.18 3435.24 1808.53 3435.2 1808.85 3435.15 1809.15L3432.88 1823.82C3432.63 1825.36 3432.43 1826.87 3432.27 1828.34 3432.11 1829.81 3432.03 1831.12 3432.03 1832.25 3432.03 1833.39 3432.09 1834.3 3432.23 1835.01 3432.36 1835.71 3432.62 1836.06 3433 1836.06 3433.89 1836.06 3435.01 1835.7 3436.36 1834.99 3437.71 1834.27 3439.13 1833.28 3440.62 1832.03 3442.1 1830.77 3443.59 1829.29 3445.08 1827.57 3446.56 1825.85 3447.9 1824 3449.09 1822 3450.28 1820 3451.24 1817.89 3451.99 1815.68 3452.73 1813.46 3453.1 1811.23 3453.1 1808.99 3453.1 1808.02 3452.89 1807.27 3452.47 1806.74 3452.05 1806.21 3451.4 1805.95 3450.51 1805.95 3449.37 1805.95 3448.32 1806.39 3447.36 1807.27 3446.41 1808.14 3445.41 1809.3 3444.39 1810.73L3442.08 1808.66C3442.72 1807.69 3443.49 1806.76 3444.37 1805.87 3445.24 1804.98 3446.18 1804.19 3447.16 1803.52 3448.15 1802.84 3449.17 1802.3 3450.22 1801.9 3451.28 1801.49 3452.3 1801.29 3453.3 1801.29Z" fill-rule="evenodd"/><text fill="#000000" fill-opacity="0" font-family="Arial,Arial_MSFontService,sans-serif" font-size="40.2842" x="3417.76" y="1836.54">𝑣</text><path d="M3493.83 1782.32 3494.92 1785.44C3488.6 1787.52 3483.92 1791.58 3480.88 1797.62 3477.84 1803.66 3476.32 1811.24 3476.32 1820.38 3476.32 1829.83 3477.84 1837.63 3480.88 1843.76 3483.92 1849.89 3488.56 1854 3494.8 1856.08L3493.83 1859.2C3485.91 1857.12 3479.85 1852.64 3475.63 1845.77 3471.42 1838.89 3469.31 1830.56 3469.31 1820.78 3469.31 1811.03 3471.43 1802.7 3475.65 1795.8 3479.88 1788.89 3485.94 1784.4 3493.83 1782.32Z" fill-rule="evenodd"/><text fill="#000000" fill-opacity="0" font-family="Arial,Arial_MSFontService,sans-serif" font-size="76.8804" x="3469.31" y="1849.59">(</text><path d="M3513.21 1801.77 3515.6 1801.77 3509.77 1827.79C3509.17 1830.44 3508.87 1832.44 3508.87 1833.79 3508.87 1834.87 3509.05 1835.66 3509.4 1836.14 3509.75 1836.63 3510.31 1836.87 3511.06 1836.87 3511.87 1836.87 3512.74 1836.54 3513.66 1835.88 3514.57 1835.22 3515.87 1833.95 3517.55 1832.09L3519.86 1834.36C3517.21 1837.14 3515.06 1839.03 3513.41 1840.03 3511.76 1841.03 3509.91 1841.53 3507.86 1841.53 3506.1 1841.53 3504.7 1840.89 3503.65 1839.61 3502.59 1838.32 3502.07 1836.68 3502.07 1834.68 3502.07 1832.63 3502.44 1830.01 3503.2 1826.82L3506.24 1813.57C3506.86 1810.87 3507.17 1808.84 3507.17 1807.49 3507.17 1806.27 3506.88 1805.45 3506.3 1805.02 3505.72 1804.58 3504.58 1804.34 3502.88 1804.29L3503.32 1802.14ZM3512.12 1786.25 3519.29 1786.25 3517.43 1794.11 3510.25 1794.11Z" fill-rule="evenodd"/><text fill="#000000" fill-opacity="0" font-family="Arial,Arial_MSFontService,sans-serif" font-size="55.2793" x="3502.07" y="1834.62">𝑖</text><path d="M3530.79 1831.48 3537.88 1831.48C3538.26 1833.37 3538.45 1835.24 3538.45 1837.07 3538.45 1838.96 3538.12 1840.69 3537.48 1842.26 3536.83 1843.83 3535.79 1845.39 3534.38 1846.94 3532.96 1848.5 3531.01 1850.2 3528.52 1852.07L3526.33 1849.6C3527.71 1848.3 3528.71 1847.13 3529.33 1846.09 3529.95 1845.05 3530.4 1843.87 3530.67 1842.54 3530.94 1841.22 3531.07 1839.56 3531.07 1837.56 3531.07 1835.51 3530.98 1833.48 3530.79 1831.48Z" fill-rule="evenodd"/><text fill="#000000" fill-opacity="0" font-family="Arial,Arial_MSFontService,sans-serif" font-size="20.5879" x="3526.33" y="1849.5">,</text><path d="M3577.21 1801.77 3579.52 1801.77 3571.09 1841.57C3570.22 1845.68 3569.05 1848.98 3567.56 1851.48 3566.08 1853.98 3564.14 1855.86 3561.77 1857.11 3559.39 1858.37 3556.55 1859 3553.26 1859 3551.91 1859 3550.76 1858.86 3549.81 1858.59L3550.74 1855.03C3551.31 1855.24 3552.34 1855.35 3553.82 1855.35 3555.12 1855.35 3556.22 1855.16 3557.13 1854.76 3558.03 1854.37 3558.88 1853.72 3559.66 1852.82 3560.44 1851.91 3561.17 1850.65 3561.83 1849.03 3562.49 1847.41 3563.1 1845.31 3563.67 1842.75L3570.24 1813.57C3570.86 1810.81 3571.17 1808.79 3571.17 1807.49 3571.17 1806.27 3570.88 1805.45 3570.3 1805.02 3569.72 1804.58 3568.58 1804.34 3566.87 1804.29L3567.32 1802.14ZM3576.11 1786.25 3583.29 1786.25 3581.42 1794.11 3574.25 1794.11Z" fill-rule="evenodd"/><text fill="#000000" fill-opacity="0" font-family="Arial,Arial_MSFontService,sans-serif" font-size="72.7466" x="3549.81" y="1849.91">𝑗</text><path d="M3590.14 1782.32C3598.03 1784.4 3604.09 1788.89 3608.32 1795.8 3612.55 1802.7 3614.66 1811.03 3614.66 1820.78 3614.66 1830.56 3612.55 1838.89 3608.34 1845.77 3604.12 1852.64 3598.06 1857.12 3590.14 1859.2L3589.17 1856.08C3595.41 1854 3600.05 1849.89 3603.09 1843.76 3606.13 1837.63 3607.65 1829.83 3607.65 1820.38 3607.65 1811.24 3606.14 1803.66 3603.11 1797.62 3600.09 1791.58 3595.4 1787.52 3589.05 1785.44Z" fill-rule="evenodd"/><text fill="#000000" fill-opacity="0" font-family="Arial,Arial_MSFontService,sans-serif" font-size="76.8804" x="3589.05" y="1849.59">)</text><path d="M0.368317-1.08502 947.155 320.307 946.419 322.477-0.368317 1.08502ZM946.869 306.899 968.489 328.759 938.029 332.94Z" transform="matrix(1 0 0 -1 1008 1577.76)"/><rect x="659.5" y="1578.5" width="647" height="133" stroke="#000000" stroke-width="3.4375" stroke-linejoin="round" stroke-miterlimit="10" fill="none"/><text font-family="Yu Gothic,Yu Gothic_MSFontService,sans-serif" font-weight="400" font-size="83" transform="matrix(1 0 0 1 712.273 1670)">横辺</text><path d="M921.878 1612.36 924.228 1612.36 917.257 1640.45 917.744 1640.61C920.31 1637.21 922.735 1634.74 925.018 1633.21 927.301 1631.69 929.605 1630.93 931.928 1630.93 934.441 1630.93 936.373 1631.65 937.724 1633.09 939.075 1634.54 939.75 1636.54 939.75 1639.11 939.75 1640.81 939.358 1643.23 938.575 1646.37L935.941 1656.98C935.211 1659.93 934.846 1662.01 934.846 1663.23 934.846 1664.31 935.022 1665.09 935.373 1665.58 935.724 1666.06 936.278 1666.31 937.035 1666.31 937.845 1666.31 938.71 1665.97 939.629 1665.31 940.547 1664.65 941.844 1663.39 943.519 1661.52L945.829 1663.79C943.235 1666.52 941.108 1668.4 939.446 1669.43 937.785 1670.45 935.914 1670.97 933.833 1670.97 932.077 1670.97 930.679 1670.34 929.639 1669.1 928.598 1667.86 928.078 1666.25 928.078 1664.28 928.078 1662.52 928.524 1659.94 929.416 1656.54L931.158 1649.53C931.78 1647.01 932.199 1645.13 932.415 1643.87 932.631 1642.62 932.739 1641.64 932.739 1640.94 932.739 1639.02 932.428 1637.66 931.807 1636.86 931.185 1636.07 930.172 1635.67 928.767 1635.67 927.659 1635.67 926.43 1636.13 925.079 1637.04 923.728 1637.96 922.31 1639.36 920.824 1641.24 919.338 1643.12 918.156 1644.91 917.278 1646.63 916.4 1648.35 915.704 1650.39 915.191 1652.77L911.503 1670.32 904.491 1670.32 914.907 1623.99C915.555 1621.1 915.88 1619.1 915.88 1618 915.88 1616.86 915.535 1616.07 914.846 1615.61 914.157 1615.15 912.921 1614.89 911.138 1614.84L911.624 1612.73Z" fill-rule="evenodd"/><text fill="#000000" fill-opacity="0" font-family="Arial,Arial_MSFontService,sans-serif" font-size="58.6025" x="904.491" y="1663.64">ℎ</text><path d="M979.831 1611.76 980.925 1614.88C974.603 1616.96 969.922 1621.02 966.882 1627.05 963.843 1633.09 962.323 1640.68 962.323 1649.81 962.323 1659.27 963.843 1667.06 966.882 1673.2 969.922 1679.33 974.562 1683.44 980.804 1685.52L979.831 1688.64C971.915 1686.56 965.849 1682.08 961.634 1675.2 957.419 1668.33 955.312 1660 955.312 1650.22 955.312 1640.46 957.426 1632.13 961.654 1625.23 965.883 1618.33 971.942 1613.84 979.831 1611.76Z" fill-rule="evenodd"/><text fill="#000000" fill-opacity="0" font-family="Arial,Arial_MSFontService,sans-serif" font-size="76.8804" x="955.312" y="1679.03">(</text><path d="M999.211 1631.21 1001.6 1631.21 995.766 1657.23C995.172 1659.88 994.874 1661.87 994.874 1663.23 994.874 1664.31 995.05 1665.09 995.401 1665.58 995.753 1666.06 996.306 1666.31 997.063 1666.31 997.873 1666.31 998.738 1665.97 999.657 1665.31 1000.58 1664.65 1001.87 1663.39 1003.55 1661.52L1005.86 1663.79C1003.21 1666.58 1001.06 1668.47 999.413 1669.47 997.765 1670.47 995.915 1670.97 993.861 1670.97 992.105 1670.97 990.7 1670.32 989.646 1669.04 988.593 1667.76 988.066 1666.12 988.066 1664.12 988.066 1662.06 988.444 1659.44 989.201 1656.25L992.24 1643C992.862 1640.3 993.172 1638.27 993.172 1636.92 993.172 1635.71 992.882 1634.88 992.301 1634.45 991.72 1634.02 990.578 1633.78 988.876 1633.72L989.322 1631.57ZM998.117 1615.69 1005.29 1615.69 1003.43 1623.55 996.252 1623.55Z" fill-rule="evenodd"/><text fill="#000000" fill-opacity="0" font-family="Arial,Arial_MSFontService,sans-serif" font-size="55.2793" x="988.066" y="1664.06">𝑖</text><path d="M1016.79 1660.92 1023.88 1660.92C1024.26 1662.81 1024.45 1664.67 1024.45 1666.51 1024.45 1668.4 1024.12 1670.13 1023.48 1671.7 1022.83 1673.26 1021.79 1674.82 1020.38 1676.38 1018.96 1677.93 1017.01 1679.64 1014.52 1681.5L1012.33 1679.03C1013.71 1677.73 1014.71 1676.57 1015.33 1675.53 1015.95 1674.49 1016.4 1673.3 1016.67 1671.98 1016.94 1670.66 1017.07 1668.99 1017.07 1666.99 1017.07 1664.94 1016.98 1662.91 1016.79 1660.92Z" fill-rule="evenodd"/><text fill="#000000" fill-opacity="0" font-family="Arial,Arial_MSFontService,sans-serif" font-size="20.5879" x="1012.33" y="1678.93">,</text><path d="M1063.21 1631.21 1065.52 1631.21 1057.09 1671.01C1056.22 1675.11 1055.05 1678.42 1053.56 1680.92 1052.08 1683.41 1050.14 1685.29 1047.77 1686.55 1045.39 1687.81 1042.55 1688.43 1039.26 1688.43 1037.91 1688.43 1036.76 1688.3 1035.81 1688.03L1036.74 1684.46C1037.31 1684.68 1038.34 1684.79 1039.82 1684.79 1041.12 1684.79 1042.22 1684.59 1043.13 1684.2 1044.03 1683.81 1044.88 1683.16 1045.66 1682.25 1046.44 1681.35 1047.17 1680.08 1047.83 1678.46 1048.49 1676.84 1049.1 1674.75 1049.67 1672.18L1056.24 1643C1056.86 1640.25 1057.17 1638.22 1057.17 1636.92 1057.17 1635.71 1056.88 1634.88 1056.3 1634.45 1055.72 1634.02 1054.58 1633.78 1052.87 1633.72L1053.32 1631.57ZM1062.11 1615.69 1069.29 1615.69 1067.42 1623.55 1060.25 1623.55Z" fill-rule="evenodd"/><text fill="#000000" fill-opacity="0" font-family="Arial,Arial_MSFontService,sans-serif" font-size="72.7466" x="1035.81" y="1679.34">𝑗</text><path d="M1097.88 1643.89 1147.81 1643.89 1147.81 1649.28 1097.88 1649.28Z" fill-rule="evenodd"/><text fill="#000000" fill-opacity="0" font-family="Arial,Arial_MSFontService,sans-serif" font-size="5.39014" x="1097.88" y="1648.61">−</text><path d="M1198.23 1614.35 1200.46 1614.35C1200.3 1616.94 1200.22 1620.54 1200.22 1625.13L1200.22 1659.74C1200.22 1661.31 1200.3 1662.49 1200.48 1663.29 1200.66 1664.08 1200.97 1664.73 1201.41 1665.23 1201.86 1665.73 1202.5 1666.12 1203.34 1666.41 1204.17 1666.69 1205.23 1666.91 1206.5 1667.06 1207.77 1667.2 1209.44 1667.31 1211.52 1667.36L1211.52 1670.32 1181.57 1670.32 1181.57 1667.36C1184.57 1667.22 1186.71 1667.04 1188 1666.81 1189.28 1666.58 1190.26 1666.24 1190.94 1665.78 1191.61 1665.32 1192.1 1664.67 1192.42 1663.83 1192.73 1663 1192.88 1661.63 1192.88 1659.74L1192.88 1626.87C1192.88 1625.79 1192.69 1625 1192.31 1624.5 1191.94 1624 1191.38 1623.75 1190.65 1623.75 1189.79 1623.75 1188.56 1624.2 1186.96 1625.09 1185.37 1625.98 1183.4 1627.21 1181.05 1628.78L1179.26 1625.66Z" fill-rule="evenodd"/><text fill="#000000" fill-opacity="0" font-family="Arial,Arial_MSFontService,sans-serif" font-size="55.9683" x="1179.26" y="1663.32">1</text><path d="M1220.52 1611.76C1228.41 1613.84 1234.47 1618.33 1238.69 1625.23 1242.92 1632.13 1245.04 1640.46 1245.04 1650.22 1245.04 1660 1242.93 1668.33 1238.71 1675.2 1234.5 1682.08 1228.43 1686.56 1220.52 1688.64L1219.55 1685.52C1225.79 1683.44 1230.43 1679.33 1233.47 1673.2 1236.51 1667.06 1238.03 1659.27 1238.03 1649.81 1238.03 1640.68 1236.51 1633.09 1233.49 1627.05 1230.46 1621.02 1225.77 1616.96 1219.42 1614.88Z" fill-rule="evenodd"/><text fill="#000000" fill-opacity="0" font-family="Arial,Arial_MSFontService,sans-serif" font-size="76.8804" x="1219.42" y="1679.03">)</text></g></svg>