<svg width="1950" height="1215" xmlns="http://www.w3.org/2000/svg" xmlns:xlink="http://www.w3.org/1999/xlink" xml:space="preserve" overflow="hidden"><defs><clipPath id="clip0"><rect x="272" y="1073" width="1950" height="1215"/></clipPath></defs><g clip-path="url(#clip0)" transform="translate(-272 -1073)"><path d="M1177 1789.5C1177 1756.64 1204.53 1730 1238.5 1730 1272.47 1730 1300 1756.64 1300 1789.5 1300 1822.36 1272.47 1849 1238.5 1849 1204.53 1849 1177 1822.36 1177 1789.5Z" fill="#D9D9D9" fill-rule="evenodd" fill-opacity="0.819608"/><path d="M1016.67 1344.69 1016.67 2230.31" stroke="#000000" stroke-width="2.29167" stroke-linejoin="round" stroke-miterlimit="10" stroke-dasharray="2.29167 6.875" fill="none" fill-rule="evenodd"/><path d="M1237.5 1344.69 1237.5 1565.52" stroke="#000000" stroke-width="2.29167" stroke-linejoin="round" stroke-miterlimit="10" stroke-dasharray="2.29167 6.875" fill="none" fill-rule="evenodd"/><path d="M1237.5 1565.52 1237.5 2009.48" stroke="#ED7D31" stroke-width="6.875" stroke-linejoin="round" stroke-miterlimit="10" fill="none" fill-rule="evenodd"/><path d="M1237.5 2009.48 1237.5 2230.31" stroke="#000000" stroke-width="2.29167" stroke-linejoin="round" stroke-miterlimit="10" stroke-dasharray="2.29167 6.875" fill="none" fill-rule="evenodd"/><path d="M1458.33 1344.69 1458.33 2230.31" stroke="#000000" stroke-width="2.29167" stroke-linejoin="round" stroke-miterlimit="10" stroke-dasharray="2.29167 6.875" fill="none" fill-rule="evenodd"/><path d="M794.689 1566.67 1680.31 1566.67" stroke="#000000" stroke-width="2.29167" stroke-linejoin="round" stroke-miterlimit="10" stroke-dasharray="2.29167 6.875" fill="none" fill-rule="evenodd"/><path d="M794.689 1787.5 1015.52 1787.5" stroke="#000000" stroke-width="2.29167" stroke-linejoin="round" stroke-miterlimit="10" stroke-dasharray="2.29167 6.875" fill="none" fill-rule="evenodd"/><path d="M1015.52 1787.5 1459.48 1787.5" stroke="#ED7D31" stroke-width="6.875" stroke-linejoin="round" stroke-miterlimit="10" fill="none" fill-rule="evenodd"/><path d="M1459.48 1787.5 1680.31 1787.5" stroke="#000000" stroke-width="2.29167" stroke-linejoin="round" stroke-miterlimit="10" stroke-dasharray="2.29167 6.875" fill="none" fill-rule="evenodd"/><path d="M794.689 2008.33 1680.31 2008.33" stroke="#000000" stroke-width="2.29167" stroke-linejoin="round" stroke-miterlimit="10" stroke-dasharray="2.29167 6.875" fill="none" fill-rule="evenodd"/><path d="M795.835 1344.69 795.835 2230.31" stroke="#000000" stroke-width="2.29167" stroke-linejoin="round" stroke-miterlimit="10" stroke-dasharray="2.29167 6.875" fill="none" fill-rule="evenodd"/><path d="M1679.17 1344.69 1679.17 2230.31" stroke="#000000" stroke-width="2.29167" stroke-linejoin="round" stroke-miterlimit="10" stroke-dasharray="2.29167 6.875" fill="none" fill-rule="evenodd"/><path d="M794.689 1345.83 1680.31 1345.83" stroke="#000000" stroke-width="2.29167" stroke-linejoin="round" stroke-miterlimit="10" stroke-dasharray="2.29167 6.875" fill="none" fill-rule="evenodd"/><path d="M794.689 2229.17 1680.31 2229.17" stroke="#000000" stroke-width="2.29167" stroke-linejoin="round" stroke-miterlimit="10" stroke-dasharray="2.29167 6.875" fill="none" fill-rule="evenodd"/><path d="M672.386 1575.92 1167.86 1753.13 1167.09 1755.29 671.614 1578.08ZM1167.79 1739.72 1189.05 1761.93 1158.53 1765.61Z"/><rect x="344.5" y="1540.5" width="328" height="211" stroke="#000000" stroke-width="3.4375" stroke-linejoin="round" stroke-miterlimit="10" fill="none"/><text font-family="Yu Gothic,Yu Gothic_MSFontService,sans-serif" font-weight="400" font-size="73" transform="matrix(1 0 0 1 398.013 1624)">格子点</text><path d="M442.81 1683.03C441.598 1683.03 440.404 1683.44 439.227 1684.26 438.051 1685.08 436.762 1686.39 435.36 1688.2 433.958 1690 432.865 1691.78 432.081 1693.54 431.296 1695.3 430.679 1697.32 430.227 1699.6L429.942 1701.1C429.704 1702.36 429.556 1703.32 429.496 1703.99 429.437 1704.65 429.407 1705.3 429.407 1705.95 429.407 1707.8 429.805 1709.15 430.601 1709.99 431.397 1710.84 432.77 1711.26 434.718 1711.26 435.93 1711.26 437.047 1711.02 438.069 1710.54 439.091 1710.07 440.059 1709.38 440.974 1708.48 441.889 1707.57 442.714 1706.48 443.451 1705.2 444.188 1703.91 444.847 1702.42 445.429 1700.72 446.012 1699.03 446.451 1697.28 446.748 1695.48 447.045 1693.69 447.194 1692.01 447.194 1690.44 447.194 1687.95 446.843 1686.09 446.142 1684.86 445.441 1683.64 444.33 1683.03 442.81 1683.03ZM427.803 1678.82C429.276 1678.82 430.447 1679.31 431.314 1680.28 432.182 1681.26 432.615 1682.55 432.615 1684.17 432.615 1685.5 432.342 1686.9 431.795 1688.37L432.223 1688.52C436.619 1682.08 440.992 1678.86 445.34 1678.86 447.93 1678.86 449.944 1679.84 451.382 1681.81 452.82 1683.79 453.539 1686.57 453.539 1690.16 453.539 1694.08 452.748 1697.93 451.168 1701.72 449.588 1705.51 447.396 1708.52 444.592 1710.74 441.788 1712.96 438.651 1714.07 435.182 1714.07 432.021 1714.07 429.395 1713.38 427.304 1712.01L425.665 1719.81C425.308 1721.5 425.13 1722.89 425.13 1723.98 425.13 1725.03 425.397 1725.77 425.932 1726.21 426.467 1726.65 427.506 1726.94 429.051 1727.08L428.766 1728.83 417.751 1728.83 426.342 1691.01C426.841 1688.82 427.09 1687.03 427.09 1685.63 427.09 1684.68 426.936 1683.99 426.627 1683.56 426.318 1683.13 425.831 1682.92 425.165 1682.92 424.429 1682.92 423.651 1683.22 422.831 1683.83 422.011 1684.43 420.888 1685.53 419.462 1687.13L417.431 1685.13C419.569 1682.9 421.381 1681.29 422.866 1680.3 424.352 1679.31 425.997 1678.82 427.803 1678.82Z" fill-rule="evenodd"/><text fill="#000000" fill-opacity="0" font-family="Arial,Arial_MSFontService,sans-serif" font-size="50.0093" x="417.431" y="1722.58">𝑝</text><path d="M486.127 1662 487.089 1664.74C481.529 1666.57 477.412 1670.14 474.739 1675.45 472.065 1680.76 470.729 1687.43 470.729 1695.47 470.729 1703.78 472.065 1710.64 474.739 1716.03 477.412 1721.43 481.493 1725.04 486.982 1726.87L486.127 1729.61C479.164 1727.78 473.83 1723.85 470.123 1717.8 466.416 1711.75 464.562 1704.43 464.562 1695.82 464.562 1687.24 466.421 1679.92 470.14 1673.85 473.859 1667.78 479.188 1663.83 486.127 1662Z" fill-rule="evenodd"/><text fill="#000000" fill-opacity="0" font-family="Arial,Arial_MSFontService,sans-serif" font-size="67.6177" x="464.562" y="1721.16">(</text><path d="M503.303 1679.11 505.406 1679.11 500.273 1701.99C499.75 1704.32 499.489 1706.08 499.489 1707.26 499.489 1708.22 499.644 1708.9 499.952 1709.33 500.261 1709.76 500.749 1709.97 501.414 1709.97 502.127 1709.97 502.887 1709.68 503.695 1709.1 504.503 1708.52 505.644 1707.41 507.117 1705.77L509.149 1707.76C506.82 1710.21 504.931 1711.87 503.481 1712.75 502.032 1713.63 500.404 1714.07 498.598 1714.07 497.053 1714.07 495.818 1713.51 494.891 1712.38 493.964 1711.25 493.501 1709.81 493.501 1708.05 493.501 1706.24 493.833 1703.94 494.499 1701.13L497.172 1689.48C497.719 1687.1 497.992 1685.32 497.992 1684.13 497.992 1683.06 497.737 1682.34 497.226 1681.96 496.715 1681.58 495.711 1681.36 494.214 1681.32L494.606 1679.43ZM502.341 1665.45 508.65 1665.45 507.01 1672.37 500.701 1672.37Z" fill-rule="evenodd"/><text fill="#000000" fill-opacity="0" font-family="Arial,Arial_MSFontService,sans-serif" font-size="48.6191" x="493.501" y="1708">𝑖</text><path d="M519.114 1705.23 525.352 1705.23C525.685 1706.9 525.851 1708.54 525.851 1710.15 525.851 1711.82 525.566 1713.34 524.995 1714.71 524.425 1716.09 523.516 1717.47 522.269 1718.83 521.021 1720.2 519.304 1721.7 517.118 1723.34L515.193 1721.17C516.405 1720.03 517.284 1719 517.831 1718.08 518.377 1717.17 518.769 1716.13 519.007 1714.96 519.245 1713.8 519.364 1712.34 519.364 1710.58 519.364 1708.77 519.28 1706.99 519.114 1705.23Z" fill-rule="evenodd"/><text fill="#000000" fill-opacity="0" font-family="Arial,Arial_MSFontService,sans-serif" font-size="18.1074" x="515.193" y="1721.08">,</text><path d="M559.841 1679.11 561.872 1679.11 554.458 1714.11C553.698 1717.72 552.664 1720.63 551.357 1722.82 550.05 1725.02 548.351 1726.67 546.26 1727.78 544.169 1728.88 541.674 1729.44 538.775 1729.44 537.587 1729.44 536.577 1729.32 535.745 1729.08L536.565 1725.94C537.064 1726.13 537.967 1726.23 539.274 1726.23 540.414 1726.23 541.383 1726.06 542.179 1725.71 542.975 1725.37 543.717 1724.8 544.407 1724 545.096 1723.2 545.731 1722.09 546.314 1720.67 546.896 1719.24 547.436 1717.4 547.935 1715.14L553.71 1689.48C554.256 1687.05 554.53 1685.27 554.53 1684.13 554.53 1683.06 554.274 1682.34 553.763 1681.96 553.252 1681.58 552.248 1681.36 550.751 1681.32L551.143 1679.43ZM558.878 1665.45 565.187 1665.45 563.548 1672.37 557.239 1672.37Z" fill-rule="evenodd"/><text fill="#000000" fill-opacity="0" font-family="Arial,Arial_MSFontService,sans-serif" font-size="63.9819" x="535.745" y="1721.44">𝑗</text><path d="M571.38 1662C578.318 1663.83 583.647 1667.78 587.366 1673.85 591.085 1679.92 592.945 1687.24 592.945 1695.82 592.945 1704.43 591.091 1711.75 587.384 1717.8 583.677 1723.85 578.342 1727.78 571.38 1729.61L570.524 1726.87C576.013 1725.04 580.095 1721.43 582.768 1716.03 585.441 1710.64 586.778 1703.78 586.778 1695.47 586.778 1687.43 585.447 1680.76 582.786 1675.45 580.124 1670.14 576.001 1666.57 570.417 1664.74Z" fill-rule="evenodd"/><text fill="#000000" fill-opacity="0" font-family="Arial,Arial_MSFontService,sans-serif" font-size="67.6177" x="570.417" y="1721.16">)</text><path d="M0.466071-1.04676 557.05 246.772 556.118 248.866-0.466071 1.04676ZM557.989 233.393 577.518 257.14 546.803 258.515Z" transform="matrix(-1 0 0 1 1926.52 1526)"/><rect x="1926.5" y="1488.5" width="294" height="211" stroke="#000000" stroke-width="3.4375" stroke-linejoin="round" stroke-miterlimit="10" fill="none"/><text font-family="Yu Gothic,Yu Gothic_MSFontService,sans-serif" font-weight="400" font-size="73" transform="matrix(1 0 0 1 1999.82 1573)">横</text><text font-family="Yu Gothic,Yu Gothic_MSFontService,sans-serif" font-weight="400" font-size="73" transform="matrix(1 0 0 1 2073.16 1573)">辺</text><path d="M2008.43 1610.78 2010.49 1610.78 2004.36 1635.48 2004.79 1635.62C2007.05 1632.63 2009.18 1630.46 2011.19 1629.12 2013.2 1627.77 2015.22 1627.1 2017.27 1627.1 2019.48 1627.1 2021.17 1627.74 2022.36 1629.01 2023.55 1630.28 2024.14 1632.05 2024.14 1634.3 2024.14 1635.8 2023.8 1637.93 2023.11 1640.68L2020.79 1650.02C2020.15 1652.61 2019.83 1654.44 2019.83 1655.51 2019.83 1656.46 2019.99 1657.15 2020.3 1657.58 2020.6 1658.01 2021.09 1658.22 2021.76 1658.22 2022.47 1658.22 2023.23 1657.93 2024.04 1657.35 2024.85 1656.76 2025.99 1655.65 2027.46 1654.01L2029.49 1656.01C2027.21 1658.41 2025.34 1660.06 2023.88 1660.96 2022.42 1661.87 2020.77 1662.32 2018.94 1662.32 2017.4 1662.32 2016.17 1661.77 2015.25 1660.68 2014.34 1659.59 2013.88 1658.17 2013.88 1656.44 2013.88 1654.89 2014.27 1652.62 2015.06 1649.63L2016.59 1643.46C2017.13 1641.25 2017.5 1639.6 2017.69 1638.49 2017.88 1637.39 2017.98 1636.52 2017.98 1635.91 2017.98 1634.22 2017.7 1633.03 2017.16 1632.32 2016.61 1631.62 2015.72 1631.27 2014.49 1631.27 2013.51 1631.27 2012.43 1631.68 2011.24 1632.48 2010.05 1633.29 2008.81 1634.52 2007.5 1636.17 2006.19 1637.83 2005.15 1639.41 2004.38 1640.91 2003.61 1642.42 2003 1644.22 2002.54 1646.31L1999.3 1661.75 1993.13 1661.75 2002.29 1621.01C2002.86 1618.46 2003.15 1616.71 2003.15 1615.73 2003.15 1614.73 2002.85 1614.03 2002.24 1613.63 2001.64 1613.22 2000.55 1613 1998.98 1612.95L1999.41 1611.1Z" fill-rule="evenodd"/><text fill="#000000" fill-opacity="0" font-family="Arial,Arial_MSFontService,sans-serif" font-size="51.542" x="1993.13" y="1655.88">ℎ</text><path d="M2059.77 1610.24 2060.74 1612.99C2055.18 1614.82 2051.06 1618.39 2048.38 1623.7 2045.71 1629.01 2044.37 1635.68 2044.37 1643.71 2044.37 1652.03 2045.71 1658.89 2048.38 1664.28 2051.06 1669.67 2055.14 1673.29 2060.63 1675.12L2059.77 1677.86C2052.81 1676.03 2047.48 1672.09 2043.77 1666.04 2040.06 1660 2038.21 1652.67 2038.21 1644.07 2038.21 1635.49 2040.07 1628.17 2043.79 1622.09 2047.51 1616.02 2052.83 1612.07 2059.77 1610.24Z" fill-rule="evenodd"/><text fill="#000000" fill-opacity="0" font-family="Arial,Arial_MSFontService,sans-serif" font-size="67.6177" x="2038.21" y="1669.41">(</text><path d="M2076.95 1627.35 2079.05 1627.35 2073.92 1650.24C2073.4 1652.56 2073.14 1654.32 2073.14 1655.51 2073.14 1656.46 2073.29 1657.15 2073.6 1657.58 2073.91 1658.01 2074.39 1658.22 2075.06 1658.22 2075.77 1658.22 2076.53 1657.93 2077.34 1657.35 2078.15 1656.76 2079.29 1655.65 2080.76 1654.01L2082.79 1656.01C2080.47 1658.46 2078.58 1660.12 2077.13 1661 2075.68 1661.88 2074.05 1662.32 2072.24 1662.32 2070.7 1662.32 2069.46 1661.75 2068.54 1660.63 2067.61 1659.5 2067.15 1658.05 2067.15 1656.3 2067.15 1654.49 2067.48 1652.18 2068.15 1649.38L2070.82 1637.72C2071.36 1635.35 2071.64 1633.57 2071.64 1632.38 2071.64 1631.31 2071.38 1630.58 2070.87 1630.2 2070.36 1629.82 2069.36 1629.61 2067.86 1629.56L2068.25 1627.67ZM2075.99 1613.7 2082.3 1613.7 2080.66 1620.62 2074.35 1620.62Z" fill-rule="evenodd"/><text fill="#000000" fill-opacity="0" font-family="Arial,Arial_MSFontService,sans-serif" font-size="48.6191" x="2067.15" y="1656.24">𝑖</text><path d="M2092.76 1653.48 2099 1653.48C2099.33 1655.14 2099.5 1656.78 2099.5 1658.4 2099.5 1660.06 2099.21 1661.58 2098.64 1662.96 2098.07 1664.34 2097.16 1665.71 2095.91 1667.08 2094.67 1668.44 2092.95 1669.95 2090.76 1671.59L2088.84 1669.41C2090.05 1668.27 2090.93 1667.24 2091.48 1666.33 2092.02 1665.41 2092.42 1664.37 2092.65 1663.21 2092.89 1662.05 2093.01 1660.58 2093.01 1658.83 2093.01 1657.02 2092.93 1655.24 2092.76 1653.48Z" fill-rule="evenodd"/><text fill="#000000" fill-opacity="0" font-family="Arial,Arial_MSFontService,sans-serif" font-size="18.1074" x="2088.84" y="1669.32">,</text><path d="M2133.49 1627.35 2135.52 1627.35 2128.1 1662.35C2127.34 1665.97 2126.31 1668.87 2125 1671.07 2123.7 1673.27 2122 1674.92 2119.91 1676.02 2117.82 1677.13 2115.32 1677.68 2112.42 1677.68 2111.23 1677.68 2110.22 1677.56 2109.39 1677.33L2110.21 1674.19C2110.71 1674.38 2111.61 1674.47 2112.92 1674.47 2114.06 1674.47 2115.03 1674.3 2115.82 1673.96 2116.62 1673.61 2117.36 1673.04 2118.05 1672.25 2118.74 1671.45 2119.38 1670.34 2119.96 1668.91 2120.54 1667.49 2121.08 1665.65 2121.58 1663.39L2127.36 1637.72C2127.9 1635.3 2128.18 1633.52 2128.18 1632.38 2128.18 1631.31 2127.92 1630.58 2127.41 1630.2 2126.9 1629.82 2125.89 1629.61 2124.4 1629.56L2124.79 1627.67ZM2132.52 1613.7 2138.83 1613.7 2137.19 1620.62 2130.88 1620.62Z" fill-rule="evenodd"/><text fill="#000000" fill-opacity="0" font-family="Arial,Arial_MSFontService,sans-serif" font-size="63.9819" x="2109.39" y="1669.68">𝑗</text><path d="M2145.03 1610.24C2151.96 1612.07 2157.29 1616.02 2161.01 1622.09 2164.73 1628.17 2166.59 1635.49 2166.59 1644.07 2166.59 1652.67 2164.74 1660 2161.03 1666.04 2157.32 1672.09 2151.99 1676.03 2145.03 1677.86L2144.17 1675.12C2149.66 1673.29 2153.74 1669.67 2156.41 1664.28 2159.09 1658.89 2160.42 1652.03 2160.42 1643.71 2160.42 1635.68 2159.09 1629.01 2156.43 1623.7 2153.77 1618.39 2149.65 1614.82 2144.06 1612.99Z" fill-rule="evenodd"/><text fill="#000000" fill-opacity="0" font-family="Arial,Arial_MSFontService,sans-serif" font-size="67.6177" x="2144.06" y="1669.41">)</text><path d="M0.67787-0.923811 420.909 307.432 419.553 309.279-0.67787 0.923811ZM424.67 294.558 438.707 321.913 408.401 316.73Z" transform="matrix(-1 0 0 1 1678.71 1289)"/><rect x="1474.5" y="1078.5" width="410" height="211" stroke="#000000" stroke-width="3.4375" stroke-linejoin="round" stroke-miterlimit="10" fill="none"/><text font-family="Yu Gothic,Yu Gothic_MSFontService,sans-serif" font-weight="400" font-size="73" transform="matrix(1 0 0 1 1605.82 1162)">縦</text><text font-family="Yu Gothic,Yu Gothic_MSFontService,sans-serif" font-weight="400" font-size="73" transform="matrix(1 0 0 1 1679.15 1162)">辺</text><path d="M1565.33 1216.35C1567.04 1216.35 1568.27 1216.79 1569.03 1217.68 1569.79 1218.57 1570.17 1219.77 1570.17 1221.26 1570.17 1222.41 1569.97 1223.71 1569.57 1225.19 1569.16 1226.66 1568.59 1228.22 1567.86 1229.85 1567.12 1231.49 1566.24 1233.18 1565.22 1234.9 1564.2 1236.62 1563.07 1238.3 1561.83 1239.92 1560.6 1241.55 1559.28 1243.09 1557.88 1244.52 1556.47 1245.96 1555.02 1247.21 1553.51 1248.28 1552 1249.35 1550.47 1250.2 1548.91 1250.83 1547.35 1251.46 1545.8 1251.78 1544.26 1251.78 1543.57 1251.78 1542.99 1251.6 1542.53 1251.26 1542.07 1250.91 1541.69 1250.43 1541.41 1249.8 1541.12 1249.17 1540.92 1248.43 1540.8 1247.57 1540.68 1246.71 1540.62 1245.78 1540.62 1244.75 1540.62 1243.4 1540.71 1241.95 1540.87 1240.41 1541.04 1238.86 1541.25 1237.3 1541.52 1235.74L1543.01 1225.86C1543.11 1225.29 1543.18 1224.75 1543.24 1224.24 1543.3 1223.73 1543.33 1223.36 1543.33 1223.12 1543.33 1222.38 1543.21 1221.78 1542.98 1221.3 1542.74 1220.83 1542.33 1220.59 1541.76 1220.59 1541.31 1220.59 1540.83 1220.72 1540.3 1221 1539.78 1221.27 1539.25 1221.62 1538.72 1222.05 1538.18 1222.48 1537.67 1222.93 1537.17 1223.42 1536.67 1223.91 1536.2 1224.37 1535.78 1224.79L1534.07 1222.8C1534.8 1222.04 1535.59 1221.28 1536.42 1220.53 1537.25 1219.79 1538.13 1219.11 1539.06 1218.5 1539.98 1217.9 1540.96 1217.41 1541.98 1217.04 1543 1216.67 1544.05 1216.49 1545.12 1216.49 1546.02 1216.49 1546.75 1216.64 1547.33 1216.93 1547.9 1217.23 1548.34 1217.62 1548.66 1218.11 1548.98 1218.6 1549.2 1219.13 1549.32 1219.71 1549.44 1220.3 1549.5 1220.87 1549.5 1221.44 1549.5 1221.78 1549.49 1222.1 1549.46 1222.41 1549.44 1222.71 1549.4 1223 1549.36 1223.26L1547.36 1236.16C1547.15 1237.52 1546.97 1238.84 1546.83 1240.14 1546.68 1241.43 1546.61 1242.58 1546.61 1243.58 1546.61 1244.58 1546.67 1245.38 1546.79 1246 1546.91 1246.62 1547.14 1246.93 1547.47 1246.93 1548.25 1246.93 1549.24 1246.61 1550.43 1245.98 1551.61 1245.35 1552.86 1244.49 1554.17 1243.38 1555.48 1242.28 1556.78 1240.97 1558.09 1239.46 1559.4 1237.95 1560.57 1236.32 1561.62 1234.56 1562.66 1232.8 1563.51 1230.95 1564.17 1229 1564.82 1227.05 1565.15 1225.09 1565.15 1223.12 1565.15 1222.26 1564.96 1221.6 1564.59 1221.14 1564.23 1220.68 1563.65 1220.44 1562.87 1220.44 1561.87 1220.44 1560.95 1220.83 1560.1 1221.6 1559.26 1222.38 1558.39 1223.39 1557.48 1224.65L1555.45 1222.83C1556.02 1221.98 1556.69 1221.16 1557.47 1220.37 1558.24 1219.59 1559.06 1218.9 1559.93 1218.31 1560.79 1217.71 1561.69 1217.24 1562.62 1216.88 1563.54 1216.52 1564.45 1216.35 1565.33 1216.35Z" fill-rule="evenodd"/><text fill="#000000" fill-opacity="0" font-family="Arial,Arial_MSFontService,sans-serif" font-size="35.4307" x="1534.07" y="1247.35">𝑣</text><path d="M1601.81 1199.66 1602.77 1202.41C1597.21 1204.24 1593.09 1207.81 1590.42 1213.12 1587.75 1218.43 1586.41 1225.1 1586.41 1233.13 1586.41 1241.45 1587.75 1248.31 1590.42 1253.7 1593.09 1259.1 1597.18 1262.71 1602.66 1264.54L1601.81 1267.28C1594.85 1265.45 1589.51 1261.51 1585.81 1255.47 1582.1 1249.42 1580.24 1242.09 1580.24 1233.49 1580.24 1224.91 1582.1 1217.59 1585.82 1211.52 1589.54 1205.44 1594.87 1201.49 1601.81 1199.66Z" fill-rule="evenodd"/><text fill="#000000" fill-opacity="0" font-family="Arial,Arial_MSFontService,sans-serif" font-size="67.6177" x="1580.24" y="1258.83">(</text><path d="M1618.99 1216.77 1621.09 1216.77 1615.96 1239.66C1615.43 1241.99 1615.17 1243.74 1615.17 1244.93 1615.17 1245.88 1615.33 1246.57 1615.64 1247 1615.94 1247.43 1616.43 1247.64 1617.1 1247.64 1617.81 1247.64 1618.57 1247.35 1619.38 1246.77 1620.19 1246.19 1621.33 1245.08 1622.8 1243.44L1624.83 1245.43C1622.5 1247.88 1620.61 1249.54 1619.16 1250.42 1617.71 1251.3 1616.09 1251.74 1614.28 1251.74 1612.74 1251.74 1611.5 1251.18 1610.57 1250.05 1609.65 1248.92 1609.18 1247.48 1609.18 1245.72 1609.18 1243.91 1609.52 1241.61 1610.18 1238.8L1612.85 1227.15C1613.4 1224.77 1613.67 1222.99 1613.67 1221.8 1613.67 1220.73 1613.42 1220.01 1612.91 1219.62 1612.4 1219.24 1611.39 1219.03 1609.9 1218.98L1610.29 1217.09ZM1618.02 1203.12 1624.33 1203.12 1622.69 1210.04 1616.38 1210.04Z" fill-rule="evenodd"/><text fill="#000000" fill-opacity="0" font-family="Arial,Arial_MSFontService,sans-serif" font-size="48.6191" x="1609.18" y="1245.66">𝑖</text><path d="M1651.62 1227.93 1695.54 1227.93 1695.54 1232.67 1651.62 1232.67Z" fill-rule="evenodd"/><text fill="#000000" fill-opacity="0" font-family="Arial,Arial_MSFontService,sans-serif" font-size="4.74072" x="1651.62" y="1232.08">−</text><path d="M1740.63 1201.95 1742.59 1201.95C1742.45 1204.23 1742.38 1207.39 1742.38 1211.43L1742.38 1241.87C1742.38 1243.25 1742.46 1244.29 1742.61 1244.99 1742.77 1245.69 1743.04 1246.26 1743.43 1246.7 1743.82 1247.14 1744.39 1247.48 1745.13 1247.73 1745.86 1247.98 1746.79 1248.17 1747.91 1248.3 1749.02 1248.43 1750.5 1248.52 1752.33 1248.57L1752.33 1251.17 1725.98 1251.17 1725.98 1248.57C1728.62 1248.45 1730.51 1248.29 1731.63 1248.09 1732.76 1247.89 1733.62 1247.58 1734.22 1247.18 1734.81 1246.77 1735.25 1246.2 1735.52 1245.47 1735.79 1244.73 1735.93 1243.53 1735.93 1241.87L1735.93 1212.96C1735.93 1212.01 1735.76 1211.31 1735.43 1210.87 1735.1 1210.43 1734.61 1210.21 1733.97 1210.21 1733.21 1210.21 1732.13 1210.61 1730.72 1211.39 1729.32 1212.18 1727.59 1213.26 1725.52 1214.63L1723.95 1211.89Z" fill-rule="evenodd"/><text fill="#000000" fill-opacity="0" font-family="Arial,Arial_MSFontService,sans-serif" font-size="49.2251" x="1723.95" y="1245.02">1</text><path d="M1763.06 1242.9 1769.3 1242.9C1769.63 1244.56 1769.8 1246.2 1769.8 1247.82 1769.8 1249.48 1769.51 1251 1768.94 1252.38 1768.37 1253.76 1767.46 1255.13 1766.22 1256.5 1764.97 1257.87 1763.25 1259.37 1761.07 1261.01L1759.14 1258.83C1760.35 1257.69 1761.23 1256.67 1761.78 1255.75 1762.32 1254.84 1762.72 1253.8 1762.95 1252.63 1763.19 1251.47 1763.31 1250.01 1763.31 1248.25 1763.31 1246.44 1763.23 1244.66 1763.06 1242.9Z" fill-rule="evenodd"/><text fill="#000000" fill-opacity="0" font-family="Arial,Arial_MSFontService,sans-serif" font-size="18.1074" x="1759.14" y="1258.74">,</text><path d="M1803.79 1216.77 1805.82 1216.77 1798.41 1251.78C1797.65 1255.39 1796.61 1258.29 1795.3 1260.49 1794 1262.69 1792.3 1264.34 1790.21 1265.45 1788.12 1266.55 1785.62 1267.1 1782.72 1267.1 1781.53 1267.1 1780.52 1266.98 1779.69 1266.75L1780.51 1263.61C1781.01 1263.8 1781.91 1263.9 1783.22 1263.9 1784.36 1263.9 1785.33 1263.72 1786.13 1263.38 1786.92 1263.03 1787.66 1262.46 1788.35 1261.67 1789.04 1260.87 1789.68 1259.76 1790.26 1258.33 1790.84 1256.91 1791.38 1255.07 1791.88 1252.81L1797.66 1227.15C1798.2 1224.72 1798.48 1222.94 1798.48 1221.8 1798.48 1220.73 1798.22 1220.01 1797.71 1219.62 1797.2 1219.24 1796.2 1219.03 1794.7 1218.98L1795.09 1217.09ZM1802.83 1203.12 1809.13 1203.12 1807.49 1210.04 1801.19 1210.04Z" fill-rule="evenodd"/><text fill="#000000" fill-opacity="0" font-family="Arial,Arial_MSFontService,sans-serif" font-size="63.9819" x="1779.69" y="1259.11">𝑗</text><path d="M1815.33 1199.66C1822.27 1201.49 1827.59 1205.44 1831.31 1211.52 1835.03 1217.59 1836.89 1224.91 1836.89 1233.49 1836.89 1242.09 1835.04 1249.42 1831.33 1255.47 1827.62 1261.51 1822.29 1265.45 1815.33 1267.28L1814.47 1264.54C1819.96 1262.71 1824.04 1259.1 1826.72 1253.7 1829.39 1248.31 1830.73 1241.45 1830.73 1233.13 1830.73 1225.1 1829.39 1218.43 1826.73 1213.12 1824.07 1207.81 1819.95 1204.24 1814.36 1202.41Z" fill-rule="evenodd"/><text fill="#000000" fill-opacity="0" font-family="Arial,Arial_MSFontService,sans-serif" font-size="67.6177" x="1814.36" y="1258.83">)</text><path d="M1779.11 2181.22 1258.99 1982.26 1259.81 1980.12 1779.93 2179.08ZM1258.77 1995.67 1238 1973 1268.6 1969.98Z"/><rect x="1779.5" y="2075.5" width="294" height="211" stroke="#000000" stroke-width="3.4375" stroke-linejoin="round" stroke-miterlimit="10" fill="none"/><text font-family="Yu Gothic,Yu Gothic_MSFontService,sans-serif" font-weight="400" font-size="73" transform="matrix(1 0 0 1 1852.76 2159)">縦</text><text font-family="Yu Gothic,Yu Gothic_MSFontService,sans-serif" font-weight="400" font-size="73" transform="matrix(1 0 0 1 1926.09 2159)">辺</text><path d="M1876.38 2213.55C1878.09 2213.55 1879.33 2214 1880.09 2214.89 1880.85 2215.78 1881.23 2216.98 1881.23 2218.47 1881.23 2219.61 1881.03 2220.92 1880.62 2222.39 1880.22 2223.87 1879.65 2225.42 1878.91 2227.06 1878.18 2228.7 1877.3 2230.38 1876.28 2232.11 1875.25 2233.83 1874.12 2235.5 1872.89 2237.13 1871.65 2238.76 1870.33 2240.29 1868.93 2241.73 1867.53 2243.17 1866.07 2244.42 1864.57 2245.49 1863.06 2246.56 1861.52 2247.41 1859.97 2248.04 1858.41 2248.67 1856.86 2248.98 1855.32 2248.98 1854.63 2248.98 1854.05 2248.81 1853.59 2248.47 1853.12 2248.12 1852.75 2247.64 1852.46 2247.01 1852.18 2246.38 1851.98 2245.63 1851.86 2244.78 1851.74 2243.92 1851.68 2242.98 1851.68 2241.96 1851.68 2240.61 1851.76 2239.16 1851.93 2237.61 1852.1 2236.07 1852.31 2234.51 1852.57 2232.94L1854.07 2223.07C1854.16 2222.5 1854.24 2221.96 1854.3 2221.45 1854.36 2220.94 1854.39 2220.56 1854.39 2220.33 1854.39 2219.59 1854.27 2218.98 1854.03 2218.51 1853.8 2218.03 1853.39 2217.8 1852.82 2217.8 1852.37 2217.8 1851.88 2217.93 1851.36 2218.21 1850.84 2218.48 1850.31 2218.83 1849.77 2219.26 1849.24 2219.68 1848.72 2220.14 1848.22 2220.63 1847.72 2221.12 1847.26 2221.57 1846.83 2222L1845.12 2220.01C1845.86 2219.24 1846.64 2218.49 1847.47 2217.74 1848.31 2216.99 1849.19 2216.32 1850.11 2215.71 1851.04 2215.1 1852.01 2214.62 1853.03 2214.25 1854.06 2213.88 1855.1 2213.7 1856.17 2213.7 1857.07 2213.7 1857.81 2213.84 1858.38 2214.14 1858.95 2214.44 1859.4 2214.83 1859.72 2215.32 1860.04 2215.81 1860.26 2216.34 1860.38 2216.92 1860.5 2217.5 1860.56 2218.08 1860.56 2218.65 1860.56 2218.98 1860.54 2219.3 1860.52 2219.61 1860.5 2219.92 1860.46 2220.21 1860.41 2220.47L1858.42 2233.37C1858.2 2234.73 1858.03 2236.05 1857.88 2237.35 1857.74 2238.64 1857.67 2239.79 1857.67 2240.79 1857.67 2241.78 1857.73 2242.59 1857.85 2243.21 1857.97 2243.83 1858.19 2244.14 1858.52 2244.14 1859.31 2244.14 1860.29 2243.82 1861.48 2243.19 1862.67 2242.56 1863.92 2241.7 1865.23 2240.59 1866.53 2239.49 1867.84 2238.18 1869.15 2236.67 1870.45 2235.16 1871.63 2233.53 1872.67 2231.77 1873.72 2230.01 1874.57 2228.16 1875.22 2226.21 1875.88 2224.26 1876.2 2222.3 1876.2 2220.33 1876.2 2219.47 1876.02 2218.81 1875.65 2218.35 1875.28 2217.88 1874.71 2217.65 1873.92 2217.65 1872.92 2217.65 1872 2218.04 1871.16 2218.81 1870.32 2219.58 1869.44 2220.6 1868.54 2221.86L1866.51 2220.04C1867.08 2219.19 1867.75 2218.37 1868.52 2217.58 1869.29 2216.8 1870.11 2216.11 1870.98 2215.51 1871.85 2214.92 1872.75 2214.44 1873.67 2214.09 1874.6 2213.73 1875.5 2213.55 1876.38 2213.55Z" fill-rule="evenodd"/><text fill="#000000" fill-opacity="0" font-family="Arial,Arial_MSFontService,sans-serif" font-size="35.4307" x="1845.12" y="2244.56">𝑣</text><path d="M1912.87 2196.87 1913.83 2199.62C1908.27 2201.45 1904.15 2205.02 1901.48 2210.33 1898.8 2215.64 1897.47 2222.31 1897.47 2230.34 1897.47 2238.66 1898.8 2245.51 1901.48 2250.91 1904.15 2256.3 1908.23 2259.92 1913.72 2261.75L1912.87 2264.49C1905.9 2262.66 1900.57 2258.72 1896.86 2252.67 1893.15 2246.63 1891.3 2239.3 1891.3 2230.7 1891.3 2222.12 1893.16 2214.8 1896.88 2208.72 1900.6 2202.65 1905.93 2198.7 1912.87 2196.87Z" fill-rule="evenodd"/><text fill="#000000" fill-opacity="0" font-family="Arial,Arial_MSFontService,sans-serif" font-size="67.6177" x="1891.3" y="2256.04">(</text><path d="M1930.04 2213.98 1932.15 2213.98 1927.01 2236.87C1926.49 2239.19 1926.23 2240.95 1926.23 2242.14 1926.23 2243.09 1926.38 2243.78 1926.69 2244.21 1927 2244.64 1927.49 2244.85 1928.15 2244.85 1928.87 2244.85 1929.63 2244.56 1930.43 2243.98 1931.24 2243.39 1932.38 2242.28 1933.86 2240.64L1935.89 2242.64C1933.56 2245.09 1931.67 2246.75 1930.22 2247.63 1928.77 2248.51 1927.14 2248.95 1925.34 2248.95 1923.79 2248.95 1922.56 2248.38 1921.63 2247.26 1920.7 2246.13 1920.24 2244.68 1920.24 2242.92 1920.24 2241.12 1920.57 2238.81 1921.24 2236.01L1923.91 2224.35C1924.46 2221.98 1924.73 2220.2 1924.73 2219.01 1924.73 2217.94 1924.48 2217.21 1923.96 2216.83 1923.45 2216.45 1922.45 2216.24 1920.95 2216.19L1921.34 2214.3ZM1929.08 2200.33 1935.39 2200.33 1933.75 2207.24 1927.44 2207.24Z" fill-rule="evenodd"/><text fill="#000000" fill-opacity="0" font-family="Arial,Arial_MSFontService,sans-serif" font-size="48.6191" x="1920.24" y="2242.87">𝑖</text><path d="M1945.85 2240.11 1952.09 2240.11C1952.42 2241.77 1952.59 2243.41 1952.59 2245.03 1952.59 2246.69 1952.3 2248.21 1951.73 2249.59 1951.16 2250.97 1950.26 2252.34 1949.01 2253.71 1947.76 2255.07 1946.04 2256.58 1943.86 2258.22L1941.93 2256.04C1943.14 2254.9 1944.02 2253.87 1944.57 2252.96 1945.12 2252.04 1945.51 2251 1945.75 2249.84 1945.98 2248.68 1946.1 2247.21 1946.1 2245.46 1946.1 2243.65 1946.02 2241.87 1945.85 2240.11Z" fill-rule="evenodd"/><text fill="#000000" fill-opacity="0" font-family="Arial,Arial_MSFontService,sans-serif" font-size="18.1074" x="1941.93" y="2255.95">,</text><path d="M1986.58 2213.98 1988.61 2213.98 1981.2 2248.98C1980.44 2252.6 1979.4 2255.5 1978.1 2257.7 1976.79 2259.9 1975.09 2261.55 1973 2262.65 1970.91 2263.76 1968.41 2264.31 1965.51 2264.31 1964.33 2264.31 1963.32 2264.19 1962.48 2263.96L1963.3 2260.82C1963.8 2261.01 1964.71 2261.1 1966.01 2261.1 1967.15 2261.1 1968.12 2260.93 1968.92 2260.59 1969.71 2260.24 1970.46 2259.67 1971.15 2258.88 1971.83 2258.08 1972.47 2256.97 1973.05 2255.54 1973.63 2254.12 1974.18 2252.28 1974.67 2250.02L1980.45 2224.35C1981 2221.93 1981.27 2220.15 1981.27 2219.01 1981.27 2217.94 1981.01 2217.21 1980.5 2216.83 1979.99 2216.45 1978.99 2216.24 1977.49 2216.19L1977.88 2214.3ZM1985.62 2200.33 1991.93 2200.33 1990.29 2207.24 1983.98 2207.24Z" fill-rule="evenodd"/><text fill="#000000" fill-opacity="0" font-family="Arial,Arial_MSFontService,sans-serif" font-size="63.9819" x="1962.48" y="2256.31">𝑗</text><path d="M1998.12 2196.87C2005.06 2198.7 2010.39 2202.65 2014.1 2208.72 2017.82 2214.8 2019.68 2222.12 2019.68 2230.7 2019.68 2239.3 2017.83 2246.63 2014.12 2252.67 2010.42 2258.72 2005.08 2262.66 1998.12 2264.49L1997.26 2261.75C2002.75 2259.92 2006.83 2256.3 2009.51 2250.91 2012.18 2245.51 2013.52 2238.66 2013.52 2230.34 2013.52 2222.31 2012.19 2215.64 2009.52 2210.33 2006.86 2205.02 2002.74 2201.45 1997.16 2199.62Z" fill-rule="evenodd"/><text fill="#000000" fill-opacity="0" font-family="Arial,Arial_MSFontService,sans-serif" font-size="67.6177" x="1997.16" y="2256.04">)</text><path d="M0.368317-1.08502 523.444 176.476 522.707 178.646-0.368317 1.08502ZM523.155 163.067 544.775 184.927 514.315 189.108Z" transform="matrix(1 0 0 -1 567 1978.93)"/><rect x="273.5" y="1979.5" width="461" height="211" stroke="#000000" stroke-width="3.4375" stroke-linejoin="round" stroke-miterlimit="10" fill="none"/><text font-family="Yu Gothic,Yu Gothic_MSFontService,sans-serif" font-weight="400" font-size="73" transform="matrix(1 0 0 1 421.934 2063)">横辺</text><path d="M358.097 2101.46 360.164 2101.46 354.033 2126.17 354.461 2126.31C356.718 2123.31 358.851 2121.15 360.859 2119.8 362.867 2118.46 364.893 2117.79 366.937 2117.79 369.147 2117.79 370.846 2118.42 372.034 2119.7 373.222 2120.97 373.816 2122.73 373.816 2124.99 373.816 2126.49 373.471 2128.61 372.782 2131.37L370.465 2140.71C369.824 2143.3 369.503 2145.13 369.503 2146.2 369.503 2147.15 369.657 2147.84 369.966 2148.27 370.275 2148.69 370.762 2148.91 371.428 2148.91 372.141 2148.91 372.901 2148.62 373.709 2148.03 374.517 2147.45 375.658 2146.34 377.131 2144.7L379.163 2146.7C376.881 2149.1 375.01 2150.75 373.549 2151.65 372.087 2152.55 370.442 2153.01 368.612 2153.01 367.067 2153.01 365.838 2152.46 364.923 2151.37 364.008 2150.27 363.55 2148.86 363.55 2147.12 363.55 2145.58 363.942 2143.31 364.727 2140.32L366.259 2134.15C366.806 2131.94 367.174 2130.28 367.364 2129.18 367.554 2128.07 367.649 2127.21 367.649 2126.59 367.649 2124.91 367.376 2123.71 366.83 2123.01 366.283 2122.31 365.392 2121.96 364.156 2121.96 363.182 2121.96 362.101 2122.36 360.913 2123.17 359.724 2123.98 358.477 2125.21 357.17 2126.86 355.863 2128.51 354.823 2130.09 354.051 2131.6 353.279 2133.11 352.667 2134.91 352.215 2137L348.972 2152.44 342.805 2152.44 351.966 2111.69C352.536 2109.15 352.821 2107.39 352.821 2106.42 352.821 2105.42 352.518 2104.72 351.912 2104.32 351.306 2103.91 350.219 2103.69 348.651 2103.64L349.079 2101.78Z" fill-rule="evenodd"/><text fill="#000000" fill-opacity="0" font-family="Arial,Arial_MSFontService,sans-serif" font-size="51.542" x="342.805" y="2146.56">ℎ</text><path d="M409.444 2100.93 410.407 2103.67C404.846 2105.5 400.729 2109.07 398.056 2114.39 395.383 2119.7 394.046 2126.37 394.046 2134.4 394.046 2142.72 395.383 2149.57 398.056 2154.97 400.729 2160.36 404.811 2163.97 410.3 2165.8L409.444 2168.55C402.482 2166.72 397.147 2162.78 393.44 2156.73 389.733 2150.68 387.879 2143.36 387.879 2134.76 387.879 2126.18 389.739 2118.85 393.458 2112.78 397.177 2106.71 402.506 2102.76 409.444 2100.93Z" fill-rule="evenodd"/><text fill="#000000" fill-opacity="0" font-family="Arial,Arial_MSFontService,sans-serif" font-size="67.6177" x="387.879" y="2160.09">(</text><path d="M426.62 2118.04 428.724 2118.04 423.591 2140.92C423.068 2143.25 422.807 2145.01 422.807 2146.2 422.807 2147.15 422.961 2147.84 423.27 2148.27 423.579 2148.69 424.066 2148.91 424.731 2148.91 425.444 2148.91 426.205 2148.62 427.013 2148.03 427.821 2147.45 428.961 2146.34 430.434 2144.7L432.466 2146.7C430.137 2149.14 428.248 2150.81 426.799 2151.69 425.349 2152.57 423.721 2153.01 421.915 2153.01 420.371 2153.01 419.135 2152.44 418.208 2151.31 417.282 2150.18 416.818 2148.74 416.818 2146.98 416.818 2145.18 417.151 2142.87 417.816 2140.07L420.49 2128.41C421.036 2126.03 421.309 2124.25 421.309 2123.06 421.309 2122 421.054 2121.27 420.543 2120.89 420.032 2120.51 419.028 2120.3 417.531 2120.25L417.923 2118.36ZM425.658 2104.39 431.967 2104.39 430.328 2111.3 424.018 2111.3Z" fill-rule="evenodd"/><text fill="#000000" fill-opacity="0" font-family="Arial,Arial_MSFontService,sans-serif" font-size="48.6191" x="416.818" y="2146.93">𝑖</text><path d="M442.431 2144.17 448.669 2144.17C449.002 2145.83 449.168 2147.47 449.168 2149.08 449.168 2150.75 448.883 2152.27 448.313 2153.65 447.742 2155.03 446.834 2156.4 445.586 2157.76 444.338 2159.13 442.622 2160.63 440.435 2162.27L438.511 2160.1C439.722 2158.96 440.602 2157.93 441.148 2157.02 441.695 2156.1 442.087 2155.06 442.325 2153.9 442.562 2152.73 442.681 2151.27 442.681 2149.51 442.681 2147.71 442.598 2145.92 442.431 2144.17Z" fill-rule="evenodd"/><text fill="#000000" fill-opacity="0" font-family="Arial,Arial_MSFontService,sans-serif" font-size="18.1074" x="438.511" y="2160.01">,</text><path d="M483.158 2118.04 485.19 2118.04 477.776 2153.04C477.015 2156.65 475.982 2159.56 474.675 2161.76 473.368 2163.95 471.669 2165.61 469.578 2166.71 467.486 2167.82 464.991 2168.37 462.092 2168.37 460.904 2168.37 459.894 2168.25 459.062 2168.01L459.882 2164.88C460.381 2165.07 461.284 2165.16 462.591 2165.16 463.732 2165.16 464.7 2164.99 465.496 2164.64 466.292 2164.3 467.035 2163.73 467.724 2162.93 468.413 2162.14 469.049 2161.03 469.631 2159.6 470.213 2158.17 470.754 2156.33 471.253 2154.08L477.027 2128.41C477.574 2125.99 477.847 2124.21 477.847 2123.06 477.847 2122 477.592 2121.27 477.081 2120.89 476.57 2120.51 475.566 2120.3 474.069 2120.25L474.461 2118.36ZM482.196 2104.39 488.505 2104.39 486.865 2111.3 480.556 2111.3Z" fill-rule="evenodd"/><text fill="#000000" fill-opacity="0" font-family="Arial,Arial_MSFontService,sans-serif" font-size="63.9819" x="459.062" y="2160.37">𝑗</text><path d="M513.985 2129.2 557.899 2129.2 557.899 2133.94 513.985 2133.94Z" fill-rule="evenodd"/><text fill="#000000" fill-opacity="0" font-family="Arial,Arial_MSFontService,sans-serif" font-size="4.74072" x="513.985" y="2133.34">−</text><path d="M602.994 2103.21 604.954 2103.21C604.812 2105.49 604.741 2108.65 604.741 2112.69L604.741 2143.13C604.741 2144.51 604.818 2145.55 604.972 2146.25 605.127 2146.95 605.4 2147.52 605.792 2147.96 606.184 2148.4 606.749 2148.75 607.485 2149 608.222 2149.25 609.149 2149.44 610.265 2149.57 611.382 2149.7 612.856 2149.79 614.685 2149.83L614.685 2152.44 588.344 2152.44 588.344 2149.83C590.982 2149.71 592.865 2149.55 593.994 2149.35 595.122 2149.15 595.984 2148.85 596.578 2148.44 597.172 2148.04 597.606 2147.47 597.879 2146.73 598.152 2146 598.289 2144.8 598.289 2143.13L598.289 2114.22C598.289 2113.27 598.123 2112.58 597.79 2112.14 597.457 2111.7 596.97 2111.48 596.328 2111.48 595.568 2111.48 594.487 2111.87 593.085 2112.66 591.683 2113.44 589.948 2114.52 587.881 2115.9L586.312 2113.16Z" fill-rule="evenodd"/><text fill="#000000" fill-opacity="0" font-family="Arial,Arial_MSFontService,sans-serif" font-size="49.2251" x="586.312" y="2146.28">1</text><path d="M622.962 2100.93C629.9 2102.76 635.229 2106.71 638.948 2112.78 642.667 2118.85 644.526 2126.18 644.526 2134.76 644.526 2143.36 642.673 2150.68 638.966 2156.73 635.259 2162.78 629.924 2166.72 622.962 2168.55L622.106 2165.8C627.595 2163.97 631.677 2160.36 634.35 2154.97 637.023 2149.57 638.36 2142.72 638.36 2134.4 638.36 2126.37 637.029 2119.7 634.368 2114.39 631.706 2109.07 627.583 2105.5 621.999 2103.67Z" fill-rule="evenodd"/><text fill="#000000" fill-opacity="0" font-family="Arial,Arial_MSFontService,sans-serif" font-size="67.6177" x="621.999" y="2160.09">)</text></g></svg>