<svg width="3695" height="1981" xmlns="http://www.w3.org/2000/svg" xmlns:xlink="http://www.w3.org/1999/xlink" xml:space="preserve" overflow="hidden"><defs><clipPath id="clip0"><rect x="304" y="44" width="3695" height="1981"/></clipPath></defs><g clip-path="url(#clip0)" transform="translate(-304 -44)"><path d="M1807.41 451.171 1807.41 841.471" stroke="#000000" stroke-width="2.29167" stroke-linejoin="round" stroke-miterlimit="10" stroke-dasharray="2.29167 6.875" fill="none" fill-rule="evenodd"/><path d="M1807.41 841.471 1807.41 1240.94" stroke="#ED7D31" stroke-width="6.875" stroke-linejoin="round" stroke-miterlimit="10" fill="none" fill-rule="evenodd"/><path d="M1807.41 1240.94 1807.41 2023.83" stroke="#000000" stroke-width="2.29167" stroke-linejoin="round" stroke-miterlimit="10" stroke-dasharray="2.29167 6.875" fill="none" fill-rule="evenodd"/><path d="M2200 451.171 2200 841.471" stroke="#000000" stroke-width="2.29167" stroke-linejoin="round" stroke-miterlimit="10" stroke-dasharray="2.29167 6.875" fill="none" fill-rule="evenodd"/><path d="M2200 841.471 2200 1240.94" stroke="#ED7D31" stroke-width="6.875" stroke-linejoin="round" stroke-miterlimit="10" fill="none" fill-rule="evenodd"/><path d="M2200 1240.94 2200 2023.83" stroke="#000000" stroke-width="2.29167" stroke-linejoin="round" stroke-miterlimit="10" stroke-dasharray="2.29167 6.875" fill="none" fill-rule="evenodd"/><path d="M2592.59 451.171 2592.59 2023.83" stroke="#000000" stroke-width="2.29167" stroke-linejoin="round" stroke-miterlimit="10" stroke-dasharray="2.29167 6.875" fill="none" fill-rule="evenodd"/><path d="M1413.67 844.909 1803.97 844.909" stroke="#000000" stroke-width="2.29167" stroke-linejoin="round" stroke-miterlimit="10" stroke-dasharray="2.29167 6.875" fill="none" fill-rule="evenodd"/><path d="M1803.97 844.909 2203.44 844.909" stroke="#ED7D31" stroke-width="6.875" stroke-linejoin="round" stroke-miterlimit="10" fill="none" fill-rule="evenodd"/><path d="M2203.44 844.909 2986.33 844.909" stroke="#000000" stroke-width="2.29167" stroke-linejoin="round" stroke-miterlimit="10" stroke-dasharray="2.29167 6.875" fill="none" fill-rule="evenodd"/><path d="M1413.67 1237.5 1803.97 1237.5" stroke="#000000" stroke-width="2.29167" stroke-linejoin="round" stroke-miterlimit="10" stroke-dasharray="2.29167 6.875" fill="none" fill-rule="evenodd"/><path d="M1803.97 1237.5 2203.44 1237.5" stroke="#ED7D31" stroke-width="6.875" stroke-linejoin="round" stroke-miterlimit="10" fill="none" fill-rule="evenodd"/><path d="M2203.44 1237.5 2986.33 1237.5" stroke="#000000" stroke-width="2.29167" stroke-linejoin="round" stroke-miterlimit="10" stroke-dasharray="2.29167 6.875" fill="none" fill-rule="evenodd"/><path d="M1413.67 1630.09 2986.33 1630.09" stroke="#000000" stroke-width="2.29167" stroke-linejoin="round" stroke-miterlimit="10" stroke-dasharray="2.29167 6.875" fill="none" fill-rule="evenodd"/><path d="M1414.82 451.171 1414.82 2023.83" stroke="#000000" stroke-width="2.29167" stroke-linejoin="round" stroke-miterlimit="10" stroke-dasharray="2.29167 6.875" fill="none" fill-rule="evenodd"/><path d="M2985.18 451.171 2985.18 2023.83" stroke="#000000" stroke-width="2.29167" stroke-linejoin="round" stroke-miterlimit="10" stroke-dasharray="2.29167 6.875" fill="none" fill-rule="evenodd"/><path d="M1413.67 452.317 2986.33 452.317" stroke="#000000" stroke-width="2.29167" stroke-linejoin="round" stroke-miterlimit="10" stroke-dasharray="2.29167 6.875" fill="none" fill-rule="evenodd"/><path d="M1413.67 2022.68 2986.33 2022.68" stroke="#000000" stroke-width="2.29167" stroke-linejoin="round" stroke-miterlimit="10" stroke-dasharray="2.29167 6.875" fill="none" fill-rule="evenodd"/><path d="M897.364 588.913 1848.09 907.432 1847.36 909.605 896.636 591.086ZM1847.74 894.024 1869.45 915.798 1839.01 920.1Z"/><rect x="305.5" y="523.5" width="584" height="134" stroke="#000000" stroke-width="3.4375" stroke-linejoin="round" stroke-miterlimit="10" fill="none"/><text font-family="Yu Gothic,Yu Gothic_MSFontService,sans-serif" font-weight="400" font-size="83" transform="matrix(1 0 0 1 402.806 616)">細胞</text><path d="M618.125 576.428C621.718 576.428 625.028 576.833 628.054 577.644L626.068 586.803 621.813 586.803C621.759 584.75 621.59 583.264 621.306 582.345 621.022 581.426 620.563 580.737 619.928 580.278 619.293 579.819 618.395 579.589 617.233 579.589 614.504 579.589 612.052 580.677 609.877 582.852 607.702 585.027 605.926 588.107 604.548 592.092 603.17 596.077 602.481 599.907 602.481 603.581 602.481 606.337 603.022 608.384 604.102 609.721 605.183 611.059 606.804 611.727 608.966 611.727 611.424 611.727 613.552 611.261 615.349 610.329 617.145 609.397 619.043 607.931 621.043 605.932L623.515 608.404C620.975 611.214 618.415 613.267 615.835 614.564 613.255 615.861 610.479 616.51 607.507 616.51 603.589 616.51 600.617 615.348 598.591 613.024 596.564 610.701 595.551 607.323 595.551 602.892 595.551 600.001 596.091 596.827 597.172 593.368 598.253 589.91 599.833 586.871 601.914 584.25 603.994 581.629 606.426 579.67 609.209 578.373 611.992 577.076 614.964 576.428 618.125 576.428Z" fill-rule="evenodd"/><text fill="#000000" fill-opacity="0" font-family="Arial,Arial_MSFontService,sans-serif" font-size="40.0815" x="595.551" y="611.499">𝑐</text><path d="M663.535 557.259 664.629 560.379C658.307 562.46 653.626 566.519 650.586 572.558 647.547 578.596 646.027 586.182 646.027 595.314 646.027 604.77 647.547 612.565 650.586 618.698 653.626 624.831 658.266 628.938 664.507 631.018L663.535 634.139C655.618 632.059 649.553 627.58 645.338 620.704 641.123 613.828 639.016 605.5 639.016 595.719 639.016 585.965 641.13 577.637 645.358 570.734 649.586 563.831 655.645 559.339 663.535 557.259Z" fill-rule="evenodd"/><text fill="#000000" fill-opacity="0" font-family="Arial,Arial_MSFontService,sans-serif" font-size="76.8804" x="639.016" y="624.529">(</text><path d="M682.914 576.712 685.306 576.712 679.47 602.73C678.875 605.378 678.578 607.377 678.578 608.728 678.578 609.809 678.754 610.593 679.105 611.079 679.456 611.565 680.01 611.808 680.767 611.808 681.577 611.808 682.442 611.477 683.36 610.815 684.279 610.154 685.576 608.89 687.251 607.026L689.561 609.296C686.913 612.079 684.765 613.97 683.117 614.97 681.469 615.969 679.618 616.469 677.565 616.469 675.809 616.469 674.404 615.827 673.35 614.544 672.296 613.261 671.769 611.619 671.769 609.62 671.769 607.567 672.148 604.946 672.904 601.758L675.944 588.505C676.565 585.803 676.876 583.777 676.876 582.426 676.876 581.21 676.585 580.386 676.005 579.954 675.424 579.522 674.282 579.278 672.58 579.224L673.026 577.076ZM681.82 561.19 688.994 561.19 687.129 569.052 679.956 569.052Z" fill-rule="evenodd"/><text fill="#000000" fill-opacity="0" font-family="Arial,Arial_MSFontService,sans-serif" font-size="55.2793" x="671.769" y="609.559">𝑖</text><path d="M700.493 606.418 707.585 606.418C707.964 608.31 708.153 610.174 708.153 612.011 708.153 613.902 707.828 615.631 707.18 617.199 706.532 618.766 705.498 620.326 704.08 621.879 702.661 623.433 700.709 625.142 698.223 627.006L696.035 624.534C697.413 623.237 698.413 622.069 699.034 621.028 699.655 619.988 700.101 618.806 700.371 617.482 700.642 616.158 700.777 614.497 700.777 612.497 700.777 610.444 700.682 608.418 700.493 606.418Z" fill-rule="evenodd"/><text fill="#000000" fill-opacity="0" font-family="Arial,Arial_MSFontService,sans-serif" font-size="20.5879" x="696.035" y="624.433">,</text><path d="M746.912 576.712 749.222 576.712 740.792 616.51C739.928 620.616 738.752 623.919 737.266 626.419 735.78 628.918 733.849 630.795 731.471 632.052 729.093 633.308 726.256 633.936 722.96 633.936 721.609 633.936 720.461 633.801 719.515 633.531L720.448 629.965C721.015 630.181 722.042 630.289 723.528 630.289 724.825 630.289 725.926 630.093 726.831 629.701 727.736 629.309 728.58 628.661 729.364 627.756 730.147 626.851 730.87 625.588 731.532 623.967 732.194 622.346 732.808 620.252 733.376 617.685L739.941 588.505C740.563 585.749 740.873 583.723 740.873 582.426 740.873 581.21 740.583 580.386 740.002 579.954 739.421 579.522 738.28 579.278 736.577 579.224L737.023 577.076ZM745.818 561.19 752.991 561.19 751.127 569.052 743.953 569.052Z" fill-rule="evenodd"/><text fill="#000000" fill-opacity="0" font-family="Arial,Arial_MSFontService,sans-serif" font-size="72.7466" x="719.515" y="624.843">𝑗</text><path d="M759.847 557.259C767.736 559.339 773.795 563.831 778.023 570.734 782.251 577.637 784.366 585.965 784.366 595.719 784.366 605.5 782.258 613.828 778.043 620.704 773.828 627.58 767.763 632.059 759.847 634.139L758.874 631.018C765.115 628.938 769.755 624.831 772.795 618.698 775.835 612.565 777.354 604.77 777.354 595.314 777.354 586.182 775.841 578.596 772.815 572.558 769.789 566.519 765.102 562.46 758.752 560.379Z" fill-rule="evenodd"/><text fill="#000000" fill-opacity="0" font-family="Arial,Arial_MSFontService,sans-serif" font-size="76.8804" x="758.752" y="624.529">)</text><path d="M1.13283-0.17215 96.9176 630.135 94.652 630.48-1.13283 0.17215ZM108.69 623.71 99.2277 652.964 81.5022 627.842Z" transform="matrix(-1 0 0 1 2075.23 195)"/><rect x="1814.5" y="52.5001" width="523" height="134" stroke="#000000" stroke-width="3.4375" stroke-linejoin="round" stroke-miterlimit="10" fill="none"/><text font-family="Yu Gothic,Yu Gothic_MSFontService,sans-serif" font-weight="400" font-size="83" transform="matrix(1 0 0 1 1877.61 145)">横辺</text><path d="M2087.22 86.9149 2089.57 86.9149 2082.6 115 2083.08 115.163C2085.65 111.758 2088.07 109.293 2090.36 107.766 2092.64 106.24 2094.94 105.476 2097.27 105.476 2099.78 105.476 2101.71 106.199 2103.06 107.645 2104.41 109.09 2105.09 111.096 2105.09 113.663 2105.09 115.365 2104.7 117.783 2103.91 120.917L2101.28 131.536C2100.55 134.481 2100.18 136.561 2100.18 137.777 2100.18 138.857 2100.36 139.641 2100.71 140.127 2101.06 140.614 2101.62 140.857 2102.37 140.857 2103.18 140.857 2104.05 140.526 2104.97 139.864 2105.89 139.202 2107.18 137.939 2108.86 136.075L2111.17 138.344C2108.57 141.073 2106.45 142.951 2104.78 143.977 2103.12 145.004 2101.25 145.517 2099.17 145.517 2097.42 145.517 2096.02 144.896 2094.98 143.653 2093.94 142.41 2093.42 140.803 2093.42 138.83 2093.42 137.074 2093.86 134.494 2094.75 131.09L2096.5 124.079C2097.12 121.566 2097.54 119.681 2097.75 118.425 2097.97 117.169 2098.08 116.189 2098.08 115.487 2098.08 113.568 2097.77 112.211 2097.14 111.414 2096.52 110.617 2095.51 110.218 2094.11 110.218 2093 110.218 2091.77 110.677 2090.42 111.596 2089.07 112.515 2087.65 113.913 2086.16 115.791 2084.68 117.668 2083.49 119.465 2082.62 121.181 2081.74 122.896 2081.04 124.943 2080.53 127.321L2076.84 144.869 2069.83 144.869 2080.24 98.5463C2080.89 95.6553 2081.22 93.656 2081.22 92.5482 2081.22 91.4135 2080.87 90.6165 2080.18 90.1571 2079.5 89.6978 2078.26 89.4412 2076.48 89.3871L2076.96 87.2797Z" fill-rule="evenodd"/><text fill="#000000" fill-opacity="0" font-family="Arial,Arial_MSFontService,sans-serif" font-size="58.6025" x="2069.83" y="138.192">ℎ</text><path d="M2145.17 86.307 2146.26 89.4276C2139.94 91.5081 2135.26 95.5675 2132.22 101.606 2129.18 107.645 2127.66 115.23 2127.66 124.362 2127.66 133.819 2129.18 141.613 2132.22 147.746 2135.26 153.88 2139.9 157.986 2146.14 160.067L2145.17 163.187C2137.25 161.107 2131.19 156.629 2126.97 149.753 2122.76 142.876 2120.65 134.548 2120.65 124.767 2120.65 115.014 2122.76 106.686 2126.99 99.7824 2131.22 92.8792 2137.28 88.3875 2145.17 86.307Z" fill-rule="evenodd"/><text fill="#000000" fill-opacity="0" font-family="Arial,Arial_MSFontService,sans-serif" font-size="76.8804" x="2120.65" y="153.577">(</text><path d="M2164.55 105.76 2166.94 105.76 2161.1 131.779C2160.51 134.426 2160.21 136.426 2160.21 137.777 2160.21 138.857 2160.39 139.641 2160.74 140.127 2161.09 140.614 2161.64 140.857 2162.4 140.857 2163.21 140.857 2164.08 140.526 2164.99 139.864 2165.91 139.202 2167.21 137.939 2168.89 136.075L2171.2 138.344C2168.55 141.127 2166.4 143.018 2164.75 144.018 2163.1 145.018 2161.25 145.517 2159.2 145.517 2157.44 145.517 2156.04 144.876 2154.98 143.592 2153.93 142.309 2153.4 140.668 2153.4 138.668 2153.4 136.615 2153.78 133.994 2154.54 130.806L2157.58 117.554C2158.2 114.852 2158.51 112.825 2158.51 111.475 2158.51 110.259 2158.22 109.435 2157.64 109.002 2157.06 108.57 2155.92 108.327 2154.21 108.273L2154.66 106.125ZM2163.45 90.2382 2170.63 90.2382 2168.76 98.1005 2161.59 98.1005Z" fill-rule="evenodd"/><text fill="#000000" fill-opacity="0" font-family="Arial,Arial_MSFontService,sans-serif" font-size="55.2793" x="2153.4" y="138.608">𝑖</text><path d="M2182.13 135.467 2189.22 135.467C2189.6 137.358 2189.79 139.222 2189.79 141.059 2189.79 142.951 2189.46 144.68 2188.81 146.247 2188.17 147.814 2187.13 149.374 2185.71 150.928 2184.3 152.481 2182.34 154.19 2179.86 156.055L2177.67 153.582C2179.05 152.286 2180.05 151.117 2180.67 150.077 2181.29 149.037 2181.74 147.855 2182.01 146.531 2182.28 145.207 2182.41 143.545 2182.41 141.546 2182.41 139.492 2182.32 137.466 2182.13 135.467Z" fill-rule="evenodd"/><text fill="#000000" fill-opacity="0" font-family="Arial,Arial_MSFontService,sans-serif" font-size="20.5879" x="2177.67" y="153.481">,</text><path d="M2228.55 105.76 2230.86 105.76 2222.43 145.558C2221.56 149.665 2220.39 152.968 2218.9 155.467 2217.41 157.966 2215.48 159.844 2213.11 161.1 2210.73 162.357 2207.89 162.985 2204.59 162.985 2203.24 162.985 2202.1 162.85 2201.15 162.579L2202.08 159.013C2202.65 159.229 2203.68 159.337 2205.16 159.337 2206.46 159.337 2207.56 159.141 2208.47 158.75 2209.37 158.358 2210.21 157.709 2211 156.804 2211.78 155.899 2212.5 154.636 2213.17 153.015 2213.83 151.394 2214.44 149.3 2215.01 146.733L2221.58 117.554C2222.2 114.798 2222.51 112.771 2222.51 111.475 2222.51 110.259 2222.22 109.435 2221.64 109.002 2221.06 108.57 2219.91 108.327 2218.21 108.273L2218.66 106.125ZM2227.45 90.2382 2234.63 90.2382 2232.76 98.1005 2225.59 98.1005Z" fill-rule="evenodd"/><text fill="#000000" fill-opacity="0" font-family="Arial,Arial_MSFontService,sans-serif" font-size="72.7466" x="2201.15" y="153.891">𝑗</text><path d="M2241.48 86.307C2249.37 88.3875 2255.43 92.8792 2259.66 99.7824 2263.89 106.686 2266 115.014 2266 124.767 2266 134.548 2263.89 142.876 2259.68 149.753 2255.46 156.629 2249.4 161.107 2241.48 163.187L2240.51 160.067C2246.75 157.986 2251.39 153.88 2254.43 147.746 2257.47 141.613 2258.99 133.819 2258.99 124.362 2258.99 115.23 2257.48 107.645 2254.45 101.606 2251.42 95.5675 2246.74 91.5081 2240.39 89.4276Z" fill-rule="evenodd"/><text fill="#000000" fill-opacity="0" font-family="Arial,Arial_MSFontService,sans-serif" font-size="76.8804" x="2240.39" y="153.577">)</text><path d="M0.238008-1.12084 1409.59 298.151 1409.11 300.392-0.238008 1.12084ZM1407.72 284.868 1431.76 304.031 1402.01 311.768Z" transform="matrix(-1 0 0 1 3631.76 732)"/><rect x="3267.5" y="599.5" width="730" height="133" stroke="#000000" stroke-width="3.4375" stroke-linejoin="round" stroke-miterlimit="10" fill="none"/><text font-family="Yu Gothic,Yu Gothic_MSFontService,sans-serif" font-weight="400" font-size="83" transform="matrix(1 0 0 1 3361.85 691)">縦辺</text><path d="M3588.72 651.814C3590.66 651.814 3592.07 652.321 3592.93 653.334 3593.8 654.347 3594.23 655.705 3594.23 657.407 3594.23 658.704 3594 660.19 3593.54 661.865 3593.08 663.54 3592.43 665.31 3591.6 667.174 3590.76 669.038 3589.76 670.95 3588.6 672.909 3587.43 674.868 3586.15 676.772 3584.75 678.623 3583.34 680.474 3581.84 682.217 3580.25 683.851 3578.65 685.486 3577 686.911 3575.28 688.127 3573.57 689.343 3571.82 690.308 3570.05 691.024 3568.29 691.74 3566.52 692.098 3564.77 692.098 3563.98 692.098 3563.33 691.903 3562.8 691.511 3562.27 691.119 3561.85 690.565 3561.52 689.849 3561.2 689.133 3560.97 688.289 3560.83 687.316 3560.7 686.344 3560.63 685.276 3560.63 684.115 3560.63 682.575 3560.73 680.926 3560.92 679.17 3561.11 677.414 3561.35 675.644 3561.65 673.861L3563.35 662.635C3563.46 661.987 3563.54 661.372 3563.61 660.791 3563.68 660.21 3563.71 659.785 3563.71 659.514 3563.71 658.677 3563.58 657.988 3563.31 657.448 3563.04 656.907 3562.58 656.637 3561.93 656.637 3561.42 656.637 3560.86 656.792 3560.27 657.103 3559.67 657.414 3559.07 657.812 3558.46 658.299 3557.86 658.785 3557.27 659.305 3556.7 659.859 3556.13 660.413 3555.61 660.933 3555.12 661.419L3553.18 659.15C3554.01 658.285 3554.9 657.427 3555.85 656.576 3556.8 655.725 3557.8 654.955 3558.85 654.266 3559.9 653.577 3561.01 653.023 3562.17 652.605 3563.33 652.186 3564.52 651.976 3565.74 651.976 3566.77 651.976 3567.6 652.145 3568.25 652.483 3568.9 652.821 3569.41 653.266 3569.77 653.82 3570.14 654.374 3570.39 654.982 3570.52 655.644 3570.66 656.306 3570.72 656.961 3570.72 657.61 3570.72 657.988 3570.71 658.353 3570.68 658.704 3570.66 659.055 3570.62 659.379 3570.56 659.677L3568.29 674.347C3568.05 675.888 3567.85 677.394 3567.68 678.866 3567.52 680.339 3567.44 681.642 3567.44 682.777 3567.44 683.912 3567.51 684.831 3567.64 685.533 3567.78 686.235 3568.04 686.587 3568.41 686.587 3569.31 686.587 3570.43 686.229 3571.78 685.513 3573.13 684.797 3574.55 683.811 3576.03 682.554 3577.52 681.298 3579 679.812 3580.49 678.096 3581.98 676.381 3583.31 674.523 3584.5 672.524 3585.69 670.524 3586.66 668.417 3587.4 666.201 3588.14 663.986 3588.52 661.757 3588.52 659.514 3588.52 658.542 3588.31 657.792 3587.89 657.265 3587.47 656.738 3586.81 656.475 3585.92 656.475 3584.79 656.475 3583.74 656.914 3582.78 657.792 3581.82 658.67 3580.83 659.825 3579.8 661.257L3577.49 659.19C3578.14 658.218 3578.9 657.285 3579.78 656.394 3580.66 655.502 3581.59 654.719 3582.58 654.043 3583.56 653.368 3584.58 652.827 3585.64 652.422 3586.69 652.017 3587.72 651.814 3588.72 651.814Z" fill-rule="evenodd"/><text fill="#000000" fill-opacity="0" font-family="Arial,Arial_MSFontService,sans-serif" font-size="40.2842" x="3553.18" y="687.063">𝑣</text><path d="M3629.25 632.847 3630.34 635.968C3624.02 638.048 3619.34 642.108 3616.3 648.147 3613.26 654.185 3611.74 661.771 3611.74 670.903 3611.74 680.359 3613.26 688.154 3616.3 694.287 3619.34 700.42 3623.98 704.527 3630.22 706.607L3629.25 709.728C3621.33 707.647 3615.26 703.169 3611.05 696.293 3606.83 689.417 3604.73 681.089 3604.73 671.308 3604.73 661.554 3606.84 653.226 3611.07 646.323 3615.3 639.42 3621.36 634.928 3629.25 632.847Z" fill-rule="evenodd"/><text fill="#000000" fill-opacity="0" font-family="Arial,Arial_MSFontService,sans-serif" font-size="76.8804" x="3604.73" y="700.118">(</text><path d="M3648.63 652.301 3651.02 652.301 3645.18 678.319C3644.59 680.967 3644.29 682.966 3644.29 684.317 3644.29 685.398 3644.47 686.181 3644.82 686.668 3645.17 687.154 3645.72 687.397 3646.48 687.397 3647.29 687.397 3648.15 687.066 3649.07 686.404 3649.99 685.742 3651.29 684.479 3652.96 682.615L3655.27 684.885C3652.62 687.667 3650.48 689.559 3648.83 690.558 3647.18 691.558 3645.33 692.058 3643.28 692.058 3641.52 692.058 3640.12 691.416 3639.06 690.133 3638.01 688.849 3637.48 687.208 3637.48 685.209 3637.48 683.155 3637.86 680.535 3638.62 677.346L3641.66 664.094C3642.28 661.392 3642.59 659.366 3642.59 658.015 3642.59 656.799 3642.3 655.975 3641.72 655.543 3641.14 655.11 3639.99 654.867 3638.29 654.813L3638.74 652.665ZM3647.53 636.779 3654.71 636.779 3652.84 644.641 3645.67 644.641Z" fill-rule="evenodd"/><text fill="#000000" fill-opacity="0" font-family="Arial,Arial_MSFontService,sans-serif" font-size="55.2793" x="3637.48" y="685.148">𝑖</text><path d="M3666.2 682.007 3673.3 682.007C3673.68 683.898 3673.86 685.763 3673.86 687.6 3673.86 689.491 3673.54 691.22 3672.89 692.787 3672.24 694.354 3671.21 695.915 3669.79 697.468 3668.37 699.022 3666.42 700.731 3663.94 702.595L3661.75 700.123C3663.12 698.826 3664.12 697.657 3664.75 696.617 3665.37 695.577 3665.81 694.395 3666.08 693.071 3666.35 691.747 3666.49 690.086 3666.49 688.086 3666.49 686.033 3666.39 684.006 3666.2 682.007Z" fill-rule="evenodd"/><text fill="#000000" fill-opacity="0" font-family="Arial,Arial_MSFontService,sans-serif" font-size="20.5879" x="3661.75" y="700.022">,</text><path d="M3712.62 652.301 3714.93 652.301 3706.5 692.098C3705.64 696.205 3704.46 699.508 3702.98 702.007 3701.49 704.507 3699.56 706.384 3697.18 707.641 3694.8 708.897 3691.97 709.525 3688.67 709.525 3687.32 709.525 3686.17 709.39 3685.23 709.12L3686.16 705.554C3686.73 705.77 3687.75 705.878 3689.24 705.878 3690.54 705.878 3691.64 705.682 3692.54 705.29 3693.45 704.898 3694.29 704.25 3695.08 703.345 3695.86 702.44 3696.58 701.177 3697.24 699.555 3697.91 697.934 3698.52 695.84 3699.09 693.274L3705.65 664.094C3706.27 661.338 3706.58 659.312 3706.58 658.015 3706.58 656.799 3706.29 655.975 3705.71 655.543 3705.13 655.11 3703.99 654.867 3702.29 654.813L3702.73 652.665ZM3711.53 636.779 3718.7 636.779 3716.84 644.641 3709.67 644.641Z" fill-rule="evenodd"/><text fill="#000000" fill-opacity="0" font-family="Arial,Arial_MSFontService,sans-serif" font-size="72.7466" x="3685.23" y="700.432">𝑗</text><path d="M3769.38 641.642 3775.14 641.642 3775.14 664.986 3797.23 664.986 3797.23 670.376 3775.14 670.376 3775.14 693.72 3769.38 693.72 3769.38 670.376 3747.3 670.376 3747.3 664.986 3769.38 664.986Z" fill-rule="evenodd"/><text fill="#000000" fill-opacity="0" font-family="Arial,Arial_MSFontService,sans-serif" font-size="52.0776" x="3747.3" y="687.21">+</text><path d="M3847.65 635.441 3849.88 635.441C3849.71 638.035 3849.63 641.628 3849.63 646.221L3849.63 680.832C3849.63 682.399 3849.72 683.581 3849.9 684.378 3850.07 685.175 3850.38 685.823 3850.83 686.323 3851.27 686.823 3851.92 687.215 3852.75 687.499 3853.59 687.782 3854.64 687.998 3855.91 688.147 3857.18 688.296 3858.86 688.397 3860.94 688.451L3860.94 691.409 3830.99 691.409 3830.99 688.451C3833.99 688.316 3836.13 688.134 3837.41 687.904 3838.7 687.674 3839.68 687.33 3840.35 686.87 3841.03 686.411 3841.52 685.763 3841.83 684.925 3842.14 684.088 3842.3 682.723 3842.3 680.832L3842.3 647.964C3842.3 646.883 3842.11 646.093 3841.73 645.593 3841.35 645.094 3840.8 644.844 3840.07 644.844 3839.2 644.844 3837.97 645.289 3836.38 646.181 3834.79 647.073 3832.81 648.302 3830.46 649.869L3828.68 646.748Z" fill-rule="evenodd"/><text fill="#000000" fill-opacity="0" font-family="Arial,Arial_MSFontService,sans-serif" font-size="55.9683" x="3828.68" y="684.413">1</text><path d="M3869.93 632.847C3877.82 634.928 3883.88 639.42 3888.11 646.323 3892.34 653.226 3894.45 661.554 3894.45 671.308 3894.45 681.089 3892.34 689.417 3888.13 696.293 3883.92 703.169 3877.85 707.647 3869.93 709.728L3868.96 706.607C3875.2 704.527 3879.84 700.42 3882.88 694.287 3885.92 688.154 3887.44 680.359 3887.44 670.903 3887.44 661.771 3885.93 654.185 3882.9 648.147 3879.88 642.108 3875.19 638.048 3868.84 635.968Z" fill-rule="evenodd"/><text fill="#000000" fill-opacity="0" font-family="Arial,Arial_MSFontService,sans-serif" font-size="76.8804" x="3868.84" y="700.118">)</text><path d="M0.486449-1.03745 712.485 332.811 711.512 334.886-0.486449 1.03745ZM713.688 319.454 732.749 343.578 702.013 344.353Z" transform="matrix(1 0 0 -1 1081 1402.58)"/><rect x="558.5" y="1336.5" width="523" height="133" stroke="#000000" stroke-width="3.4375" stroke-linejoin="round" stroke-miterlimit="10" fill="none"/><text font-family="Yu Gothic,Yu Gothic_MSFontService,sans-serif" font-weight="400" font-size="83" transform="matrix(1 0 0 1 622.034 1428)">縦辺</text><path d="M848.903 1388.83C850.848 1388.83 852.253 1389.34 853.118 1390.35 853.982 1391.37 854.415 1392.73 854.415 1394.43 854.415 1395.72 854.185 1397.21 853.726 1398.89 853.267 1400.56 852.618 1402.33 851.781 1404.19 850.943 1406.06 849.943 1407.97 848.781 1409.93 847.62 1411.89 846.336 1413.79 844.931 1415.64 843.526 1417.49 842.027 1419.24 840.433 1420.87 838.839 1422.51 837.184 1423.93 835.468 1425.15 833.753 1426.36 832.01 1427.33 830.24 1428.04 828.471 1428.76 826.708 1429.12 824.951 1429.12 824.168 1429.12 823.513 1428.92 822.986 1428.53 822.459 1428.14 822.033 1427.59 821.709 1426.87 821.385 1426.15 821.155 1425.31 821.02 1424.34 820.885 1423.36 820.818 1422.3 820.818 1421.13 820.818 1419.59 820.912 1417.95 821.101 1416.19 821.29 1414.43 821.534 1412.66 821.831 1410.88L823.533 1399.66C823.641 1399.01 823.729 1398.39 823.796 1397.81 823.864 1397.23 823.898 1396.8 823.898 1396.53 823.898 1395.7 823.763 1395.01 823.492 1394.47 823.222 1393.93 822.763 1393.66 822.115 1393.66 821.601 1393.66 821.047 1393.81 820.453 1394.12 819.858 1394.43 819.257 1394.83 818.649 1395.32 818.042 1395.81 817.454 1396.33 816.886 1396.88 816.319 1397.43 815.792 1397.95 815.306 1398.44L813.361 1396.17C814.198 1395.31 815.09 1394.45 816.035 1393.6 816.981 1392.75 817.981 1391.98 819.034 1391.29 820.088 1390.6 821.196 1390.04 822.358 1389.62 823.519 1389.21 824.708 1389 825.924 1389 826.951 1389 827.788 1389.17 828.437 1389.5 829.085 1389.84 829.592 1390.29 829.957 1390.84 830.321 1391.39 830.571 1392 830.706 1392.66 830.841 1393.33 830.909 1393.98 830.909 1394.63 830.909 1395.01 830.895 1395.37 830.868 1395.72 830.841 1396.08 830.801 1396.4 830.747 1396.7L828.477 1411.37C828.234 1412.91 828.031 1414.41 827.869 1415.89 827.707 1417.36 827.626 1418.66 827.626 1419.8 827.626 1420.93 827.694 1421.85 827.829 1422.55 827.964 1423.26 828.221 1423.61 828.599 1423.61 829.49 1423.61 830.612 1423.25 831.963 1422.53 833.314 1421.82 834.732 1420.83 836.218 1419.57 837.704 1418.32 839.19 1416.83 840.676 1415.12 842.162 1413.4 843.499 1411.54 844.688 1409.54 845.877 1407.54 846.843 1405.44 847.586 1403.22 848.329 1401.01 848.7 1398.78 848.7 1396.53 848.7 1395.56 848.491 1394.81 848.072 1394.29 847.654 1393.76 846.998 1393.5 846.107 1393.5 844.972 1393.5 843.925 1393.93 842.966 1394.81 842.007 1395.69 841.014 1396.85 839.987 1398.28L837.677 1396.21C838.325 1395.24 839.089 1394.31 839.967 1393.41 840.845 1392.52 841.777 1391.74 842.763 1391.06 843.749 1390.39 844.769 1389.85 845.823 1389.44 846.877 1389.04 847.903 1388.83 848.903 1388.83Z" fill-rule="evenodd"/><text fill="#000000" fill-opacity="0" font-family="Arial,Arial_MSFontService,sans-serif" font-size="40.2842" x="813.361" y="1424.08">𝑣</text><path d="M889.431 1369.87 890.526 1372.99C884.203 1375.07 879.522 1379.13 876.483 1385.17 873.443 1391.21 871.924 1398.79 871.924 1407.92 871.924 1417.38 873.443 1425.17 876.483 1431.31 879.522 1437.44 884.163 1441.55 890.404 1443.63L889.431 1446.75C881.515 1444.67 875.449 1440.19 871.235 1433.31 867.02 1426.44 864.912 1418.11 864.912 1408.33 864.912 1398.57 867.027 1390.25 871.255 1383.34 875.483 1376.44 881.542 1371.95 889.431 1369.87Z" fill-rule="evenodd"/><text fill="#000000" fill-opacity="0" font-family="Arial,Arial_MSFontService,sans-serif" font-size="76.8804" x="864.912" y="1437.14">(</text><path d="M908.811 1389.32 911.202 1389.32 905.366 1415.34C904.772 1417.99 904.475 1419.99 904.475 1421.34 904.475 1422.42 904.65 1423.2 905.002 1423.69 905.353 1424.17 905.907 1424.42 906.663 1424.42 907.474 1424.42 908.338 1424.09 909.257 1423.42 910.176 1422.76 911.473 1421.5 913.148 1419.64L915.458 1421.9C912.81 1424.69 910.662 1426.58 909.014 1427.58 907.366 1428.58 905.515 1429.08 903.462 1429.08 901.706 1429.08 900.301 1428.44 899.247 1427.15 898.193 1425.87 897.666 1424.23 897.666 1422.23 897.666 1420.18 898.044 1417.55 898.801 1414.37L901.841 1401.11C902.462 1398.41 902.773 1396.39 902.773 1395.04 902.773 1393.82 902.482 1393 901.901 1392.56 901.32 1392.13 900.179 1391.89 898.477 1391.83L898.923 1389.69ZM907.717 1373.8 914.89 1373.8 913.026 1381.66 905.853 1381.66Z" fill-rule="evenodd"/><text fill="#000000" fill-opacity="0" font-family="Arial,Arial_MSFontService,sans-serif" font-size="55.2793" x="897.666" y="1422.17">𝑖</text><path d="M926.39 1419.03 933.482 1419.03C933.86 1420.92 934.049 1422.78 934.049 1424.62 934.049 1426.51 933.725 1428.24 933.077 1429.81 932.428 1431.37 931.395 1432.93 929.976 1434.49 928.558 1436.04 926.606 1437.75 924.12 1439.62L921.932 1437.14C923.31 1435.85 924.309 1434.68 924.931 1433.64 925.552 1432.6 925.998 1431.42 926.268 1430.09 926.538 1428.77 926.673 1427.11 926.673 1425.11 926.673 1423.05 926.579 1421.03 926.39 1419.03Z" fill-rule="evenodd"/><text fill="#000000" fill-opacity="0" font-family="Arial,Arial_MSFontService,sans-serif" font-size="20.5879" x="921.932" y="1437.04">,</text><path d="M972.809 1389.32 975.119 1389.32 966.689 1429.12C965.824 1433.23 964.649 1436.53 963.163 1439.03 961.677 1441.53 959.745 1443.4 957.368 1444.66 954.99 1445.92 952.153 1446.55 948.857 1446.55 947.506 1446.55 946.358 1446.41 945.412 1446.14L946.344 1442.57C946.912 1442.79 947.938 1442.9 949.424 1442.9 950.721 1442.9 951.822 1442.7 952.727 1442.31 953.632 1441.92 954.477 1441.27 955.26 1440.36 956.044 1439.46 956.767 1438.2 957.429 1436.58 958.09 1434.95 958.705 1432.86 959.273 1430.29L965.838 1401.11C966.459 1398.36 966.77 1396.33 966.77 1395.04 966.77 1393.82 966.48 1393 965.899 1392.56 965.318 1392.13 964.176 1391.89 962.474 1391.83L962.92 1389.69ZM971.714 1373.8 978.888 1373.8 977.023 1381.66 969.85 1381.66Z" fill-rule="evenodd"/><text fill="#000000" fill-opacity="0" font-family="Arial,Arial_MSFontService,sans-serif" font-size="72.7466" x="945.412" y="1437.45">𝑗</text><path d="M985.743 1369.87C993.633 1371.95 999.692 1376.44 1003.92 1383.34 1008.15 1390.25 1010.26 1398.57 1010.26 1408.33 1010.26 1418.11 1008.15 1426.44 1003.94 1433.31 999.725 1440.19 993.66 1444.67 985.743 1446.75L984.771 1443.63C991.012 1441.55 995.652 1437.44 998.692 1431.31 1001.73 1425.17 1003.25 1417.38 1003.25 1407.92 1003.25 1398.79 1001.74 1391.21 998.712 1385.17 995.686 1379.13 990.998 1375.07 984.649 1372.99Z" fill-rule="evenodd"/><text fill="#000000" fill-opacity="0" font-family="Arial,Arial_MSFontService,sans-serif" font-size="76.8804" x="984.649" y="1437.14">)</text><path d="M2478.27 1705.8 1992.21 1265.24 1993.75 1263.54 2479.81 1704.1ZM1987.14 1277.66 1976 1249 2005.61 1257.28Z"/><rect x="2156.5" y="1705.5" width="647" height="133" stroke="#000000" stroke-width="3.4375" stroke-linejoin="round" stroke-miterlimit="10" fill="none"/><text font-family="Yu Gothic,Yu Gothic_MSFontService,sans-serif" font-weight="400" font-size="83" transform="matrix(1 0 0 1 2209.23 1798)">横辺</text><path d="M2418.84 1739.55 2421.19 1739.55 2414.22 1767.64 2414.71 1767.8C2417.27 1764.39 2419.7 1761.93 2421.98 1760.4 2424.26 1758.88 2426.57 1758.11 2428.89 1758.11 2431.4 1758.11 2433.33 1758.84 2434.69 1760.28 2436.04 1761.73 2436.71 1763.73 2436.71 1766.3 2436.71 1768 2436.32 1770.42 2435.54 1773.55L2432.9 1784.17C2432.17 1787.12 2431.81 1789.2 2431.81 1790.41 2431.81 1791.49 2431.98 1792.28 2432.33 1792.76 2432.69 1793.25 2433.24 1793.49 2434 1793.49 2434.81 1793.49 2435.67 1793.16 2436.59 1792.5 2437.51 1791.84 2438.81 1790.58 2440.48 1788.71L2442.79 1790.98C2440.2 1793.71 2438.07 1795.59 2436.41 1796.61 2434.75 1797.64 2432.88 1798.15 2430.79 1798.15 2429.04 1798.15 2427.64 1797.53 2426.6 1796.29 2425.56 1795.05 2425.04 1793.44 2425.04 1791.47 2425.04 1789.71 2425.49 1787.13 2426.38 1783.73L2428.12 1776.71C2428.74 1774.2 2429.16 1772.32 2429.38 1771.06 2429.59 1769.8 2429.7 1768.83 2429.7 1768.12 2429.7 1766.2 2429.39 1764.85 2428.77 1764.05 2428.15 1763.25 2427.13 1762.85 2425.73 1762.85 2424.62 1762.85 2423.39 1763.31 2422.04 1764.23 2420.69 1765.15 2419.27 1766.55 2417.79 1768.43 2416.3 1770.3 2415.12 1772.1 2414.24 1773.82 2413.36 1775.53 2412.67 1777.58 2412.15 1779.96L2408.46 1797.51 2401.45 1797.51 2411.87 1751.18C2412.52 1748.29 2412.84 1746.29 2412.84 1745.18 2412.84 1744.05 2412.5 1743.25 2411.81 1742.79 2411.12 1742.33 2409.88 1742.08 2408.1 1742.02L2408.59 1739.92Z" fill-rule="evenodd"/><text fill="#000000" fill-opacity="0" font-family="Arial,Arial_MSFontService,sans-serif" font-size="58.6025" x="2401.45" y="1790.83">ℎ</text><path d="M2476.79 1738.94 2477.89 1742.06C2471.56 1744.14 2466.88 1748.2 2463.84 1754.24 2460.8 1760.28 2459.28 1767.87 2459.28 1777 2459.28 1786.45 2460.8 1794.25 2463.84 1800.38 2466.88 1806.52 2471.52 1810.62 2477.77 1812.7L2476.79 1815.82C2468.88 1813.74 2462.81 1809.26 2458.6 1802.39 2454.38 1795.51 2452.27 1787.18 2452.27 1777.4 2452.27 1767.65 2454.39 1759.32 2458.62 1752.42 2462.84 1745.52 2468.9 1741.02 2476.79 1738.94Z" fill-rule="evenodd"/><text fill="#000000" fill-opacity="0" font-family="Arial,Arial_MSFontService,sans-serif" font-size="76.8804" x="2452.27" y="1806.21">(</text><path d="M2496.17 1758.4 2498.56 1758.4 2492.73 1784.41C2492.13 1787.06 2491.84 1789.06 2491.84 1790.41 2491.84 1791.49 2492.01 1792.28 2492.36 1792.76 2492.71 1793.25 2493.27 1793.49 2494.02 1793.49 2494.84 1793.49 2495.7 1793.16 2496.62 1792.5 2497.54 1791.84 2498.83 1790.58 2500.51 1788.71L2502.82 1790.98C2500.17 1793.76 2498.02 1795.65 2496.38 1796.65 2494.73 1797.65 2492.88 1798.15 2490.82 1798.15 2489.07 1798.15 2487.66 1797.51 2486.61 1796.23 2485.55 1794.95 2485.03 1793.3 2485.03 1791.3 2485.03 1789.25 2485.41 1786.63 2486.16 1783.44L2489.2 1770.19C2489.82 1767.49 2490.13 1765.46 2490.13 1764.11 2490.13 1762.89 2489.84 1762.07 2489.26 1761.64 2488.68 1761.21 2487.54 1760.96 2485.84 1760.91L2486.28 1758.76ZM2495.08 1742.87 2502.25 1742.87 2500.39 1750.74 2493.21 1750.74Z" fill-rule="evenodd"/><text fill="#000000" fill-opacity="0" font-family="Arial,Arial_MSFontService,sans-serif" font-size="55.2793" x="2485.03" y="1791.24">𝑖</text><path d="M2554.78 1747.74 2560.53 1747.74 2560.53 1771.08 2582.62 1771.08 2582.62 1776.47 2560.53 1776.47 2560.53 1799.82 2554.78 1799.82 2554.78 1776.47 2532.69 1776.47 2532.69 1771.08 2554.78 1771.08Z" fill-rule="evenodd"/><text fill="#000000" fill-opacity="0" font-family="Arial,Arial_MSFontService,sans-serif" font-size="52.0776" x="2532.69" y="1793.31">+</text><path d="M2633.04 1741.54 2635.27 1741.54C2635.11 1744.13 2635.03 1747.72 2635.03 1752.32L2635.03 1786.93C2635.03 1788.49 2635.12 1789.68 2635.29 1790.47 2635.47 1791.27 2635.78 1791.92 2636.22 1792.42 2636.67 1792.92 2637.31 1793.31 2638.15 1793.59 2638.99 1793.88 2640.04 1794.09 2641.31 1794.24 2642.58 1794.39 2644.26 1794.49 2646.34 1794.55L2646.34 1797.51 2616.39 1797.51 2616.39 1794.55C2619.39 1794.41 2621.53 1794.23 2622.81 1794 2624.09 1793.77 2625.07 1793.43 2625.75 1792.97 2626.42 1792.51 2626.92 1791.86 2627.23 1791.02 2627.54 1790.18 2627.69 1788.82 2627.69 1786.93L2627.69 1754.06C2627.69 1752.98 2627.5 1752.19 2627.13 1751.69 2626.75 1751.19 2626.19 1750.94 2625.46 1750.94 2624.6 1750.94 2623.37 1751.39 2621.78 1752.28 2620.18 1753.17 2618.21 1754.4 2615.86 1755.96L2614.08 1752.84Z" fill-rule="evenodd"/><text fill="#000000" fill-opacity="0" font-family="Arial,Arial_MSFontService,sans-serif" font-size="55.9683" x="2614.08" y="1790.51">1</text><path d="M2658.13 1788.1 2665.22 1788.1C2665.6 1789.99 2665.79 1791.86 2665.79 1793.7 2665.79 1795.59 2665.46 1797.32 2664.81 1798.88 2664.16 1800.45 2663.13 1802.01 2661.71 1803.56 2660.29 1805.12 2658.34 1806.83 2655.86 1808.69L2653.67 1806.22C2655.05 1804.92 2656.05 1803.75 2656.67 1802.71 2657.29 1801.67 2657.73 1800.49 2658 1799.17 2658.27 1797.84 2658.41 1796.18 2658.41 1794.18 2658.41 1792.13 2658.32 1790.1 2658.13 1788.1Z" fill-rule="evenodd"/><text fill="#000000" fill-opacity="0" font-family="Arial,Arial_MSFontService,sans-serif" font-size="20.5879" x="2653.67" y="1806.12">,</text><path d="M2704.54 1758.4 2706.85 1758.4 2698.43 1798.19C2697.56 1802.3 2696.39 1805.6 2694.9 1808.1 2693.41 1810.6 2691.48 1812.48 2689.1 1813.74 2686.73 1814.99 2683.89 1815.62 2680.59 1815.62 2679.24 1815.62 2678.09 1815.49 2677.15 1815.22L2678.08 1811.65C2678.65 1811.87 2679.67 1811.97 2681.16 1811.97 2682.46 1811.97 2683.56 1811.78 2684.46 1811.39 2685.37 1810.99 2686.21 1810.35 2687 1809.44 2687.78 1808.54 2688.5 1807.27 2689.16 1805.65 2689.83 1804.03 2690.44 1801.94 2691.01 1799.37L2697.57 1770.19C2698.2 1767.43 2698.51 1765.41 2698.51 1764.11 2698.51 1762.89 2698.22 1762.07 2697.64 1761.64 2697.05 1761.21 2695.91 1760.96 2694.21 1760.91L2694.66 1758.76ZM2703.45 1742.87 2710.62 1742.87 2708.76 1750.74 2701.59 1750.74Z" fill-rule="evenodd"/><text fill="#000000" fill-opacity="0" font-family="Arial,Arial_MSFontService,sans-serif" font-size="72.7466" x="2677.15" y="1806.53">𝑗</text><path d="M2717.48 1738.94C2725.37 1741.02 2731.43 1745.52 2735.66 1752.42 2739.88 1759.32 2742 1767.65 2742 1777.4 2742 1787.18 2739.89 1795.51 2735.68 1802.39 2731.46 1809.26 2725.4 1813.74 2717.48 1815.82L2716.51 1812.7C2722.75 1810.62 2727.39 1806.52 2730.43 1800.38 2733.47 1794.25 2734.99 1786.45 2734.99 1777 2734.99 1767.87 2733.47 1760.28 2730.45 1754.24 2727.42 1748.2 2722.73 1744.14 2716.39 1742.06Z" fill-rule="evenodd"/><text fill="#000000" fill-opacity="0" font-family="Arial,Arial_MSFontService,sans-serif" font-size="76.8804" x="2716.39" y="1806.21">)</text><path d="M1814 1044.5C1814 944.26 1898.39 863 2002.5 863 2106.61 863 2191 944.26 2191 1044.5 2191 1144.74 2106.61 1226 2002.5 1226 1898.39 1226 1814 1144.74 1814 1044.5Z" fill="#D9D9D9" fill-rule="evenodd" fill-opacity="0.819608"/></g></svg>