<svg width="2476" height="2475" xmlns="http://www.w3.org/2000/svg" xmlns:xlink="http://www.w3.org/1999/xlink" xml:space="preserve" overflow="hidden"><defs><clipPath id="clip0"><rect x="962" y="0" width="2476" height="2475"/></clipPath></defs><g clip-path="url(#clip0)" transform="translate(-962 0)"><path d="M1427.38 152.395 1427.38 2322.6" stroke="#000000" stroke-width="2.29167" stroke-linejoin="round" stroke-miterlimit="10" stroke-dasharray="2.29167 6.875" fill="none" fill-rule="evenodd"/><path d="M1736.43 152.395 1736.43 2322.6" stroke="#000000" stroke-width="2.29167" stroke-linejoin="round" stroke-miterlimit="10" stroke-dasharray="2.29167 6.875" fill="none" fill-rule="evenodd"/><path d="M2045.48 152.395 2045.48 2322.6" stroke="#000000" stroke-width="2.29167" stroke-linejoin="round" stroke-miterlimit="10" stroke-dasharray="2.29167 6.875" fill="none" fill-rule="evenodd"/><path d="M2354.52 152.395 2354.52 2322.6" stroke="#000000" stroke-width="2.29167" stroke-linejoin="round" stroke-miterlimit="10" stroke-dasharray="2.29167 6.875" fill="none" fill-rule="evenodd"/><path d="M2663.57 152.395 2663.57 2322.6" stroke="#000000" stroke-width="2.29167" stroke-linejoin="round" stroke-miterlimit="10" stroke-dasharray="2.29167 6.875" fill="none" fill-rule="evenodd"/><path d="M2972.62 152.395 2972.62 2322.6" stroke="#000000" stroke-width="2.29167" stroke-linejoin="round" stroke-miterlimit="10" stroke-dasharray="2.29167 6.875" fill="none" fill-rule="evenodd"/><path d="M1114.9 464.881 3285.1 464.881" stroke="#000000" stroke-width="2.29167" stroke-linejoin="round" stroke-miterlimit="10" stroke-dasharray="2.29167 6.875" fill="none" fill-rule="evenodd"/><path d="M1114.9 773.928 3285.1 773.928" stroke="#000000" stroke-width="2.29167" stroke-linejoin="round" stroke-miterlimit="10" stroke-dasharray="2.29167 6.875" fill="none" fill-rule="evenodd"/><path d="M1114.9 1082.98 3285.1 1082.98" stroke="#000000" stroke-width="2.29167" stroke-linejoin="round" stroke-miterlimit="10" stroke-dasharray="2.29167 6.875" fill="none" fill-rule="evenodd"/><path d="M1114.9 1392.02 3285.1 1392.02" stroke="#000000" stroke-width="2.29167" stroke-linejoin="round" stroke-miterlimit="10" stroke-dasharray="2.29167 6.875" fill="none" fill-rule="evenodd"/><path d="M1114.9 1701.07 3285.1 1701.07" stroke="#000000" stroke-width="2.29167" stroke-linejoin="round" stroke-miterlimit="10" stroke-dasharray="2.29167 6.875" fill="none" fill-rule="evenodd"/><path d="M1114.9 2010.12 3285.1 2010.12" stroke="#000000" stroke-width="2.29167" stroke-linejoin="round" stroke-miterlimit="10" stroke-dasharray="2.29167 6.875" fill="none" fill-rule="evenodd"/><path d="M1118.33 152.395 1118.33 2322.6" stroke="#00C49A" stroke-width="6.875" stroke-linejoin="round" stroke-miterlimit="10" fill="none" fill-rule="evenodd"/><path d="M3281.67 152.395 3281.67 2322.6" stroke="#00C49A" stroke-width="6.875" stroke-linejoin="round" stroke-miterlimit="10" fill="none" fill-rule="evenodd"/><path d="M1114.9 155.833 3285.1 155.833" stroke="#00C49A" stroke-width="6.875" stroke-linejoin="round" stroke-miterlimit="10" fill="none" fill-rule="evenodd"/><path d="M1114.9 2319.17 3285.1 2319.17" stroke="#00C49A" stroke-width="6.875" stroke-linejoin="round" stroke-miterlimit="10" fill="none" fill-rule="evenodd"/><path d="M1271.87 305.937 1271.87 1859.69" stroke="#ED7D31" stroke-width="6.875" stroke-linejoin="round" stroke-miterlimit="10" fill="none" fill-rule="evenodd"/><path d="M1581.25 615.312 1581.25 1550.31" stroke="#ED7D31" stroke-width="6.875" stroke-linejoin="round" stroke-miterlimit="10" fill="none" fill-rule="evenodd"/><path d="M1890.62 924.687 1890.62 1237.5" stroke="#ED7D31" stroke-width="6.875" stroke-linejoin="round" stroke-miterlimit="10" fill="none" fill-rule="evenodd"/><path d="M2200 1234.06 2200 1550.31" stroke="#ED7D31" stroke-width="6.875" stroke-linejoin="round" stroke-miterlimit="10" fill="none" fill-rule="evenodd"/><path d="M2509.37 1543.44 2509.37 1859.69" stroke="#ED7D31" stroke-width="6.875" stroke-linejoin="round" stroke-miterlimit="10" fill="none" fill-rule="evenodd"/><path d="M2818.75 309.374 2818.75 931.562" stroke="#ED7D31" stroke-width="6.875" stroke-linejoin="round" stroke-miterlimit="10" fill="none" fill-rule="evenodd"/><path d="M2818.75 1856.25 2818.75 2169.06" stroke="#ED7D31" stroke-width="6.875" stroke-linejoin="round" stroke-miterlimit="10" fill="none" fill-rule="evenodd"/><path d="M3128.12 309.374 3128.12 1240.94" stroke="#ED7D31" stroke-width="6.875" stroke-linejoin="round" stroke-miterlimit="10" fill="none" fill-rule="evenodd"/><path d="M3128.12 1543.44 3128.12 2165.62" stroke="#ED7D31" stroke-width="6.875" stroke-linejoin="round" stroke-miterlimit="10" fill="none" fill-rule="evenodd"/><path d="M1268.44 309.374 2509.37 309.374" stroke="#ED7D31" stroke-width="6.875" stroke-linejoin="round" stroke-miterlimit="10" fill="none" fill-rule="evenodd"/><path d="M1577.81 618.749 2509.37 618.749" stroke="#ED7D31" stroke-width="6.875" stroke-linejoin="round" stroke-miterlimit="10" fill="none" fill-rule="evenodd"/><path d="M1887.19 928.124 2822.19 928.124" stroke="#ED7D31" stroke-width="6.875" stroke-linejoin="round" stroke-miterlimit="10" fill="none" fill-rule="evenodd"/><path d="M2196.56 1237.5 3131.56 1237.5" stroke="#ED7D31" stroke-width="6.875" stroke-linejoin="round" stroke-miterlimit="10" fill="none" fill-rule="evenodd"/><path d="M1577.81 1546.87 2203.44 1546.87" stroke="#ED7D31" stroke-width="6.875" stroke-linejoin="round" stroke-miterlimit="10" fill="none" fill-rule="evenodd"/><path d="M2505.94 1546.87 3131.56 1546.87" stroke="#ED7D31" stroke-width="6.875" stroke-linejoin="round" stroke-miterlimit="10" fill="none" fill-rule="evenodd"/><path d="M1268.44 1856.25 1581.25 1856.25" stroke="#ED7D31" stroke-width="6.875" stroke-linejoin="round" stroke-miterlimit="10" fill="none" fill-rule="evenodd"/><path d="M1890.62 1856.25 2512.81 1856.25" stroke="#ED7D31" stroke-width="6.875" stroke-linejoin="round" stroke-miterlimit="10" fill="none" fill-rule="evenodd"/><path d="M1271.87 2165.62 2822.19 2165.62" stroke="#ED7D31" stroke-width="6.875" stroke-linejoin="round" stroke-miterlimit="10" fill="none" fill-rule="evenodd"/><text font-family="Yu Gothic,Yu Gothic_MSFontService,sans-serif" font-weight="400" font-size="142" transform="matrix(1 0 0 1 2469.52 359)">3</text><text font-family="Yu Gothic,Yu Gothic_MSFontService,sans-serif" font-weight="400" font-size="142" transform="matrix(1 0 0 1 2778.56 359)">2</text><text font-family="Yu Gothic,Yu Gothic_MSFontService,sans-serif" font-weight="400" font-size="142" transform="matrix(1 0 0 1 3087.61 359)">1</text><text font-family="Yu Gothic,Yu Gothic_MSFontService,sans-serif" font-weight="400" font-size="142" transform="matrix(1 0 0 1 2469.52 668)">1</text><text font-family="Yu Gothic,Yu Gothic_MSFontService,sans-serif" font-weight="400" font-size="142" transform="matrix(1 0 0 1 1851.42 1286)">2</text><text font-family="Yu Gothic,Yu Gothic_MSFontService,sans-serif" font-weight="400" font-size="142" transform="matrix(1 0 0 1 1542.37 1904)">3</text><text font-family="Yu Gothic,Yu Gothic_MSFontService,sans-serif" font-weight="400" font-size="142" transform="matrix(1 0 0 1 1851.42 1904)">5</text><text font-family="Yu Gothic,Yu Gothic_MSFontService,sans-serif" font-weight="400" font-size="142" transform="matrix(1 0 0 1 2778.56 1904)">4</text><text font-family="Yu Gothic,Yu Gothic_MSFontService,sans-serif" font-weight="400" font-size="142" transform="matrix(1 0 0 1 1233.32 2213)">4</text><text font-family="Yu Gothic,Yu Gothic_MSFontService,sans-serif" font-weight="400" font-size="142" transform="matrix(1 0 0 1 3087.61 2213)">5</text></g></svg>