<svg width="1771" height="3290" xmlns="http://www.w3.org/2000/svg" xmlns:xlink="http://www.w3.org/1999/xlink" xml:space="preserve" overflow="hidden"><defs><clipPath id="clip0"><rect x="352" y="103" width="1771" height="3290"/></clipPath></defs><g clip-path="url(#clip0)" transform="translate(-352 -103)"><path d="M680.699 322.442 680.699 994.041" stroke="#00C49A" stroke-width="6.875" stroke-linejoin="round" stroke-miterlimit="10" fill="none" fill-rule="evenodd"/><path d="M680.699 994.041 680.699 1442.92" stroke="#ED7D31" stroke-width="6.875" stroke-linejoin="round" stroke-miterlimit="10" fill="none" fill-rule="evenodd"/><path d="M903.419 322.442 903.419 547.454" stroke="#000000" stroke-width="2.29167" stroke-linejoin="round" stroke-miterlimit="10" stroke-dasharray="2.29167 6.875" fill="none" fill-rule="evenodd"/><path d="M903.419 547.454 903.419 774.758" stroke="#ED7D31" stroke-width="6.875" stroke-linejoin="round" stroke-miterlimit="10" fill="none" fill-rule="evenodd"/><path d="M903.419 774.758 903.419 1213.32" stroke="#000000" stroke-width="2.29167" stroke-linejoin="round" stroke-miterlimit="10" stroke-dasharray="2.29167 6.875" fill="none" fill-rule="evenodd"/><path d="M903.419 1213.32 903.419 1442.92" stroke="#ED7D31" stroke-width="6.875" stroke-linejoin="round" stroke-miterlimit="10" fill="none" fill-rule="evenodd"/><path d="M1126.14 322.442 1126.14 774.758" stroke="#ED7D31" stroke-width="6.875" stroke-linejoin="round" stroke-miterlimit="10" fill="none" fill-rule="evenodd"/><path d="M1126.14 774.758 1126.14 1213.32" stroke="#000000" stroke-width="2.29167" stroke-linejoin="round" stroke-miterlimit="10" stroke-dasharray="2.29167 6.875" fill="none" fill-rule="evenodd"/><path d="M1126.14 1213.32 1126.14 1442.92" stroke="#ED7D31" stroke-width="6.875" stroke-linejoin="round" stroke-miterlimit="10" fill="none" fill-rule="evenodd"/><path d="M1348.86 322.442 1348.86 547.454" stroke="#000000" stroke-width="2.29167" stroke-linejoin="round" stroke-miterlimit="10" stroke-dasharray="2.29167 6.875" fill="none" fill-rule="evenodd"/><path d="M1348.86 547.454 1348.86 1217.91" stroke="#ED7D31" stroke-width="6.875" stroke-linejoin="round" stroke-miterlimit="10" fill="none" fill-rule="evenodd"/><path d="M1348.86 1217.91 1348.86 1442.92" stroke="#000000" stroke-width="2.29167" stroke-linejoin="round" stroke-miterlimit="10" stroke-dasharray="2.29167 6.875" fill="none" fill-rule="evenodd"/><path d="M1571.58 322.442 1571.58 997.478" stroke="#ED7D31" stroke-width="6.875" stroke-linejoin="round" stroke-miterlimit="10" fill="none" fill-rule="evenodd"/><path d="M1571.58 997.478 1571.58 1213.32" stroke="#000000" stroke-width="2.29167" stroke-linejoin="round" stroke-miterlimit="10" stroke-dasharray="2.29167 6.875" fill="none" fill-rule="evenodd"/><path d="M1571.58 1213.32 1571.58 1442.92" stroke="#ED7D31" stroke-width="6.875" stroke-linejoin="round" stroke-miterlimit="10" fill="none" fill-rule="evenodd"/><path d="M1794.3 322.442 1794.3 548.6" stroke="#ED7D31" stroke-width="6.875" stroke-linejoin="round" stroke-miterlimit="10" fill="none" fill-rule="evenodd"/><path d="M1794.3 548.6 1794.3 1442.92" stroke="#00C49A" stroke-width="6.875" stroke-linejoin="round" stroke-miterlimit="10" fill="none" fill-rule="evenodd"/><path d="M677.261 325.879 1126.14 325.879" stroke="#ED7D31" stroke-width="6.875" stroke-linejoin="round" stroke-miterlimit="10" fill="none" fill-rule="evenodd"/><path d="M1126.14 325.879 1571.58 325.879" stroke="#00C49A" stroke-width="6.875" stroke-linejoin="round" stroke-miterlimit="10" fill="none" fill-rule="evenodd"/><path d="M1571.58 325.879 1797.74 325.879" stroke="#ED7D31" stroke-width="6.875" stroke-linejoin="round" stroke-miterlimit="10" fill="none" fill-rule="evenodd"/><path d="M677.261 548.6 1568.14 548.6" stroke="#000000" stroke-width="2.29167" stroke-linejoin="round" stroke-miterlimit="10" stroke-dasharray="2.29167 6.875" fill="none" fill-rule="evenodd"/><path d="M1568.14 548.6 1797.74 548.6" stroke="#ED7D31" stroke-width="6.875" stroke-linejoin="round" stroke-miterlimit="10" fill="none" fill-rule="evenodd"/><path d="M677.261 771.32 899.982 771.32" stroke="#000000" stroke-width="2.29167" stroke-linejoin="round" stroke-miterlimit="10" stroke-dasharray="2.29167 6.875" fill="none" fill-rule="evenodd"/><path d="M899.982 771.32 1129.58 771.32" stroke="#ED7D31" stroke-width="6.875" stroke-linejoin="round" stroke-miterlimit="10" fill="none" fill-rule="evenodd"/><path d="M1129.58 771.32 1797.74 771.32" stroke="#000000" stroke-width="2.29167" stroke-linejoin="round" stroke-miterlimit="10" stroke-dasharray="2.29167 6.875" fill="none" fill-rule="evenodd"/><path d="M677.261 994.041 902.274 994.041" stroke="#000000" stroke-width="2.29167" stroke-linejoin="round" stroke-miterlimit="10" stroke-dasharray="2.29167 6.875" fill="none" fill-rule="evenodd"/><path d="M902.274 994.041 1575.02 994.041" stroke="#ED7D31" stroke-width="6.875" stroke-linejoin="round" stroke-miterlimit="10" fill="none" fill-rule="evenodd"/><path d="M1575.02 994.041 1797.74 994.041" stroke="#000000" stroke-width="2.29167" stroke-linejoin="round" stroke-miterlimit="10" stroke-dasharray="2.29167 6.875" fill="none" fill-rule="evenodd"/><path d="M677.261 1216.76 899.982 1216.76" stroke="#000000" stroke-width="2.29167" stroke-linejoin="round" stroke-miterlimit="10" stroke-dasharray="2.29167 6.875" fill="none" fill-rule="evenodd"/><path d="M899.982 1216.76 1129.58 1216.76" stroke="#ED7D31" stroke-width="6.875" stroke-linejoin="round" stroke-miterlimit="10" fill="none" fill-rule="evenodd"/><path d="M1129.58 1216.76 1568.14 1216.76" stroke="#000000" stroke-width="2.29167" stroke-linejoin="round" stroke-miterlimit="10" stroke-dasharray="2.29167 6.875" fill="none" fill-rule="evenodd"/><path d="M1568.14 1216.76 1797.74 1216.76" stroke="#ED7D31" stroke-width="6.875" stroke-linejoin="round" stroke-miterlimit="10" fill="none" fill-rule="evenodd"/><path d="M677.261 1439.48 1126.14 1439.48" stroke="#ED7D31" stroke-width="6.875" stroke-linejoin="round" stroke-miterlimit="10" fill="none" fill-rule="evenodd"/><path d="M1126.14 1439.48 1348.86 1439.48" stroke="#00C49A" stroke-width="6.875" stroke-linejoin="round" stroke-miterlimit="10" fill="none" fill-rule="evenodd"/><path d="M1348.86 1439.48 1571.58 1439.48" stroke="#ED7D31" stroke-width="6.875" stroke-linejoin="round" stroke-miterlimit="10" fill="none" fill-rule="evenodd"/><path d="M1571.58 1439.48 1797.74 1439.48" stroke="#00C49A" stroke-width="6.875" stroke-linejoin="round" stroke-miterlimit="10" fill="none" fill-rule="evenodd"/><path d="M680.699 2619.02 680.699 3067.9" stroke="#ED7D31" stroke-width="6.875" stroke-linejoin="round" stroke-miterlimit="10" fill="none" fill-rule="evenodd"/><path d="M903.419 2173.58 903.419 2399.73" stroke="#ED7D31" stroke-width="6.875" stroke-linejoin="round" stroke-miterlimit="10" fill="none" fill-rule="evenodd"/><path d="M903.419 2838.3 903.419 3067.9" stroke="#ED7D31" stroke-width="6.875" stroke-linejoin="round" stroke-miterlimit="10" fill="none" fill-rule="evenodd"/><path d="M1126.14 1947.42 1126.14 2399.73" stroke="#ED7D31" stroke-width="6.875" stroke-linejoin="round" stroke-miterlimit="10" fill="none" fill-rule="evenodd"/><path d="M1126.14 2838.3 1126.14 3067.9" stroke="#ED7D31" stroke-width="6.875" stroke-linejoin="round" stroke-miterlimit="10" fill="none" fill-rule="evenodd"/><path d="M1348.86 2173.58 1348.86 2841.74" stroke="#ED7D31" stroke-width="6.875" stroke-linejoin="round" stroke-miterlimit="10" fill="none" fill-rule="evenodd"/><path d="M1571.58 1947.42 1571.58 2622.45" stroke="#ED7D31" stroke-width="6.875" stroke-linejoin="round" stroke-miterlimit="10" fill="none" fill-rule="evenodd"/><path d="M1571.58 2838.3 1571.58 3067.9" stroke="#ED7D31" stroke-width="6.875" stroke-linejoin="round" stroke-miterlimit="10" fill="none" fill-rule="evenodd"/><path d="M1794.3 1947.42 1794.3 2177.01" stroke="#ED7D31" stroke-width="6.875" stroke-linejoin="round" stroke-miterlimit="10" fill="none" fill-rule="evenodd"/><path d="M680.699 1950.86 1129.58 1950.86" stroke="#ED7D31" stroke-width="6.875" stroke-linejoin="round" stroke-miterlimit="10" fill="none" fill-rule="evenodd"/><path d="M1568.14 1950.86 1797.74 1950.86" stroke="#ED7D31" stroke-width="6.875" stroke-linejoin="round" stroke-miterlimit="10" fill="none" fill-rule="evenodd"/><path d="M1568.14 2173.58 1797.74 2173.58" stroke="#ED7D31" stroke-width="6.875" stroke-linejoin="round" stroke-miterlimit="10" fill="none" fill-rule="evenodd"/><path d="M899.982 2396.3 1129.58 2396.3" stroke="#ED7D31" stroke-width="6.875" stroke-linejoin="round" stroke-miterlimit="10" fill="none" fill-rule="evenodd"/><path d="M903.419 2619.02 1575.02 2619.02" stroke="#ED7D31" stroke-width="6.875" stroke-linejoin="round" stroke-miterlimit="10" fill="none" fill-rule="evenodd"/><path d="M899.982 2841.74 1129.58 2841.74" stroke="#ED7D31" stroke-width="6.875" stroke-linejoin="round" stroke-miterlimit="10" fill="none" fill-rule="evenodd"/><path d="M1568.14 2841.74 1794.3 2841.74" stroke="#ED7D31" stroke-width="6.875" stroke-linejoin="round" stroke-miterlimit="10" fill="none" fill-rule="evenodd"/><path d="M677.261 3064.46 1129.58 3064.46" stroke="#ED7D31" stroke-width="6.875" stroke-linejoin="round" stroke-miterlimit="10" fill="none" fill-rule="evenodd"/><path d="M1348.86 3064.46 1575.02 3064.46" stroke="#ED7D31" stroke-width="6.875" stroke-linejoin="round" stroke-miterlimit="10" fill="none" fill-rule="evenodd"/><path d="M573.943 1840.66 573.943 3174.65" stroke="#00C49A" stroke-width="6.875" stroke-linejoin="round" stroke-miterlimit="10" fill="none" fill-rule="evenodd"/><path d="M795.129 1840.66 795.129 3174.65" stroke="#000000" stroke-width="2.29167" stroke-linejoin="round" stroke-miterlimit="10" stroke-dasharray="2.29167 6.875" fill="none" fill-rule="evenodd"/><path d="M1016.31 1840.66 1016.31 3174.65" stroke="#000000" stroke-width="2.29167" stroke-linejoin="round" stroke-miterlimit="10" stroke-dasharray="2.29167 6.875" fill="none" fill-rule="evenodd"/><path d="M1237.5 1840.66 1237.5 3174.65" stroke="#000000" stroke-width="2.29167" stroke-linejoin="round" stroke-miterlimit="10" stroke-dasharray="2.29167 6.875" fill="none" fill-rule="evenodd"/><path d="M1458.69 1840.66 1458.69 3174.65" stroke="#000000" stroke-width="2.29167" stroke-linejoin="round" stroke-miterlimit="10" stroke-dasharray="2.29167 6.875" fill="none" fill-rule="evenodd"/><path d="M1679.87 1840.66 1679.87 3174.65" stroke="#000000" stroke-width="2.29167" stroke-linejoin="round" stroke-miterlimit="10" stroke-dasharray="2.29167 6.875" fill="none" fill-rule="evenodd"/><path d="M1901.06 1840.66 1901.06 3174.65" stroke="#00C49A" stroke-width="6.875" stroke-linejoin="round" stroke-miterlimit="10" fill="none" fill-rule="evenodd"/><path d="M570.506 1844.1 1904.5 1844.1" stroke="#00C49A" stroke-width="6.875" stroke-linejoin="round" stroke-miterlimit="10" fill="none" fill-rule="evenodd"/><path d="M570.506 2065.29 1904.5 2065.29" stroke="#000000" stroke-width="2.29167" stroke-linejoin="round" stroke-miterlimit="10" stroke-dasharray="2.29167 6.875" fill="none" fill-rule="evenodd"/><path d="M570.506 2286.47 1904.5 2286.47" stroke="#000000" stroke-width="2.29167" stroke-linejoin="round" stroke-miterlimit="10" stroke-dasharray="2.29167 6.875" fill="none" fill-rule="evenodd"/><path d="M570.506 2507.66 1904.5 2507.66" stroke="#000000" stroke-width="2.29167" stroke-linejoin="round" stroke-miterlimit="10" stroke-dasharray="2.29167 6.875" fill="none" fill-rule="evenodd"/><path d="M570.506 2728.84 1904.5 2728.84" stroke="#000000" stroke-width="2.29167" stroke-linejoin="round" stroke-miterlimit="10" stroke-dasharray="2.29167 6.875" fill="none" fill-rule="evenodd"/><path d="M570.506 2950.03 1904.5 2950.03" stroke="#000000" stroke-width="2.29167" stroke-linejoin="round" stroke-miterlimit="10" stroke-dasharray="2.29167 6.875" fill="none" fill-rule="evenodd"/><path d="M570.506 3171.21 1904.5 3171.21" stroke="#00C49A" stroke-width="6.875" stroke-linejoin="round" stroke-miterlimit="10" fill="none" fill-rule="evenodd"/><path d="M1018.45 1295.34C1015.15 1295.34 1012.39 1296.33 1010.16 1298.29 1007.94 1300.25 1006.14 1303.07 1004.78 1306.76 1003.42 1310.44 1002.45 1314.93 1001.87 1320.22 1001.3 1325.5 1001.01 1331.47 1001.01 1338.12 1001.01 1353.72 1002.46 1365.17 1005.35 1372.47 1008.25 1379.77 1012.73 1383.42 1018.81 1383.42 1024.6 1383.42 1028.9 1379.98 1031.7 1373.12 1034.5 1366.25 1035.9 1355.61 1035.9 1341.21 1035.9 1330.2 1035.18 1321.29 1033.74 1314.47 1032.31 1307.65 1030.31 1302.76 1027.75 1299.79 1025.19 1296.83 1022.09 1295.34 1018.45 1295.34ZM1018.81 1289.24C1029.29 1289.24 1037.09 1293.29 1042.21 1301.37 1047.33 1309.46 1049.89 1321.69 1049.89 1338.05 1049.89 1354.99 1047.15 1367.8 1041.67 1376.49 1036.19 1385.17 1028.19 1389.52 1017.66 1389.52 1007.33 1389.52 999.636 1385.45 994.587 1377.31 989.539 1369.18 987.015 1356.83 987.015 1340.28 987.015 1331.47 987.792 1323.86 989.347 1317.45 990.903 1311.04 993.08 1305.74 995.879 1301.55 998.679 1297.37 1002.04 1294.27 1005.96 1292.26 1009.89 1290.25 1014.17 1289.24 1018.81 1289.24Z" fill-rule="evenodd"/><text fill="#000000" fill-opacity="0" font-family="Arial,Arial_MSFontService,sans-serif" font-size="100.273" x="987.015" y="1376.98">0</text><path d="M1577.38 719.223C1582.78 719.223 1587.52 720.061 1591.59 721.736 1595.65 723.41 1598.76 725.815 1600.92 728.949 1603.07 732.084 1604.15 735.828 1604.15 740.182 1604.15 744.25 1603.33 747.827 1601.71 750.913 1600.08 754 1597.8 756.691 1594.85 758.988 1591.91 761.285 1588.09 763.534 1583.4 765.735L1583.4 766.381C1586.32 766.908 1589.13 767.805 1591.84 769.073 1594.54 770.341 1596.95 771.98 1599.05 773.99 1601.16 775.999 1602.84 778.404 1604.11 781.203 1605.38 784.003 1606.01 787.197 1606.01 790.785 1606.01 796.336 1604.81 801.265 1602.39 805.572 1599.97 809.878 1596.28 813.276 1591.3 815.764 1586.32 818.252 1580.27 819.496 1573.14 819.496 1569.02 819.496 1564.59 819.03 1559.83 818.097 1555.06 817.164 1550.7 815.931 1546.73 814.4L1546.73 799.183 1555.34 799.183C1557.01 804.16 1559.23 807.773 1561.98 810.022 1564.73 812.271 1568.47 813.395 1573.21 813.395 1579.43 813.395 1584.13 811.697 1587.32 808.299 1590.5 804.902 1592.09 799.877 1592.09 793.226 1592.09 786.24 1589.98 780.904 1585.77 777.22 1581.56 773.535 1575.39 771.693 1567.25 771.693L1560.79 771.693 1560.79 765.376C1567.25 764.993 1572.7 763.749 1577.12 761.644 1581.55 759.538 1584.84 756.835 1586.99 753.533 1589.15 750.231 1590.22 746.523 1590.22 742.408 1590.22 737.096 1588.81 733.005 1585.99 730.134 1583.17 727.263 1579.05 725.827 1573.64 725.827 1569.14 725.827 1565.48 727.047 1562.66 729.488 1559.84 731.928 1557.76 735.66 1556.42 740.685L1547.8 740.685 1547.8 727.047C1553.35 724.415 1558.55 722.453 1563.38 721.161 1568.21 719.869 1572.88 719.223 1577.38 719.223Z" fill-rule="evenodd"/><text fill="#000000" fill-opacity="0" font-family="Arial,Arial_MSFontService,sans-serif" font-size="100.273" x="1546.73" y="806.962">3</text><path d="M804.392 391.481C809.799 391.481 814.536 392.319 818.604 393.993 822.671 395.668 825.781 398.073 827.935 401.207 830.088 404.341 831.165 408.086 831.165 412.44 831.165 416.508 830.351 420.085 828.724 423.171 827.097 426.257 824.812 428.949 821.87 431.246 818.927 433.543 815.111 435.792 810.421 437.993L810.421 438.639C813.34 439.165 816.151 440.063 818.855 441.331 821.559 442.599 823.963 444.238 826.069 446.247 828.174 448.257 829.861 450.662 831.129 453.461 832.397 456.26 833.031 459.454 833.031 463.043 833.031 468.594 831.823 473.523 829.406 477.829 826.99 482.136 823.293 485.533 818.317 488.022 813.34 490.51 807.287 491.754 800.157 491.754 796.042 491.754 791.604 491.288 786.842 490.355 782.081 489.421 777.715 488.189 773.743 486.658L773.743 471.441 782.356 471.441C784.031 476.418 786.244 480.031 788.996 482.28 791.747 484.529 795.491 485.653 800.229 485.653 806.449 485.653 811.151 483.954 814.333 480.557 817.515 477.159 819.106 472.135 819.106 465.484 819.106 458.497 817.001 453.162 812.79 449.477 808.579 445.793 802.406 443.95 794.271 443.95L787.811 443.95 787.811 437.634C794.271 437.251 799.714 436.007 804.141 433.902 808.567 431.796 811.857 429.093 814.01 425.791 816.163 422.489 817.24 418.781 817.24 414.665 817.24 409.354 815.828 405.262 813.005 402.391 810.182 399.52 806.067 398.085 800.659 398.085 796.161 398.085 792.501 399.305 789.677 401.745 786.854 404.186 784.773 407.918 783.433 412.943L774.82 412.943 774.82 399.305C780.37 396.673 785.562 394.711 790.395 393.419 795.228 392.127 799.894 391.481 804.392 391.481Z" fill-rule="evenodd"/><text fill="#000000" fill-opacity="0" font-family="Arial,Arial_MSFontService,sans-serif" font-size="100.273" x="773.743" y="479.22">3</text><path d="M1251.64 381.275 1257.24 381.275 1256.16 397.927 1214.89 397.927 1214.89 429.438C1217.38 428.385 1220.08 427.595 1223 427.069 1225.92 426.543 1228.84 426.279 1231.76 426.279 1237.45 426.279 1242.5 427.44 1246.9 429.761 1251.3 432.081 1254.7 435.383 1257.09 439.666 1259.49 443.949 1260.68 448.913 1260.68 454.56 1260.68 460.972 1259.34 466.475 1256.66 471.069 1253.98 475.662 1250.11 479.155 1245.03 481.548 1239.96 483.941 1233.96 485.137 1227.02 485.137 1218.74 485.137 1210.08 483.438 1201.04 480.041L1201.04 464.824 1209.72 464.824C1211.16 469.705 1213.32 473.294 1216.22 475.59 1219.11 477.887 1222.86 479.036 1227.45 479.036 1233.81 479.036 1238.62 477.122 1241.88 473.294 1245.13 469.465 1246.76 463.747 1246.76 456.139 1246.76 451.067 1245.9 446.868 1244.17 443.542 1242.45 440.216 1240.13 437.812 1237.21 436.328 1234.29 434.845 1230.89 434.103 1227.02 434.103 1223.76 434.103 1220.97 434.307 1218.62 434.713 1216.28 435.12 1213.76 435.754 1211.08 436.615L1205.34 433.242 1205.34 386.012 1244.89 386.012C1246.52 386.012 1247.69 385.881 1248.41 385.618 1249.13 385.354 1249.7 384.948 1250.13 384.397 1250.56 383.847 1251.06 382.806 1251.64 381.275Z" fill-rule="evenodd"/><text fill="#000000" fill-opacity="0" font-family="Arial,Arial_MSFontService,sans-serif" font-size="103.862" x="1201.04" y="472.154">5</text><path d="M1011.27 835.465C1020.17 835.465 1026.89 837.415 1031.44 841.315 1035.98 845.214 1038.25 850.873 1038.25 858.29 1038.25 860.826 1038 863.159 1037.5 865.288 1037 867.418 1036.21 869.523 1035.13 871.605 1034.05 873.686 1032.61 875.923 1030.79 878.316 1028.97 880.708 1026.96 883.137 1024.76 885.601 1022.56 888.066 1018.75 892.169 1013.35 897.911 1004.26 907.529 997.58 915.927 993.321 923.105L1020.38 923.105C1022.73 923.105 1024.62 922.961 1026.05 922.674 1027.49 922.387 1028.64 921.909 1029.5 921.239 1030.36 920.569 1031.04 919.695 1031.54 918.619 1032.05 917.542 1032.68 915.879 1033.44 913.63L1039.55 913.63 1038.33 934.589 979.253 934.589 979.253 931.144C981.311 926.12 984.086 920.975 987.579 915.712 991.072 910.448 996.025 904.251 1002.44 897.121 1007.99 890.996 1011.98 886.355 1014.42 883.197 1017.1 879.751 1019.1 876.773 1020.42 874.26 1021.73 871.748 1022.68 869.38 1023.25 867.154 1023.83 864.929 1024.11 862.692 1024.11 860.443 1024.11 856.854 1023.54 853.684 1022.39 850.933 1021.24 848.181 1019.48 846.016 1017.12 844.437 1014.75 842.858 1011.77 842.068 1008.18 842.068 999.231 842.068 993.202 847.045 990.091 856.998L981.406 856.998 981.406 843.217C987.196 840.489 992.616 838.515 997.664 837.295 1002.71 836.075 1007.25 835.465 1011.27 835.465Z" fill-rule="evenodd"/><text fill="#000000" fill-opacity="0" font-family="Arial,Arial_MSFontService,sans-serif" font-size="99.1245" x="979.253" y="922.199">2</text><path d="M1468.06 1276.36 1473.66 1276.36 1472.59 1293.01 1431.31 1293.01 1431.31 1324.52C1433.8 1323.47 1436.51 1322.68 1439.42 1322.15 1442.34 1321.62 1445.26 1321.36 1448.18 1321.36 1453.88 1321.36 1458.92 1322.52 1463.33 1324.84 1467.73 1327.16 1471.13 1330.46 1473.52 1334.75 1475.91 1339.03 1477.11 1343.99 1477.11 1349.64 1477.11 1356.05 1475.77 1361.55 1473.09 1366.15 1470.41 1370.74 1466.53 1374.24 1461.46 1376.63 1456.39 1379.02 1450.38 1380.22 1443.44 1380.22 1435.17 1380.22 1426.5 1378.52 1417.46 1375.12L1417.46 1359.9 1426.15 1359.9C1427.58 1364.78 1429.75 1368.37 1432.64 1370.67 1435.54 1372.97 1439.28 1374.12 1443.87 1374.12 1450.24 1374.12 1455.05 1372.2 1458.3 1368.37 1461.56 1364.55 1463.18 1358.83 1463.18 1351.22 1463.18 1346.15 1462.32 1341.95 1460.6 1338.62 1458.88 1335.3 1456.56 1332.89 1453.64 1331.41 1450.72 1329.93 1447.32 1329.18 1443.44 1329.18 1440.19 1329.18 1437.39 1329.39 1435.05 1329.79 1432.7 1330.2 1430.19 1330.83 1427.51 1331.7L1421.77 1328.32 1421.77 1281.09 1461.32 1281.09C1462.94 1281.09 1464.12 1280.96 1464.83 1280.7 1465.55 1280.43 1466.13 1280.03 1466.56 1279.48 1466.99 1278.93 1467.49 1277.89 1468.06 1276.36Z" fill-rule="evenodd"/><text fill="#000000" fill-opacity="0" font-family="Arial,Arial_MSFontService,sans-serif" font-size="103.862" x="1417.46" y="1367.23">5</text><path d="M677.708 727.582C674.407 727.582 671.643 728.563 669.418 730.525 667.193 732.487 665.398 735.31 664.035 738.995 662.671 742.679 661.702 747.166 661.128 752.453 660.554 757.741 660.266 763.71 660.266 770.362 660.266 785.961 661.714 797.41 664.609 804.707 667.504 812.004 671.99 815.653 678.067 815.653 683.857 815.653 688.152 812.22 690.951 805.353 693.751 798.486 695.15 787.851 695.15 773.448 695.15 762.442 694.432 753.53 692.997 746.711 691.561 739.892 689.564 734.999 687.003 732.032 684.443 729.066 681.345 727.582 677.708 727.582ZM678.067 721.481C688.547 721.481 696.346 725.525 701.467 733.612 706.587 741.698 709.147 753.925 709.147 770.29 709.147 787.229 706.407 800.042 700.928 808.727 695.449 817.412 687.446 821.754 676.919 821.754 666.583 821.754 658.891 817.687 653.842 809.552 648.794 801.417 646.27 789.072 646.27 772.515 646.27 763.71 647.047 756.102 648.603 749.69 650.158 743.278 652.335 737.978 655.134 733.791 657.934 729.604 661.295 726.506 665.219 724.496 669.143 722.486 673.426 721.481 678.067 721.481Z" fill-rule="evenodd"/><text fill="#000000" fill-opacity="0" font-family="Arial,Arial_MSFontService,sans-serif" font-size="100.273" x="646.27" y="809.22">0</text><path d="M1688.7 1072.59 1660.63 1117.16 1660.63 1118.17 1688.7 1118.17 1688.7 1100.3C1688.7 1095.8 1688.77 1090.76 1688.91 1085.19 1689.06 1079.61 1689.22 1075.41 1689.41 1072.59ZM1690.78 1056.37 1701.04 1056.37 1701.04 1118.17 1702.55 1118.17C1705.32 1118.17 1707.31 1117.97 1708.51 1117.56 1709.7 1117.15 1710.7 1116.43 1711.49 1115.41 1712.28 1114.38 1713.01 1112.69 1713.68 1110.34L1719.13 1110.34 1718.27 1125.13 1701.04 1125.13 1701.04 1136.9C1701.04 1140.11 1701.15 1142.45 1701.37 1143.94 1701.58 1145.42 1701.94 1146.59 1702.44 1147.45 1702.94 1148.32 1703.69 1149.03 1704.67 1149.61 1705.65 1150.18 1707.24 1150.76 1709.44 1151.33L1709.44 1154.85 1680.3 1154.85 1680.3 1151.33C1683.27 1150.56 1685.25 1149.71 1686.26 1148.78 1687.26 1147.85 1687.92 1146.52 1688.23 1144.8 1688.54 1143.08 1688.7 1140.44 1688.7 1136.9L1688.7 1125.13 1648.79 1125.13 1648.79 1119.75Z" fill-rule="evenodd"/><text fill="#000000" fill-opacity="0" font-family="Arial,Arial_MSFontService,sans-serif" font-size="98.4785" x="1648.79" y="1142.54">4</text><path d="M1348.56 991.608C1346.22 991.608 1343.96 991.871 1341.78 992.397 1339.6 992.924 1337.56 993.689 1335.64 994.694 1333.73 995.699 1331.86 996.967 1330.05 998.498 1329.47 999.025 1329.04 999.575 1328.75 1000.15 1328.28 1001.06 1327.96 1002.18 1327.82 1003.52 1327.68 1004.86 1327.61 1007.11 1327.61 1010.27 1327.61 1019.41 1329.14 1026.37 1332.2 1031.16 1335.26 1035.94 1339.9 1038.33 1346.12 1038.33 1349.71 1038.33 1352.73 1037.71 1355.17 1036.47 1357.61 1035.22 1359.58 1033.51 1361.09 1031.34 1362.6 1029.16 1363.67 1026.6 1364.32 1023.66 1364.97 1020.71 1365.29 1017.52 1365.29 1014.07 1365.29 1006.99 1363.83 1001.48 1360.91 997.529 1357.99 993.582 1353.88 991.608 1348.56 991.608ZM1367.01 944.163 1369.95 948.111 1369.95 951.628C1362.59 951.628 1356.05 953.207 1350.36 956.365 1344.66 959.523 1339.94 964.165 1336.18 970.29 1332.43 976.415 1329.78 983.688 1328.25 992.11L1328.97 992.397C1332.99 989.526 1336.95 987.421 1340.85 986.081 1344.75 984.741 1348.97 984.071 1353.52 984.071 1358.92 984.071 1363.53 985.255 1367.33 987.624 1371.14 989.993 1374 993.318 1375.91 997.601 1377.83 1001.88 1378.78 1006.9 1378.78 1012.64 1378.78 1018.86 1377.59 1024.35 1375.19 1029.11 1372.8 1033.87 1369.1 1037.62 1364.1 1040.34 1359.1 1043.07 1352.94 1044.44 1345.62 1044.44 1335.14 1044.44 1327.23 1041.18 1321.9 1034.67 1316.56 1028.17 1313.9 1018.57 1313.9 1005.89 1313.9 997.374 1315.24 989.407 1317.92 981.99 1320.6 974.573 1324.4 968.101 1329.33 962.574 1334.26 957.047 1339.98 952.693 1346.48 949.51 1352.99 946.328 1359.83 944.546 1367.01 944.163Z" fill-rule="evenodd"/><text fill="#000000" fill-opacity="0" font-family="Arial,Arial_MSFontService,sans-serif" font-size="100.273" x="1313.9" y="1031.9">6</text><path d="M802.075 1054.89 806.023 1054.89C805.736 1059.48 805.592 1065.84 805.592 1073.98L805.592 1135.28C805.592 1138.05 805.748 1140.15 806.059 1141.56 806.37 1142.97 806.92 1144.12 807.71 1145 808.499 1145.89 809.636 1146.58 811.119 1147.08 812.602 1147.59 814.469 1147.97 816.718 1148.23 818.967 1148.5 821.934 1148.68 825.618 1148.77L825.618 1154.01 772.575 1154.01 772.575 1148.77C777.886 1148.53 781.678 1148.21 783.951 1147.8 786.224 1147.4 787.959 1146.79 789.155 1145.97 790.352 1145.16 791.225 1144.01 791.775 1142.53 792.325 1141.04 792.601 1138.63 792.601 1135.28L792.601 1077.07C792.601 1075.15 792.266 1073.75 791.596 1072.87 790.926 1071.98 789.945 1071.54 788.653 1071.54 787.122 1071.54 784.944 1072.33 782.121 1073.91 779.298 1075.49 775.805 1077.66 771.642 1080.44L768.483 1074.91Z" fill-rule="evenodd"/><text fill="#000000" fill-opacity="0" font-family="Arial,Arial_MSFontService,sans-serif" font-size="99.1245" x="768.483" y="1141.62">1</text><path d="M1577.66 497.001C1586.56 497.001 1593.29 498.951 1597.83 502.851 1602.38 506.751 1604.65 512.41 1604.65 519.827 1604.65 522.363 1604.4 524.696 1603.9 526.825 1603.39 528.954 1602.6 531.06 1601.53 533.141 1600.45 535.223 1599 537.46 1597.19 539.853 1595.37 542.245 1593.36 544.674 1591.16 547.138 1588.96 549.602 1585.15 553.706 1579.74 559.448 1570.65 569.066 1563.98 577.464 1559.72 584.642L1586.78 584.642C1589.12 584.642 1591.01 584.498 1592.45 584.211 1593.88 583.924 1595.03 583.445 1595.89 582.775 1596.75 582.105 1597.44 581.232 1597.94 580.156 1598.44 579.079 1599.08 577.416 1599.84 575.167L1605.94 575.167 1604.72 596.126 1545.65 596.126 1545.65 592.681C1547.71 587.656 1550.48 582.512 1553.98 577.249 1557.47 571.985 1562.42 565.788 1568.83 558.658 1574.38 552.533 1578.38 547.892 1580.82 544.733 1583.5 541.288 1585.5 538.309 1586.81 535.797 1588.13 533.285 1589.07 530.916 1589.65 528.691 1590.22 526.466 1590.51 524.229 1590.51 521.98 1590.51 518.391 1589.94 515.221 1588.79 512.469 1587.64 509.718 1585.88 507.553 1583.51 505.974 1581.14 504.395 1578.16 503.605 1574.58 503.605 1565.63 503.605 1559.6 508.582 1556.49 518.535L1547.8 518.535 1547.8 504.753C1553.59 502.026 1559.01 500.052 1564.06 498.832 1569.11 497.612 1573.64 497.001 1577.66 497.001Z" fill-rule="evenodd"/><text fill="#000000" fill-opacity="0" font-family="Arial,Arial_MSFontService,sans-serif" font-size="99.1245" x="1545.65" y="583.735">2</text><path d="M1010.41 2910.45C1007.11 2910.45 1004.35 2911.43 1002.12 2913.4 999.898 2915.36 998.103 2918.18 996.74 2921.87 995.376 2925.55 994.407 2930.04 993.833 2935.32 993.258 2940.61 992.971 2946.58 992.971 2953.23 992.971 2968.83 994.419 2980.28 997.314 2987.58 1000.21 2994.88 1004.69 2998.52 1010.77 2998.52 1016.56 2998.52 1020.86 2995.09 1023.66 2988.22 1026.46 2981.36 1027.86 2970.72 1027.86 2956.32 1027.86 2945.31 1027.14 2936.4 1025.7 2929.58 1024.27 2922.76 1022.27 2917.87 1019.71 2914.9 1017.15 2911.94 1014.05 2910.45 1010.41 2910.45ZM1010.77 2904.35C1021.25 2904.35 1029.05 2908.4 1034.17 2916.48 1039.29 2924.57 1041.85 2936.8 1041.85 2953.16 1041.85 2970.1 1039.11 2982.91 1033.63 2991.6 1028.15 3000.28 1020.15 3004.62 1009.62 3004.62 999.288 3004.62 991.596 3000.56 986.547 2992.42 981.499 2984.29 978.975 2971.94 978.975 2955.39 978.975 2946.58 979.752 2938.97 981.307 2932.56 982.863 2926.15 985.04 2920.85 987.839 2916.66 990.639 2912.47 994 2909.38 997.924 2907.37 1001.85 2905.36 1006.13 2904.35 1010.77 2904.35Z" fill-rule="evenodd"/><text fill="#000000" fill-opacity="0" font-family="Arial,Arial_MSFontService,sans-serif" font-size="100.273" x="978.975" y="2992.09">0</text><path d="M1577.38 2357.83C1582.78 2357.83 1587.52 2358.67 1591.59 2360.34 1595.65 2362.02 1598.76 2364.42 1600.92 2367.56 1603.07 2370.69 1604.15 2374.44 1604.15 2378.79 1604.15 2382.86 1603.33 2386.44 1601.71 2389.52 1600.08 2392.61 1597.8 2395.3 1594.85 2397.6 1591.91 2399.89 1588.09 2402.14 1583.4 2404.34L1583.4 2404.99C1586.32 2405.52 1589.13 2406.41 1591.84 2407.68 1594.54 2408.95 1596.95 2410.59 1599.05 2412.6 1601.16 2414.61 1602.84 2417.01 1604.11 2419.81 1605.38 2422.61 1606.01 2425.8 1606.01 2429.39 1606.01 2434.94 1604.81 2439.87 1602.39 2444.18 1599.97 2448.49 1596.28 2451.88 1591.3 2454.37 1586.32 2456.86 1580.27 2458.1 1573.14 2458.1 1569.02 2458.1 1564.59 2457.64 1559.83 2456.71 1555.06 2455.77 1550.7 2454.54 1546.73 2453.01L1546.73 2437.79 1555.34 2437.79C1557.01 2442.77 1559.23 2446.38 1561.98 2448.63 1564.73 2450.88 1568.47 2452 1573.21 2452 1579.43 2452 1584.13 2450.3 1587.32 2446.91 1590.5 2443.51 1592.09 2438.49 1592.09 2431.83 1592.09 2424.85 1589.98 2419.51 1585.77 2415.83 1581.56 2412.14 1575.39 2410.3 1567.25 2410.3L1560.79 2410.3 1560.79 2403.98C1567.25 2403.6 1572.7 2402.36 1577.12 2400.25 1581.55 2398.15 1584.84 2395.44 1586.99 2392.14 1589.15 2388.84 1590.22 2385.13 1590.22 2381.02 1590.22 2375.7 1588.81 2371.61 1585.99 2368.74 1583.17 2365.87 1579.05 2364.44 1573.64 2364.44 1569.14 2364.44 1565.48 2365.66 1562.66 2368.1 1559.84 2370.54 1557.76 2374.27 1556.42 2379.29L1547.8 2379.29 1547.8 2365.66C1553.35 2363.02 1558.55 2361.06 1563.38 2359.77 1568.21 2358.48 1572.88 2357.83 1577.38 2357.83Z" fill-rule="evenodd"/><text fill="#000000" fill-opacity="0" font-family="Arial,Arial_MSFontService,sans-serif" font-size="100.273" x="1546.73" y="2445.57">3</text><path d="M804.392 2030.09C809.799 2030.09 814.536 2030.93 818.604 2032.6 822.671 2034.28 825.781 2036.68 827.935 2039.82 830.088 2042.95 831.165 2046.69 831.165 2051.05 831.165 2055.12 830.351 2058.69 828.724 2061.78 827.097 2064.87 824.812 2067.56 821.87 2069.85 818.927 2072.15 815.111 2074.4 810.421 2076.6L810.421 2077.25C813.34 2077.77 816.151 2078.67 818.855 2079.94 821.559 2081.21 823.963 2082.85 826.069 2084.86 828.174 2086.87 829.861 2089.27 831.129 2092.07 832.397 2094.87 833.031 2098.06 833.031 2101.65 833.031 2107.2 831.823 2112.13 829.406 2116.44 826.99 2120.74 823.293 2124.14 818.317 2126.63 813.34 2129.12 807.287 2130.36 800.157 2130.36 796.042 2130.36 791.604 2129.9 786.842 2128.96 782.081 2128.03 777.715 2126.8 773.743 2125.27L773.743 2110.05 782.356 2110.05C784.031 2115.03 786.244 2118.64 788.996 2120.89 791.747 2123.14 795.491 2124.26 800.229 2124.26 806.449 2124.26 811.151 2122.56 814.333 2119.17 817.515 2115.77 819.106 2110.74 819.106 2104.09 819.106 2097.11 817.001 2091.77 812.79 2088.09 808.579 2084.4 802.406 2082.56 794.271 2082.56L787.811 2082.56 787.811 2076.24C794.271 2075.86 799.714 2074.62 804.141 2072.51 808.567 2070.4 811.857 2067.7 814.01 2064.4 816.163 2061.1 817.24 2057.39 817.24 2053.27 817.24 2047.96 815.828 2043.87 813.005 2041 810.182 2038.13 806.067 2036.69 800.659 2036.69 796.161 2036.69 792.501 2037.91 789.677 2040.35 786.854 2042.79 784.773 2046.53 783.433 2051.55L774.82 2051.55 774.82 2037.91C780.37 2035.28 785.562 2033.32 790.395 2032.03 795.228 2030.74 799.894 2030.09 804.392 2030.09Z" fill-rule="evenodd"/><text fill="#000000" fill-opacity="0" font-family="Arial,Arial_MSFontService,sans-serif" font-size="100.273" x="773.743" y="2117.83">3</text><path d="M1251.64 2019.88 1257.24 2019.88 1256.16 2036.54 1214.89 2036.54 1214.89 2068.05C1217.38 2066.99 1220.08 2066.2 1223 2065.68 1225.92 2065.15 1228.84 2064.89 1231.76 2064.89 1237.45 2064.89 1242.5 2066.05 1246.9 2068.37 1251.3 2070.69 1254.7 2073.99 1257.09 2078.27 1259.49 2082.56 1260.68 2087.52 1260.68 2093.17 1260.68 2099.58 1259.34 2105.08 1256.66 2109.68 1253.98 2114.27 1250.11 2117.76 1245.03 2120.16 1239.96 2122.55 1233.96 2123.75 1227.02 2123.75 1218.74 2123.75 1210.08 2122.05 1201.04 2118.65L1201.04 2103.43 1209.72 2103.43C1211.16 2108.31 1213.32 2111.9 1216.22 2114.2 1219.11 2116.5 1222.86 2117.64 1227.45 2117.64 1233.81 2117.64 1238.62 2115.73 1241.88 2111.9 1245.13 2108.07 1246.76 2102.36 1246.76 2094.75 1246.76 2089.67 1245.9 2085.48 1244.17 2082.15 1242.45 2078.82 1240.13 2076.42 1237.21 2074.94 1234.29 2073.45 1230.89 2072.71 1227.02 2072.71 1223.76 2072.71 1220.97 2072.91 1218.62 2073.32 1216.28 2073.73 1213.76 2074.36 1211.08 2075.22L1205.34 2071.85 1205.34 2024.62 1244.89 2024.62C1246.52 2024.62 1247.69 2024.49 1248.41 2024.23 1249.13 2023.96 1249.7 2023.56 1250.13 2023.01 1250.56 2022.46 1251.06 2021.41 1251.64 2019.88Z" fill-rule="evenodd"/><text fill="#000000" fill-opacity="0" font-family="Arial,Arial_MSFontService,sans-serif" font-size="103.862" x="1201.04" y="2110.76">5</text><path d="M1010.99 2460.6C1019.89 2460.6 1026.61 2462.55 1031.16 2466.45 1035.7 2470.35 1037.98 2476.01 1037.98 2483.43 1037.98 2485.96 1037.72 2488.3 1037.22 2490.43 1036.72 2492.56 1035.93 2494.66 1034.85 2496.74 1033.78 2498.82 1032.33 2501.06 1030.51 2503.45 1028.69 2505.85 1026.68 2508.28 1024.48 2510.74 1022.28 2513.2 1018.48 2517.31 1013.07 2523.05 1003.98 2532.67 997.302 2541.07 993.043 2548.24L1020.1 2548.24C1022.45 2548.24 1024.34 2548.1 1025.77 2547.81 1027.21 2547.53 1028.36 2547.05 1029.22 2546.38 1030.08 2545.71 1030.76 2544.83 1031.26 2543.76 1031.77 2542.68 1032.4 2541.02 1033.17 2538.77L1039.27 2538.77 1038.05 2559.73 978.975 2559.73 978.975 2556.28C981.032 2551.26 983.808 2546.11 987.301 2540.85 990.794 2535.59 995.747 2529.39 1002.16 2522.26 1007.71 2516.13 1011.71 2511.49 1014.15 2508.33 1016.83 2504.89 1018.82 2501.91 1020.14 2499.4 1021.45 2496.89 1022.4 2494.52 1022.97 2492.29 1023.55 2490.07 1023.84 2487.83 1023.84 2485.58 1023.84 2481.99 1023.26 2478.82 1022.11 2476.07 1020.96 2473.32 1019.21 2471.15 1016.84 2469.58 1014.47 2468 1011.49 2467.21 1007.9 2467.21 998.953 2467.21 992.923 2472.18 989.813 2482.14L981.128 2482.14 981.128 2468.35C986.918 2465.63 992.337 2463.65 997.386 2462.43 1002.43 2461.21 1006.97 2460.6 1010.99 2460.6Z" fill-rule="evenodd"/><text fill="#000000" fill-opacity="0" font-family="Arial,Arial_MSFontService,sans-serif" font-size="99.1245" x="978.975" y="2547.34">2</text><path d="M1484.72 2898.92 1490.32 2898.92 1489.24 2915.57 1447.97 2915.57 1447.97 2947.08C1450.46 2946.03 1453.16 2945.24 1456.08 2944.72 1459 2944.19 1461.92 2943.93 1464.84 2943.93 1470.53 2943.93 1475.58 2945.09 1479.98 2947.41 1484.38 2949.73 1487.78 2953.03 1490.17 2957.31 1492.57 2961.6 1493.76 2966.56 1493.76 2972.21 1493.76 2978.62 1492.42 2984.12 1489.74 2988.72 1487.06 2993.31 1483.19 2996.8 1478.12 2999.19 1473.04 3001.59 1467.04 3002.78 1460.1 3002.78 1451.82 3002.78 1443.16 3001.08 1434.12 2997.69L1434.12 2982.47 1442.8 2982.47C1444.24 2987.35 1446.4 2990.94 1449.3 2993.24 1452.19 2995.53 1455.94 2996.68 1460.53 2996.68 1466.89 2996.68 1471.7 2994.77 1474.96 2990.94 1478.21 2987.11 1479.84 2981.39 1479.84 2973.79 1479.84 2968.71 1478.98 2964.51 1477.25 2961.19 1475.53 2957.86 1473.21 2955.46 1470.29 2953.97 1467.37 2952.49 1463.98 2951.75 1460.1 2951.75 1456.85 2951.75 1454.05 2951.95 1451.7 2952.36 1449.36 2952.77 1446.84 2953.4 1444.16 2954.26L1438.42 2950.89 1438.42 2903.66 1477.97 2903.66C1479.6 2903.66 1480.77 2903.53 1481.49 2903.26 1482.21 2903 1482.78 2902.59 1483.21 2902.04 1483.64 2901.49 1484.14 2900.45 1484.72 2898.92Z" fill-rule="evenodd"/><text fill="#000000" fill-opacity="0" font-family="Arial,Arial_MSFontService,sans-serif" font-size="103.862" x="1434.12" y="2989.8">5</text><path d="M677.708 2366.19C674.407 2366.19 671.643 2367.17 669.418 2369.13 667.193 2371.1 665.398 2373.92 664.035 2377.6 662.671 2381.29 661.702 2385.77 661.128 2391.06 660.554 2396.35 660.266 2402.32 660.266 2408.97 660.266 2424.57 661.714 2436.02 664.609 2443.32 667.504 2450.61 671.99 2454.26 678.067 2454.26 683.857 2454.26 688.152 2450.83 690.951 2443.96 693.751 2437.09 695.15 2426.46 695.15 2412.06 695.15 2401.05 694.432 2392.14 692.997 2385.32 691.561 2378.5 689.564 2373.61 687.003 2370.64 684.443 2367.67 681.345 2366.19 677.708 2366.19ZM678.067 2360.09C688.547 2360.09 696.346 2364.13 701.467 2372.22 706.587 2380.31 709.147 2392.53 709.147 2408.9 709.147 2425.84 706.407 2438.65 700.928 2447.33 695.449 2456.02 687.446 2460.36 676.919 2460.36 666.583 2460.36 658.891 2456.3 653.842 2448.16 648.794 2440.03 646.27 2427.68 646.27 2411.12 646.27 2402.32 647.047 2394.71 648.603 2388.3 650.158 2381.89 652.335 2376.59 655.134 2372.4 657.934 2368.21 661.295 2365.11 665.219 2363.1 669.143 2361.09 673.426 2360.09 678.067 2360.09Z" fill-rule="evenodd"/><text fill="#000000" fill-opacity="0" font-family="Arial,Arial_MSFontService,sans-serif" font-size="100.273" x="646.27" y="2447.83">0</text><path d="M1688.7 2697.16 1660.63 2741.73 1660.63 2742.73 1688.7 2742.73 1688.7 2724.86C1688.7 2720.36 1688.77 2715.33 1688.91 2709.75 1689.06 2704.18 1689.22 2699.98 1689.41 2697.16ZM1690.78 2680.93 1701.04 2680.93 1701.04 2742.73 1702.55 2742.73C1705.32 2742.73 1707.31 2742.53 1708.51 2742.12 1709.7 2741.72 1710.7 2741 1711.49 2739.97 1712.28 2738.94 1713.01 2737.26 1713.68 2734.91L1719.13 2734.91 1718.27 2749.7 1701.04 2749.7 1701.04 2761.47C1701.04 2764.67 1701.15 2767.02 1701.37 2768.5 1701.58 2769.99 1701.94 2771.16 1702.44 2772.02 1702.94 2772.88 1703.69 2773.6 1704.67 2774.17 1705.65 2774.75 1707.24 2775.32 1709.44 2775.9L1709.44 2779.41 1680.3 2779.41 1680.3 2775.9C1683.27 2775.13 1685.25 2774.28 1686.26 2773.35 1687.26 2772.41 1687.92 2771.09 1688.23 2769.36 1688.54 2767.64 1688.7 2765.01 1688.7 2761.47L1688.7 2749.7 1648.79 2749.7 1648.79 2744.31Z" fill-rule="evenodd"/><text fill="#000000" fill-opacity="0" font-family="Arial,Arial_MSFontService,sans-serif" font-size="98.4785" x="1648.79" y="2767.1">4</text><path d="M1348.56 2613.57C1346.22 2613.57 1343.96 2613.83 1341.78 2614.36 1339.6 2614.88 1337.56 2615.65 1335.64 2616.65 1333.73 2617.66 1331.86 2618.93 1330.05 2620.46 1329.47 2620.99 1329.04 2621.54 1328.75 2622.11 1328.28 2623.02 1327.96 2624.14 1327.82 2625.48 1327.68 2626.82 1327.61 2629.07 1327.61 2632.23 1327.61 2641.37 1329.14 2648.33 1332.2 2653.12 1335.26 2657.9 1339.9 2660.3 1346.12 2660.3 1349.71 2660.3 1352.73 2659.67 1355.17 2658.43 1357.61 2657.18 1359.58 2655.47 1361.09 2653.3 1362.6 2651.12 1363.67 2648.56 1364.32 2645.62 1364.97 2642.67 1365.29 2639.48 1365.29 2636.03 1365.29 2628.95 1363.83 2623.44 1360.91 2619.49 1357.99 2615.54 1353.88 2613.57 1348.56 2613.57ZM1367.01 2566.12 1369.95 2570.07 1369.95 2573.59C1362.59 2573.59 1356.05 2575.17 1350.36 2578.33 1344.66 2581.48 1339.94 2586.13 1336.18 2592.25 1332.43 2598.38 1329.78 2605.65 1328.25 2614.07L1328.97 2614.36C1332.99 2611.49 1336.95 2609.38 1340.85 2608.04 1344.75 2606.7 1348.97 2606.03 1353.52 2606.03 1358.92 2606.03 1363.53 2607.22 1367.33 2609.58 1371.14 2611.95 1374 2615.28 1375.91 2619.56 1377.83 2623.84 1378.78 2628.86 1378.78 2634.6 1378.78 2640.82 1377.59 2646.31 1375.19 2651.07 1372.8 2655.83 1369.1 2659.58 1364.1 2662.3 1359.1 2665.03 1352.94 2666.4 1345.62 2666.4 1335.14 2666.4 1327.23 2663.14 1321.9 2656.63 1316.56 2650.13 1313.9 2640.53 1313.9 2627.85 1313.9 2619.33 1315.24 2611.37 1317.92 2603.95 1320.6 2596.53 1324.4 2590.06 1329.33 2584.53 1334.26 2579.01 1339.98 2574.65 1346.48 2571.47 1352.99 2568.29 1359.83 2566.51 1367.01 2566.12Z" fill-rule="evenodd"/><text fill="#000000" fill-opacity="0" font-family="Arial,Arial_MSFontService,sans-serif" font-size="100.273" x="1313.9" y="2653.86">6</text><path d="M798.229 2691.47 802.177 2691.47C801.89 2696.06 801.746 2702.43 801.746 2710.56L801.746 2771.86C801.746 2774.64 801.902 2776.73 802.213 2778.14 802.524 2779.55 803.074 2780.7 803.864 2781.59 804.653 2782.47 805.79 2783.17 807.273 2783.67 808.756 2784.17 810.623 2784.55 812.872 2784.82 815.121 2785.08 818.088 2785.26 821.772 2785.35L821.772 2790.59 768.729 2790.59 768.729 2785.35C774.04 2785.11 777.832 2784.79 780.105 2784.39 782.378 2783.98 784.113 2783.37 785.309 2782.55 786.505 2781.74 787.379 2780.59 787.929 2779.11 788.479 2777.63 788.755 2775.21 788.755 2771.86L788.755 2713.65C788.755 2711.73 788.42 2710.33 787.75 2709.45 787.08 2708.56 786.099 2708.12 784.807 2708.12 783.276 2708.12 781.098 2708.91 778.275 2710.49 775.452 2712.07 771.959 2714.25 767.796 2717.02L764.637 2711.5Z" fill-rule="evenodd"/><text fill="#000000" fill-opacity="0" font-family="Arial,Arial_MSFontService,sans-serif" font-size="99.1245" x="764.637" y="2778.2">1</text><path d="M1577.66 2117.68C1586.56 2117.68 1593.29 2119.63 1597.83 2123.53 1602.38 2127.43 1604.65 2133.09 1604.65 2140.51 1604.65 2143.04 1604.4 2145.37 1603.9 2147.5 1603.39 2149.63 1602.6 2151.74 1601.53 2153.82 1600.45 2155.9 1599 2158.14 1597.19 2160.53 1595.37 2162.92 1593.36 2165.35 1591.16 2167.82 1588.96 2170.28 1585.15 2174.38 1579.74 2180.13 1570.65 2189.75 1563.98 2198.14 1559.72 2205.32L1586.78 2205.32C1589.12 2205.32 1591.01 2205.18 1592.45 2204.89 1593.88 2204.6 1595.03 2204.12 1595.89 2203.45 1596.75 2202.78 1597.44 2201.91 1597.94 2200.83 1598.44 2199.76 1599.08 2198.1 1599.84 2195.85L1605.94 2195.85 1604.72 2216.81 1545.65 2216.81 1545.65 2213.36C1547.71 2208.34 1550.48 2203.19 1553.98 2197.93 1557.47 2192.66 1562.42 2186.47 1568.83 2179.34 1574.38 2173.21 1578.38 2168.57 1580.82 2165.41 1583.5 2161.97 1585.5 2158.99 1586.81 2156.48 1588.13 2153.96 1589.07 2151.6 1589.65 2149.37 1590.22 2147.15 1590.51 2144.91 1590.51 2142.66 1590.51 2139.07 1589.94 2135.9 1588.79 2133.15 1587.64 2130.4 1585.88 2128.23 1583.51 2126.65 1581.14 2125.07 1578.16 2124.28 1574.58 2124.28 1565.63 2124.28 1559.6 2129.26 1556.49 2139.21L1547.8 2139.21 1547.8 2125.43C1553.59 2122.71 1559.01 2120.73 1564.06 2119.51 1569.11 2118.29 1573.64 2117.68 1577.66 2117.68Z" fill-rule="evenodd"/><text fill="#000000" fill-opacity="0" font-family="Arial,Arial_MSFontService,sans-serif" font-size="99.1245" x="1545.65" y="2204.41">2</text></g></svg>