<svg width="1939" height="1951" xmlns="http://www.w3.org/2000/svg" xmlns:xlink="http://www.w3.org/1999/xlink" xml:space="preserve" overflow="hidden"><defs><clipPath id="clip0"><rect x="268" y="812" width="1939" height="1951"/></clipPath></defs><g clip-path="url(#clip0)" transform="translate(-268 -812)"><path d="M483.542 1027.24 483.542 1679.22" stroke="#00C49A" stroke-width="4.58333" stroke-linejoin="round" stroke-miterlimit="10" fill="none" fill-rule="evenodd"/><path d="M483.542 1679.22 483.542 1895.78" stroke="#ED7D31" stroke-width="4.58333" stroke-linejoin="round" stroke-miterlimit="10" fill="none" fill-rule="evenodd"/><path d="M483.542 1895.78 483.542 2112.34" stroke="#00C49A" stroke-width="4.58333" stroke-linejoin="round" stroke-miterlimit="10" fill="none" fill-rule="evenodd"/><path d="M483.542 2112.34 483.542 2547.76" stroke="#ED7D31" stroke-width="4.58333" stroke-linejoin="round" stroke-miterlimit="10" fill="none" fill-rule="evenodd"/><path d="M698.958 1027.24 698.958 2327.76" stroke="#000000" stroke-width="2.29167" stroke-linejoin="round" stroke-miterlimit="10" stroke-dasharray="2.29167 6.875" fill="none" fill-rule="evenodd"/><path d="M698.958 2327.76 698.958 2547.76" stroke="#ED7D31" stroke-width="4.58333" stroke-linejoin="round" stroke-miterlimit="10" fill="none" fill-rule="evenodd"/><path d="M914.375 1027.24 914.375 2327.76" stroke="#000000" stroke-width="2.29167" stroke-linejoin="round" stroke-miterlimit="10" stroke-dasharray="2.29167 6.875" fill="none" fill-rule="evenodd"/><path d="M914.375 2327.76 914.375 2547.76" stroke="#ED7D31" stroke-width="4.58333" stroke-linejoin="round" stroke-miterlimit="10" fill="none" fill-rule="evenodd"/><path d="M1129.79 1027.24 1129.79 1247.24" stroke="#ED7D31" stroke-width="4.58333" stroke-linejoin="round" stroke-miterlimit="10" fill="none" fill-rule="evenodd"/><path d="M1129.79 1247.24 1129.79 1678.07" stroke="#000000" stroke-width="2.29167" stroke-linejoin="round" stroke-miterlimit="10" stroke-dasharray="2.29167 6.875" fill="none" fill-rule="evenodd"/><path d="M1129.79 1678.07 1129.79 1896.93" stroke="#ED7D31" stroke-width="4.58333" stroke-linejoin="round" stroke-miterlimit="10" fill="none" fill-rule="evenodd"/><path d="M1129.79 1896.93 1129.79 2111.2" stroke="#000000" stroke-width="2.29167" stroke-linejoin="round" stroke-miterlimit="10" stroke-dasharray="2.29167 6.875" fill="none" fill-rule="evenodd"/><path d="M1129.79 2111.2 1129.79 2547.76" stroke="#ED7D31" stroke-width="4.58333" stroke-linejoin="round" stroke-miterlimit="10" fill="none" fill-rule="evenodd"/><path d="M1345.21 1027.24 1345.21 2547.76" stroke="#000000" stroke-width="2.29167" stroke-linejoin="round" stroke-miterlimit="10" stroke-dasharray="2.29167 6.875" fill="none" fill-rule="evenodd"/><path d="M1560.62 1027.24 1560.62 2111.2" stroke="#000000" stroke-width="2.29167" stroke-linejoin="round" stroke-miterlimit="10" stroke-dasharray="2.29167 6.875" fill="none" fill-rule="evenodd"/><path d="M1560.62 2111.2 1560.62 2330.05" stroke="#ED7D31" stroke-width="4.58333" stroke-linejoin="round" stroke-miterlimit="10" fill="none" fill-rule="evenodd"/><path d="M1560.62 2330.05 1560.62 2547.76" stroke="#000000" stroke-width="2.29167" stroke-linejoin="round" stroke-miterlimit="10" stroke-dasharray="2.29167 6.875" fill="none" fill-rule="evenodd"/><path d="M1776.04 1027.24 1776.04 1894.64" stroke="#000000" stroke-width="2.29167" stroke-linejoin="round" stroke-miterlimit="10" stroke-dasharray="2.29167 6.875" fill="none" fill-rule="evenodd"/><path d="M1776.04 1894.64 1776.04 2113.49" stroke="#ED7D31" stroke-width="4.58333" stroke-linejoin="round" stroke-miterlimit="10" fill="none" fill-rule="evenodd"/><path d="M1776.04 2113.49 1776.04 2327.76" stroke="#000000" stroke-width="2.29167" stroke-linejoin="round" stroke-miterlimit="10" stroke-dasharray="2.29167 6.875" fill="none" fill-rule="evenodd"/><path d="M1776.04 2327.76 1776.04 2547.76" stroke="#ED7D31" stroke-width="4.58333" stroke-linejoin="round" stroke-miterlimit="10" fill="none" fill-rule="evenodd"/><path d="M1991.46 1027.24 1991.46 1246.09" stroke="#ED7D31" stroke-width="4.58333" stroke-linejoin="round" stroke-miterlimit="10" fill="none" fill-rule="evenodd"/><path d="M1991.46 1246.09 1991.46 2112.34" stroke="#00C49A" stroke-width="4.58333" stroke-linejoin="round" stroke-miterlimit="10" fill="none" fill-rule="evenodd"/><path d="M1991.46 2112.34 1991.46 2547.76" stroke="#ED7D31" stroke-width="4.58333" stroke-linejoin="round" stroke-miterlimit="10" fill="none" fill-rule="evenodd"/><path d="M481.25 1029.53 1129.79 1029.53" stroke="#00C49A" stroke-width="4.58333" stroke-linejoin="round" stroke-miterlimit="10" fill="none" fill-rule="evenodd"/><path d="M1129.79 1029.53 1993.75 1029.53" stroke="#ED7D31" stroke-width="4.58333" stroke-linejoin="round" stroke-miterlimit="10" fill="none" fill-rule="evenodd"/><path d="M481.25 1246.09 1559.48 1246.09" stroke="#000000" stroke-width="2.29167" stroke-linejoin="round" stroke-miterlimit="10" stroke-dasharray="2.29167 6.875" fill="none" fill-rule="evenodd"/><path d="M1559.48 1246.09 1777.19 1246.09" stroke="#ED7D31" stroke-width="4.58333" stroke-linejoin="round" stroke-miterlimit="10" fill="none" fill-rule="evenodd"/><path d="M1777.19 1246.09 1993.75 1246.09" stroke="#000000" stroke-width="2.29167" stroke-linejoin="round" stroke-miterlimit="10" stroke-dasharray="2.29167 6.875" fill="none" fill-rule="evenodd"/><path d="M481.25 1462.66 1993.75 1462.66" stroke="#000000" stroke-width="2.29167" stroke-linejoin="round" stroke-miterlimit="10" stroke-dasharray="2.29167 6.875" fill="none" fill-rule="evenodd"/><path d="M481.25 1679.22 700.104 1679.22" stroke="#ED7D31" stroke-width="4.58333" stroke-linejoin="round" stroke-miterlimit="10" fill="none" fill-rule="evenodd"/><path d="M700.104 1679.22 1559.48 1679.22" stroke="#000000" stroke-width="2.29167" stroke-linejoin="round" stroke-miterlimit="10" stroke-dasharray="2.29167 6.875" fill="none" fill-rule="evenodd"/><path d="M1559.48 1679.22 1777.19 1679.22" stroke="#ED7D31" stroke-width="4.58333" stroke-linejoin="round" stroke-miterlimit="10" fill="none" fill-rule="evenodd"/><path d="M1777.19 1679.22 1993.75 1679.22" stroke="#000000" stroke-width="2.29167" stroke-linejoin="round" stroke-miterlimit="10" stroke-dasharray="2.29167 6.875" fill="none" fill-rule="evenodd"/><path d="M481.25 1895.78 700.104 1895.78" stroke="#ED7D31" stroke-width="4.58333" stroke-linejoin="round" stroke-miterlimit="10" fill="none" fill-rule="evenodd"/><path d="M700.104 1895.78 1993.75 1895.78" stroke="#000000" stroke-width="2.29167" stroke-linejoin="round" stroke-miterlimit="10" stroke-dasharray="2.29167 6.875" fill="none" fill-rule="evenodd"/><path d="M481.25 2112.34 1993.75 2112.34" stroke="#000000" stroke-width="2.29167" stroke-linejoin="round" stroke-miterlimit="10" stroke-dasharray="2.29167 6.875" fill="none" fill-rule="evenodd"/><path d="M481.25 2328.91 1993.75 2328.91" stroke="#000000" stroke-width="2.29167" stroke-linejoin="round" stroke-miterlimit="10" stroke-dasharray="2.29167 6.875" fill="none" fill-rule="evenodd"/><path d="M481.25 2545.47 698.958 2545.47" stroke="#ED7D31" stroke-width="4.58333" stroke-linejoin="round" stroke-miterlimit="10" fill="none" fill-rule="evenodd"/><path d="M698.958 2545.47 914.375 2545.47" stroke="#00C49A" stroke-width="4.58333" stroke-linejoin="round" stroke-miterlimit="10" fill="none" fill-rule="evenodd"/><path d="M914.375 2545.47 1129.79 2545.47" stroke="#ED7D31" stroke-width="4.58333" stroke-linejoin="round" stroke-miterlimit="10" fill="none" fill-rule="evenodd"/><path d="M1129.79 2545.47 1776.04 2545.47" stroke="#00C49A" stroke-width="4.58333" stroke-linejoin="round" stroke-miterlimit="10" fill="none" fill-rule="evenodd"/><path d="M1776.04 2545.47 1993.75 2545.47" stroke="#ED7D31" stroke-width="4.58333" stroke-linejoin="round" stroke-miterlimit="10" fill="none" fill-rule="evenodd"/><text font-family="Yu Gothic,Yu Gothic_MSFontService,sans-serif" font-weight="400" font-size="110" transform="matrix(1 0 0 1 560.599 1178)">0</text><text font-family="Yu Gothic,Yu Gothic_MSFontService,sans-serif" font-weight="400" font-size="110" transform="matrix(1 0 0 1 776.016 1178)">0</text><text font-family="Yu Gothic,Yu Gothic_MSFontService,sans-serif" font-weight="400" font-size="110" transform="matrix(1 0 0 1 991.432 1178)">2</text><text font-family="Yu Gothic,Yu Gothic_MSFontService,sans-serif" font-weight="400" font-size="110" transform="matrix(1 0 0 1 1206.85 1178)">2</text><text font-family="Yu Gothic,Yu Gothic_MSFontService,sans-serif" font-weight="400" font-size="110" transform="matrix(1 0 0 1 1422.27 1178)">1</text><text font-family="Yu Gothic,Yu Gothic_MSFontService,sans-serif" font-weight="400" font-size="110" transform="matrix(1 0 0 1 1637.68 1178)">2</text><text font-family="Yu Gothic,Yu Gothic_MSFontService,sans-serif" font-weight="400" font-size="110" transform="matrix(1 0 0 1 1853.1 1178)">3</text><text font-family="Yu Gothic,Yu Gothic_MSFontService,sans-serif" font-weight="400" font-size="110" transform="matrix(1 0 0 1 560.599 1394)">0</text><text font-family="Yu Gothic,Yu Gothic_MSFontService,sans-serif" font-weight="400" font-size="110" transform="matrix(1 0 0 1 1206.85 1394)">1</text><text font-family="Yu Gothic,Yu Gothic_MSFontService,sans-serif" font-weight="400" font-size="110" transform="matrix(1 0 0 1 1637.68 1394)">3</text><text font-family="Yu Gothic,Yu Gothic_MSFontService,sans-serif" font-weight="400" font-size="110" transform="matrix(1 0 0 1 1853.1 1394)">1</text><text font-family="Yu Gothic,Yu Gothic_MSFontService,sans-serif" font-weight="400" font-size="110" transform="matrix(1 0 0 1 560.599 1611)">2</text><text font-family="Yu Gothic,Yu Gothic_MSFontService,sans-serif" font-weight="400" font-size="110" transform="matrix(1 0 0 1 1206.85 1611)">3</text><text font-family="Yu Gothic,Yu Gothic_MSFontService,sans-serif" font-weight="400" font-size="110" transform="matrix(1 0 0 1 1637.68 1611)">3</text><text font-family="Yu Gothic,Yu Gothic_MSFontService,sans-serif" font-weight="400" font-size="110" transform="matrix(1 0 0 1 1853.1 1611)">1</text><text font-family="Yu Gothic,Yu Gothic_MSFontService,sans-serif" font-weight="400" font-size="110" transform="matrix(1 0 0 1 560.599 1827)">3</text><text font-family="Yu Gothic,Yu Gothic_MSFontService,sans-serif" font-weight="400" font-size="110" transform="matrix(1 0 0 1 776.016 1827)">0</text><text font-family="Yu Gothic,Yu Gothic_MSFontService,sans-serif" font-weight="400" font-size="110" transform="matrix(1 0 0 1 1637.68 1827)">3</text><text font-family="Yu Gothic,Yu Gothic_MSFontService,sans-serif" font-weight="400" font-size="110" transform="matrix(1 0 0 1 1853.1 1827)">0</text><text font-family="Yu Gothic,Yu Gothic_MSFontService,sans-serif" font-weight="400" font-size="110" transform="matrix(1 0 0 1 560.599 2044)">3</text><text font-family="Yu Gothic,Yu Gothic_MSFontService,sans-serif" font-weight="400" font-size="110" transform="matrix(1 0 0 1 776.016 2044)">1</text><text font-family="Yu Gothic,Yu Gothic_MSFontService,sans-serif" font-weight="400" font-size="110" transform="matrix(1 0 0 1 1206.85 2044)">2</text><text font-family="Yu Gothic,Yu Gothic_MSFontService,sans-serif" font-weight="400" font-size="110" transform="matrix(1 0 0 1 1422.27 2044)">2</text><text font-family="Yu Gothic,Yu Gothic_MSFontService,sans-serif" font-weight="400" font-size="110" transform="matrix(1 0 0 1 1637.68 2044)">2</text><text font-family="Yu Gothic,Yu Gothic_MSFontService,sans-serif" font-weight="400" font-size="110" transform="matrix(1 0 0 1 1853.1 2044)">2</text><text font-family="Yu Gothic,Yu Gothic_MSFontService,sans-serif" font-weight="400" font-size="110" transform="matrix(1 0 0 1 1206.85 2260)">1</text><text font-family="Yu Gothic,Yu Gothic_MSFontService,sans-serif" font-weight="400" font-size="110" transform="matrix(1 0 0 1 1637.68 2260)">2</text><text font-family="Yu Gothic,Yu Gothic_MSFontService,sans-serif" font-weight="400" font-size="110" transform="matrix(1 0 0 1 1853.1 2260)">2</text><text font-family="Yu Gothic,Yu Gothic_MSFontService,sans-serif" font-weight="400" font-size="110" transform="matrix(1 0 0 1 560.599 2477)">3</text><text font-family="Yu Gothic,Yu Gothic_MSFontService,sans-serif" font-weight="400" font-size="110" transform="matrix(1 0 0 1 776.016 2477)">3</text><text font-family="Yu Gothic,Yu Gothic_MSFontService,sans-serif" font-weight="400" font-size="110" transform="matrix(1 0 0 1 991.432 2477)">3</text><text font-family="Yu Gothic,Yu Gothic_MSFontService,sans-serif" font-weight="400" font-size="110" transform="matrix(1 0 0 1 1206.85 2477)">1</text><text font-family="Yu Gothic,Yu Gothic_MSFontService,sans-serif" font-weight="400" font-size="110" transform="matrix(1 0 0 1 1637.68 2477)">2</text><text font-family="Yu Gothic,Yu Gothic_MSFontService,sans-serif" font-weight="400" font-size="110" transform="matrix(1 0 0 1 1853.1 2477)">3</text></g></svg>