<svg width="1939" height="1950" xmlns="http://www.w3.org/2000/svg" xmlns:xlink="http://www.w3.org/1999/xlink" xml:space="preserve" overflow="hidden"><defs><clipPath id="clip0"><rect x="268" y="1111" width="1939" height="1950"/></clipPath></defs><g clip-path="url(#clip0)" transform="translate(-268 -1111)"><path d="M483.542 1325.44 483.542 1977.42" stroke="#00C49A" stroke-width="4.58333" stroke-linejoin="round" stroke-miterlimit="10" fill="none" fill-rule="evenodd"/><path d="M483.542 1977.42 483.542 2193.98" stroke="#ED7D31" stroke-width="4.58333" stroke-linejoin="round" stroke-miterlimit="10" fill="none" fill-rule="evenodd"/><path d="M483.542 2193.98 483.542 2410.55" stroke="#00C49A" stroke-width="4.58333" stroke-linejoin="round" stroke-miterlimit="10" fill="none" fill-rule="evenodd"/><path d="M483.542 2410.55 483.542 2845.96" stroke="#ED7D31" stroke-width="4.58333" stroke-linejoin="round" stroke-miterlimit="10" fill="none" fill-rule="evenodd"/><path d="M698.958 1325.44 698.958 1758.57" stroke="#000000" stroke-width="2.29167" stroke-linejoin="round" stroke-miterlimit="10" stroke-dasharray="2.29167 6.875" fill="none" fill-rule="evenodd"/><path d="M698.958 1758.57 698.958 1979.71" stroke="#ED7D31" stroke-width="4.58333" stroke-linejoin="round" stroke-miterlimit="10" fill="none" fill-rule="evenodd"/><path d="M698.958 1979.71 698.958 2191.69" stroke="#000000" stroke-width="2.29167" stroke-linejoin="round" stroke-miterlimit="10" stroke-dasharray="2.29167 6.875" fill="none" fill-rule="evenodd"/><path d="M698.958 2191.69 698.958 2412.84" stroke="#ED7D31" stroke-width="4.58333" stroke-linejoin="round" stroke-miterlimit="10" fill="none" fill-rule="evenodd"/><path d="M698.958 2412.84 698.958 2624.82" stroke="#000000" stroke-width="2.29167" stroke-linejoin="round" stroke-miterlimit="10" stroke-dasharray="2.29167 6.875" fill="none" fill-rule="evenodd"/><path d="M698.958 2624.82 698.958 2845.96" stroke="#ED7D31" stroke-width="4.58333" stroke-linejoin="round" stroke-miterlimit="10" fill="none" fill-rule="evenodd"/><path d="M914.375 1325.44 914.375 1542.01" stroke="#000000" stroke-width="2.29167" stroke-linejoin="round" stroke-miterlimit="10" stroke-dasharray="2.29167 6.875" fill="none" fill-rule="evenodd"/><path d="M914.375 1542.01 914.375 1763.15" stroke="#ED7D31" stroke-width="4.58333" stroke-linejoin="round" stroke-miterlimit="10" fill="none" fill-rule="evenodd"/><path d="M914.375 1763.15 914.375 2624.82" stroke="#000000" stroke-width="2.29167" stroke-linejoin="round" stroke-miterlimit="10" stroke-dasharray="2.29167 6.875" fill="none" fill-rule="evenodd"/><path d="M914.375 2624.82 914.375 2845.96" stroke="#ED7D31" stroke-width="4.58333" stroke-linejoin="round" stroke-miterlimit="10" fill="none" fill-rule="evenodd"/><path d="M1129.79 1325.44 1129.79 1546.59" stroke="#ED7D31" stroke-width="4.58333" stroke-linejoin="round" stroke-miterlimit="10" fill="none" fill-rule="evenodd"/><path d="M1129.79 1546.59 1129.79 1758.57" stroke="#000000" stroke-width="2.29167" stroke-linejoin="round" stroke-miterlimit="10" stroke-dasharray="2.29167 6.875" fill="none" fill-rule="evenodd"/><path d="M1129.79 1758.57 1129.79 2845.96" stroke="#ED7D31" stroke-width="4.58333" stroke-linejoin="round" stroke-miterlimit="10" fill="none" fill-rule="evenodd"/><path d="M1345.21 1325.44 1345.21 1758.57" stroke="#000000" stroke-width="2.29167" stroke-linejoin="round" stroke-miterlimit="10" stroke-dasharray="2.29167 6.875" fill="none" fill-rule="evenodd"/><path d="M1345.21 1758.57 1345.21 2412.84" stroke="#ED7D31" stroke-width="4.58333" stroke-linejoin="round" stroke-miterlimit="10" fill="none" fill-rule="evenodd"/><path d="M1345.21 2412.84 1345.21 2845.96" stroke="#000000" stroke-width="2.29167" stroke-linejoin="round" stroke-miterlimit="10" stroke-dasharray="2.29167 6.875" fill="none" fill-rule="evenodd"/><path d="M1560.62 1325.44 1560.62 1542.01" stroke="#000000" stroke-width="2.29167" stroke-linejoin="round" stroke-miterlimit="10" stroke-dasharray="2.29167 6.875" fill="none" fill-rule="evenodd"/><path d="M1560.62 1542.01 1560.62 1763.15" stroke="#ED7D31" stroke-width="4.58333" stroke-linejoin="round" stroke-miterlimit="10" fill="none" fill-rule="evenodd"/><path d="M1560.62 1763.15 1560.62 1975.13" stroke="#000000" stroke-width="2.29167" stroke-linejoin="round" stroke-miterlimit="10" stroke-dasharray="2.29167 6.875" fill="none" fill-rule="evenodd"/><path d="M1560.62 1975.13 1560.62 2196.28" stroke="#ED7D31" stroke-width="4.58333" stroke-linejoin="round" stroke-miterlimit="10" fill="none" fill-rule="evenodd"/><path d="M1560.62 2196.28 1560.62 2408.26" stroke="#000000" stroke-width="2.29167" stroke-linejoin="round" stroke-miterlimit="10" stroke-dasharray="2.29167 6.875" fill="none" fill-rule="evenodd"/><path d="M1560.62 2408.26 1560.62 2629.4" stroke="#ED7D31" stroke-width="4.58333" stroke-linejoin="round" stroke-miterlimit="10" fill="none" fill-rule="evenodd"/><path d="M1560.62 2629.4 1560.62 2845.96" stroke="#000000" stroke-width="2.29167" stroke-linejoin="round" stroke-miterlimit="10" stroke-dasharray="2.29167 6.875" fill="none" fill-rule="evenodd"/><path d="M1776.04 1325.44 1776.04 1758.57" stroke="#000000" stroke-width="2.29167" stroke-linejoin="round" stroke-miterlimit="10" stroke-dasharray="2.29167 6.875" fill="none" fill-rule="evenodd"/><path d="M1776.04 1758.57 1776.04 1979.71" stroke="#ED7D31" stroke-width="4.58333" stroke-linejoin="round" stroke-miterlimit="10" fill="none" fill-rule="evenodd"/><path d="M1776.04 1979.71 1776.04 2191.69" stroke="#000000" stroke-width="2.29167" stroke-linejoin="round" stroke-miterlimit="10" stroke-dasharray="2.29167 6.875" fill="none" fill-rule="evenodd"/><path d="M1776.04 2191.69 1776.04 2412.84" stroke="#ED7D31" stroke-width="4.58333" stroke-linejoin="round" stroke-miterlimit="10" fill="none" fill-rule="evenodd"/><path d="M1776.04 2412.84 1776.04 2624.82" stroke="#000000" stroke-width="2.29167" stroke-linejoin="round" stroke-miterlimit="10" stroke-dasharray="2.29167 6.875" fill="none" fill-rule="evenodd"/><path d="M1776.04 2624.82 1776.04 2845.96" stroke="#ED7D31" stroke-width="4.58333" stroke-linejoin="round" stroke-miterlimit="10" fill="none" fill-rule="evenodd"/><path d="M1991.46 1325.44 1991.46 1544.3" stroke="#ED7D31" stroke-width="4.58333" stroke-linejoin="round" stroke-miterlimit="10" fill="none" fill-rule="evenodd"/><path d="M1991.46 1544.3 1991.46 2410.55" stroke="#00C49A" stroke-width="4.58333" stroke-linejoin="round" stroke-miterlimit="10" fill="none" fill-rule="evenodd"/><path d="M1991.46 2410.55 1991.46 2845.96" stroke="#ED7D31" stroke-width="4.58333" stroke-linejoin="round" stroke-miterlimit="10" fill="none" fill-rule="evenodd"/><path d="M481.25 1327.73 1129.79 1327.73" stroke="#00C49A" stroke-width="4.58333" stroke-linejoin="round" stroke-miterlimit="10" fill="none" fill-rule="evenodd"/><path d="M1129.79 1327.73 1993.75 1327.73" stroke="#ED7D31" stroke-width="4.58333" stroke-linejoin="round" stroke-miterlimit="10" fill="none" fill-rule="evenodd"/><path d="M481.25 1544.3 912.083 1544.3" stroke="#000000" stroke-width="2.29167" stroke-linejoin="round" stroke-miterlimit="10" stroke-dasharray="2.29167 6.875" fill="none" fill-rule="evenodd"/><path d="M912.083 1544.3 1132.08 1544.3" stroke="#ED7D31" stroke-width="4.58333" stroke-linejoin="round" stroke-miterlimit="10" fill="none" fill-rule="evenodd"/><path d="M1132.08 1544.3 1558.33 1544.3" stroke="#000000" stroke-width="2.29167" stroke-linejoin="round" stroke-miterlimit="10" stroke-dasharray="2.29167 6.875" fill="none" fill-rule="evenodd"/><path d="M1558.33 1544.3 1993.75 1544.3" stroke="#ED7D31" stroke-width="4.58333" stroke-linejoin="round" stroke-miterlimit="10" fill="none" fill-rule="evenodd"/><path d="M481.25 1760.86 696.667 1760.86" stroke="#000000" stroke-width="2.29167" stroke-linejoin="round" stroke-miterlimit="10" stroke-dasharray="2.29167 6.875" fill="none" fill-rule="evenodd"/><path d="M696.667 1760.86 916.667 1760.86" stroke="#ED7D31" stroke-width="4.58333" stroke-linejoin="round" stroke-miterlimit="10" fill="none" fill-rule="evenodd"/><path d="M916.667 1760.86 1127.5 1760.86" stroke="#000000" stroke-width="2.29167" stroke-linejoin="round" stroke-miterlimit="10" stroke-dasharray="2.29167 6.875" fill="none" fill-rule="evenodd"/><path d="M1127.5 1760.86 1347.5 1760.86" stroke="#ED7D31" stroke-width="4.58333" stroke-linejoin="round" stroke-miterlimit="10" fill="none" fill-rule="evenodd"/><path d="M1347.5 1760.86 1558.33 1760.86" stroke="#000000" stroke-width="2.29167" stroke-linejoin="round" stroke-miterlimit="10" stroke-dasharray="2.29167 6.875" fill="none" fill-rule="evenodd"/><path d="M1558.33 1760.86 1778.33 1760.86" stroke="#ED7D31" stroke-width="4.58333" stroke-linejoin="round" stroke-miterlimit="10" fill="none" fill-rule="evenodd"/><path d="M1778.33 1760.86 1993.75 1760.86" stroke="#000000" stroke-width="2.29167" stroke-linejoin="round" stroke-miterlimit="10" stroke-dasharray="2.29167 6.875" fill="none" fill-rule="evenodd"/><path d="M481.25 1977.42 701.25 1977.42" stroke="#ED7D31" stroke-width="4.58333" stroke-linejoin="round" stroke-miterlimit="10" fill="none" fill-rule="evenodd"/><path d="M701.25 1977.42 1558.33 1977.42" stroke="#000000" stroke-width="2.29167" stroke-linejoin="round" stroke-miterlimit="10" stroke-dasharray="2.29167 6.875" fill="none" fill-rule="evenodd"/><path d="M1558.33 1977.42 1778.33 1977.42" stroke="#ED7D31" stroke-width="4.58333" stroke-linejoin="round" stroke-miterlimit="10" fill="none" fill-rule="evenodd"/><path d="M1778.33 1977.42 1993.75 1977.42" stroke="#000000" stroke-width="2.29167" stroke-linejoin="round" stroke-miterlimit="10" stroke-dasharray="2.29167 6.875" fill="none" fill-rule="evenodd"/><path d="M481.25 2193.98 701.25 2193.98" stroke="#ED7D31" stroke-width="4.58333" stroke-linejoin="round" stroke-miterlimit="10" fill="none" fill-rule="evenodd"/><path d="M701.25 2193.98 1558.33 2193.98" stroke="#000000" stroke-width="2.29167" stroke-linejoin="round" stroke-miterlimit="10" stroke-dasharray="2.29167 6.875" fill="none" fill-rule="evenodd"/><path d="M1558.33 2193.98 1778.33 2193.98" stroke="#ED7D31" stroke-width="4.58333" stroke-linejoin="round" stroke-miterlimit="10" fill="none" fill-rule="evenodd"/><path d="M1778.33 2193.98 1993.75 2193.98" stroke="#000000" stroke-width="2.29167" stroke-linejoin="round" stroke-miterlimit="10" stroke-dasharray="2.29167 6.875" fill="none" fill-rule="evenodd"/><path d="M481.25 2410.55 701.25 2410.55" stroke="#ED7D31" stroke-width="4.58333" stroke-linejoin="round" stroke-miterlimit="10" fill="none" fill-rule="evenodd"/><path d="M701.25 2410.55 1342.92 2410.55" stroke="#000000" stroke-width="2.29167" stroke-linejoin="round" stroke-miterlimit="10" stroke-dasharray="2.29167 6.875" fill="none" fill-rule="evenodd"/><path d="M1342.92 2410.55 1562.92 2410.55" stroke="#ED7D31" stroke-width="4.58333" stroke-linejoin="round" stroke-miterlimit="10" fill="none" fill-rule="evenodd"/><path d="M1562.92 2410.55 1773.75 2410.55" stroke="#000000" stroke-width="2.29167" stroke-linejoin="round" stroke-miterlimit="10" stroke-dasharray="2.29167 6.875" fill="none" fill-rule="evenodd"/><path d="M1773.75 2410.55 1993.75 2410.55" stroke="#ED7D31" stroke-width="4.58333" stroke-linejoin="round" stroke-miterlimit="10" fill="none" fill-rule="evenodd"/><path d="M481.25 2627.11 696.667 2627.11" stroke="#000000" stroke-width="2.29167" stroke-linejoin="round" stroke-miterlimit="10" stroke-dasharray="2.29167 6.875" fill="none" fill-rule="evenodd"/><path d="M696.667 2627.11 916.667 2627.11" stroke="#ED7D31" stroke-width="4.58333" stroke-linejoin="round" stroke-miterlimit="10" fill="none" fill-rule="evenodd"/><path d="M916.667 2627.11 1558.33 2627.11" stroke="#000000" stroke-width="2.29167" stroke-linejoin="round" stroke-miterlimit="10" stroke-dasharray="2.29167 6.875" fill="none" fill-rule="evenodd"/><path d="M1558.33 2627.11 1778.33 2627.11" stroke="#ED7D31" stroke-width="4.58333" stroke-linejoin="round" stroke-miterlimit="10" fill="none" fill-rule="evenodd"/><path d="M1778.33 2627.11 1993.75 2627.11" stroke="#000000" stroke-width="2.29167" stroke-linejoin="round" stroke-miterlimit="10" stroke-dasharray="2.29167 6.875" fill="none" fill-rule="evenodd"/><path d="M481.25 2843.67 698.958 2843.67" stroke="#ED7D31" stroke-width="4.58333" stroke-linejoin="round" stroke-miterlimit="10" fill="none" fill-rule="evenodd"/><path d="M698.958 2843.67 914.375 2843.67" stroke="#00C49A" stroke-width="4.58333" stroke-linejoin="round" stroke-miterlimit="10" fill="none" fill-rule="evenodd"/><path d="M914.375 2843.67 1129.79 2843.67" stroke="#ED7D31" stroke-width="4.58333" stroke-linejoin="round" stroke-miterlimit="10" fill="none" fill-rule="evenodd"/><path d="M1129.79 2843.67 1776.04 2843.67" stroke="#00C49A" stroke-width="4.58333" stroke-linejoin="round" stroke-miterlimit="10" fill="none" fill-rule="evenodd"/><path d="M1776.04 2843.67 1993.75 2843.67" stroke="#ED7D31" stroke-width="4.58333" stroke-linejoin="round" stroke-miterlimit="10" fill="none" fill-rule="evenodd"/><text font-family="Yu Gothic,Yu Gothic_MSFontService,sans-serif" font-weight="400" font-size="110" transform="matrix(1 0 0 1 560.599 1476)">0</text><text font-family="Yu Gothic,Yu Gothic_MSFontService,sans-serif" font-weight="400" font-size="110" transform="matrix(1 0 0 1 776.016 1476)">0</text><text font-family="Yu Gothic,Yu Gothic_MSFontService,sans-serif" font-weight="400" font-size="110" transform="matrix(1 0 0 1 991.432 1476)">2</text><text font-family="Yu Gothic,Yu Gothic_MSFontService,sans-serif" font-weight="400" font-size="110" transform="matrix(1 0 0 1 1206.85 1476)">2</text><text font-family="Yu Gothic,Yu Gothic_MSFontService,sans-serif" font-weight="400" font-size="110" transform="matrix(1 0 0 1 1422.27 1476)">1</text><text font-family="Yu Gothic,Yu Gothic_MSFontService,sans-serif" font-weight="400" font-size="110" transform="matrix(1 0 0 1 1637.68 1476)">2</text><text font-family="Yu Gothic,Yu Gothic_MSFontService,sans-serif" font-weight="400" font-size="110" transform="matrix(1 0 0 1 1853.1 1476)">3</text><text font-family="Yu Gothic,Yu Gothic_MSFontService,sans-serif" font-weight="400" font-size="110" transform="matrix(1 0 0 1 560.599 1692)">0</text><text font-family="Yu Gothic,Yu Gothic_MSFontService,sans-serif" font-weight="400" font-size="110" transform="matrix(1 0 0 1 776.016 1692)">2</text><text font-family="Yu Gothic,Yu Gothic_MSFontService,sans-serif" font-weight="400" font-size="110" transform="matrix(1 0 0 1 991.432 1692)">2</text><text font-family="Yu Gothic,Yu Gothic_MSFontService,sans-serif" font-weight="400" font-size="110" transform="matrix(1 0 0 1 1206.85 1692)">1</text><text font-family="Yu Gothic,Yu Gothic_MSFontService,sans-serif" font-weight="400" font-size="110" transform="matrix(1 0 0 1 1422.27 1692)">1</text><text font-family="Yu Gothic,Yu Gothic_MSFontService,sans-serif" font-weight="400" font-size="110" transform="matrix(1 0 0 1 1637.68 1692)">3</text><text font-family="Yu Gothic,Yu Gothic_MSFontService,sans-serif" font-weight="400" font-size="110" transform="matrix(1 0 0 1 1853.1 1692)">1</text><text font-family="Yu Gothic,Yu Gothic_MSFontService,sans-serif" font-weight="400" font-size="110" transform="matrix(1 0 0 1 560.599 1909)">2</text><text font-family="Yu Gothic,Yu Gothic_MSFontService,sans-serif" font-weight="400" font-size="110" transform="matrix(1 0 0 1 776.016 1909)">2</text><text font-family="Yu Gothic,Yu Gothic_MSFontService,sans-serif" font-weight="400" font-size="110" transform="matrix(1 0 0 1 991.432 1909)">1</text><text font-family="Yu Gothic,Yu Gothic_MSFontService,sans-serif" font-weight="400" font-size="110" transform="matrix(1 0 0 1 1206.85 1909)">3</text><text font-family="Yu Gothic,Yu Gothic_MSFontService,sans-serif" font-weight="400" font-size="110" transform="matrix(1 0 0 1 1422.27 1909)">1</text><text font-family="Yu Gothic,Yu Gothic_MSFontService,sans-serif" font-weight="400" font-size="110" transform="matrix(1 0 0 1 1637.68 1909)">3</text><text font-family="Yu Gothic,Yu Gothic_MSFontService,sans-serif" font-weight="400" font-size="110" transform="matrix(1 0 0 1 1853.1 1909)">1</text><text font-family="Yu Gothic,Yu Gothic_MSFontService,sans-serif" font-weight="400" font-size="110" transform="matrix(1 0 0 1 560.599 2125)">3</text><text font-family="Yu Gothic,Yu Gothic_MSFontService,sans-serif" font-weight="400" font-size="110" transform="matrix(1 0 0 1 776.016 2125)">0</text><text font-family="Yu Gothic,Yu Gothic_MSFontService,sans-serif" font-weight="400" font-size="110" transform="matrix(1 0 0 1 991.432 2125)">1</text><text font-family="Yu Gothic,Yu Gothic_MSFontService,sans-serif" font-weight="400" font-size="110" transform="matrix(1 0 0 1 1206.85 2125)">2</text><text font-family="Yu Gothic,Yu Gothic_MSFontService,sans-serif" font-weight="400" font-size="110" transform="matrix(1 0 0 1 1422.27 2125)">2</text><text font-family="Yu Gothic,Yu Gothic_MSFontService,sans-serif" font-weight="400" font-size="110" transform="matrix(1 0 0 1 1637.68 2125)">3</text><text font-family="Yu Gothic,Yu Gothic_MSFontService,sans-serif" font-weight="400" font-size="110" transform="matrix(1 0 0 1 1853.1 2125)">0</text><text font-family="Yu Gothic,Yu Gothic_MSFontService,sans-serif" font-weight="400" font-size="110" transform="matrix(1 0 0 1 560.599 2342)">3</text><text font-family="Yu Gothic,Yu Gothic_MSFontService,sans-serif" font-weight="400" font-size="110" transform="matrix(1 0 0 1 776.016 2342)">1</text><text font-family="Yu Gothic,Yu Gothic_MSFontService,sans-serif" font-weight="400" font-size="110" transform="matrix(1 0 0 1 991.432 2342)">1</text><text font-family="Yu Gothic,Yu Gothic_MSFontService,sans-serif" font-weight="400" font-size="110" transform="matrix(1 0 0 1 1206.85 2342)">2</text><text font-family="Yu Gothic,Yu Gothic_MSFontService,sans-serif" font-weight="400" font-size="110" transform="matrix(1 0 0 1 1422.27 2342)">2</text><text font-family="Yu Gothic,Yu Gothic_MSFontService,sans-serif" font-weight="400" font-size="110" transform="matrix(1 0 0 1 1637.68 2342)">2</text><text font-family="Yu Gothic,Yu Gothic_MSFontService,sans-serif" font-weight="400" font-size="110" transform="matrix(1 0 0 1 1853.1 2342)">2</text><text font-family="Yu Gothic,Yu Gothic_MSFontService,sans-serif" font-weight="400" font-size="110" transform="matrix(1 0 0 1 560.599 2559)">2</text><text font-family="Yu Gothic,Yu Gothic_MSFontService,sans-serif" font-weight="400" font-size="110" transform="matrix(1 0 0 1 776.016 2559)">1</text><text font-family="Yu Gothic,Yu Gothic_MSFontService,sans-serif" font-weight="400" font-size="110" transform="matrix(1 0 0 1 991.432 2559)">1</text><text font-family="Yu Gothic,Yu Gothic_MSFontService,sans-serif" font-weight="400" font-size="110" transform="matrix(1 0 0 1 1206.85 2559)">1</text><text font-family="Yu Gothic,Yu Gothic_MSFontService,sans-serif" font-weight="400" font-size="110" transform="matrix(1 0 0 1 1422.27 2559)">2</text><text font-family="Yu Gothic,Yu Gothic_MSFontService,sans-serif" font-weight="400" font-size="110" transform="matrix(1 0 0 1 1637.68 2559)">2</text><text font-family="Yu Gothic,Yu Gothic_MSFontService,sans-serif" font-weight="400" font-size="110" transform="matrix(1 0 0 1 1853.1 2559)">2</text><text font-family="Yu Gothic,Yu Gothic_MSFontService,sans-serif" font-weight="400" font-size="110" transform="matrix(1 0 0 1 560.599 2775)">3</text><text font-family="Yu Gothic,Yu Gothic_MSFontService,sans-serif" font-weight="400" font-size="110" transform="matrix(1 0 0 1 776.016 2775)">3</text><text font-family="Yu Gothic,Yu Gothic_MSFontService,sans-serif" font-weight="400" font-size="110" transform="matrix(1 0 0 1 991.432 2775)">3</text><text font-family="Yu Gothic,Yu Gothic_MSFontService,sans-serif" font-weight="400" font-size="110" transform="matrix(1 0 0 1 1206.85 2775)">1</text><text font-family="Yu Gothic,Yu Gothic_MSFontService,sans-serif" font-weight="400" font-size="110" transform="matrix(1 0 0 1 1422.27 2775)">0</text><text font-family="Yu Gothic,Yu Gothic_MSFontService,sans-serif" font-weight="400" font-size="110" transform="matrix(1 0 0 1 1637.68 2775)">2</text><text font-family="Yu Gothic,Yu Gothic_MSFontService,sans-serif" font-weight="400" font-size="110" transform="matrix(1 0 0 1 1853.1 2775)">3</text></g></svg>