<svg width="1516" height="1545" xmlns="http://www.w3.org/2000/svg" xmlns:xlink="http://www.w3.org/1999/xlink" xml:space="preserve" overflow="hidden"><defs><clipPath id="clip0"><rect x="481" y="1325" width="1516" height="1545"/></clipPath></defs><g clip-path="url(#clip0)" transform="translate(-481 -1325)"><path d="M698.958 1325.44 698.958 2845.96" stroke="#000000" stroke-width="2.29167" stroke-linejoin="round" stroke-miterlimit="10" stroke-dasharray="2.29167 6.875" fill="none" fill-rule="evenodd"/><path d="M914.375 1325.44 914.375 2845.96" stroke="#000000" stroke-width="2.29167" stroke-linejoin="round" stroke-miterlimit="10" stroke-dasharray="2.29167 6.875" fill="none" fill-rule="evenodd"/><path d="M1129.79 1325.44 1129.79 2845.96" stroke="#000000" stroke-width="2.29167" stroke-linejoin="round" stroke-miterlimit="10" stroke-dasharray="2.29167 6.875" fill="none" fill-rule="evenodd"/><path d="M1345.21 1325.44 1345.21 2845.96" stroke="#000000" stroke-width="2.29167" stroke-linejoin="round" stroke-miterlimit="10" stroke-dasharray="2.29167 6.875" fill="none" fill-rule="evenodd"/><path d="M1560.62 1325.44 1560.62 2845.96" stroke="#000000" stroke-width="2.29167" stroke-linejoin="round" stroke-miterlimit="10" stroke-dasharray="2.29167 6.875" fill="none" fill-rule="evenodd"/><path d="M1776.04 1325.44 1776.04 2845.96" stroke="#000000" stroke-width="2.29167" stroke-linejoin="round" stroke-miterlimit="10" stroke-dasharray="2.29167 6.875" fill="none" fill-rule="evenodd"/><path d="M481.25 1544.3 1993.75 1544.3" stroke="#000000" stroke-width="2.29167" stroke-linejoin="round" stroke-miterlimit="10" stroke-dasharray="2.29167 6.875" fill="none" fill-rule="evenodd"/><path d="M481.25 1760.86 1993.75 1760.86" stroke="#000000" stroke-width="2.29167" stroke-linejoin="round" stroke-miterlimit="10" stroke-dasharray="2.29167 6.875" fill="none" fill-rule="evenodd"/><path d="M481.25 1977.42 1993.75 1977.42" stroke="#000000" stroke-width="2.29167" stroke-linejoin="round" stroke-miterlimit="10" stroke-dasharray="2.29167 6.875" fill="none" fill-rule="evenodd"/><path d="M481.25 2193.98 1993.75 2193.98" stroke="#000000" stroke-width="2.29167" stroke-linejoin="round" stroke-miterlimit="10" stroke-dasharray="2.29167 6.875" fill="none" fill-rule="evenodd"/><path d="M481.25 2410.55 1993.75 2410.55" stroke="#000000" stroke-width="2.29167" stroke-linejoin="round" stroke-miterlimit="10" stroke-dasharray="2.29167 6.875" fill="none" fill-rule="evenodd"/><path d="M481.25 2627.11 1993.75 2627.11" stroke="#000000" stroke-width="2.29167" stroke-linejoin="round" stroke-miterlimit="10" stroke-dasharray="2.29167 6.875" fill="none" fill-rule="evenodd"/><path d="M483.542 1325.44 483.542 2845.96" stroke="#00C49A" stroke-width="4.58333" stroke-linejoin="round" stroke-miterlimit="10" fill="none" fill-rule="evenodd"/><path d="M1991.46 1325.44 1991.46 2845.96" stroke="#00C49A" stroke-width="4.58333" stroke-linejoin="round" stroke-miterlimit="10" fill="none" fill-rule="evenodd"/><path d="M481.25 1327.73 1993.75 1327.73" stroke="#00C49A" stroke-width="4.58333" stroke-linejoin="round" stroke-miterlimit="10" fill="none" fill-rule="evenodd"/><path d="M481.25 2843.67 1993.75 2843.67" stroke="#00C49A" stroke-width="4.58333" stroke-linejoin="round" stroke-miterlimit="10" fill="none" fill-rule="evenodd"/><text font-family="Yu Gothic,Yu Gothic_MSFontService,sans-serif" font-weight="400" font-size="110" transform="matrix(1 0 0 1 776.016 1476)">0</text><text font-family="Yu Gothic,Yu Gothic_MSFontService,sans-serif" font-weight="400" font-size="110" transform="matrix(1 0 0 1 991.432 1476)">2</text><text font-family="Yu Gothic,Yu Gothic_MSFontService,sans-serif" font-weight="400" font-size="110" transform="matrix(1 0 0 1 1422.27 1476)">1</text><text font-family="Yu Gothic,Yu Gothic_MSFontService,sans-serif" font-weight="400" font-size="110" transform="matrix(1 0 0 1 1853.1 1476)">3</text><text font-family="Yu Gothic,Yu Gothic_MSFontService,sans-serif" font-weight="400" font-size="110" transform="matrix(1 0 0 1 1206.85 1909)">3</text><text font-family="Yu Gothic,Yu Gothic_MSFontService,sans-serif" font-weight="400" font-size="110" transform="matrix(1 0 0 1 1637.68 1909)">3</text><text font-family="Yu Gothic,Yu Gothic_MSFontService,sans-serif" font-weight="400" font-size="110" transform="matrix(1 0 0 1 1853.1 1909)">1</text><text font-family="Yu Gothic,Yu Gothic_MSFontService,sans-serif" font-weight="400" font-size="110" transform="matrix(1 0 0 1 560.599 2125)">3</text><text font-family="Yu Gothic,Yu Gothic_MSFontService,sans-serif" font-weight="400" font-size="110" transform="matrix(1 0 0 1 776.016 2125)">0</text><text font-family="Yu Gothic,Yu Gothic_MSFontService,sans-serif" font-weight="400" font-size="110" transform="matrix(1 0 0 1 1637.68 2125)">3</text><text font-family="Yu Gothic,Yu Gothic_MSFontService,sans-serif" font-weight="400" font-size="110" transform="matrix(1 0 0 1 1853.1 2125)">0</text><text font-family="Yu Gothic,Yu Gothic_MSFontService,sans-serif" font-weight="400" font-size="110" transform="matrix(1 0 0 1 560.599 2342)">3</text><text font-family="Yu Gothic,Yu Gothic_MSFontService,sans-serif" font-weight="400" font-size="110" transform="matrix(1 0 0 1 776.016 2342)">1</text><text font-family="Yu Gothic,Yu Gothic_MSFontService,sans-serif" font-weight="400" font-size="110" transform="matrix(1 0 0 1 1206.85 2342)">2</text><text font-family="Yu Gothic,Yu Gothic_MSFontService,sans-serif" font-weight="400" font-size="110" transform="matrix(1 0 0 1 560.599 2775)">3</text><text font-family="Yu Gothic,Yu Gothic_MSFontService,sans-serif" font-weight="400" font-size="110" transform="matrix(1 0 0 1 991.432 2775)">3</text><text font-family="Yu Gothic,Yu Gothic_MSFontService,sans-serif" font-weight="400" font-size="110" transform="matrix(1 0 0 1 1422.27 2775)">0</text><text font-family="Yu Gothic,Yu Gothic_MSFontService,sans-serif" font-weight="400" font-size="110" transform="matrix(1 0 0 1 1637.68 2775)">2</text></g></svg>