<svg width="3797" height="1818" xmlns="http://www.w3.org/2000/svg" xmlns:xlink="http://www.w3.org/1999/xlink" xml:space="preserve" overflow="hidden"><defs><clipPath id="clip0"><rect x="210" y="235" width="3797" height="1818"/></clipPath></defs><g clip-path="url(#clip0)" transform="translate(-210 -235)"><path d="M1807.41 451.171 1807.41 2023.83" stroke="#000000" stroke-width="2.29167" stroke-linejoin="round" stroke-miterlimit="10" stroke-dasharray="2.29167 6.875" fill="none" fill-rule="evenodd"/><path d="M2200 451.171 2200 2023.83" stroke="#000000" stroke-width="2.29167" stroke-linejoin="round" stroke-miterlimit="10" stroke-dasharray="2.29167 6.875" fill="none" fill-rule="evenodd"/><path d="M2592.59 451.171 2592.59 1236.35" stroke="#000000" stroke-width="2.29167" stroke-linejoin="round" stroke-miterlimit="10" stroke-dasharray="2.29167 6.875" fill="none" fill-rule="evenodd"/><path d="M2592.59 1236.35 2592.59 1631.24" stroke="#ED7D31" stroke-width="6.875" stroke-linejoin="round" stroke-miterlimit="10" fill="none" fill-rule="evenodd"/><path d="M2592.59 1631.24 2592.59 2023.83" stroke="#000000" stroke-width="2.29167" stroke-linejoin="round" stroke-miterlimit="10" stroke-dasharray="2.29167 6.875" fill="none" fill-rule="evenodd"/><path d="M1413.67 844.909 1806.26 844.909" stroke="#000000" stroke-width="2.29167" stroke-linejoin="round" stroke-miterlimit="10" stroke-dasharray="2.29167 6.875" fill="none" fill-rule="evenodd"/><path d="M1806.26 844.909 2201.15 844.909" stroke="#ED7D31" stroke-width="6.875" stroke-linejoin="round" stroke-miterlimit="10" fill="none" fill-rule="evenodd"/><path d="M2201.15 844.909 2986.33 844.909" stroke="#000000" stroke-width="2.29167" stroke-linejoin="round" stroke-miterlimit="10" stroke-dasharray="2.29167 6.875" fill="none" fill-rule="evenodd"/><path d="M1413.67 1237.5 2986.33 1237.5" stroke="#000000" stroke-width="2.29167" stroke-linejoin="round" stroke-miterlimit="10" stroke-dasharray="2.29167 6.875" fill="none" fill-rule="evenodd"/><path d="M1413.67 1630.09 2986.33 1630.09" stroke="#000000" stroke-width="2.29167" stroke-linejoin="round" stroke-miterlimit="10" stroke-dasharray="2.29167 6.875" fill="none" fill-rule="evenodd"/><path d="M1414.82 451.171 1414.82 2023.83" stroke="#000000" stroke-width="2.29167" stroke-linejoin="round" stroke-miterlimit="10" stroke-dasharray="2.29167 6.875" fill="none" fill-rule="evenodd"/><path d="M2985.18 451.171 2985.18 2023.83" stroke="#000000" stroke-width="2.29167" stroke-linejoin="round" stroke-miterlimit="10" stroke-dasharray="2.29167 6.875" fill="none" fill-rule="evenodd"/><path d="M1413.67 452.317 2986.33 452.317" stroke="#000000" stroke-width="2.29167" stroke-linejoin="round" stroke-miterlimit="10" stroke-dasharray="2.29167 6.875" fill="none" fill-rule="evenodd"/><path d="M1413.67 2022.68 2986.33 2022.68" stroke="#000000" stroke-width="2.29167" stroke-linejoin="round" stroke-miterlimit="10" stroke-dasharray="2.29167 6.875" fill="none" fill-rule="evenodd"/><path d="M0.54274-1.00914 864.945 463.887 863.859 465.905-0.54274 1.00914ZM866.877 450.615 884.583 475.75 853.851 474.834Z" transform="matrix(-1 0 0 1 2901.58 377)"/><rect x="2901.5" y="243.5" width="523" height="134" stroke="#000000" stroke-width="3.4375" stroke-linejoin="round" stroke-miterlimit="10" fill="none"/><text font-family="Yu Gothic,Yu Gothic_MSFontService,sans-serif" font-weight="400" font-size="83" transform="matrix(1 0 0 1 2956.03 336)">縦辺</text><path d="M3165.63 277.998 3167.98 277.998 3161.01 306.084 3161.5 306.246C3164.07 302.842 3166.49 300.376 3168.78 298.85 3171.06 297.323 3173.36 296.56 3175.69 296.56 3178.2 296.56 3180.13 297.283 3181.48 298.728 3182.83 300.174 3183.51 302.18 3183.51 304.746 3183.51 306.449 3183.11 308.867 3182.33 312.001L3179.7 322.619C3178.97 325.564 3178.6 327.644 3178.6 328.86 3178.6 329.941 3178.78 330.725 3179.13 331.211 3179.48 331.697 3180.03 331.94 3180.79 331.94 3181.6 331.94 3182.47 331.609 3183.39 330.947 3184.3 330.285 3185.6 329.022 3187.28 327.158L3189.59 329.428C3186.99 332.156 3184.86 334.034 3183.2 335.061 3181.54 336.088 3179.67 336.601 3177.59 336.601 3175.83 336.601 3174.44 335.98 3173.4 334.737 3172.35 333.494 3171.83 331.886 3171.83 329.914 3171.83 328.158 3172.28 325.578 3173.17 322.173L3174.92 315.162C3175.54 312.649 3175.96 310.765 3176.17 309.508 3176.39 308.252 3176.5 307.273 3176.5 306.57 3176.5 304.652 3176.18 303.294 3175.56 302.497 3174.94 301.7 3173.93 301.302 3172.52 301.302 3171.42 301.302 3170.19 301.761 3168.84 302.68 3167.49 303.598 3166.07 304.996 3164.58 306.874 3163.09 308.752 3161.91 310.549 3161.03 312.264 3160.16 313.98 3159.46 316.027 3158.95 318.404L3155.26 335.953 3148.25 335.953 3158.66 289.63C3159.31 286.739 3159.64 284.74 3159.64 283.632 3159.64 282.497 3159.29 281.7 3158.6 281.241 3157.91 280.781 3156.68 280.525 3154.89 280.471L3155.38 278.363Z" fill-rule="evenodd"/><text fill="#000000" fill-opacity="0" font-family="Arial,Arial_MSFontService,sans-serif" font-size="58.6025" x="3148.25" y="329.276">ℎ</text><path d="M3223.59 277.391 3224.68 280.511C3218.36 282.592 3213.68 286.651 3210.64 292.69 3207.6 298.728 3206.08 306.314 3206.08 315.446 3206.08 324.902 3207.6 332.697 3210.64 338.83 3213.68 344.963 3218.32 349.07 3224.56 351.15L3223.59 354.271C3215.67 352.19 3209.61 347.712 3205.39 340.836 3201.18 333.96 3199.07 325.632 3199.07 315.851 3199.07 306.097 3201.18 297.769 3205.41 290.866 3209.64 283.963 3215.7 279.471 3223.59 277.391Z" fill-rule="evenodd"/><text fill="#000000" fill-opacity="0" font-family="Arial,Arial_MSFontService,sans-serif" font-size="76.8804" x="3199.07" y="344.661">(</text><path d="M3249.45 279.984C3254.48 279.984 3258.27 281.085 3260.84 283.287 3263.41 285.489 3264.69 288.684 3264.69 292.872 3264.69 294.304 3264.55 295.621 3264.26 296.823 3263.98 298.026 3263.54 299.215 3262.93 300.39 3262.32 301.565 3261.5 302.828 3260.48 304.179 3259.45 305.53 3258.31 306.901 3257.07 308.293 3255.83 309.684 3253.68 312.001 3250.63 315.243 3245.49 320.674 3241.72 325.415 3239.32 329.468L3254.6 329.468C3255.92 329.468 3256.99 329.387 3257.8 329.225 3258.61 329.063 3259.26 328.793 3259.75 328.414 3260.23 328.036 3260.62 327.543 3260.9 326.935 3261.18 326.327 3261.54 325.388 3261.97 324.119L3265.42 324.119 3264.73 335.953 3231.38 335.953 3231.38 334.007C3232.54 331.17 3234.11 328.266 3236.08 325.294 3238.05 322.322 3240.85 318.823 3244.47 314.797 3247.6 311.339 3249.86 308.718 3251.24 306.935 3252.75 304.99 3253.88 303.308 3254.62 301.889 3255.36 300.471 3255.9 299.133 3256.22 297.877 3256.54 296.621 3256.71 295.358 3256.71 294.088 3256.71 292.061 3256.38 290.271 3255.73 288.718 3255.09 287.164 3254.09 285.942 3252.75 285.05 3251.42 284.159 3249.74 283.713 3247.71 283.713 3242.66 283.713 3239.25 286.523 3237.5 292.142L3232.59 292.142 3232.59 284.361C3235.86 282.821 3238.92 281.707 3241.77 281.018 3244.62 280.329 3247.18 279.984 3249.45 279.984Z" fill-rule="evenodd"/><text fill="#000000" fill-opacity="0" font-family="Arial,Arial_MSFontService,sans-serif" font-size="55.9683" x="3231.38" y="328.957">2</text><path d="M3277.41 326.55 3284.51 326.55C3284.88 328.441 3285.07 330.306 3285.07 332.143 3285.07 334.034 3284.75 335.763 3284.1 337.33 3283.45 338.898 3282.42 340.458 3281 342.011 3279.58 343.565 3277.63 345.274 3275.14 347.138L3272.95 344.666C3274.33 343.369 3275.33 342.201 3275.95 341.16 3276.58 340.12 3277.02 338.938 3277.29 337.614 3277.56 336.29 3277.7 334.629 3277.7 332.629 3277.7 330.576 3277.6 328.55 3277.41 326.55Z" fill-rule="evenodd"/><text fill="#000000" fill-opacity="0" font-family="Arial,Arial_MSFontService,sans-serif" font-size="20.5879" x="3272.95" y="344.565">,</text><path d="M3312.47 279.984C3317.5 279.984 3321.29 281.085 3323.86 283.287 3326.43 285.489 3327.71 288.684 3327.71 292.872 3327.71 294.304 3327.57 295.621 3327.29 296.823 3327 298.026 3326.56 299.215 3325.95 300.39 3325.34 301.565 3324.52 302.828 3323.5 304.179 3322.47 305.53 3321.33 306.901 3320.09 308.293 3318.85 309.684 3316.7 312.001 3313.65 315.243 3308.51 320.674 3304.75 325.415 3302.34 329.468L3317.62 329.468C3318.94 329.468 3320.01 329.387 3320.82 329.225 3321.63 329.063 3322.28 328.793 3322.77 328.414 3323.25 328.036 3323.64 327.543 3323.92 326.935 3324.21 326.327 3324.56 325.388 3325 324.119L3328.44 324.119 3327.75 335.953 3294.4 335.953 3294.4 334.007C3295.56 331.17 3297.13 328.266 3299.1 325.294 3301.07 322.322 3303.87 318.823 3307.49 314.797 3310.62 311.339 3312.88 308.718 3314.26 306.935 3315.77 304.99 3316.9 303.308 3317.64 301.889 3318.38 300.471 3318.92 299.133 3319.24 297.877 3319.57 296.621 3319.73 295.358 3319.73 294.088 3319.73 292.061 3319.4 290.271 3318.75 288.718 3318.11 287.164 3317.11 285.942 3315.78 285.05 3314.44 284.159 3312.76 283.713 3310.73 283.713 3305.68 283.713 3302.27 286.523 3300.52 292.142L3295.61 292.142 3295.61 284.361C3298.88 282.821 3301.94 281.707 3304.79 281.018 3307.64 280.329 3310.2 279.984 3312.47 279.984Z" fill-rule="evenodd"/><text fill="#000000" fill-opacity="0" font-family="Arial,Arial_MSFontService,sans-serif" font-size="55.9683" x="3294.4" y="328.957">2</text><path d="M3337.64 277.391C3345.53 279.471 3351.59 283.963 3355.81 290.866 3360.04 297.769 3362.16 306.097 3362.16 315.851 3362.16 325.632 3360.05 333.96 3355.83 340.836 3351.62 347.712 3345.55 352.19 3337.64 354.271L3336.66 351.15C3342.91 349.07 3347.55 344.963 3350.59 338.83 3353.63 332.697 3355.15 324.902 3355.15 315.446 3355.15 306.314 3353.63 298.728 3350.61 292.69 3347.58 286.651 3342.89 282.592 3336.54 280.511Z" fill-rule="evenodd"/><text fill="#000000" fill-opacity="0" font-family="Arial,Arial_MSFontService,sans-serif" font-size="76.8804" x="3336.54" y="344.661">)</text><path d="M0.507811-1.02716 869.964 428.816 868.948 430.87-0.507811 1.02716ZM871.442 415.487 890 440 859.254 440.139Z" transform="matrix(-1 0 0 1 3482 978)"/><path d="M1697.5 1238C1697.5 1179.73 1746.75 1132.5 1807.5 1132.5 1868.25 1132.5 1917.5 1179.73 1917.5 1238 1917.5 1296.27 1868.25 1343.5 1807.5 1343.5 1746.75 1343.5 1697.5 1296.27 1697.5 1238Z" stroke="#000000" stroke-width="9.16667" stroke-miterlimit="8" stroke-dasharray="36.6667 27.5" fill="none" fill-rule="evenodd"/><path d="M800.331 965.903 1675.06 1230.09 1674.4 1232.28 799.669 968.097ZM1674.32 1216.7 1696.67 1237.81 1666.37 1243.02Z"/><rect x="216.5" y="832.5" width="584" height="133" stroke="#000000" stroke-width="3.4375" stroke-linejoin="round" stroke-miterlimit="10" fill="none"/><text font-family="Yu Gothic,Yu Gothic_MSFontService,sans-serif" font-weight="400" font-size="83" transform="matrix(1 0 0 1 260.104 925)">格子点</text><path d="M560.922 889.857C559.544 889.857 558.186 890.323 556.849 891.255 555.511 892.188 554.046 893.68 552.451 895.734 550.857 897.787 549.615 899.813 548.723 901.813 547.831 903.812 547.129 906.109 546.616 908.702L546.291 910.405C546.021 911.836 545.852 912.931 545.785 913.687 545.717 914.444 545.683 915.187 545.683 915.916 545.683 918.024 546.136 919.557 547.041 920.516 547.946 921.475 549.506 921.955 551.722 921.955 553.1 921.955 554.37 921.685 555.532 921.144 556.693 920.604 557.794 919.82 558.835 918.794 559.875 917.767 560.814 916.524 561.651 915.065 562.489 913.606 563.239 911.911 563.9 909.979 564.562 908.047 565.062 906.061 565.4 904.021 565.738 901.982 565.907 900.07 565.907 898.287 565.907 895.45 565.508 893.336 564.711 891.944 563.914 890.553 562.651 889.857 560.922 889.857ZM543.86 885.075C545.535 885.075 546.865 885.629 547.852 886.737 548.838 887.844 549.331 889.317 549.331 891.154 549.331 892.667 549.02 894.261 548.399 895.936L548.885 896.098C553.883 888.776 558.855 885.115 563.799 885.115 566.744 885.115 569.034 886.237 570.669 888.479 572.303 890.722 573.12 893.883 573.12 897.963 573.12 902.421 572.222 906.804 570.425 911.114 568.629 915.423 566.136 918.841 562.948 921.367 559.76 923.893 556.193 925.156 552.249 925.156 548.655 925.156 545.67 924.373 543.292 922.806L541.428 931.681C541.023 933.6 540.82 935.18 540.82 936.423 540.82 937.612 541.124 938.456 541.732 938.956 542.34 939.456 543.522 939.787 545.278 939.949L544.954 941.935 532.431 941.935 542.198 898.935C542.765 896.45 543.049 894.41 543.049 892.816 543.049 891.735 542.874 890.951 542.522 890.465 542.171 889.979 541.617 889.736 540.861 889.736 540.023 889.736 539.138 890.08 538.206 890.769 537.274 891.458 535.997 892.708 534.376 894.518L532.066 892.248C534.498 889.709 536.558 887.878 538.247 886.757 539.935 885.636 541.806 885.075 543.86 885.075Z" fill-rule="evenodd"/><text fill="#000000" fill-opacity="0" font-family="Arial,Arial_MSFontService,sans-serif" font-size="56.8599" x="532.066" y="934.827">𝑝</text><path d="M609.749 865.946 610.843 869.067C604.521 871.147 599.84 875.207 596.801 881.245 593.761 887.284 592.241 894.869 592.241 904.001 592.241 913.458 593.761 921.252 596.801 927.385 599.84 933.519 604.481 937.625 610.722 939.706L609.749 942.826C601.833 940.746 595.767 936.268 591.552 929.392 587.338 922.515 585.23 914.187 585.23 904.406 585.23 894.653 587.344 886.325 591.573 879.421 595.801 872.518 601.86 868.026 609.749 865.946Z" fill-rule="evenodd"/><text fill="#000000" fill-opacity="0" font-family="Arial,Arial_MSFontService,sans-serif" font-size="76.8804" x="585.23" y="933.216">(</text><path d="M635.613 868.54C640.639 868.54 644.435 869.641 647.002 871.843 649.568 874.045 650.852 877.24 650.852 881.427 650.852 882.859 650.71 884.177 650.426 885.379 650.142 886.581 649.697 887.77 649.089 888.945 648.481 890.121 647.664 891.384 646.637 892.735 645.61 894.086 644.475 895.457 643.233 896.848 641.99 898.24 639.842 900.556 636.789 903.799 631.655 909.229 627.886 913.971 625.482 918.024L640.76 918.024C642.084 918.024 643.151 917.943 643.962 917.781 644.773 917.618 645.421 917.348 645.907 916.97 646.394 916.592 646.779 916.099 647.062 915.491 647.346 914.883 647.704 913.944 648.136 912.674L651.581 912.674 650.892 924.508 617.538 924.508 617.538 922.563C618.7 919.726 620.267 916.821 622.239 913.849 624.212 910.877 627.008 907.378 630.629 903.353 633.763 899.894 636.019 897.274 637.397 895.49 638.91 893.545 640.038 891.863 640.781 890.445 641.524 889.026 642.057 887.689 642.381 886.433 642.706 885.176 642.868 883.913 642.868 882.643 642.868 880.617 642.544 878.827 641.895 877.273 641.247 875.72 640.254 874.497 638.916 873.606 637.579 872.714 635.897 872.268 633.871 872.268 628.818 872.268 625.414 875.078 623.658 880.698L618.754 880.698 618.754 872.917C622.023 871.377 625.083 870.262 627.933 869.573 630.784 868.884 633.344 868.54 635.613 868.54Z" fill-rule="evenodd"/><text fill="#000000" fill-opacity="0" font-family="Arial,Arial_MSFontService,sans-serif" font-size="55.9683" x="617.538" y="917.512">2</text><path d="M663.574 915.106 670.667 915.106C671.045 916.997 671.234 918.861 671.234 920.698 671.234 922.59 670.91 924.319 670.261 925.886 669.613 927.453 668.579 929.013 667.161 930.567 665.742 932.12 663.79 933.829 661.305 935.694L659.116 933.221C660.494 931.925 661.494 930.756 662.115 929.716 662.737 928.676 663.182 927.494 663.453 926.17 663.723 924.846 663.858 923.184 663.858 921.185 663.858 919.131 663.763 917.105 663.574 915.106Z" fill-rule="evenodd"/><text fill="#000000" fill-opacity="0" font-family="Arial,Arial_MSFontService,sans-serif" font-size="20.5879" x="659.116" y="933.12">,</text><path d="M698.472 868.54C701.525 868.54 704.2 869.013 706.497 869.958 708.793 870.904 710.549 872.262 711.765 874.031 712.981 875.801 713.589 877.915 713.589 880.374 713.589 882.67 713.13 884.69 712.211 886.433 711.292 888.175 710.002 889.695 708.341 890.992 706.679 892.289 704.524 893.559 701.876 894.802L701.876 895.166C703.525 895.463 705.112 895.97 706.638 896.686 708.165 897.402 709.523 898.327 710.711 899.462 711.9 900.597 712.853 901.955 713.569 903.535 714.285 905.116 714.643 906.919 714.643 908.946 714.643 912.08 713.96 914.863 712.596 917.294 711.232 919.726 709.144 921.644 706.334 923.049 703.525 924.454 700.107 925.156 696.081 925.156 693.758 925.156 691.252 924.893 688.563 924.366 685.875 923.839 683.409 923.144 681.167 922.279L681.167 913.687 686.03 913.687C686.976 916.497 688.226 918.537 689.779 919.807 691.333 921.077 693.447 921.712 696.122 921.712 699.634 921.712 702.289 920.753 704.085 918.834 705.882 916.916 706.78 914.079 706.78 910.323 706.78 906.379 705.591 903.366 703.214 901.286 700.836 899.206 697.351 898.165 692.758 898.165L689.11 898.165 689.11 894.599C692.758 894.383 695.831 893.68 698.33 892.491 700.83 891.303 702.687 889.776 703.903 887.912 705.119 886.048 705.727 883.954 705.727 881.63 705.727 878.631 704.93 876.321 703.335 874.7 701.741 873.079 699.418 872.268 696.365 872.268 693.825 872.268 691.758 872.957 690.164 874.335 688.57 875.713 687.395 877.821 686.638 880.657L681.775 880.657 681.775 872.957C684.909 871.471 687.841 870.364 690.569 869.634 693.298 868.905 695.932 868.54 698.472 868.54Z" fill-rule="evenodd"/><text fill="#000000" fill-opacity="0" font-family="Arial,Arial_MSFontService,sans-serif" font-size="56.6167" x="681.167" y="918.079">3</text><path d="M723.799 865.946C731.688 868.026 737.747 872.518 741.975 879.421 746.203 886.325 748.318 894.653 748.318 904.406 748.318 914.187 746.21 922.515 741.995 929.392 737.781 936.268 731.715 940.746 723.799 942.826L722.826 939.706C729.067 937.625 733.708 933.519 736.747 927.385 739.787 921.252 741.306 913.458 741.306 904.001 741.306 894.869 739.793 887.284 736.767 881.245 733.741 875.207 729.054 871.147 722.704 869.067Z" fill-rule="evenodd"/><text fill="#000000" fill-opacity="0" font-family="Arial,Arial_MSFontService,sans-serif" font-size="76.8804" x="722.704" y="933.216">)</text><path d="M1807.5 1828.5C1807.5 1725.22 1894.36 1641.5 2001.5 1641.5 2108.64 1641.5 2195.5 1725.22 2195.5 1828.5 2195.5 1931.78 2108.64 2015.5 2001.5 2015.5 1894.36 2015.5 1807.5 1931.78 1807.5 1828.5Z" stroke="#000000" stroke-width="9.16667" stroke-miterlimit="8" stroke-dasharray="36.6667 27.5" fill="none" fill-rule="evenodd"/><path d="M0.144547-1.13668 934.077 117.628 933.788 119.901-0.144547 1.13668ZM931.121 104.546 956.667 121.656 927.652 131.827Z" transform="matrix(1 0 0 -1 850 1953.66)"/><rect x="337.5" y="1887.5" width="513" height="133" stroke="#000000" stroke-width="3.4375" stroke-linejoin="round" stroke-miterlimit="10" fill="none"/><text font-family="Yu Gothic,Yu Gothic_MSFontService,sans-serif" font-weight="400" font-size="83" transform="matrix(1 0 0 1 390.008 1980)">細胞</text><path d="M605.326 1940.25C608.92 1940.25 612.23 1940.66 615.256 1941.47L613.27 1950.63 609.014 1950.63C608.96 1948.57 608.792 1947.09 608.508 1946.17 608.224 1945.25 607.765 1944.56 607.13 1944.1 606.495 1943.64 605.597 1943.41 604.435 1943.41 601.706 1943.41 599.254 1944.5 597.079 1946.68 594.904 1948.85 593.128 1951.93 591.75 1955.92 590.372 1959.9 589.683 1963.73 589.683 1967.4 589.683 1970.16 590.223 1972.21 591.304 1973.54 592.385 1974.88 594.006 1975.55 596.167 1975.55 598.626 1975.55 600.754 1975.08 602.55 1974.15 604.347 1973.22 606.245 1971.75 608.244 1969.76L610.717 1972.23C608.177 1975.04 605.617 1977.09 603.037 1978.39 600.456 1979.68 597.68 1980.33 594.708 1980.33 590.791 1980.33 587.819 1979.17 585.792 1976.85 583.766 1974.52 582.753 1971.15 582.753 1966.72 582.753 1963.82 583.293 1960.65 584.374 1957.19 585.455 1953.73 587.035 1950.69 589.115 1948.07 591.196 1945.45 593.628 1943.49 596.41 1942.2 599.193 1940.9 602.165 1940.25 605.326 1940.25Z" fill-rule="evenodd"/><text fill="#000000" fill-opacity="0" font-family="Arial,Arial_MSFontService,sans-serif" font-size="40.0815" x="582.753" y="1975.32">𝑐</text><path d="M650.736 1921.08 651.831 1924.2C645.508 1926.28 640.827 1930.34 637.788 1936.38 634.748 1942.42 633.228 1950.01 633.228 1959.14 633.228 1968.59 634.748 1976.39 637.788 1982.52 640.827 1988.65 645.468 1992.76 651.709 1994.84L650.736 1997.96C642.82 1995.88 636.754 1991.4 632.539 1984.53 628.325 1977.65 626.217 1969.32 626.217 1959.54 626.217 1949.79 628.331 1941.46 632.56 1934.56 636.788 1927.65 642.847 1923.16 650.736 1921.08Z" fill-rule="evenodd"/><text fill="#000000" fill-opacity="0" font-family="Arial,Arial_MSFontService,sans-serif" font-size="76.8804" x="626.217" y="1988.35">(</text><path d="M678.951 1933.2 663.105 1958.37 663.105 1958.93 678.951 1958.93 678.951 1948.84C678.951 1946.3 678.992 1943.46 679.073 1940.31 679.154 1937.16 679.248 1934.79 679.356 1933.2ZM680.126 1924.04 685.922 1924.04 685.922 1958.93 686.773 1958.93C688.34 1958.93 689.461 1958.82 690.137 1958.59 690.812 1958.36 691.373 1957.96 691.819 1957.37 692.264 1956.79 692.676 1955.84 693.055 1954.52L696.135 1954.52 695.648 1962.87 685.922 1962.87 685.922 1969.51C685.922 1971.32 685.983 1972.65 686.104 1973.48 686.226 1974.32 686.428 1974.98 686.712 1975.47 686.996 1975.96 687.415 1976.36 687.968 1976.69 688.522 1977.01 689.421 1977.33 690.664 1977.66L690.664 1979.64 674.209 1979.64 674.209 1977.66C675.885 1977.23 677.006 1976.75 677.573 1976.22 678.141 1975.69 678.512 1974.94 678.688 1973.97 678.863 1973 678.951 1971.51 678.951 1969.51L678.951 1962.87 656.418 1962.87 656.418 1959.83Z" fill-rule="evenodd"/><text fill="#000000" fill-opacity="0" font-family="Arial,Arial_MSFontService,sans-serif" font-size="55.6035" x="656.418" y="1972.69">4</text><path d="M704.561 1970.24 711.654 1970.24C712.032 1972.13 712.221 1974 712.221 1975.83 712.221 1977.73 711.897 1979.45 711.248 1981.02 710.6 1982.59 709.566 1984.15 708.148 1985.7 706.729 1987.26 704.777 1988.97 702.292 1990.83L700.103 1988.36C701.481 1987.06 702.481 1985.89 703.102 1984.85 703.724 1983.81 704.169 1982.63 704.44 1981.31 704.71 1979.98 704.845 1978.32 704.845 1976.32 704.845 1974.27 704.75 1972.24 704.561 1970.24Z" fill-rule="evenodd"/><text fill="#000000" fill-opacity="0" font-family="Arial,Arial_MSFontService,sans-serif" font-size="20.5879" x="700.103" y="1988.26">,</text><path d="M739.621 1923.68C744.647 1923.68 748.443 1924.78 751.01 1926.98 753.576 1929.18 754.86 1932.38 754.86 1936.56 754.86 1938 754.718 1939.31 754.434 1940.51 754.15 1941.72 753.705 1942.91 753.097 1944.08 752.489 1945.26 751.671 1946.52 750.645 1947.87 749.618 1949.22 748.483 1950.59 747.24 1951.98 745.998 1953.38 743.85 1955.69 740.797 1958.93 735.663 1964.37 731.894 1969.11 729.49 1973.16L744.768 1973.16C746.092 1973.16 747.159 1973.08 747.97 1972.92 748.781 1972.75 749.429 1972.48 749.915 1972.11 750.402 1971.73 750.787 1971.23 751.07 1970.63 751.354 1970.02 751.712 1969.08 752.144 1967.81L755.589 1967.81 754.9 1979.64 721.546 1979.64 721.546 1977.7C722.708 1974.86 724.275 1971.96 726.247 1968.99 728.22 1966.01 731.016 1962.51 734.636 1958.49 737.771 1955.03 740.027 1952.41 741.405 1950.63 742.918 1948.68 744.046 1947 744.789 1945.58 745.532 1944.16 746.065 1942.82 746.389 1941.57 746.714 1940.31 746.876 1939.05 746.876 1937.78 746.876 1935.75 746.552 1933.96 745.903 1932.41 745.255 1930.86 744.262 1929.63 742.924 1928.74 741.587 1927.85 739.905 1927.4 737.879 1927.4 732.826 1927.4 729.422 1930.21 727.666 1935.83L722.762 1935.83 722.762 1928.05C726.031 1926.51 729.091 1925.4 731.941 1924.71 734.792 1924.02 737.352 1923.68 739.621 1923.68Z" fill-rule="evenodd"/><text fill="#000000" fill-opacity="0" font-family="Arial,Arial_MSFontService,sans-serif" font-size="55.9683" x="721.546" y="1972.65">2</text><path d="M764.786 1921.08C772.675 1923.16 778.734 1927.65 782.962 1934.56 787.191 1941.46 789.305 1949.79 789.305 1959.54 789.305 1969.32 787.197 1977.65 782.982 1984.53 778.768 1991.4 772.702 1995.88 764.786 1997.96L763.813 1994.84C770.054 1992.76 774.695 1988.65 777.734 1982.52 780.774 1976.39 782.294 1968.59 782.294 1959.14 782.294 1950.01 780.781 1942.42 777.754 1936.38 774.728 1930.34 770.041 1926.28 763.691 1924.2Z" fill-rule="evenodd"/><text fill="#000000" fill-opacity="0" font-family="Arial,Arial_MSFontService,sans-serif" font-size="76.8804" x="763.691" y="1988.35">)</text><path d="M1530.24 587.485 1532.17 593.011C1520.98 596.696 1512.69 603.886 1507.3 614.581 1501.92 625.275 1499.23 638.71 1499.23 654.884 1499.23 671.632 1501.92 685.437 1507.3 696.299 1512.69 707.161 1520.91 714.435 1531.96 718.119L1530.24 723.646C1516.22 719.962 1505.47 712.03 1498.01 699.852 1490.54 687.674 1486.81 672.924 1486.81 655.601 1486.81 638.327 1490.56 623.577 1498.04 611.351 1505.53 599.125 1516.26 591.169 1530.24 587.485Z" fill-rule="evenodd"/><text fill="#000000" fill-opacity="0" font-family="Arial,Arial_MSFontService,sans-serif" font-size="136.162" x="1486.81" y="706.626">(</text><path d="M1580.99 592.078 1584.94 592.078C1584.65 596.672 1584.51 603.036 1584.51 611.171L1584.51 672.469C1584.51 675.244 1584.66 677.338 1584.97 678.75 1585.28 680.161 1585.83 681.31 1586.62 682.195 1587.41 683.08 1588.55 683.774 1590.03 684.276 1591.52 684.779 1593.38 685.162 1595.63 685.425 1597.88 685.688 1600.85 685.867 1604.53 685.963L1604.53 691.203 1551.49 691.203 1551.49 685.963C1556.8 685.724 1560.59 685.401 1562.86 684.994 1565.14 684.587 1566.87 683.977 1568.07 683.164 1569.27 682.35 1570.14 681.202 1570.69 679.719 1571.24 678.235 1571.51 675.819 1571.51 672.469L1571.51 614.258C1571.51 612.344 1571.18 610.944 1570.51 610.059 1569.84 609.173 1568.86 608.731 1567.57 608.731 1566.04 608.731 1563.86 609.52 1561.03 611.099 1558.21 612.678 1554.72 614.856 1550.56 617.631L1547.4 612.104Z" fill-rule="evenodd"/><text fill="#000000" fill-opacity="0" font-family="Arial,Arial_MSFontService,sans-serif" font-size="99.1245" x="1547.4" y="678.812">1</text><path d="M1625.59 674.551 1638.15 674.551C1638.82 677.9 1639.16 681.202 1639.16 684.456 1639.16 687.805 1638.58 690.868 1637.44 693.643 1636.29 696.419 1634.46 699.182 1631.95 701.934 1629.43 704.685 1625.98 707.712 1621.57 711.013L1617.7 706.635C1620.14 704.338 1621.91 702.269 1623.01 700.426 1624.11 698.584 1624.9 696.49 1625.38 694.146 1625.86 691.801 1626.1 688.858 1626.1 685.317 1626.1 681.68 1625.93 678.092 1625.59 674.551Z" fill-rule="evenodd"/><text fill="#000000" fill-opacity="0" font-family="Arial,Arial_MSFontService,sans-serif" font-size="36.4629" x="1617.7" y="706.456">,</text><path d="M1692.71 592.078 1696.66 592.078C1696.37 596.672 1696.22 603.036 1696.22 611.171L1696.22 672.469C1696.22 675.244 1696.38 677.338 1696.69 678.75 1697 680.161 1697.55 681.31 1698.34 682.195 1699.13 683.08 1700.27 683.774 1701.75 684.276 1703.23 684.779 1705.1 685.162 1707.35 685.425 1709.6 685.688 1712.57 685.867 1716.25 685.963L1716.25 691.203 1663.21 691.203 1663.21 685.963C1668.52 685.724 1672.31 685.401 1674.58 684.994 1676.86 684.587 1678.59 683.977 1679.79 683.164 1680.98 682.35 1681.86 681.202 1682.41 679.719 1682.96 678.235 1683.23 675.819 1683.23 672.469L1683.23 614.258C1683.23 612.344 1682.9 610.944 1682.23 610.059 1681.56 609.173 1680.58 608.731 1679.29 608.731 1677.75 608.731 1675.58 609.52 1672.75 611.099 1669.93 612.678 1666.44 614.856 1662.27 617.631L1659.12 612.104Z" fill-rule="evenodd"/><text fill="#000000" fill-opacity="0" font-family="Arial,Arial_MSFontService,sans-serif" font-size="99.1245" x="1659.12" y="678.812">1</text><path d="M1732.36 587.485C1746.33 591.169 1757.06 599.125 1764.55 611.351 1772.04 623.577 1775.78 638.327 1775.78 655.601 1775.78 672.924 1772.05 687.674 1764.59 699.852 1757.12 712.03 1746.38 719.962 1732.36 723.646L1730.64 718.119C1741.69 714.435 1749.91 707.161 1755.29 696.299 1760.68 685.437 1763.37 671.632 1763.37 654.884 1763.37 638.71 1760.69 625.275 1755.33 614.581 1749.97 603.886 1741.67 596.696 1730.42 593.011Z" fill-rule="evenodd"/><text fill="#000000" fill-opacity="0" font-family="Arial,Arial_MSFontService,sans-serif" font-size="136.162" x="1730.42" y="706.626">)</text><path d="M1914.38 587.485 1916.32 593.011C1905.12 596.696 1896.83 603.886 1891.45 614.581 1886.07 625.275 1883.38 638.71 1883.38 654.884 1883.38 671.632 1886.07 685.437 1891.45 696.299 1896.83 707.161 1905.05 714.435 1916.11 718.119L1914.38 723.646C1900.36 719.962 1889.62 712.03 1882.16 699.852 1874.69 687.674 1870.96 672.924 1870.96 655.601 1870.96 638.327 1874.7 623.577 1882.19 611.351 1889.68 599.125 1900.41 591.169 1914.38 587.485Z" fill-rule="evenodd"/><text fill="#000000" fill-opacity="0" font-family="Arial,Arial_MSFontService,sans-serif" font-size="136.162" x="1870.96" y="706.626">(</text><path d="M1965.14 592.078 1969.08 592.078C1968.8 596.672 1968.65 603.036 1968.65 611.171L1968.65 672.469C1968.65 675.244 1968.81 677.338 1969.12 678.75 1969.43 680.161 1969.98 681.31 1970.77 682.195 1971.56 683.08 1972.7 683.774 1974.18 684.276 1975.66 684.779 1977.53 685.162 1979.78 685.425 1982.03 685.688 1984.99 685.867 1988.68 685.963L1988.68 691.203 1935.64 691.203 1935.64 685.963C1940.95 685.724 1944.74 685.401 1947.01 684.994 1949.29 684.587 1951.02 683.977 1952.22 683.164 1953.41 682.35 1954.29 681.202 1954.84 679.719 1955.39 678.235 1955.66 675.819 1955.66 672.469L1955.66 614.258C1955.66 612.344 1955.33 610.944 1954.66 610.059 1953.99 609.173 1953.01 608.731 1951.71 608.731 1950.18 608.731 1948.01 609.52 1945.18 611.099 1942.36 612.678 1938.87 614.856 1934.7 617.631L1931.54 612.104Z" fill-rule="evenodd"/><text fill="#000000" fill-opacity="0" font-family="Arial,Arial_MSFontService,sans-serif" font-size="99.1245" x="1931.54" y="678.812">1</text><path d="M2009.74 674.551 2022.3 674.551C2022.97 677.9 2023.31 681.202 2023.31 684.456 2023.31 687.805 2022.73 690.868 2021.58 693.643 2020.43 696.419 2018.6 699.182 2016.09 701.934 2013.58 704.685 2010.12 707.712 2005.72 711.013L2001.84 706.635C2004.28 704.338 2006.06 702.269 2007.16 700.426 2008.26 698.584 2009.05 696.49 2009.52 694.146 2010 691.801 2010.24 688.858 2010.24 685.317 2010.24 681.68 2010.07 678.092 2009.74 674.551Z" fill-rule="evenodd"/><text fill="#000000" fill-opacity="0" font-family="Arial,Arial_MSFontService,sans-serif" font-size="36.4629" x="2001.84" y="706.456">,</text><path d="M2071.76 592.078C2080.66 592.078 2087.38 594.028 2091.93 597.928 2096.47 601.828 2098.75 607.487 2098.75 614.904 2098.75 617.44 2098.5 619.772 2097.99 621.902 2097.49 624.031 2096.7 626.137 2095.62 628.218 2094.55 630.3 2093.1 632.537 2091.28 634.929 2089.46 637.322 2087.45 639.75 2085.25 642.215 2083.05 644.679 2079.25 648.782 2073.84 654.525 2064.75 664.143 2058.07 672.541 2053.81 679.719L2080.87 679.719C2083.22 679.719 2085.11 679.575 2086.54 679.288 2087.98 679.001 2089.13 678.522 2089.99 677.852 2090.85 677.182 2091.53 676.309 2092.04 675.232 2092.54 674.156 2093.17 672.493 2093.94 670.244L2100.04 670.244 2098.82 691.203 2039.75 691.203 2039.75 687.758C2041.8 682.733 2044.58 677.589 2048.07 672.325 2051.56 667.062 2056.52 660.865 2062.93 653.735 2068.48 647.61 2072.48 642.969 2074.92 639.81 2077.6 636.365 2079.59 633.386 2080.91 630.874 2082.23 628.362 2083.17 625.993 2083.75 623.768 2084.32 621.543 2084.61 619.306 2084.61 617.057 2084.61 613.468 2084.03 610.298 2082.88 607.546 2081.74 604.795 2079.98 602.63 2077.61 601.051 2075.24 599.471 2072.26 598.682 2068.67 598.682 2059.72 598.682 2053.69 603.658 2050.58 613.612L2041.9 613.612 2041.9 599.83C2047.69 597.103 2053.11 595.129 2058.16 593.909 2063.2 592.688 2067.74 592.078 2071.76 592.078Z" fill-rule="evenodd"/><text fill="#000000" fill-opacity="0" font-family="Arial,Arial_MSFontService,sans-serif" font-size="99.1245" x="2039.75" y="678.812">2</text><path d="M2116.51 587.485C2130.48 591.169 2141.21 599.125 2148.7 611.351 2156.19 623.577 2159.93 638.327 2159.93 655.601 2159.93 672.924 2156.2 687.674 2148.73 699.852 2141.27 712.03 2130.53 719.962 2116.51 723.646L2114.78 718.119C2125.84 714.435 2134.06 707.161 2139.44 696.299 2144.82 685.437 2147.51 671.632 2147.51 654.884 2147.51 638.71 2144.83 625.275 2139.47 614.581 2134.12 603.886 2125.81 596.696 2114.57 593.011Z" fill-rule="evenodd"/><text fill="#000000" fill-opacity="0" font-family="Arial,Arial_MSFontService,sans-serif" font-size="136.162" x="2114.57" y="706.626">)</text><path d="M2298.53 587.485 2300.47 593.011C2289.27 596.696 2280.98 603.886 2275.6 614.581 2270.21 625.275 2267.52 638.71 2267.52 654.884 2267.52 671.632 2270.21 685.437 2275.6 696.299 2280.98 707.161 2289.2 714.435 2300.25 718.119L2298.53 723.646C2284.51 719.962 2273.77 712.03 2266.3 699.852 2258.84 687.674 2255.11 672.924 2255.11 655.601 2255.11 638.327 2258.85 623.577 2266.34 611.351 2273.83 599.125 2284.56 591.169 2298.53 587.485Z" fill-rule="evenodd"/><text fill="#000000" fill-opacity="0" font-family="Arial,Arial_MSFontService,sans-serif" font-size="136.162" x="2255.11" y="706.626">(</text><path d="M2349.28 592.078 2353.23 592.078C2352.94 596.672 2352.8 603.036 2352.8 611.171L2352.8 672.469C2352.8 675.244 2352.96 677.338 2353.27 678.75 2353.58 680.161 2354.13 681.31 2354.92 682.195 2355.71 683.08 2356.84 683.774 2358.33 684.276 2359.81 684.779 2361.68 685.162 2363.93 685.425 2366.17 685.688 2369.14 685.867 2372.83 685.963L2372.83 691.203 2319.78 691.203 2319.78 685.963C2325.09 685.724 2328.89 685.401 2331.16 684.994 2333.43 684.587 2335.17 683.977 2336.36 683.164 2337.56 682.35 2338.43 681.202 2338.98 679.719 2339.53 678.235 2339.81 675.819 2339.81 672.469L2339.81 614.258C2339.81 612.344 2339.47 610.944 2338.8 610.059 2338.13 609.173 2337.15 608.731 2335.86 608.731 2334.33 608.731 2332.15 609.52 2329.33 611.099 2326.51 612.678 2323.01 614.856 2318.85 617.631L2315.69 612.104Z" fill-rule="evenodd"/><text fill="#000000" fill-opacity="0" font-family="Arial,Arial_MSFontService,sans-serif" font-size="99.1245" x="2315.69" y="678.812">1</text><path d="M2393.89 674.551 2406.45 674.551C2407.12 677.9 2407.45 681.202 2407.45 684.456 2407.45 687.805 2406.88 690.868 2405.73 693.643 2404.58 696.419 2402.75 699.182 2400.24 701.934 2397.73 704.685 2394.27 707.712 2389.87 711.013L2385.99 706.635C2388.43 704.338 2390.2 702.269 2391.3 700.426 2392.4 698.584 2393.19 696.49 2393.67 694.146 2394.15 691.801 2394.39 688.858 2394.39 685.317 2394.39 681.68 2394.22 678.092 2393.89 674.551Z" fill-rule="evenodd"/><text fill="#000000" fill-opacity="0" font-family="Arial,Arial_MSFontService,sans-serif" font-size="36.4629" x="2385.99" y="706.456">,</text><path d="M2455.62 592.078C2461.03 592.078 2465.76 592.916 2469.83 594.591 2473.9 596.265 2477.01 598.67 2479.16 601.804 2481.31 604.938 2482.39 608.683 2482.39 613.037 2482.39 617.105 2481.58 620.682 2479.95 623.768 2478.32 626.854 2476.04 629.546 2473.1 631.843 2470.15 634.14 2466.34 636.389 2461.65 638.59L2461.65 639.236C2464.57 639.762 2467.38 640.66 2470.08 641.928 2472.79 643.196 2475.19 644.835 2477.3 646.844 2479.4 648.854 2481.09 651.259 2482.36 654.058 2483.62 656.857 2484.26 660.052 2484.26 663.64 2484.26 669.191 2483.05 674.12 2480.63 678.427 2478.22 682.733 2474.52 686.131 2469.54 688.619 2464.57 691.107 2458.51 692.351 2451.38 692.351 2447.27 692.351 2442.83 691.885 2438.07 690.952 2433.31 690.019 2428.94 688.786 2424.97 687.255L2424.97 672.038 2433.58 672.038C2435.26 677.015 2437.47 680.628 2440.22 682.877 2442.97 685.126 2446.72 686.25 2451.46 686.25 2457.68 686.25 2462.38 684.552 2465.56 681.154 2468.74 677.757 2470.33 672.732 2470.33 666.081 2470.33 659.094 2468.23 653.759 2464.02 650.074 2459.81 646.39 2453.63 644.548 2445.5 644.548L2439.04 644.548 2439.04 638.231C2445.5 637.848 2450.94 636.604 2455.37 634.499 2459.79 632.393 2463.08 629.69 2465.24 626.388 2467.39 623.086 2468.47 619.378 2468.47 615.262 2468.47 609.951 2467.05 605.86 2464.23 602.989 2461.41 600.117 2457.29 598.682 2451.89 598.682 2447.39 598.682 2443.73 599.902 2440.9 602.343 2438.08 604.783 2436 608.515 2434.66 613.54L2426.05 613.54 2426.05 599.902C2431.6 597.27 2436.79 595.308 2441.62 594.016 2446.45 592.724 2451.12 592.078 2455.62 592.078Z" fill-rule="evenodd"/><text fill="#000000" fill-opacity="0" font-family="Arial,Arial_MSFontService,sans-serif" font-size="100.273" x="2424.97" y="679.817">3</text><path d="M2500.65 587.485C2514.63 591.169 2525.36 599.125 2532.85 611.351 2540.33 623.577 2544.08 638.327 2544.08 655.601 2544.08 672.924 2540.35 687.674 2532.88 699.852 2525.42 712.03 2514.67 719.962 2500.65 723.646L2498.93 718.119C2509.98 714.435 2518.2 707.161 2523.59 696.299 2528.97 685.437 2531.66 671.632 2531.66 654.884 2531.66 638.71 2528.98 625.275 2523.62 614.581 2518.26 603.886 2509.96 596.696 2498.72 593.011Z" fill-rule="evenodd"/><text fill="#000000" fill-opacity="0" font-family="Arial,Arial_MSFontService,sans-serif" font-size="136.162" x="2498.72" y="706.626">)</text><path d="M2682.68 587.485 2684.62 593.011C2673.42 596.696 2665.13 603.886 2659.75 614.581 2654.36 625.275 2651.67 638.71 2651.67 654.884 2651.67 671.632 2654.36 685.437 2659.75 696.299 2665.13 707.161 2673.35 714.435 2684.4 718.119L2682.68 723.646C2668.66 719.962 2657.92 712.03 2650.45 699.852 2642.99 687.674 2639.25 672.924 2639.25 655.601 2639.25 638.327 2643 623.577 2650.49 611.351 2657.98 599.125 2668.71 591.169 2682.68 587.485Z" fill-rule="evenodd"/><text fill="#000000" fill-opacity="0" font-family="Arial,Arial_MSFontService,sans-serif" font-size="136.162" x="2639.25" y="706.626">(</text><path d="M2733.43 592.078 2737.38 592.078C2737.09 596.672 2736.95 603.036 2736.95 611.171L2736.95 672.469C2736.95 675.244 2737.1 677.338 2737.41 678.75 2737.73 680.161 2738.28 681.31 2739.07 682.195 2739.85 683.08 2740.99 683.774 2742.47 684.276 2743.96 684.779 2745.82 685.162 2748.07 685.425 2750.32 685.688 2753.29 685.867 2756.97 685.963L2756.97 691.203 2703.93 691.203 2703.93 685.963C2709.24 685.724 2713.03 685.401 2715.31 684.994 2717.58 684.587 2719.31 683.977 2720.51 683.164 2721.71 682.35 2722.58 681.202 2723.13 679.719 2723.68 678.235 2723.96 675.819 2723.96 672.469L2723.96 614.258C2723.96 612.344 2723.62 610.944 2722.95 610.059 2722.28 609.173 2721.3 608.731 2720.01 608.731 2718.48 608.731 2716.3 609.52 2713.48 611.099 2710.65 612.678 2707.16 614.856 2703 617.631L2699.84 612.104Z" fill-rule="evenodd"/><text fill="#000000" fill-opacity="0" font-family="Arial,Arial_MSFontService,sans-serif" font-size="99.1245" x="2699.84" y="678.812">1</text><path d="M2778.03 674.551 2790.6 674.551C2791.27 677.9 2791.6 681.202 2791.6 684.456 2791.6 687.805 2791.03 690.868 2789.88 693.643 2788.73 696.419 2786.9 699.182 2784.39 701.934 2781.87 704.685 2778.42 707.712 2774.02 711.013L2770.14 706.635C2772.58 704.338 2774.35 702.269 2775.45 700.426 2776.55 698.584 2777.34 696.49 2777.82 694.146 2778.3 691.801 2778.54 688.858 2778.54 685.317 2778.54 681.68 2778.37 678.092 2778.03 674.551Z" fill-rule="evenodd"/><text fill="#000000" fill-opacity="0" font-family="Arial,Arial_MSFontService,sans-serif" font-size="36.4629" x="2770.14" y="706.456">,</text><path d="M2844.22 608.946 2816.15 653.52 2816.15 654.525 2844.22 654.525 2844.22 636.652C2844.22 632.154 2844.29 627.118 2844.43 621.543 2844.58 615.968 2844.74 611.769 2844.93 608.946ZM2846.3 592.724 2856.56 592.724 2856.56 654.525 2858.07 654.525C2860.84 654.525 2862.83 654.321 2864.03 653.915 2865.22 653.508 2866.22 652.79 2867.01 651.761 2867.8 650.732 2868.52 649.046 2869.19 646.701L2874.65 646.701 2873.79 661.487 2856.56 661.487 2856.56 673.259C2856.56 676.465 2856.67 678.809 2856.89 680.293 2857.1 681.776 2857.46 682.948 2857.96 683.81 2858.46 684.671 2859.21 685.389 2860.19 685.963 2861.17 686.537 2862.76 687.112 2864.96 687.686L2864.96 691.203 2835.82 691.203 2835.82 687.686C2838.79 686.92 2840.77 686.071 2841.78 685.138 2842.78 684.205 2843.44 682.877 2843.75 681.154 2844.06 679.431 2844.22 676.8 2844.22 673.259L2844.22 661.487 2804.31 661.487 2804.31 656.104Z" fill-rule="evenodd"/><text fill="#000000" fill-opacity="0" font-family="Arial,Arial_MSFontService,sans-serif" font-size="98.4785" x="2804.31" y="678.893">4</text><path d="M2884.8 587.485C2898.77 591.169 2909.5 599.125 2916.99 611.351 2924.48 623.577 2928.23 638.327 2928.23 655.601 2928.23 672.924 2924.49 687.674 2917.03 699.852 2909.56 712.03 2898.82 719.962 2884.8 723.646L2883.08 718.119C2894.13 714.435 2902.35 707.161 2907.73 696.299 2913.12 685.437 2915.81 671.632 2915.81 654.884 2915.81 638.71 2913.13 625.275 2907.77 614.581 2902.41 603.886 2894.11 596.696 2882.86 593.011Z" fill-rule="evenodd"/><text fill="#000000" fill-opacity="0" font-family="Arial,Arial_MSFontService,sans-serif" font-size="136.162" x="2882.86" y="706.626">)</text><path d="M1530.24 982.484 1532.17 988.01C1520.98 991.695 1512.69 998.885 1507.3 1009.58 1501.92 1020.27 1499.23 1033.71 1499.23 1049.88 1499.23 1066.63 1501.92 1080.44 1507.3 1091.3 1512.69 1102.16 1520.91 1109.43 1531.96 1113.12L1530.24 1118.65C1516.22 1114.96 1505.47 1107.03 1498.01 1094.85 1490.54 1082.67 1486.81 1067.92 1486.81 1050.6 1486.81 1033.33 1490.56 1018.58 1498.04 1006.35 1505.53 994.123 1516.26 986.168 1530.24 982.484Z" fill-rule="evenodd"/><text fill="#000000" fill-opacity="0" font-family="Arial,Arial_MSFontService,sans-serif" font-size="136.162" x="1486.81" y="1101.62">(</text><path d="M1575.89 987.077C1584.79 987.077 1591.52 989.027 1596.06 992.927 1600.61 996.827 1602.88 1002.49 1602.88 1009.9 1602.88 1012.44 1602.63 1014.77 1602.13 1016.9 1601.62 1019.03 1600.84 1021.14 1599.76 1023.22 1598.68 1025.3 1597.23 1027.54 1595.42 1029.93 1593.6 1032.32 1591.59 1034.75 1589.39 1037.21 1587.19 1039.68 1583.38 1043.78 1577.97 1049.52 1568.88 1059.14 1562.21 1067.54 1557.95 1074.72L1585.01 1074.72C1587.35 1074.72 1589.24 1074.57 1590.68 1074.29 1592.11 1074 1593.26 1073.52 1594.12 1072.85 1594.99 1072.18 1595.67 1071.31 1596.17 1070.23 1596.67 1069.15 1597.31 1067.49 1598.07 1065.24L1604.17 1065.24 1602.95 1086.2 1543.88 1086.2 1543.88 1082.76C1545.94 1077.73 1548.71 1072.59 1552.21 1067.32 1555.7 1062.06 1560.65 1055.86 1567.06 1048.73 1572.61 1042.61 1576.61 1037.97 1579.05 1034.81 1581.73 1031.36 1583.73 1028.39 1585.04 1025.87 1586.36 1023.36 1587.31 1020.99 1587.88 1018.77 1588.45 1016.54 1588.74 1014.3 1588.74 1012.06 1588.74 1008.47 1588.17 1005.3 1587.02 1002.55 1585.87 999.794 1584.11 997.629 1581.74 996.049 1579.37 994.47 1576.39 993.681 1572.81 993.681 1563.86 993.681 1557.83 998.657 1554.72 1008.61L1546.03 1008.61 1546.03 994.829C1551.82 992.102 1557.24 990.128 1562.29 988.908 1567.34 987.687 1571.87 987.077 1575.89 987.077Z" fill-rule="evenodd"/><text fill="#000000" fill-opacity="0" font-family="Arial,Arial_MSFontService,sans-serif" font-size="99.1245" x="1543.88" y="1073.81">2</text><path d="M1625.59 1069.55 1638.15 1069.55C1638.82 1072.9 1639.16 1076.2 1639.16 1079.45 1639.16 1082.8 1638.58 1085.87 1637.44 1088.64 1636.29 1091.42 1634.46 1094.18 1631.95 1096.93 1629.43 1099.68 1625.98 1102.71 1621.57 1106.01L1617.7 1101.63C1620.14 1099.34 1621.91 1097.27 1623.01 1095.43 1624.11 1093.58 1624.9 1091.49 1625.38 1089.14 1625.86 1086.8 1626.1 1083.86 1626.1 1080.32 1626.1 1076.68 1625.93 1073.09 1625.59 1069.55Z" fill-rule="evenodd"/><text fill="#000000" fill-opacity="0" font-family="Arial,Arial_MSFontService,sans-serif" font-size="36.4629" x="1617.7" y="1101.45">,</text><path d="M1692.71 987.077 1696.66 987.077C1696.37 991.671 1696.22 998.035 1696.22 1006.17L1696.22 1067.47C1696.22 1070.24 1696.38 1072.34 1696.69 1073.75 1697 1075.16 1697.55 1076.31 1698.34 1077.19 1699.13 1078.08 1700.27 1078.77 1701.75 1079.28 1703.23 1079.78 1705.1 1080.16 1707.35 1080.42 1709.6 1080.69 1712.57 1080.87 1716.25 1080.96L1716.25 1086.2 1663.21 1086.2 1663.21 1080.96C1668.52 1080.72 1672.31 1080.4 1674.58 1079.99 1676.86 1079.59 1678.59 1078.98 1679.79 1078.16 1680.98 1077.35 1681.86 1076.2 1682.41 1074.72 1682.96 1073.23 1683.23 1070.82 1683.23 1067.47L1683.23 1009.26C1683.23 1007.34 1682.9 1005.94 1682.23 1005.06 1681.56 1004.17 1680.58 1003.73 1679.29 1003.73 1677.75 1003.73 1675.58 1004.52 1672.75 1006.1 1669.93 1007.68 1666.44 1009.85 1662.27 1012.63L1659.12 1007.1Z" fill-rule="evenodd"/><text fill="#000000" fill-opacity="0" font-family="Arial,Arial_MSFontService,sans-serif" font-size="99.1245" x="1659.12" y="1073.81">1</text><path d="M1732.36 982.484C1746.33 986.168 1757.06 994.123 1764.55 1006.35 1772.04 1018.58 1775.78 1033.33 1775.78 1050.6 1775.78 1067.92 1772.05 1082.67 1764.59 1094.85 1757.12 1107.03 1746.38 1114.96 1732.36 1118.65L1730.64 1113.12C1741.69 1109.43 1749.91 1102.16 1755.29 1091.3 1760.68 1080.44 1763.37 1066.63 1763.37 1049.88 1763.37 1033.71 1760.69 1020.27 1755.33 1009.58 1749.97 998.885 1741.67 991.695 1730.42 988.01Z" fill-rule="evenodd"/><text fill="#000000" fill-opacity="0" font-family="Arial,Arial_MSFontService,sans-serif" font-size="136.162" x="1730.42" y="1101.62">)</text><path d="M1914.38 982.484 1916.32 988.01C1905.12 991.695 1896.83 998.885 1891.45 1009.58 1886.07 1020.27 1883.38 1033.71 1883.38 1049.88 1883.38 1066.63 1886.07 1080.44 1891.45 1091.3 1896.83 1102.16 1905.05 1109.43 1916.11 1113.12L1914.38 1118.65C1900.36 1114.96 1889.62 1107.03 1882.16 1094.85 1874.69 1082.67 1870.96 1067.92 1870.96 1050.6 1870.96 1033.33 1874.7 1018.58 1882.19 1006.35 1889.68 994.123 1900.41 986.168 1914.38 982.484Z" fill-rule="evenodd"/><text fill="#000000" fill-opacity="0" font-family="Arial,Arial_MSFontService,sans-serif" font-size="136.162" x="1870.96" y="1101.62">(</text><path d="M1960.04 987.077C1968.94 987.077 1975.66 989.027 1980.21 992.927 1984.76 996.827 1987.03 1002.49 1987.03 1009.9 1987.03 1012.44 1986.78 1014.77 1986.27 1016.9 1985.77 1019.03 1984.98 1021.14 1983.91 1023.22 1982.83 1025.3 1981.38 1027.54 1979.56 1029.93 1977.74 1032.32 1975.73 1034.75 1973.53 1037.21 1971.33 1039.68 1967.53 1043.78 1962.12 1049.52 1953.03 1059.14 1946.35 1067.54 1942.1 1074.72L1969.16 1074.72C1971.5 1074.72 1973.39 1074.57 1974.83 1074.29 1976.26 1074 1977.41 1073.52 1978.27 1072.85 1979.13 1072.18 1979.81 1071.31 1980.32 1070.23 1980.82 1069.15 1981.45 1067.49 1982.22 1065.24L1988.32 1065.24 1987.1 1086.2 1928.03 1086.2 1928.03 1082.76C1930.08 1077.73 1932.86 1072.59 1936.35 1067.32 1939.85 1062.06 1944.8 1055.86 1951.21 1048.73 1956.76 1042.61 1960.76 1037.97 1963.2 1034.81 1965.88 1031.36 1967.88 1028.39 1969.19 1025.87 1970.51 1023.36 1971.45 1020.99 1972.03 1018.77 1972.6 1016.54 1972.89 1014.3 1972.89 1012.06 1972.89 1008.47 1972.31 1005.3 1971.17 1002.55 1970.02 999.794 1968.26 997.629 1965.89 996.049 1963.52 994.47 1960.54 993.681 1956.95 993.681 1948.01 993.681 1941.98 998.657 1938.87 1008.61L1930.18 1008.61 1930.18 994.829C1935.97 992.102 1941.39 990.128 1946.44 988.908 1951.49 987.687 1956.02 987.077 1960.04 987.077Z" fill-rule="evenodd"/><text fill="#000000" fill-opacity="0" font-family="Arial,Arial_MSFontService,sans-serif" font-size="99.1245" x="1928.03" y="1073.81">2</text><path d="M2009.74 1069.55 2022.3 1069.55C2022.97 1072.9 2023.31 1076.2 2023.31 1079.45 2023.31 1082.8 2022.73 1085.87 2021.58 1088.64 2020.43 1091.42 2018.6 1094.18 2016.09 1096.93 2013.58 1099.68 2010.12 1102.71 2005.72 1106.01L2001.84 1101.63C2004.28 1099.34 2006.06 1097.27 2007.16 1095.43 2008.26 1093.58 2009.05 1091.49 2009.52 1089.14 2010 1086.8 2010.24 1083.86 2010.24 1080.32 2010.24 1076.68 2010.07 1073.09 2009.74 1069.55Z" fill-rule="evenodd"/><text fill="#000000" fill-opacity="0" font-family="Arial,Arial_MSFontService,sans-serif" font-size="36.4629" x="2001.84" y="1101.45">,</text><path d="M2071.76 987.077C2080.66 987.077 2087.38 989.027 2091.93 992.927 2096.47 996.827 2098.75 1002.49 2098.75 1009.9 2098.75 1012.44 2098.5 1014.77 2097.99 1016.9 2097.49 1019.03 2096.7 1021.14 2095.62 1023.22 2094.55 1025.3 2093.1 1027.54 2091.28 1029.93 2089.46 1032.32 2087.45 1034.75 2085.25 1037.21 2083.05 1039.68 2079.25 1043.78 2073.84 1049.52 2064.75 1059.14 2058.07 1067.54 2053.81 1074.72L2080.87 1074.72C2083.22 1074.72 2085.11 1074.57 2086.54 1074.29 2087.98 1074 2089.13 1073.52 2089.99 1072.85 2090.85 1072.18 2091.53 1071.31 2092.04 1070.23 2092.54 1069.15 2093.17 1067.49 2093.94 1065.24L2100.04 1065.24 2098.82 1086.2 2039.75 1086.2 2039.75 1082.76C2041.8 1077.73 2044.58 1072.59 2048.07 1067.32 2051.56 1062.06 2056.52 1055.86 2062.93 1048.73 2068.48 1042.61 2072.48 1037.97 2074.92 1034.81 2077.6 1031.36 2079.59 1028.39 2080.91 1025.87 2082.23 1023.36 2083.17 1020.99 2083.75 1018.77 2084.32 1016.54 2084.61 1014.3 2084.61 1012.06 2084.61 1008.47 2084.03 1005.3 2082.88 1002.55 2081.74 999.794 2079.98 997.629 2077.61 996.049 2075.24 994.47 2072.26 993.681 2068.67 993.681 2059.72 993.681 2053.69 998.657 2050.58 1008.61L2041.9 1008.61 2041.9 994.829C2047.69 992.102 2053.11 990.128 2058.16 988.908 2063.2 987.687 2067.74 987.077 2071.76 987.077Z" fill-rule="evenodd"/><text fill="#000000" fill-opacity="0" font-family="Arial,Arial_MSFontService,sans-serif" font-size="99.1245" x="2039.75" y="1073.81">2</text><path d="M2116.51 982.484C2130.48 986.168 2141.21 994.123 2148.7 1006.35 2156.19 1018.58 2159.93 1033.33 2159.93 1050.6 2159.93 1067.92 2156.2 1082.67 2148.73 1094.85 2141.27 1107.03 2130.53 1114.96 2116.51 1118.65L2114.78 1113.12C2125.84 1109.43 2134.06 1102.16 2139.44 1091.3 2144.82 1080.44 2147.51 1066.63 2147.51 1049.88 2147.51 1033.71 2144.83 1020.27 2139.47 1009.58 2134.12 998.885 2125.81 991.695 2114.57 988.01Z" fill-rule="evenodd"/><text fill="#000000" fill-opacity="0" font-family="Arial,Arial_MSFontService,sans-serif" font-size="136.162" x="2114.57" y="1101.62">)</text><path d="M2298.53 982.484 2300.47 988.01C2289.27 991.695 2280.98 998.885 2275.6 1009.58 2270.21 1020.27 2267.52 1033.71 2267.52 1049.88 2267.52 1066.63 2270.21 1080.44 2275.6 1091.3 2280.98 1102.16 2289.2 1109.43 2300.25 1113.12L2298.53 1118.65C2284.51 1114.96 2273.77 1107.03 2266.3 1094.85 2258.84 1082.67 2255.11 1067.92 2255.11 1050.6 2255.11 1033.33 2258.85 1018.58 2266.34 1006.35 2273.83 994.123 2284.56 986.168 2298.53 982.484Z" fill-rule="evenodd"/><text fill="#000000" fill-opacity="0" font-family="Arial,Arial_MSFontService,sans-serif" font-size="136.162" x="2255.11" y="1101.62">(</text><path d="M2344.19 987.077C2353.09 987.077 2359.81 989.027 2364.36 992.927 2368.9 996.827 2371.18 1002.49 2371.18 1009.9 2371.18 1012.44 2370.92 1014.77 2370.42 1016.9 2369.92 1019.03 2369.13 1021.14 2368.05 1023.22 2366.98 1025.3 2365.53 1027.54 2363.71 1029.93 2361.89 1032.32 2359.88 1034.75 2357.68 1037.21 2355.48 1039.68 2351.68 1043.78 2346.27 1049.52 2337.18 1059.14 2330.5 1067.54 2326.24 1074.72L2353.3 1074.72C2355.65 1074.72 2357.54 1074.57 2358.97 1074.29 2360.41 1074 2361.56 1073.52 2362.42 1072.85 2363.28 1072.18 2363.96 1071.31 2364.46 1070.23 2364.97 1069.15 2365.6 1067.49 2366.37 1065.24L2372.47 1065.24 2371.25 1086.2 2312.17 1086.2 2312.17 1082.76C2314.23 1077.73 2317.01 1072.59 2320.5 1067.32 2323.99 1062.06 2328.95 1055.86 2335.36 1048.73 2340.91 1042.61 2344.9 1037.97 2347.34 1034.81 2350.02 1031.36 2352.02 1028.39 2353.34 1025.87 2354.65 1023.36 2355.6 1020.99 2356.17 1018.77 2356.75 1016.54 2357.03 1014.3 2357.03 1012.06 2357.03 1008.47 2356.46 1005.3 2355.31 1002.55 2354.16 999.794 2352.41 997.629 2350.04 996.049 2347.67 994.47 2344.69 993.681 2341.1 993.681 2332.15 993.681 2326.12 998.657 2323.01 1008.61L2314.33 1008.61 2314.33 994.829C2320.12 992.102 2325.54 990.128 2330.58 988.908 2335.63 987.687 2340.17 987.077 2344.19 987.077Z" fill-rule="evenodd"/><text fill="#000000" fill-opacity="0" font-family="Arial,Arial_MSFontService,sans-serif" font-size="99.1245" x="2312.17" y="1073.81">2</text><path d="M2393.89 1069.55 2406.45 1069.55C2407.12 1072.9 2407.45 1076.2 2407.45 1079.45 2407.45 1082.8 2406.88 1085.87 2405.73 1088.64 2404.58 1091.42 2402.75 1094.18 2400.24 1096.93 2397.73 1099.68 2394.27 1102.71 2389.87 1106.01L2385.99 1101.63C2388.43 1099.34 2390.2 1097.27 2391.3 1095.43 2392.4 1093.58 2393.19 1091.49 2393.67 1089.14 2394.15 1086.8 2394.39 1083.86 2394.39 1080.32 2394.39 1076.68 2394.22 1073.09 2393.89 1069.55Z" fill-rule="evenodd"/><text fill="#000000" fill-opacity="0" font-family="Arial,Arial_MSFontService,sans-serif" font-size="36.4629" x="2385.99" y="1101.45">,</text><path d="M2455.62 987.077C2461.03 987.077 2465.76 987.915 2469.83 989.589 2473.9 991.264 2477.01 993.669 2479.16 996.803 2481.31 999.937 2482.39 1003.68 2482.39 1008.04 2482.39 1012.1 2481.58 1015.68 2479.95 1018.77 2478.32 1021.85 2476.04 1024.55 2473.1 1026.84 2470.15 1029.14 2466.34 1031.39 2461.65 1033.59L2461.65 1034.23C2464.57 1034.76 2467.38 1035.66 2470.08 1036.93 2472.79 1038.19 2475.19 1039.83 2477.3 1041.84 2479.4 1043.85 2481.09 1046.26 2482.36 1049.06 2483.62 1051.86 2484.26 1055.05 2484.26 1058.64 2484.26 1064.19 2483.05 1069.12 2480.63 1073.43 2478.22 1077.73 2474.52 1081.13 2469.54 1083.62 2464.57 1086.11 2458.51 1087.35 2451.38 1087.35 2447.27 1087.35 2442.83 1086.88 2438.07 1085.95 2433.31 1085.02 2428.94 1083.79 2424.97 1082.25L2424.97 1067.04 2433.58 1067.04C2435.26 1072.01 2437.47 1075.63 2440.22 1077.88 2442.97 1080.12 2446.72 1081.25 2451.46 1081.25 2457.68 1081.25 2462.38 1079.55 2465.56 1076.15 2468.74 1072.76 2470.33 1067.73 2470.33 1061.08 2470.33 1054.09 2468.23 1048.76 2464.02 1045.07 2459.81 1041.39 2453.63 1039.55 2445.5 1039.55L2439.04 1039.55 2439.04 1033.23C2445.5 1032.85 2450.94 1031.6 2455.37 1029.5 2459.79 1027.39 2463.08 1024.69 2465.24 1021.39 2467.39 1018.09 2468.47 1014.38 2468.47 1010.26 2468.47 1004.95 2467.05 1000.86 2464.23 997.987 2461.41 995.116 2457.29 993.681 2451.89 993.681 2447.39 993.681 2443.73 994.901 2440.9 997.341 2438.08 999.782 2436 1003.51 2434.66 1008.54L2426.05 1008.54 2426.05 994.901C2431.6 992.269 2436.79 990.307 2441.62 989.015 2446.45 987.723 2451.12 987.077 2455.62 987.077Z" fill-rule="evenodd"/><text fill="#000000" fill-opacity="0" font-family="Arial,Arial_MSFontService,sans-serif" font-size="100.273" x="2424.97" y="1074.82">3</text><path d="M2500.65 982.484C2514.63 986.168 2525.36 994.123 2532.85 1006.35 2540.33 1018.58 2544.08 1033.33 2544.08 1050.6 2544.08 1067.92 2540.35 1082.67 2532.88 1094.85 2525.42 1107.03 2514.67 1114.96 2500.65 1118.65L2498.93 1113.12C2509.98 1109.43 2518.2 1102.16 2523.59 1091.3 2528.97 1080.44 2531.66 1066.63 2531.66 1049.88 2531.66 1033.71 2528.98 1020.27 2523.62 1009.58 2518.26 998.885 2509.96 991.695 2498.72 988.01Z" fill-rule="evenodd"/><text fill="#000000" fill-opacity="0" font-family="Arial,Arial_MSFontService,sans-serif" font-size="136.162" x="2498.72" y="1101.62">)</text><path d="M2682.68 982.484 2684.62 988.01C2673.42 991.695 2665.13 998.885 2659.75 1009.58 2654.36 1020.27 2651.67 1033.71 2651.67 1049.88 2651.67 1066.63 2654.36 1080.44 2659.75 1091.3 2665.13 1102.16 2673.35 1109.43 2684.4 1113.12L2682.68 1118.65C2668.66 1114.96 2657.92 1107.03 2650.45 1094.85 2642.99 1082.67 2639.25 1067.92 2639.25 1050.6 2639.25 1033.33 2643 1018.58 2650.49 1006.35 2657.98 994.123 2668.71 986.168 2682.68 982.484Z" fill-rule="evenodd"/><text fill="#000000" fill-opacity="0" font-family="Arial,Arial_MSFontService,sans-serif" font-size="136.162" x="2639.25" y="1101.62">(</text><path d="M2728.33 987.077C2737.23 987.077 2743.96 989.027 2748.5 992.927 2753.05 996.827 2755.32 1002.49 2755.32 1009.9 2755.32 1012.44 2755.07 1014.77 2754.57 1016.9 2754.07 1019.03 2753.28 1021.14 2752.2 1023.22 2751.12 1025.3 2749.68 1027.54 2747.86 1029.93 2746.04 1032.32 2744.03 1034.75 2741.83 1037.21 2739.63 1039.68 2735.82 1043.78 2730.42 1049.52 2721.32 1059.14 2714.65 1067.54 2710.39 1074.72L2737.45 1074.72C2739.79 1074.72 2741.69 1074.57 2743.12 1074.29 2744.56 1074 2745.7 1073.52 2746.57 1072.85 2747.43 1072.18 2748.11 1071.31 2748.61 1070.23 2749.11 1069.15 2749.75 1067.49 2750.51 1065.24L2756.61 1065.24 2755.39 1086.2 2696.32 1086.2 2696.32 1082.76C2698.38 1077.73 2701.15 1072.59 2704.65 1067.32 2708.14 1062.06 2713.09 1055.86 2719.51 1048.73 2725.06 1042.61 2729.05 1037.97 2731.49 1034.81 2734.17 1031.36 2736.17 1028.39 2737.49 1025.87 2738.8 1023.36 2739.75 1020.99 2740.32 1018.77 2740.9 1016.54 2741.18 1014.3 2741.18 1012.06 2741.18 1008.47 2740.61 1005.3 2739.46 1002.55 2738.31 999.794 2736.55 997.629 2734.18 996.049 2731.82 994.47 2728.84 993.681 2725.25 993.681 2716.3 993.681 2710.27 998.657 2707.16 1008.61L2698.48 1008.61 2698.48 994.829C2704.27 992.102 2709.68 990.128 2714.73 988.908 2719.78 987.687 2724.31 987.077 2728.33 987.077Z" fill-rule="evenodd"/><text fill="#000000" fill-opacity="0" font-family="Arial,Arial_MSFontService,sans-serif" font-size="99.1245" x="2696.32" y="1073.81">2</text><path d="M2778.03 1069.55 2790.6 1069.55C2791.27 1072.9 2791.6 1076.2 2791.6 1079.45 2791.6 1082.8 2791.03 1085.87 2789.88 1088.64 2788.73 1091.42 2786.9 1094.18 2784.39 1096.93 2781.87 1099.68 2778.42 1102.71 2774.02 1106.01L2770.14 1101.63C2772.58 1099.34 2774.35 1097.27 2775.45 1095.43 2776.55 1093.58 2777.34 1091.49 2777.82 1089.14 2778.3 1086.8 2778.54 1083.86 2778.54 1080.32 2778.54 1076.68 2778.37 1073.09 2778.03 1069.55Z" fill-rule="evenodd"/><text fill="#000000" fill-opacity="0" font-family="Arial,Arial_MSFontService,sans-serif" font-size="36.4629" x="2770.14" y="1101.45">,</text><path d="M2844.22 1003.94 2816.15 1048.52 2816.15 1049.52 2844.22 1049.52 2844.22 1031.65C2844.22 1027.15 2844.29 1022.12 2844.43 1016.54 2844.58 1010.97 2844.74 1006.77 2844.93 1003.94ZM2846.3 987.723 2856.56 987.723 2856.56 1049.52 2858.07 1049.52C2860.84 1049.52 2862.83 1049.32 2864.03 1048.91 2865.22 1048.51 2866.22 1047.79 2867.01 1046.76 2867.8 1045.73 2868.52 1044.04 2869.19 1041.7L2874.65 1041.7 2873.79 1056.49 2856.56 1056.49 2856.56 1068.26C2856.56 1071.46 2856.67 1073.81 2856.89 1075.29 2857.1 1076.78 2857.46 1077.95 2857.96 1078.81 2858.46 1079.67 2859.21 1080.39 2860.19 1080.96 2861.17 1081.54 2862.76 1082.11 2864.96 1082.68L2864.96 1086.2 2835.82 1086.2 2835.82 1082.68C2838.79 1081.92 2840.77 1081.07 2841.78 1080.14 2842.78 1079.2 2843.44 1077.88 2843.75 1076.15 2844.06 1074.43 2844.22 1071.8 2844.22 1068.26L2844.22 1056.49 2804.31 1056.49 2804.31 1051.1Z" fill-rule="evenodd"/><text fill="#000000" fill-opacity="0" font-family="Arial,Arial_MSFontService,sans-serif" font-size="98.4785" x="2804.31" y="1073.89">4</text><path d="M2884.8 982.484C2898.77 986.168 2909.5 994.123 2916.99 1006.35 2924.48 1018.58 2928.23 1033.33 2928.23 1050.6 2928.23 1067.92 2924.49 1082.67 2917.03 1094.85 2909.56 1107.03 2898.82 1114.96 2884.8 1118.65L2883.08 1113.12C2894.13 1109.43 2902.35 1102.16 2907.73 1091.3 2913.12 1080.44 2915.81 1066.63 2915.81 1049.88 2915.81 1033.71 2913.13 1020.27 2907.77 1009.58 2902.41 998.885 2894.11 991.695 2882.86 988.01Z" fill-rule="evenodd"/><text fill="#000000" fill-opacity="0" font-family="Arial,Arial_MSFontService,sans-serif" font-size="136.162" x="2882.86" y="1101.62">)</text><path d="M1530.24 1388.18 1532.17 1393.7C1520.98 1397.39 1512.69 1404.58 1507.3 1415.27 1501.92 1425.97 1499.23 1439.4 1499.23 1455.57 1499.23 1472.32 1501.92 1486.13 1507.3 1496.99 1512.69 1507.85 1520.91 1515.13 1531.96 1518.81L1530.24 1524.34C1516.22 1520.65 1505.47 1512.72 1498.01 1500.54 1490.54 1488.36 1486.81 1473.61 1486.81 1456.29 1486.81 1439.02 1490.56 1424.27 1498.04 1412.04 1505.53 1399.82 1516.26 1391.86 1530.24 1388.18Z" fill-rule="evenodd"/><text fill="#000000" fill-opacity="0" font-family="Arial,Arial_MSFontService,sans-serif" font-size="136.162" x="1486.81" y="1507.32">(</text><path d="M1575.61 1392.77C1581.01 1392.77 1585.75 1393.61 1589.82 1395.28 1593.88 1396.96 1596.99 1399.36 1599.15 1402.5 1601.3 1405.63 1602.38 1409.37 1602.38 1413.73 1602.38 1417.8 1601.56 1421.37 1599.94 1424.46 1598.31 1427.55 1596.03 1430.24 1593.08 1432.53 1590.14 1434.83 1586.32 1437.08 1581.63 1439.28L1581.63 1439.93C1584.55 1440.45 1587.36 1441.35 1590.07 1442.62 1592.77 1443.89 1595.18 1445.53 1597.28 1447.54 1599.39 1449.55 1601.07 1451.95 1602.34 1454.75 1603.61 1457.55 1604.24 1460.74 1604.24 1464.33 1604.24 1469.88 1603.04 1474.81 1600.62 1479.12 1598.2 1483.42 1594.51 1486.82 1589.53 1489.31 1584.55 1491.8 1578.5 1493.04 1571.37 1493.04 1567.26 1493.04 1562.82 1492.58 1558.06 1491.64 1553.29 1490.71 1548.93 1489.48 1544.96 1487.95L1544.96 1472.73 1553.57 1472.73C1555.24 1477.71 1557.46 1481.32 1560.21 1483.57 1562.96 1485.82 1566.7 1486.94 1571.44 1486.94 1577.66 1486.94 1582.36 1485.24 1585.55 1481.85 1588.73 1478.45 1590.32 1473.42 1590.32 1466.77 1590.32 1459.79 1588.21 1454.45 1584 1450.77 1579.79 1447.08 1573.62 1445.24 1565.48 1445.24L1559.02 1445.24 1559.02 1438.92C1565.48 1438.54 1570.93 1437.3 1575.35 1435.19 1579.78 1433.08 1583.07 1430.38 1585.22 1427.08 1587.38 1423.78 1588.45 1420.07 1588.45 1415.95 1588.45 1410.64 1587.04 1406.55 1584.22 1403.68 1581.4 1400.81 1577.28 1399.37 1571.87 1399.37 1567.37 1399.37 1563.71 1400.59 1560.89 1403.03 1558.07 1405.47 1555.99 1409.21 1554.65 1414.23L1546.03 1414.23 1546.03 1400.59C1551.58 1397.96 1556.78 1396 1561.61 1394.71 1566.44 1393.42 1571.11 1392.77 1575.61 1392.77Z" fill-rule="evenodd"/><text fill="#000000" fill-opacity="0" font-family="Arial,Arial_MSFontService,sans-serif" font-size="100.273" x="1544.96" y="1480.51">3</text><path d="M1625.59 1475.24 1638.15 1475.24C1638.82 1478.59 1639.16 1481.89 1639.16 1485.15 1639.16 1488.5 1638.58 1491.56 1637.44 1494.33 1636.29 1497.11 1634.46 1499.87 1631.95 1502.62 1629.43 1505.38 1625.98 1508.4 1621.57 1511.7L1617.7 1507.33C1620.14 1505.03 1621.91 1502.96 1623.01 1501.12 1624.11 1499.28 1624.9 1497.18 1625.38 1494.84 1625.86 1492.49 1626.1 1489.55 1626.1 1486.01 1626.1 1482.37 1625.93 1478.78 1625.59 1475.24Z" fill-rule="evenodd"/><text fill="#000000" fill-opacity="0" font-family="Arial,Arial_MSFontService,sans-serif" font-size="36.4629" x="1617.7" y="1507.15">,</text><path d="M1692.71 1392.77 1696.66 1392.77C1696.37 1397.36 1696.22 1403.73 1696.22 1411.86L1696.22 1473.16C1696.22 1475.94 1696.38 1478.03 1696.69 1479.44 1697 1480.85 1697.55 1482 1698.34 1482.89 1699.13 1483.77 1700.27 1484.46 1701.75 1484.97 1703.23 1485.47 1705.1 1485.85 1707.35 1486.12 1709.6 1486.38 1712.57 1486.56 1716.25 1486.65L1716.25 1491.89 1663.21 1491.89 1663.21 1486.65C1668.52 1486.41 1672.31 1486.09 1674.58 1485.69 1676.86 1485.28 1678.59 1484.67 1679.79 1483.85 1680.98 1483.04 1681.86 1481.89 1682.41 1480.41 1682.96 1478.93 1683.23 1476.51 1683.23 1473.16L1683.23 1414.95C1683.23 1413.03 1682.9 1411.63 1682.23 1410.75 1681.56 1409.86 1680.58 1409.42 1679.29 1409.42 1677.75 1409.42 1675.58 1410.21 1672.75 1411.79 1669.93 1413.37 1666.44 1415.55 1662.27 1418.32L1659.12 1412.8Z" fill-rule="evenodd"/><text fill="#000000" fill-opacity="0" font-family="Arial,Arial_MSFontService,sans-serif" font-size="99.1245" x="1659.12" y="1479.5">1</text><path d="M1732.36 1388.18C1746.33 1391.86 1757.06 1399.82 1764.55 1412.04 1772.04 1424.27 1775.78 1439.02 1775.78 1456.29 1775.78 1473.61 1772.05 1488.36 1764.59 1500.54 1757.12 1512.72 1746.38 1520.65 1732.36 1524.34L1730.64 1518.81C1741.69 1515.13 1749.91 1507.85 1755.29 1496.99 1760.68 1486.13 1763.37 1472.32 1763.37 1455.57 1763.37 1439.4 1760.69 1425.97 1755.33 1415.27 1749.97 1404.58 1741.67 1397.39 1730.42 1393.7Z" fill-rule="evenodd"/><text fill="#000000" fill-opacity="0" font-family="Arial,Arial_MSFontService,sans-serif" font-size="136.162" x="1730.42" y="1507.32">)</text><path d="M1914.38 1388.18 1916.32 1393.7C1905.12 1397.39 1896.83 1404.58 1891.45 1415.27 1886.07 1425.97 1883.38 1439.4 1883.38 1455.57 1883.38 1472.32 1886.07 1486.13 1891.45 1496.99 1896.83 1507.85 1905.05 1515.13 1916.11 1518.81L1914.38 1524.34C1900.36 1520.65 1889.62 1512.72 1882.16 1500.54 1874.69 1488.36 1870.96 1473.61 1870.96 1456.29 1870.96 1439.02 1874.7 1424.27 1882.19 1412.04 1889.68 1399.82 1900.41 1391.86 1914.38 1388.18Z" fill-rule="evenodd"/><text fill="#000000" fill-opacity="0" font-family="Arial,Arial_MSFontService,sans-serif" font-size="136.162" x="1870.96" y="1507.32">(</text><path d="M1959.75 1392.77C1965.16 1392.77 1969.9 1393.61 1973.96 1395.28 1978.03 1396.96 1981.14 1399.36 1983.3 1402.5 1985.45 1405.63 1986.53 1409.37 1986.53 1413.73 1986.53 1417.8 1985.71 1421.37 1984.09 1424.46 1982.46 1427.55 1980.17 1430.24 1977.23 1432.53 1974.29 1434.83 1970.47 1437.08 1965.78 1439.28L1965.78 1439.93C1968.7 1440.45 1971.51 1441.35 1974.22 1442.62 1976.92 1443.89 1979.32 1445.53 1981.43 1447.54 1983.53 1449.55 1985.22 1451.95 1986.49 1454.75 1987.76 1457.55 1988.39 1460.74 1988.39 1464.33 1988.39 1469.88 1987.18 1474.81 1984.77 1479.12 1982.35 1483.42 1978.65 1486.82 1973.68 1489.31 1968.7 1491.8 1962.65 1493.04 1955.52 1493.04 1951.4 1493.04 1946.96 1492.58 1942.2 1491.64 1937.44 1490.71 1933.08 1489.48 1929.1 1487.95L1929.1 1472.73 1937.72 1472.73C1939.39 1477.71 1941.6 1481.32 1944.36 1483.57 1947.11 1485.82 1950.85 1486.94 1955.59 1486.94 1961.81 1486.94 1966.51 1485.24 1969.69 1481.85 1972.88 1478.45 1974.47 1473.42 1974.47 1466.77 1974.47 1459.79 1972.36 1454.45 1968.15 1450.77 1963.94 1447.08 1957.77 1445.24 1949.63 1445.24L1943.17 1445.24 1943.17 1438.92C1949.63 1438.54 1955.08 1437.3 1959.5 1435.19 1963.93 1433.08 1967.22 1430.38 1969.37 1427.08 1971.52 1423.78 1972.6 1420.07 1972.6 1415.95 1972.6 1410.64 1971.19 1406.55 1968.37 1403.68 1965.54 1400.81 1961.43 1399.37 1956.02 1399.37 1951.52 1399.37 1947.86 1400.59 1945.04 1403.03 1942.21 1405.47 1940.13 1409.21 1938.79 1414.23L1930.18 1414.23 1930.18 1400.59C1935.73 1397.96 1940.92 1396 1945.76 1394.71 1950.59 1393.42 1955.25 1392.77 1959.75 1392.77Z" fill-rule="evenodd"/><text fill="#000000" fill-opacity="0" font-family="Arial,Arial_MSFontService,sans-serif" font-size="100.273" x="1929.1" y="1480.51">3</text><path d="M2009.74 1475.24 2022.3 1475.24C2022.97 1478.59 2023.31 1481.89 2023.31 1485.15 2023.31 1488.5 2022.73 1491.56 2021.58 1494.33 2020.43 1497.11 2018.6 1499.87 2016.09 1502.62 2013.58 1505.38 2010.12 1508.4 2005.72 1511.7L2001.84 1507.33C2004.28 1505.03 2006.06 1502.96 2007.16 1501.12 2008.26 1499.28 2009.05 1497.18 2009.52 1494.84 2010 1492.49 2010.24 1489.55 2010.24 1486.01 2010.24 1482.37 2010.07 1478.78 2009.74 1475.24Z" fill-rule="evenodd"/><text fill="#000000" fill-opacity="0" font-family="Arial,Arial_MSFontService,sans-serif" font-size="36.4629" x="2001.84" y="1507.15">,</text><path d="M2071.76 1392.77C2080.66 1392.77 2087.38 1394.72 2091.93 1398.62 2096.47 1402.52 2098.75 1408.18 2098.75 1415.59 2098.75 1418.13 2098.5 1420.46 2097.99 1422.59 2097.49 1424.72 2096.7 1426.83 2095.62 1428.91 2094.55 1430.99 2093.1 1433.23 2091.28 1435.62 2089.46 1438.01 2087.45 1440.44 2085.25 1442.91 2083.05 1445.37 2079.25 1449.47 2073.84 1455.22 2064.75 1464.83 2058.07 1473.23 2053.81 1480.41L2080.87 1480.41C2083.22 1480.41 2085.11 1480.27 2086.54 1479.98 2087.98 1479.69 2089.13 1479.21 2089.99 1478.54 2090.85 1477.87 2091.53 1477 2092.04 1475.92 2092.54 1474.85 2093.17 1473.18 2093.94 1470.93L2100.04 1470.93 2098.82 1491.89 2039.75 1491.89 2039.75 1488.45C2041.8 1483.42 2044.58 1478.28 2048.07 1473.02 2051.56 1467.75 2056.52 1461.56 2062.93 1454.43 2068.48 1448.3 2072.48 1443.66 2074.92 1440.5 2077.6 1437.06 2079.59 1434.08 2080.91 1431.57 2082.23 1429.05 2083.17 1426.68 2083.75 1424.46 2084.32 1422.23 2084.61 1420 2084.61 1417.75 2084.61 1414.16 2084.03 1410.99 2082.88 1408.24 2081.74 1405.49 2079.98 1403.32 2077.61 1401.74 2075.24 1400.16 2072.26 1399.37 2068.67 1399.37 2059.72 1399.37 2053.69 1404.35 2050.58 1414.3L2041.9 1414.3 2041.9 1400.52C2047.69 1397.79 2053.11 1395.82 2058.16 1394.6 2063.2 1393.38 2067.74 1392.77 2071.76 1392.77Z" fill-rule="evenodd"/><text fill="#000000" fill-opacity="0" font-family="Arial,Arial_MSFontService,sans-serif" font-size="99.1245" x="2039.75" y="1479.5">2</text><path d="M2116.51 1388.18C2130.48 1391.86 2141.21 1399.82 2148.7 1412.04 2156.19 1424.27 2159.93 1439.02 2159.93 1456.29 2159.93 1473.61 2156.2 1488.36 2148.73 1500.54 2141.27 1512.72 2130.53 1520.65 2116.51 1524.34L2114.78 1518.81C2125.84 1515.13 2134.06 1507.85 2139.44 1496.99 2144.82 1486.13 2147.51 1472.32 2147.51 1455.57 2147.51 1439.4 2144.83 1425.97 2139.47 1415.27 2134.12 1404.58 2125.81 1397.39 2114.57 1393.7Z" fill-rule="evenodd"/><text fill="#000000" fill-opacity="0" font-family="Arial,Arial_MSFontService,sans-serif" font-size="136.162" x="2114.57" y="1507.32">)</text><path d="M2298.53 1388.18 2300.47 1393.7C2289.27 1397.39 2280.98 1404.58 2275.6 1415.27 2270.21 1425.97 2267.52 1439.4 2267.52 1455.57 2267.52 1472.32 2270.21 1486.13 2275.6 1496.99 2280.98 1507.85 2289.2 1515.13 2300.25 1518.81L2298.53 1524.34C2284.51 1520.65 2273.77 1512.72 2266.3 1500.54 2258.84 1488.36 2255.11 1473.61 2255.11 1456.29 2255.11 1439.02 2258.85 1424.27 2266.34 1412.04 2273.83 1399.82 2284.56 1391.86 2298.53 1388.18Z" fill-rule="evenodd"/><text fill="#000000" fill-opacity="0" font-family="Arial,Arial_MSFontService,sans-serif" font-size="136.162" x="2255.11" y="1507.32">(</text><path d="M2343.9 1392.77C2349.31 1392.77 2354.04 1393.61 2358.11 1395.28 2362.18 1396.96 2365.29 1399.36 2367.44 1402.5 2369.6 1405.63 2370.67 1409.37 2370.67 1413.73 2370.67 1417.8 2369.86 1421.37 2368.23 1424.46 2366.61 1427.55 2364.32 1430.24 2361.38 1432.53 2358.43 1434.83 2354.62 1437.08 2349.93 1439.28L2349.93 1439.93C2352.85 1440.45 2355.66 1441.35 2358.36 1442.62 2361.07 1443.89 2363.47 1445.53 2365.58 1447.54 2367.68 1449.55 2369.37 1451.95 2370.64 1454.75 2371.9 1457.55 2372.54 1460.74 2372.54 1464.33 2372.54 1469.88 2371.33 1474.81 2368.91 1479.12 2366.5 1483.42 2362.8 1486.82 2357.82 1489.31 2352.85 1491.8 2346.79 1493.04 2339.66 1493.04 2335.55 1493.04 2331.11 1492.58 2326.35 1491.64 2321.59 1490.71 2317.22 1489.48 2313.25 1487.95L2313.25 1472.73 2321.86 1472.73C2323.54 1477.71 2325.75 1481.32 2328.5 1483.57 2331.25 1485.82 2335 1486.94 2339.74 1486.94 2345.96 1486.94 2350.66 1485.24 2353.84 1481.85 2357.02 1478.45 2358.61 1473.42 2358.61 1466.77 2358.61 1459.79 2356.51 1454.45 2352.3 1450.77 2348.09 1447.08 2341.91 1445.24 2333.78 1445.24L2327.32 1445.24 2327.32 1438.92C2333.78 1438.54 2339.22 1437.3 2343.65 1435.19 2348.07 1433.08 2351.36 1430.38 2353.52 1427.08 2355.67 1423.78 2356.75 1420.07 2356.75 1415.95 2356.75 1410.64 2355.34 1406.55 2352.51 1403.68 2349.69 1400.81 2345.57 1399.37 2340.17 1399.37 2335.67 1399.37 2332.01 1400.59 2329.19 1403.03 2326.36 1405.47 2324.28 1409.21 2322.94 1414.23L2314.33 1414.23 2314.33 1400.59C2319.88 1397.96 2325.07 1396 2329.9 1394.71 2334.74 1393.42 2339.4 1392.77 2343.9 1392.77Z" fill-rule="evenodd"/><text fill="#000000" fill-opacity="0" font-family="Arial,Arial_MSFontService,sans-serif" font-size="100.273" x="2313.25" y="1480.51">3</text><path d="M2393.89 1475.24 2406.45 1475.24C2407.12 1478.59 2407.45 1481.89 2407.45 1485.15 2407.45 1488.5 2406.88 1491.56 2405.73 1494.33 2404.58 1497.11 2402.75 1499.87 2400.24 1502.62 2397.73 1505.38 2394.27 1508.4 2389.87 1511.7L2385.99 1507.33C2388.43 1505.03 2390.2 1502.96 2391.3 1501.12 2392.4 1499.28 2393.19 1497.18 2393.67 1494.84 2394.15 1492.49 2394.39 1489.55 2394.39 1486.01 2394.39 1482.37 2394.22 1478.78 2393.89 1475.24Z" fill-rule="evenodd"/><text fill="#000000" fill-opacity="0" font-family="Arial,Arial_MSFontService,sans-serif" font-size="36.4629" x="2385.99" y="1507.15">,</text><path d="M2455.62 1392.77C2461.03 1392.77 2465.76 1393.61 2469.83 1395.28 2473.9 1396.96 2477.01 1399.36 2479.16 1402.5 2481.31 1405.63 2482.39 1409.37 2482.39 1413.73 2482.39 1417.8 2481.58 1421.37 2479.95 1424.46 2478.32 1427.55 2476.04 1430.24 2473.1 1432.53 2470.15 1434.83 2466.34 1437.08 2461.65 1439.28L2461.65 1439.93C2464.57 1440.45 2467.38 1441.35 2470.08 1442.62 2472.79 1443.89 2475.19 1445.53 2477.3 1447.54 2479.4 1449.55 2481.09 1451.95 2482.36 1454.75 2483.62 1457.55 2484.26 1460.74 2484.26 1464.33 2484.26 1469.88 2483.05 1474.81 2480.63 1479.12 2478.22 1483.42 2474.52 1486.82 2469.54 1489.31 2464.57 1491.8 2458.51 1493.04 2451.38 1493.04 2447.27 1493.04 2442.83 1492.58 2438.07 1491.64 2433.31 1490.71 2428.94 1489.48 2424.97 1487.95L2424.97 1472.73 2433.58 1472.73C2435.26 1477.71 2437.47 1481.32 2440.22 1483.57 2442.97 1485.82 2446.72 1486.94 2451.46 1486.94 2457.68 1486.94 2462.38 1485.24 2465.56 1481.85 2468.74 1478.45 2470.33 1473.42 2470.33 1466.77 2470.33 1459.79 2468.23 1454.45 2464.02 1450.77 2459.81 1447.08 2453.63 1445.24 2445.5 1445.24L2439.04 1445.24 2439.04 1438.92C2445.5 1438.54 2450.94 1437.3 2455.37 1435.19 2459.79 1433.08 2463.08 1430.38 2465.24 1427.08 2467.39 1423.78 2468.47 1420.07 2468.47 1415.95 2468.47 1410.64 2467.05 1406.55 2464.23 1403.68 2461.41 1400.81 2457.29 1399.37 2451.89 1399.37 2447.39 1399.37 2443.73 1400.59 2440.9 1403.03 2438.08 1405.47 2436 1409.21 2434.66 1414.23L2426.05 1414.23 2426.05 1400.59C2431.6 1397.96 2436.79 1396 2441.62 1394.71 2446.45 1393.42 2451.12 1392.77 2455.62 1392.77Z" fill-rule="evenodd"/><text fill="#000000" fill-opacity="0" font-family="Arial,Arial_MSFontService,sans-serif" font-size="100.273" x="2424.97" y="1480.51">3</text><path d="M2500.65 1388.18C2514.63 1391.86 2525.36 1399.82 2532.85 1412.04 2540.33 1424.27 2544.08 1439.02 2544.08 1456.29 2544.08 1473.61 2540.35 1488.36 2532.88 1500.54 2525.42 1512.72 2514.67 1520.65 2500.65 1524.34L2498.93 1518.81C2509.98 1515.13 2518.2 1507.85 2523.59 1496.99 2528.97 1486.13 2531.66 1472.32 2531.66 1455.57 2531.66 1439.4 2528.98 1425.97 2523.62 1415.27 2518.26 1404.58 2509.96 1397.39 2498.72 1393.7Z" fill-rule="evenodd"/><text fill="#000000" fill-opacity="0" font-family="Arial,Arial_MSFontService,sans-serif" font-size="136.162" x="2498.72" y="1507.32">)</text><path d="M2682.68 1388.18 2684.62 1393.7C2673.42 1397.39 2665.13 1404.58 2659.75 1415.27 2654.36 1425.97 2651.67 1439.4 2651.67 1455.57 2651.67 1472.32 2654.36 1486.13 2659.75 1496.99 2665.13 1507.85 2673.35 1515.13 2684.4 1518.81L2682.68 1524.34C2668.66 1520.65 2657.92 1512.72 2650.45 1500.54 2642.99 1488.36 2639.25 1473.61 2639.25 1456.29 2639.25 1439.02 2643 1424.27 2650.49 1412.04 2657.98 1399.82 2668.71 1391.86 2682.68 1388.18Z" fill-rule="evenodd"/><text fill="#000000" fill-opacity="0" font-family="Arial,Arial_MSFontService,sans-serif" font-size="136.162" x="2639.25" y="1507.32">(</text><path d="M2728.05 1392.77C2733.45 1392.77 2738.19 1393.61 2742.26 1395.28 2746.33 1396.96 2749.44 1399.36 2751.59 1402.5 2753.74 1405.63 2754.82 1409.37 2754.82 1413.73 2754.82 1417.8 2754.01 1421.37 2752.38 1424.46 2750.75 1427.55 2748.47 1430.24 2745.53 1432.53 2742.58 1434.83 2738.77 1437.08 2734.08 1439.28L2734.08 1439.93C2737 1440.45 2739.81 1441.35 2742.51 1442.62 2745.21 1443.89 2747.62 1445.53 2749.72 1447.54 2751.83 1449.55 2753.52 1451.95 2754.78 1454.75 2756.05 1457.55 2756.69 1460.74 2756.69 1464.33 2756.69 1469.88 2755.48 1474.81 2753.06 1479.12 2750.65 1483.42 2746.95 1486.82 2741.97 1489.31 2737 1491.8 2730.94 1493.04 2723.81 1493.04 2719.7 1493.04 2715.26 1492.58 2710.5 1491.64 2705.74 1490.71 2701.37 1489.48 2697.4 1487.95L2697.4 1472.73 2706.01 1472.73C2707.69 1477.71 2709.9 1481.32 2712.65 1483.57 2715.4 1485.82 2719.15 1486.94 2723.88 1486.94 2730.1 1486.94 2734.81 1485.24 2737.99 1481.85 2741.17 1478.45 2742.76 1473.42 2742.76 1466.77 2742.76 1459.79 2740.66 1454.45 2736.45 1450.77 2732.23 1447.08 2726.06 1445.24 2717.93 1445.24L2711.47 1445.24 2711.47 1438.92C2717.93 1438.54 2723.37 1437.3 2727.8 1435.19 2732.22 1433.08 2735.51 1430.38 2737.67 1427.08 2739.82 1423.78 2740.9 1420.07 2740.9 1415.95 2740.9 1410.64 2739.48 1406.55 2736.66 1403.68 2733.84 1400.81 2729.72 1399.37 2724.31 1399.37 2719.82 1399.37 2716.16 1400.59 2713.33 1403.03 2710.51 1405.47 2708.43 1409.21 2707.09 1414.23L2698.48 1414.23 2698.48 1400.59C2704.03 1397.96 2709.22 1396 2714.05 1394.71 2718.88 1393.42 2723.55 1392.77 2728.05 1392.77Z" fill-rule="evenodd"/><text fill="#000000" fill-opacity="0" font-family="Arial,Arial_MSFontService,sans-serif" font-size="100.273" x="2697.4" y="1480.51">3</text><path d="M2778.03 1475.24 2790.6 1475.24C2791.27 1478.59 2791.6 1481.89 2791.6 1485.15 2791.6 1488.5 2791.03 1491.56 2789.88 1494.33 2788.73 1497.11 2786.9 1499.87 2784.39 1502.62 2781.87 1505.38 2778.42 1508.4 2774.02 1511.7L2770.14 1507.33C2772.58 1505.03 2774.35 1502.96 2775.45 1501.12 2776.55 1499.28 2777.34 1497.18 2777.82 1494.84 2778.3 1492.49 2778.54 1489.55 2778.54 1486.01 2778.54 1482.37 2778.37 1478.78 2778.03 1475.24Z" fill-rule="evenodd"/><text fill="#000000" fill-opacity="0" font-family="Arial,Arial_MSFontService,sans-serif" font-size="36.4629" x="2770.14" y="1507.15">,</text><path d="M2844.22 1409.64 2816.15 1454.21 2816.15 1455.22 2844.22 1455.22 2844.22 1437.34C2844.22 1432.85 2844.29 1427.81 2844.43 1422.23 2844.58 1416.66 2844.74 1412.46 2844.93 1409.64ZM2846.3 1393.42 2856.56 1393.42 2856.56 1455.22 2858.07 1455.22C2860.84 1455.22 2862.83 1455.01 2864.03 1454.61 2865.22 1454.2 2866.22 1453.48 2867.01 1452.45 2867.8 1451.42 2868.52 1449.74 2869.19 1447.39L2874.65 1447.39 2873.79 1462.18 2856.56 1462.18 2856.56 1473.95C2856.56 1477.16 2856.67 1479.5 2856.89 1480.98 2857.1 1482.47 2857.46 1483.64 2857.96 1484.5 2858.46 1485.36 2859.21 1486.08 2860.19 1486.65 2861.17 1487.23 2862.76 1487.8 2864.96 1488.38L2864.96 1491.89 2835.82 1491.89 2835.82 1488.38C2838.79 1487.61 2840.77 1486.76 2841.78 1485.83 2842.78 1484.9 2843.44 1483.57 2843.75 1481.85 2844.06 1480.12 2844.22 1477.49 2844.22 1473.95L2844.22 1462.18 2804.31 1462.18 2804.31 1456.79Z" fill-rule="evenodd"/><text fill="#000000" fill-opacity="0" font-family="Arial,Arial_MSFontService,sans-serif" font-size="98.4785" x="2804.31" y="1479.58">4</text><path d="M2884.8 1388.18C2898.77 1391.86 2909.5 1399.82 2916.99 1412.04 2924.48 1424.27 2928.23 1439.02 2928.23 1456.29 2928.23 1473.61 2924.49 1488.36 2917.03 1500.54 2909.56 1512.72 2898.82 1520.65 2884.8 1524.34L2883.08 1518.81C2894.13 1515.13 2902.35 1507.85 2907.73 1496.99 2913.12 1486.13 2915.81 1472.32 2915.81 1455.57 2915.81 1439.4 2913.13 1425.97 2907.77 1415.27 2902.41 1404.58 2894.11 1397.39 2882.86 1393.7Z" fill-rule="evenodd"/><text fill="#000000" fill-opacity="0" font-family="Arial,Arial_MSFontService,sans-serif" font-size="136.162" x="2882.86" y="1507.32">)</text><path d="M1530.24 1774.95 1532.17 1780.48C1520.98 1784.16 1512.69 1791.35 1507.3 1802.05 1501.92 1812.74 1499.23 1826.18 1499.23 1842.35 1499.23 1859.1 1501.92 1872.9 1507.3 1883.77 1512.69 1894.63 1520.91 1901.9 1531.96 1905.59L1530.24 1911.11C1516.22 1907.43 1505.47 1899.5 1498.01 1887.32 1490.54 1875.14 1486.81 1860.39 1486.81 1843.07 1486.81 1825.79 1490.56 1811.04 1498.04 1798.82 1505.53 1786.59 1516.26 1778.64 1530.24 1774.95Z" fill-rule="evenodd"/><text fill="#000000" fill-opacity="0" font-family="Arial,Arial_MSFontService,sans-serif" font-size="136.162" x="1486.81" y="1894.09">(</text><path d="M1580.06 1796.41 1551.99 1840.99 1551.99 1841.99 1580.06 1841.99 1580.06 1824.12C1580.06 1819.62 1580.13 1814.59 1580.27 1809.01 1580.41 1803.44 1580.58 1799.24 1580.77 1796.41ZM1582.14 1780.19 1592.4 1780.19 1592.4 1841.99 1593.91 1841.99C1596.68 1841.99 1598.67 1841.79 1599.87 1841.38 1601.06 1840.98 1602.06 1840.26 1602.84 1839.23 1603.63 1838.2 1604.36 1836.51 1605.03 1834.17L1610.49 1834.17 1609.63 1848.96 1592.4 1848.96 1592.4 1860.73C1592.4 1863.93 1592.51 1866.28 1592.72 1867.76 1592.94 1869.24 1593.3 1870.42 1593.8 1871.28 1594.3 1872.14 1595.05 1872.86 1596.03 1873.43 1597.01 1874.01 1598.6 1874.58 1600.8 1875.15L1600.8 1878.67 1571.66 1878.67 1571.66 1875.15C1574.62 1874.39 1576.61 1873.54 1577.62 1872.61 1578.62 1871.67 1579.28 1870.34 1579.59 1868.62 1579.9 1866.9 1580.06 1864.27 1580.06 1860.73L1580.06 1848.96 1540.15 1848.96 1540.15 1843.57Z" fill-rule="evenodd"/><text fill="#000000" fill-opacity="0" font-family="Arial,Arial_MSFontService,sans-serif" font-size="98.4785" x="1540.15" y="1866.36">4</text><path d="M1625.59 1862.02 1638.15 1862.02C1638.82 1865.37 1639.16 1868.67 1639.16 1871.92 1639.16 1875.27 1638.58 1878.34 1637.44 1881.11 1636.29 1883.89 1634.46 1886.65 1631.95 1889.4 1629.43 1892.15 1625.98 1895.18 1621.57 1898.48L1617.7 1894.1C1620.14 1891.81 1621.91 1889.74 1623.01 1887.89 1624.11 1886.05 1624.9 1883.96 1625.38 1881.61 1625.86 1879.27 1626.1 1876.33 1626.1 1872.79 1626.1 1869.15 1625.93 1865.56 1625.59 1862.02Z" fill-rule="evenodd"/><text fill="#000000" fill-opacity="0" font-family="Arial,Arial_MSFontService,sans-serif" font-size="36.4629" x="1617.7" y="1893.92">,</text><path d="M1692.71 1779.55 1696.66 1779.55C1696.37 1784.14 1696.22 1790.5 1696.22 1798.64L1696.22 1859.94C1696.22 1862.71 1696.38 1864.81 1696.69 1866.22 1697 1867.63 1697.55 1868.78 1698.34 1869.66 1699.13 1870.55 1700.27 1871.24 1701.75 1871.74 1703.23 1872.25 1705.1 1872.63 1707.35 1872.89 1709.6 1873.16 1712.57 1873.34 1716.25 1873.43L1716.25 1878.67 1663.21 1878.67 1663.21 1873.43C1668.52 1873.19 1672.31 1872.87 1674.58 1872.46 1676.86 1872.06 1678.59 1871.45 1679.79 1870.63 1680.98 1869.82 1681.86 1868.67 1682.41 1867.19 1682.96 1865.7 1683.23 1863.29 1683.23 1859.94L1683.23 1801.73C1683.23 1799.81 1682.9 1798.41 1682.23 1797.53 1681.56 1796.64 1680.58 1796.2 1679.29 1796.2 1677.75 1796.2 1675.58 1796.99 1672.75 1798.57 1669.93 1800.15 1666.44 1802.32 1662.27 1805.1L1659.12 1799.57Z" fill-rule="evenodd"/><text fill="#000000" fill-opacity="0" font-family="Arial,Arial_MSFontService,sans-serif" font-size="99.1245" x="1659.12" y="1866.28">1</text><path d="M1732.36 1774.95C1746.33 1778.64 1757.06 1786.59 1764.55 1798.82 1772.04 1811.04 1775.78 1825.79 1775.78 1843.07 1775.78 1860.39 1772.05 1875.14 1764.59 1887.32 1757.12 1899.5 1746.38 1907.43 1732.36 1911.11L1730.64 1905.59C1741.69 1901.9 1749.91 1894.63 1755.29 1883.77 1760.68 1872.9 1763.37 1859.1 1763.37 1842.35 1763.37 1826.18 1760.69 1812.74 1755.33 1802.05 1749.97 1791.35 1741.67 1784.16 1730.42 1780.48Z" fill-rule="evenodd"/><text fill="#000000" fill-opacity="0" font-family="Arial,Arial_MSFontService,sans-serif" font-size="136.162" x="1730.42" y="1894.09">)</text><path d="M1914.38 1774.95 1916.32 1780.48C1905.12 1784.16 1896.83 1791.35 1891.45 1802.05 1886.07 1812.74 1883.38 1826.18 1883.38 1842.35 1883.38 1859.1 1886.07 1872.9 1891.45 1883.77 1896.83 1894.63 1905.05 1901.9 1916.11 1905.59L1914.38 1911.11C1900.36 1907.43 1889.62 1899.5 1882.16 1887.32 1874.69 1875.14 1870.96 1860.39 1870.96 1843.07 1870.96 1825.79 1874.7 1811.04 1882.19 1798.82 1889.68 1786.59 1900.41 1778.64 1914.38 1774.95Z" fill-rule="evenodd"/><text fill="#000000" fill-opacity="0" font-family="Arial,Arial_MSFontService,sans-serif" font-size="136.162" x="1870.96" y="1894.09">(</text><path d="M1964.2 1796.41 1936.14 1840.99 1936.14 1841.99 1964.2 1841.99 1964.2 1824.12C1964.2 1819.62 1964.27 1814.59 1964.42 1809.01 1964.56 1803.44 1964.73 1799.24 1964.92 1796.41ZM1966.28 1780.19 1976.55 1780.19 1976.55 1841.99 1978.06 1841.99C1980.83 1841.99 1982.82 1841.79 1984.01 1841.38 1985.21 1840.98 1986.2 1840.26 1986.99 1839.23 1987.78 1838.2 1988.51 1836.51 1989.18 1834.17L1994.64 1834.17 1993.78 1848.96 1976.55 1848.96 1976.55 1860.73C1976.55 1863.93 1976.66 1866.28 1976.87 1867.76 1977.09 1869.24 1977.45 1870.42 1977.95 1871.28 1978.45 1872.14 1979.19 1872.86 1980.17 1873.43 1981.15 1874.01 1982.75 1874.58 1984.95 1875.15L1984.95 1878.67 1955.8 1878.67 1955.8 1875.15C1958.77 1874.39 1960.76 1873.54 1961.76 1872.61 1962.77 1871.67 1963.43 1870.34 1963.74 1868.62 1964.05 1866.9 1964.2 1864.27 1964.2 1860.73L1964.2 1848.96 1924.29 1848.96 1924.29 1843.57Z" fill-rule="evenodd"/><text fill="#000000" fill-opacity="0" font-family="Arial,Arial_MSFontService,sans-serif" font-size="98.4785" x="1924.29" y="1866.36">4</text><path d="M2009.74 1862.02 2022.3 1862.02C2022.97 1865.37 2023.31 1868.67 2023.31 1871.92 2023.31 1875.27 2022.73 1878.34 2021.58 1881.11 2020.43 1883.89 2018.6 1886.65 2016.09 1889.4 2013.58 1892.15 2010.12 1895.18 2005.72 1898.48L2001.84 1894.1C2004.28 1891.81 2006.06 1889.74 2007.16 1887.89 2008.26 1886.05 2009.05 1883.96 2009.52 1881.61 2010 1879.27 2010.24 1876.33 2010.24 1872.79 2010.24 1869.15 2010.07 1865.56 2009.74 1862.02Z" fill-rule="evenodd"/><text fill="#000000" fill-opacity="0" font-family="Arial,Arial_MSFontService,sans-serif" font-size="36.4629" x="2001.84" y="1893.92">,</text><path d="M2071.76 1779.55C2080.66 1779.55 2087.38 1781.5 2091.93 1785.4 2096.47 1789.3 2098.75 1794.95 2098.75 1802.37 2098.75 1804.91 2098.5 1807.24 2097.99 1809.37 2097.49 1811.5 2096.7 1813.6 2095.62 1815.69 2094.55 1817.77 2093.1 1820 2091.28 1822.4 2089.46 1824.79 2087.45 1827.22 2085.25 1829.68 2083.05 1832.15 2079.25 1836.25 2073.84 1841.99 2064.75 1851.61 2058.07 1860.01 2053.81 1867.19L2080.87 1867.19C2083.22 1867.19 2085.11 1867.04 2086.54 1866.76 2087.98 1866.47 2089.13 1865.99 2089.99 1865.32 2090.85 1864.65 2091.53 1863.78 2092.04 1862.7 2092.54 1861.62 2093.17 1859.96 2093.94 1857.71L2100.04 1857.71 2098.82 1878.67 2039.75 1878.67 2039.75 1875.23C2041.8 1870.2 2044.58 1865.06 2048.07 1859.79 2051.56 1854.53 2056.52 1848.33 2062.93 1841.2 2068.48 1835.08 2072.48 1830.44 2074.92 1827.28 2077.6 1823.83 2079.59 1820.85 2080.91 1818.34 2082.23 1815.83 2083.17 1813.46 2083.75 1811.24 2084.32 1809.01 2084.61 1806.77 2084.61 1804.52 2084.61 1800.94 2084.03 1797.77 2082.88 1795.01 2081.74 1792.26 2079.98 1790.1 2077.61 1788.52 2075.24 1786.94 2072.26 1786.15 2068.67 1786.15 2059.72 1786.15 2053.69 1791.13 2050.58 1801.08L2041.9 1801.08 2041.9 1787.3C2047.69 1784.57 2053.11 1782.6 2058.16 1781.38 2063.2 1780.16 2067.74 1779.55 2071.76 1779.55Z" fill-rule="evenodd"/><text fill="#000000" fill-opacity="0" font-family="Arial,Arial_MSFontService,sans-serif" font-size="99.1245" x="2039.75" y="1866.28">2</text><path d="M2116.51 1774.95C2130.48 1778.64 2141.21 1786.59 2148.7 1798.82 2156.19 1811.04 2159.93 1825.79 2159.93 1843.07 2159.93 1860.39 2156.2 1875.14 2148.73 1887.32 2141.27 1899.5 2130.53 1907.43 2116.51 1911.11L2114.78 1905.59C2125.84 1901.9 2134.06 1894.63 2139.44 1883.77 2144.82 1872.9 2147.51 1859.1 2147.51 1842.35 2147.51 1826.18 2144.83 1812.74 2139.47 1802.05 2134.12 1791.35 2125.81 1784.16 2114.57 1780.48Z" fill-rule="evenodd"/><text fill="#000000" fill-opacity="0" font-family="Arial,Arial_MSFontService,sans-serif" font-size="136.162" x="2114.57" y="1894.09">)</text><path d="M2298.53 1774.95 2300.47 1780.48C2289.27 1784.16 2280.98 1791.35 2275.6 1802.05 2270.21 1812.74 2267.52 1826.18 2267.52 1842.35 2267.52 1859.1 2270.21 1872.9 2275.6 1883.77 2280.98 1894.63 2289.2 1901.9 2300.25 1905.59L2298.53 1911.11C2284.51 1907.43 2273.77 1899.5 2266.3 1887.32 2258.84 1875.14 2255.11 1860.39 2255.11 1843.07 2255.11 1825.79 2258.85 1811.04 2266.34 1798.82 2273.83 1786.59 2284.56 1778.64 2298.53 1774.95Z" fill-rule="evenodd"/><text fill="#000000" fill-opacity="0" font-family="Arial,Arial_MSFontService,sans-serif" font-size="136.162" x="2255.11" y="1894.09">(</text><path d="M2348.35 1796.41 2320.28 1840.99 2320.28 1841.99 2348.35 1841.99 2348.35 1824.12C2348.35 1819.62 2348.42 1814.59 2348.57 1809.01 2348.71 1803.44 2348.88 1799.24 2349.07 1796.41ZM2350.43 1780.19 2360.7 1780.19 2360.7 1841.99 2362.2 1841.99C2364.98 1841.99 2366.96 1841.79 2368.16 1841.38 2369.36 1840.98 2370.35 1840.26 2371.14 1839.23 2371.93 1838.2 2372.66 1836.51 2373.33 1834.17L2378.78 1834.17 2377.92 1848.96 2360.7 1848.96 2360.7 1860.73C2360.7 1863.93 2360.8 1866.28 2361.02 1867.76 2361.23 1869.24 2361.59 1870.42 2362.1 1871.28 2362.6 1872.14 2363.34 1872.86 2364.32 1873.43 2365.3 1874.01 2366.89 1874.58 2369.09 1875.15L2369.09 1878.67 2339.95 1878.67 2339.95 1875.15C2342.92 1874.39 2344.9 1873.54 2345.91 1872.61 2346.91 1871.67 2347.57 1870.34 2347.88 1868.62 2348.19 1866.9 2348.35 1864.27 2348.35 1860.73L2348.35 1848.96 2308.44 1848.96 2308.44 1843.57Z" fill-rule="evenodd"/><text fill="#000000" fill-opacity="0" font-family="Arial,Arial_MSFontService,sans-serif" font-size="98.4785" x="2308.44" y="1866.36">4</text><path d="M2393.89 1862.02 2406.45 1862.02C2407.12 1865.37 2407.45 1868.67 2407.45 1871.92 2407.45 1875.27 2406.88 1878.34 2405.73 1881.11 2404.58 1883.89 2402.75 1886.65 2400.24 1889.4 2397.73 1892.15 2394.27 1895.18 2389.87 1898.48L2385.99 1894.1C2388.43 1891.81 2390.2 1889.74 2391.3 1887.89 2392.4 1886.05 2393.19 1883.96 2393.67 1881.61 2394.15 1879.27 2394.39 1876.33 2394.39 1872.79 2394.39 1869.15 2394.22 1865.56 2393.89 1862.02Z" fill-rule="evenodd"/><text fill="#000000" fill-opacity="0" font-family="Arial,Arial_MSFontService,sans-serif" font-size="36.4629" x="2385.99" y="1893.92">,</text><path d="M2455.62 1779.55C2461.03 1779.55 2465.76 1780.38 2469.83 1782.06 2473.9 1783.73 2477.01 1786.14 2479.16 1789.27 2481.31 1792.41 2482.39 1796.15 2482.39 1800.51 2482.39 1804.57 2481.58 1808.15 2479.95 1811.24 2478.32 1814.32 2476.04 1817.01 2473.1 1819.31 2470.15 1821.61 2466.34 1823.86 2461.65 1826.06L2461.65 1826.7C2464.57 1827.23 2467.38 1828.13 2470.08 1829.4 2472.79 1830.66 2475.19 1832.3 2477.3 1834.31 2479.4 1836.32 2481.09 1838.73 2482.36 1841.53 2483.62 1844.33 2484.26 1847.52 2484.26 1851.11 2484.26 1856.66 2483.05 1861.59 2480.63 1865.89 2478.22 1870.2 2474.52 1873.6 2469.54 1876.09 2464.57 1878.58 2458.51 1879.82 2451.38 1879.82 2447.27 1879.82 2442.83 1879.35 2438.07 1878.42 2433.31 1877.49 2428.94 1876.25 2424.97 1874.72L2424.97 1859.51 2433.58 1859.51C2435.26 1864.48 2437.47 1868.1 2440.22 1870.34 2442.97 1872.59 2446.72 1873.72 2451.46 1873.72 2457.68 1873.72 2462.38 1872.02 2465.56 1868.62 2468.74 1865.22 2470.33 1860.2 2470.33 1853.55 2470.33 1846.56 2468.23 1841.23 2464.02 1837.54 2459.81 1833.86 2453.63 1832.02 2445.5 1832.02L2439.04 1832.02 2439.04 1825.7C2445.5 1825.32 2450.94 1824.07 2455.37 1821.97 2459.79 1819.86 2463.08 1817.16 2465.24 1813.86 2467.39 1810.55 2468.47 1806.85 2468.47 1802.73 2468.47 1797.42 2467.05 1793.33 2464.23 1790.46 2461.41 1787.59 2457.29 1786.15 2451.89 1786.15 2447.39 1786.15 2443.73 1787.37 2440.9 1789.81 2438.08 1792.25 2436 1795.98 2434.66 1801.01L2426.05 1801.01 2426.05 1787.37C2431.6 1784.74 2436.79 1782.78 2441.62 1781.48 2446.45 1780.19 2451.12 1779.55 2455.62 1779.55Z" fill-rule="evenodd"/><text fill="#000000" fill-opacity="0" font-family="Arial,Arial_MSFontService,sans-serif" font-size="100.273" x="2424.97" y="1867.29">3</text><path d="M2500.65 1774.95C2514.63 1778.64 2525.36 1786.59 2532.85 1798.82 2540.33 1811.04 2544.08 1825.79 2544.08 1843.07 2544.08 1860.39 2540.35 1875.14 2532.88 1887.32 2525.42 1899.5 2514.67 1907.43 2500.65 1911.11L2498.93 1905.59C2509.98 1901.9 2518.2 1894.63 2523.59 1883.77 2528.97 1872.9 2531.66 1859.1 2531.66 1842.35 2531.66 1826.18 2528.98 1812.74 2523.62 1802.05 2518.26 1791.35 2509.96 1784.16 2498.72 1780.48Z" fill-rule="evenodd"/><text fill="#000000" fill-opacity="0" font-family="Arial,Arial_MSFontService,sans-serif" font-size="136.162" x="2498.72" y="1894.09">)</text><path d="M2682.68 1774.95 2684.62 1780.48C2673.42 1784.16 2665.13 1791.35 2659.75 1802.05 2654.36 1812.74 2651.67 1826.18 2651.67 1842.35 2651.67 1859.1 2654.36 1872.9 2659.75 1883.77 2665.13 1894.63 2673.35 1901.9 2684.4 1905.59L2682.68 1911.11C2668.66 1907.43 2657.92 1899.5 2650.45 1887.32 2642.99 1875.14 2639.25 1860.39 2639.25 1843.07 2639.25 1825.79 2643 1811.04 2650.49 1798.82 2657.98 1786.59 2668.71 1778.64 2682.68 1774.95Z" fill-rule="evenodd"/><text fill="#000000" fill-opacity="0" font-family="Arial,Arial_MSFontService,sans-serif" font-size="136.162" x="2639.25" y="1894.09">(</text><path d="M2732.5 1796.41 2704.43 1840.99 2704.43 1841.99 2732.5 1841.99 2732.5 1824.12C2732.5 1819.62 2732.57 1814.59 2732.71 1809.01 2732.86 1803.44 2733.02 1799.24 2733.22 1796.41ZM2734.58 1780.19 2744.84 1780.19 2744.84 1841.99 2746.35 1841.99C2749.13 1841.99 2751.11 1841.79 2752.31 1841.38 2753.5 1840.98 2754.5 1840.26 2755.29 1839.23 2756.08 1838.2 2756.81 1836.51 2757.48 1834.17L2762.93 1834.17 2762.07 1848.96 2744.84 1848.96 2744.84 1860.73C2744.84 1863.93 2744.95 1866.28 2745.17 1867.76 2745.38 1869.24 2745.74 1870.42 2746.24 1871.28 2746.75 1872.14 2747.49 1872.86 2748.47 1873.43 2749.45 1874.01 2751.04 1874.58 2753.24 1875.15L2753.24 1878.67 2724.1 1878.67 2724.1 1875.15C2727.07 1874.39 2729.05 1873.54 2730.06 1872.61 2731.06 1871.67 2731.72 1870.34 2732.03 1868.62 2732.34 1866.9 2732.5 1864.27 2732.5 1860.73L2732.5 1848.96 2692.59 1848.96 2692.59 1843.57Z" fill-rule="evenodd"/><text fill="#000000" fill-opacity="0" font-family="Arial,Arial_MSFontService,sans-serif" font-size="98.4785" x="2692.59" y="1866.36">4</text><path d="M2778.03 1862.02 2790.6 1862.02C2791.27 1865.37 2791.6 1868.67 2791.6 1871.92 2791.6 1875.27 2791.03 1878.34 2789.88 1881.11 2788.73 1883.89 2786.9 1886.65 2784.39 1889.4 2781.87 1892.15 2778.42 1895.18 2774.02 1898.48L2770.14 1894.1C2772.58 1891.81 2774.35 1889.74 2775.45 1887.89 2776.55 1886.05 2777.34 1883.96 2777.82 1881.61 2778.3 1879.27 2778.54 1876.33 2778.54 1872.79 2778.54 1869.15 2778.37 1865.56 2778.03 1862.02Z" fill-rule="evenodd"/><text fill="#000000" fill-opacity="0" font-family="Arial,Arial_MSFontService,sans-serif" font-size="36.4629" x="2770.14" y="1893.92">,</text><path d="M2844.22 1796.41 2816.15 1840.99 2816.15 1841.99 2844.22 1841.99 2844.22 1824.12C2844.22 1819.62 2844.29 1814.59 2844.43 1809.01 2844.58 1803.44 2844.74 1799.24 2844.93 1796.41ZM2846.3 1780.19 2856.56 1780.19 2856.56 1841.99 2858.07 1841.99C2860.84 1841.99 2862.83 1841.79 2864.03 1841.38 2865.22 1840.98 2866.22 1840.26 2867.01 1839.23 2867.8 1838.2 2868.52 1836.51 2869.19 1834.17L2874.65 1834.17 2873.79 1848.96 2856.56 1848.96 2856.56 1860.73C2856.56 1863.93 2856.67 1866.28 2856.89 1867.76 2857.1 1869.24 2857.46 1870.42 2857.96 1871.28 2858.46 1872.14 2859.21 1872.86 2860.19 1873.43 2861.17 1874.01 2862.76 1874.58 2864.96 1875.15L2864.96 1878.67 2835.82 1878.67 2835.82 1875.15C2838.79 1874.39 2840.77 1873.54 2841.78 1872.61 2842.78 1871.67 2843.44 1870.34 2843.75 1868.62 2844.06 1866.9 2844.22 1864.27 2844.22 1860.73L2844.22 1848.96 2804.31 1848.96 2804.31 1843.57Z" fill-rule="evenodd"/><text fill="#000000" fill-opacity="0" font-family="Arial,Arial_MSFontService,sans-serif" font-size="98.4785" x="2804.31" y="1866.36">4</text><path d="M2884.8 1774.95C2898.77 1778.64 2909.5 1786.59 2916.99 1798.82 2924.48 1811.04 2928.23 1825.79 2928.23 1843.07 2928.23 1860.39 2924.49 1875.14 2917.03 1887.32 2909.56 1899.5 2898.82 1907.43 2884.8 1911.11L2883.08 1905.59C2894.13 1901.9 2902.35 1894.63 2907.73 1883.77 2913.12 1872.9 2915.81 1859.1 2915.81 1842.35 2915.81 1826.18 2913.13 1812.74 2907.77 1802.05 2902.41 1791.35 2894.11 1784.16 2882.86 1780.48Z" fill-rule="evenodd"/><text fill="#000000" fill-opacity="0" font-family="Arial,Arial_MSFontService,sans-serif" font-size="136.162" x="2882.86" y="1894.09">)</text><rect x="3482.5" y="846.5" width="523" height="133" stroke="#000000" stroke-width="3.4375" stroke-linejoin="round" stroke-miterlimit="10" fill="none"/><text font-family="Yu Gothic,Yu Gothic_MSFontService,sans-serif" font-weight="400" font-size="83" transform="matrix(1 0 0 1 3539.83 939)">横辺</text><path d="M3729.09 899.908 3745.63 899.908 3745.63 901.894C3744.38 902.191 3743.51 902.475 3742.99 902.745 3742.48 903.016 3742.09 903.367 3741.84 903.799 3741.58 904.231 3741.45 904.812 3741.45 905.542 3741.45 906.271 3741.54 907.034 3741.72 907.831 3741.89 908.629 3742.17 909.554 3742.55 910.608L3749.6 931.114 3757.87 911.459C3758.41 910.162 3758.78 909.095 3759 908.257 3759.22 907.419 3759.32 906.636 3759.32 905.906 3759.32 904.772 3759.02 903.907 3758.41 903.313 3757.81 902.718 3756.69 902.245 3755.07 901.894L3755.07 899.908 3770.23 899.908 3770.23 901.894C3769.17 902.11 3768.36 902.441 3767.8 902.887 3767.23 903.333 3766.66 904.035 3766.09 904.995 3765.53 905.954 3764.85 907.298 3764.07 909.027L3750.41 939.058 3745.63 939.058 3734.64 908.784C3733.89 906.703 3733.29 905.278 3732.84 904.508 3732.39 903.738 3731.91 903.164 3731.38 902.786 3730.85 902.408 3730.09 902.11 3729.09 901.894Z" fill-rule="evenodd"/><text fill="#000000" fill-opacity="0" font-family="Arial,Arial_MSFontService,sans-serif" font-size="39.1494" x="3729.09" y="934.164">v</text><path d="M3801.96 880.091 3803.05 883.211C3796.73 885.292 3792.05 889.351 3789.01 895.39 3785.97 901.428 3784.45 909.014 3784.45 918.146 3784.45 927.602 3785.97 935.397 3789.01 941.53 3792.05 947.663 3796.69 951.77 3802.93 953.85L3801.96 956.971C3794.04 954.891 3787.98 950.412 3783.76 943.536 3779.55 936.66 3777.44 928.332 3777.44 918.551 3777.44 908.797 3779.55 900.469 3783.78 893.566 3788.01 886.663 3794.07 882.171 3801.96 880.091Z" fill-rule="evenodd"/><text fill="#000000" fill-opacity="0" font-family="Arial,Arial_MSFontService,sans-serif" font-size="76.8804" x="3777.44" y="947.361">(</text><path d="M3827.66 882.684C3830.71 882.684 3833.39 883.157 3835.69 884.103 3837.98 885.048 3839.74 886.406 3840.95 888.176 3842.17 889.945 3842.78 892.06 3842.78 894.518 3842.78 896.815 3842.32 898.834 3841.4 900.577 3840.48 902.32 3839.19 903.84 3837.53 905.136 3835.87 906.433 3833.71 907.703 3831.06 908.946L3831.06 909.311C3832.71 909.608 3834.3 910.115 3835.83 910.831 3837.35 911.547 3838.71 912.472 3839.9 913.607 3841.09 914.741 3842.04 916.099 3842.76 917.68 3843.47 919.26 3843.83 921.064 3843.83 923.09 3843.83 926.224 3843.15 929.007 3841.78 931.439 3840.42 933.87 3838.33 935.789 3835.52 937.194 3832.71 938.599 3829.3 939.301 3825.27 939.301 3822.95 939.301 3820.44 939.038 3817.75 938.511 3815.06 937.984 3812.6 937.288 3810.36 936.424L3810.36 927.832 3815.22 927.832C3816.16 930.642 3817.41 932.682 3818.97 933.951 3820.52 935.221 3822.64 935.856 3825.31 935.856 3828.82 935.856 3831.48 934.897 3833.27 932.979 3835.07 931.06 3835.97 928.224 3835.97 924.468 3835.97 920.523 3834.78 917.511 3832.4 915.43 3830.02 913.35 3826.54 912.31 3821.95 912.31L3818.3 912.31 3818.3 908.743C3821.95 908.527 3825.02 907.825 3827.52 906.636 3830.02 905.447 3831.88 903.921 3833.09 902.056 3834.31 900.192 3834.92 898.098 3834.92 895.775 3834.92 892.776 3834.12 890.466 3832.52 888.844 3830.93 887.223 3828.61 886.413 3825.55 886.413 3823.01 886.413 3820.95 887.102 3819.35 888.48 3817.76 889.858 3816.58 891.965 3815.83 894.802L3810.96 894.802 3810.96 887.102C3814.1 885.616 3817.03 884.508 3819.76 883.779 3822.49 883.049 3825.12 882.684 3827.66 882.684Z" fill-rule="evenodd"/><text fill="#000000" fill-opacity="0" font-family="Arial,Arial_MSFontService,sans-serif" font-size="56.6167" x="3810.36" y="932.224">3</text><path d="M3855.78 929.25 3862.88 929.25C3863.25 931.141 3863.44 933.006 3863.44 934.843 3863.44 936.734 3863.12 938.463 3862.47 940.03 3861.82 941.598 3860.79 943.158 3859.37 944.711 3857.95 946.265 3856 947.974 3853.51 949.838L3851.33 947.366C3852.7 946.069 3853.7 944.901 3854.32 943.86 3854.95 942.82 3855.39 941.638 3855.66 940.314 3855.93 938.99 3856.07 937.329 3856.07 935.329 3856.07 933.276 3855.97 931.25 3855.78 929.25Z" fill-rule="evenodd"/><text fill="#000000" fill-opacity="0" font-family="Arial,Arial_MSFontService,sans-serif" font-size="20.5879" x="3851.33" y="947.265">,</text><path d="M3893.19 892.208 3877.35 917.376 3877.35 917.943 3893.19 917.943 3893.19 907.852C3893.19 905.312 3893.23 902.468 3893.32 899.321 3893.4 896.173 3893.49 893.802 3893.6 892.208ZM3894.37 883.049 3900.16 883.049 3900.16 917.943 3901.02 917.943C3902.58 917.943 3903.7 917.828 3904.38 917.599 3905.06 917.369 3905.62 916.964 3906.06 916.383 3906.51 915.802 3906.92 914.849 3907.3 913.526L3910.38 913.526 3909.89 921.874 3900.16 921.874 3900.16 928.521C3900.16 930.331 3900.23 931.655 3900.35 932.492 3900.47 933.33 3900.67 933.992 3900.96 934.478 3901.24 934.965 3901.66 935.37 3902.21 935.694 3902.77 936.018 3903.66 936.342 3904.91 936.667L3904.91 938.653 3888.45 938.653 3888.45 936.667C3890.13 936.234 3891.25 935.755 3891.82 935.228 3892.38 934.701 3892.76 933.951 3892.93 932.979 3893.11 932.006 3893.19 930.52 3893.19 928.521L3893.19 921.874 3870.66 921.874 3870.66 918.835Z" fill-rule="evenodd"/><text fill="#000000" fill-opacity="0" font-family="Arial,Arial_MSFontService,sans-serif" font-size="55.6035" x="3870.66" y="931.702">4</text><path d="M3916.01 880.091C3923.9 882.171 3929.96 886.663 3934.18 893.566 3938.41 900.469 3940.53 908.797 3940.53 918.551 3940.53 928.332 3938.42 936.66 3934.2 943.536 3929.99 950.412 3923.92 954.891 3916.01 956.971L3915.04 953.85C3921.28 951.77 3925.92 947.663 3928.96 941.53 3932 935.397 3933.52 927.602 3933.52 918.146 3933.52 909.014 3932 901.428 3928.98 895.39 3925.95 889.351 3921.26 885.292 3914.91 883.211Z" fill-rule="evenodd"/><text fill="#000000" fill-opacity="0" font-family="Arial,Arial_MSFontService,sans-serif" font-size="76.8804" x="3914.91" y="947.361">)</text></g></svg>